/* XPM */
static char *_237972c9b774289ac81a6082e9f7938[] = {
/* columns rows colors chars-per-pixel */
"64 64 230 2 ",
"   c #1E1703",
".  c #151109",
"X  c #370F0A",
"o  c #2A1603",
"O  c #241B02",
"+  c #3A1509",
"@  c #1A320E",
"#  c #1A2714",
"$  c #1A3816",
"%  c #2D2203",
"&  c #2C2E0A",
"*  c #322603",
"=  c #352903",
"-  c #3B2C04",
";  c #3B2809",
":  c #3D3306",
">  c #232519",
",  c #333116",
"<  c #0B3426",
"1  c #0F3C2B",
"2  c #163627",
"3  c #283727",
"4  c #2E3128",
"5  c #383A26",
"6  c #343938",
"7  c #4B0C02",
"8  c #590E02",
"9  c #49180C",
"0  c #561409",
"q  c #661506",
"w  c #71160E",
"e  c #781609",
"r  c #4B270C",
"t  c #443404",
"y  c #4C3A05",
"u  c #513F05",
"i  c #503D0D",
"p  c #483317",
"a  c #523A17",
"s  c #6C2B09",
"d  c #693E0F",
"f  c #7C2213",
"g  c #483928",
"h  c #732520",
"j  c #643A25",
"k  c #1B4B18",
"l  c #1D561B",
"z  c #1D5D19",
"x  c #354812",
"c  c #1E6719",
"v  c #1F6A1A",
"b  c #216C1D",
"n  c #22761E",
"m  c #1A472B",
"M  c #1E5328",
"N  c #144530",
"B  c #1A4C35",
"V  c #1B5035",
"C  c #1D553A",
"Z  c #1E5A3D",
"A  c #3C4227",
"S  c #2D562B",
"D  c #37493D",
"F  c #215C38",
"G  c #1F6122",
"H  c #236A27",
"J  c #35692F",
"K  c #267727",
"L  c #246839",
"P  c #267737",
"I  c #347B35",
"U  c #464A07",
"Y  c #534005",
"T  c #56440A",
"R  c #4B550B",
"E  c #4C5408",
"W  c #545B0B",
"Q  c #5A461A",
"!  c #485419",
"~  c #68450D",
"^  c #794912",
"/  c #6E5214",
"(  c #5A660B",
")  c #5E6715",
"_  c #64720C",
"`  c #6D7C0D",
"'  c #77631E",
"]  c #667313",
"[  c #6B7615",
"{  c #454928",
"}  c #50542C",
"|  c #684A24",
" . c #774A26",
".. c #745B29",
"X. c #6F5132",
"o. c #51692B",
"O. c #556C34",
"+. c #49763C",
"@. c #577B3A",
"#. c #697727",
"$. c #71732F",
"%. c #3C4641",
"&. c #3C5A43",
"*. c #256844",
"=. c #3E6747",
"-. c #287746",
";. c #2A7C50",
":. c #414747",
">. c #405B45",
",. c #6E5C41",
"<. c #477A46",
"1. c #587848",
"2. c #467851",
"3. c #70744E",
"4. c #8B0E0B",
"5. c #970E0D",
"6. c #8A1E15",
"7. c #9B1C15",
"8. c #A81916",
"9. c #B71A18",
"0. c #882C16",
"q. c #8C3229",
"w. c #B02623",
"e. c #A9342D",
"r. c #C31819",
"t. c #C32423",
"y. c #8D5416",
"u. c #865219",
"i. c #935A1C",
"p. c #AA441D",
"a. c #8B5330",
"s. c #A54430",
"d. c #95642B",
"f. c #9A632A",
"g. c #AB7133",
"h. c #925C4C",
"j. c #A95044",
"k. c #8E6E53",
"l. c #A76A57",
"z. c #AD7052",
"x. c #C2765D",
"c. c #C67D65",
"v. c #D57F64",
"b. c #2F842B",
"n. c #398738",
"m. c #77841A",
"M. c #4F813A",
"N. c #778529",
"B. c #698636",
"V. c #738832",
"C. c #7C9136",
"Z. c #2C8547",
"A. c #368946",
"S. c #379155",
"D. c #468747",
"F. c #4B8C4D",
"G. c #558648",
"H. c #4B904E",
"J. c #59904F",
"K. c #4D8D52",
"L. c #4B8A57",
"P. c #568857",
"I. c #439454",
"U. c #4E9151",
"Y. c #519556",
"T. c #529759",
"R. c #549A5C",
"E. c #709056",
"W. c #568C65",
"Q. c #549366",
"!. c #569D61",
"~. c #589F63",
"^. c #57966E",
"/. c #718E66",
"(. c #59A165",
"). c #5CA56A",
"_. c #5EA96E",
"`. c #5EA575",
"'. c #5FAA71",
"]. c #61A373",
"[. c #62AD74",
"{. c #63AF78",
"}. c #73A47A",
"|. c #66B37C",
" X c #808F2D",
".X c #85942F",
"XX c #849432",
"oX c #8B9A31",
"OX c #879A39",
"+X c #95A739",
"@X c #95A93D",
"#X c #8B8C58",
"$X c #98AD41",
"%X c #9DB343",
"&X c #8EAA5D",
"*X c #A5BC45",
"=X c #A7BC49",
"-X c #ABB155",
";X c #908D71",
":X c #BB826B",
">X c #B48B71",
",X c #CA856C",
"<X c #D58369",
"1X c #C88C76",
"2X c #D3937A",
"3X c #E5977B",
"4X c #AAC14A",
"5X c #B5C958",
"6X c #B4C464",
"7X c #65AE80",
"8X c #66B182",
"9X c #68B680",
"0X c #6BBA85",
"qX c #6DBD8A",
"wX c #6FC08C",
"eX c #70C28F",
"rX c #71C390",
"tX c #AF9F93",
"yX c #B8B2AC",
"uX c #D29A85",
"iX c #E79D81",
"pX c #D7A694",
"aX c #EAA286",
"sX c #F1A689",
"dX c #F3A88B",
"fX c #ECAD96",
"gX c #C5B5AB",
"hX c #DBD6CF",
"jX c #E9E4DA",
"kX c #F6F5EF",
/* pixels */
"rXrXrXrXrXrXrXrXrXrXrXrXrXrXrXrXrXrXrXrXrXrXrXrXrXrXrXrXrXrXrXrXrXrXrXrXrXrXrXrXrXrXrXrXrXrXrXrXrXrXrXrXrXrXrXrXrXrXrXrXrXrXrXrX",
"rXrXrXrXrXrXrXrXrXrXrXrXrXrXrXrXrXrXrXrXeXW.^.rXrX7XrXrXrXrXrXrXrXrXrXrXrXrXrXrXrXrXrXrXrXrXrXrXrXrXrXrXrXrXrXrXrXrXrXrXrXrXrXrX",
"eXeXeXeXeXeXeXeXeXeXeXeXeXeXeXeXeXeXeXeXeXW.{.0X`.Q.rXeXeXeXeXeXeXeXeXeXeXeXeXeXeXeXeXeXeXeXeXeXeXeXeXeXeXeXeXeXeXeXeXeXeXeXeXeX",
"eXeXeXeXeXeXeXeXeXeXeXeXeXeXeXeXeXeXeXeXeX^.qX^.8X0XqXqXeXeXeXeXeXeXeXeXeXeXeXeXeXeXeXeXeXeXeXeXeXeXeXeXeXeXeXeXeXeXeXeXeXeXeXeX",
"wXwXwXwXwXwXwXwXwXwXwXwXwXwXwXwXwXwXqX0X9X}.W.W.W.3.q.j.}.wXwXwXwXwXwXwXwXwXwXwXwXwXwXwXwXwXwXwXwXwXwXwXwXwXwXwXwXwXwXwXwXwXwXwX",
"qXqXqXqXqXqXqXqXqXqXqXqXqXqXqXqXqX0Xk.w.9.w.e.q.e.7.f w.l.qXqXqXqXqXqXqXqXqXqXqXqXqXqXqXqXqXqXqXqXqXqXqXqXqXqXqXqXqXqXqXqXqXqXqX",
"qXqXqXqXqXqXqXqXqXqXqXqXqXqXqXqXqXP.8.8.7.f 8.9.8.r.6.t.k.qXqXqXqXqXqXqXqXqXqXqXqXqXqXqXqXqXqXqXqXqXqXqXqXqXqXqXqXqXqXqXqXqXqXqX",
"qXqXqXqXqXqXqXqXqXqXqXqXqXqXqXqXqXQ.5.6.9.9.6.7.f 6.f e./.qXqXqXqXqXqXqXqXqXqXqXqXqXqXqXqXqXqXqXqXqXqXqXqXqXqXqXqXqXqXqXqXqXqXqX",
"0X0X0X0X0X0X0X0X0X0X0X0X0X0X0X0X0X0X6.5.6.8.f r.8.w.q.q.h.{.0X0X0X0X0X0X0X0X0X0X0X0X0X0X0X0X0X0X0X0X0X0X0X0X0X0X0X0X0X0X0X0X0X0X",
"0X0X0X0X0X0X0X0X0X0X0X0X0X0X0X0X0X9X,.4.e 8.7.8.6.7.7.q 8.a.0X0X0X0X0X0X0X0X0X0X0X0X0X0X0X0X0X0X0X0X0X0X0X0X0X0X0X0X0X0X0X0X0X0X",
"9X9X9X9X9X9X9X9X9X9X9X9X9X9X9X9X9X9X].4.5.5.9.6.8.e + o 4.0.9X9X9X9X9X9X9X9X9X9X9X9X9X9X9X9X9X9X9X9X9X9X9X9X9X9X9X9X9X9X9X9X9X9X",
"9X9X9X9X9X9X9X9X9X9X9X9X9X9X9X9X9X9XX.4.6.q.h q.j.X.z.a.s.[.9X9X9X9X9X9X9X9X9X9X9X9X9X9X9X9X9X9X9X9X9X9X9X9X9X9X9X9X9X9X9X9X9X9X",
"|.|.|.|.|.|.|.|.|.|.|.|.|.|.|.|.|.P.q w e.yXkXhXgXaXpXtXj.^.|.|.|.|.|.|.|.|.|.|.|.|.|.|.|.|.|.|.|.|.|.|.|.|.|.|.|.|.|.|.|.|.|.|.",
"|.|.|.|.|.|.|.|.|.|.|.|.|.|.|.|.|.j e 6.l.kXkXyXkXhXgXkXjXj.{.|.|.|.|.|.|.|.|.|.|.|.|.|.|.|.|.|.|.|.|.|.|.|.|.|.|.|.|.|.|.|.|.|.",
"|.|.|.|.|.|.|.|.|.|.|.|.|.|.|.|.,.e 4.7.k.jXjXhX;X1XgXyXh.q.h.{.|.|.|.|.|.|.|.|.|.|.|.|.|.|.|.|.|.|.|.|.|.|.|.|.|.|.|.|.|.|.|.|.",
"|.|.|.|.|.|.|.|.|.|.|.|.|.|.|.3.e 4.q 9.s.l.:X:XaXdXfXc.5.6.e.3.|.|.|.|.|.|.|.|.|.|.|.|.|.|.|.|.|.|.|.|.|.|.|.|.|.|.|.|.|.|.|.|.",
"{.{.{.{.{.{.{.{.{.{.{.{.{.{.[.w e e 6.9.l.<XdX2Xc.aXdXpXf 5.6.1.[.{.{.{.{.{.{.{.{.{.{.{.{.{.{.{.{.{.{.{.{.{.{.{.{.{.L.'.`.{.{.{.",
"[.[.[.[.[.[.[.[.[.[.[.[.[.[.[.O.X.,.3.,.<X3XiXz.j.c.sXdXtXW.).{.[.[.[.[.[.[.[.[.[.[.[.[.[.[.[.[.[.[.[.[.[.[.[.[.[.W.# D D '.[.[.",
"[.[.[.[.[.[.[.[.[.[.[.[.[.[.[.[.[.[.[./.v.3XsX3X3X,X3XdXfXW.[.[.[.[.[.[.[.[.[.[.[.[.[.[.[.[.[.[.[.[.[.[.[.[.[.'.=.%.:.6 =.).[.[.",
"[.[.[.[.[.[.[.[.[.[.[.[.[.[.[.[.[.[.[./.v.iXdXdXdXfX<XsXdX>X[.[.[.[.[.[.[.[.[.[.[.[.[.[.[.[.[.[.[.[.[.[.[.`.2.D :.6 2.).[.[.[.[.",
"'.'.'.'.'.'.'.'.'.'.'.'.'.'.'.'.[.[.'.#Xv.iXdXdXdXuXiXc.sXuX[.[.'.'.'.'.'.'.'.'.'.'.'.'.'.'.'.'.'.'.'._.2.%.:.3 =.).'.'.'.'.'.'.",
"_._._._._._._._._._._._._._._._._._._.#Xv.3X1X2X1XuXdX;Xk.;X_._._._._._._._._._._._._._._._._._._.).2.%.:.3 2._._._._.'._._._._.",
"_._._._._._._._._._._._._._._._._._._.#Xv.3XdXaX2XdXdX;X_._._._._._._._._._._._._._._._._._._.~.2.%.:.D L._._._._._._._._._._._.",
").).).).).).).).).).).).).).).).).).).3.v.3XdXdXpXuXaX;X)._.).).).).).).).).).).).).).).).Q.=.%.%.D T.).).).).).).).).).).).).).",
").).).).).).).).).).).).).).).).).).).1.v.3XdXdXuX:XsX;X).).).).).).).).).).).).).).).L.&.%.%.=.L.).).).).).).).).).).).).).).).",
"(.(.(.(.(.(.(.(.(.(.(.(.(.(.(.(.).(.R.O.h.,XdX2X1XsX1X;X~.(.(.(.(.(.(.(.(.(.(.(.(.L.&.:.%.2.~.(.(.(.(.(.(.(.(.(.(.(.(.(.(.(.(.(.",
"(.(.(.(.(.(.(.(.(.(.(.(.(.(.(.(.(.(.G.oXoX$.sXdXdXk.%X5XE.(.(.(.(.(.(.(.(.(.(.L.D :.D 2.(.(.(.(.(.(.(.(.(.(.(.(.(.(.(.(.(.(.(.(.",
"(.(.(.(.(.(.(.(.(.(.(.(.(.(.(.(.(.L.x N..XoX>XdXaX$XOX%XV.L.(.(.(.(.(.(.(.L.D %.5 p !.(.(.(.(.(.(.(.(.(.(.(.(.(.(.(.(.(.(.(.(.(.",
"~.~.~.~.~.~.~.~.~.~.~.~.~.~.~.~.T.#.#.U W #.$X1X-X*X) ` m.&X!.~.~.~.~.L.&.%.5  .i.O.~.~.~.~.~.~.~.~.~.~.~.~.~.~.~.~.~.~.~.~.~.~.",
"!.!.!.!.!.!.!.!.!.!.!.!.!.!.!.J.C.+XoXW ` [ =XXX*X*X_ ` m.4X&XR.!.L.&.%.g | f.a...T.!.!.!.!.!.!.!.!.!.!.!.!.!.!.!.!.!.!.!.!.!.!.",
"!.!.!.!.!.!.!.!.!.!.!.!.!.Y.B.+X*XoXN.( ` [ 4XXXoX@X_ _ ) OX*XE.>.6 g  .f.2X .:XD.!.!.!.!.!.!.!.!.!.!.!.!.!.!.!.!.!.!.!.!.!.!.!.",
"R.R.R.R.R.R.R.R.R.R.R.F.B.XX@X$XG.XXW ( _ [ 4X$X=XXX( [ ( ! { 6 g d.g.u.l.sXl.:XL.R.R.R.R.R.R.R.R.R.R.R.R.R.R.R.R.R.R.R.R.R.R.R.",
"R.R.R.R.R.R.R.R.R.D.@.C.@X*X$XJ.G.) E ( ( _ *X$X=X#.x ( { 6 4 a.g.i.u. .,X<Xh.P.R.R.R.R.R.R.R.R.R.R.R.R.R.R.R.R.R.R.R.R.R.R.R.R.",
"T.T.T.T.T.T.T.<.B. X@X*X4XC.F.U.x E ( ( ( _ %XXXoX#.{ 6 4 a.g.i.^ ' X.z.h.k.D.T.T.T.T.R.T.T.T.T.T.T.T.T.T.T.T.T.T.T.T.T.T.T.T.T.",
"T.T.T.T.T.F.B..XoX@XOXB.G.Y.T.+.E E W ( ( ` +X$.} 4 , a.f.i.u.{ #. XN.oXOX-XK.T.T.T.T.T.T.T.T.T.T.T.T.T.T.T.T.T.T.T.T.T.T.T.T.T.",
"Y.Y.Y.Y.Y.G.oXoXoXoXC.O.K.Y.Y.o.E E E ( ` R 4 > p u.i.y.^ T ] B.+. XoX%X=X4X&XY.Y.Y.Y.Y.Y.Y.Y.Y.Y.Y.Y.Y.Y.Y.Y.Y.Y.Y.Y.Y.Y.Y.Y.Y.",
"Y.Y.Y.Y.Y.Y.@.oX@X*X%XJ.Y.Y.Y.! E E E ( > > p u.y.u.~ T ) [ [ #.K.V.oX@X=X=X&XY.Y.Y.Y.Y.Y.Y.Y.Y.Y.Y.Y.Y.Y.Y.Y.Y.Y.Y.Y.Y.Y.Y.Y.Y.",
"U.U.U.U.U.U.K.V.oX=X=XE.U.U.F.U U _ ` _ a u.y.u.~ ; ( [ m.m.] [ +.<.XX+X=X%XG.U.U.U.U.U.U.U.U.U.U.U.U.U.U.U.U.U.U.U.U.U.U.U.U.U.",
"U.U.U.U.U.U.U.F.C.@X=X&XU.U.<.E U U E W y.y.^ ' o.# _ W ` ` ` _ B.U.+.N.@X<.U.U.U.U.U.U.U.U.U.U.U.U.U.U.U.U.U.U.U.U.U.U.U.U.U.U.",
"U.U.U.U.U.U.U.U.G.XX*X6XF.U.+.E x ..3.~ y.^ { C.o.! _ U ` ` ` _ m.D.U.D.D.K.U.U.U.U.U.U.U.U.U.U.U.U.U.U.U.U.U.U.U.U.U.U.U.U.U.U.",
"U.U.U.U.U.U.U.U.U.@.oX4XE.K.J ..l.iXfXu.y.~ OXo.OXXX( E _ ` _ W m.B.U.U.U.U.U.U.U.U.U.U.U.U.U.U.U.U.U.U.U.U.U.U.U.U.U.U.U.U.U.U.",
"U.U.U.U.U.U.U.U.U.U.M.+X=X3.z.,XaX2XsXz.y.^ d.$.#X3.x _ ( ( _ ` ` o.K.U.U.U.U.U.U.U.U.U.U.U.U.U.U.U.U.U.U.U.U.U.U.U.U.U.U.U.U.U.",
"U.U.U.U.U.U.U.U.U.U.U.@.#. .a.3X3XpXx...d T 7 q 0.u.: _ ` _ E U T } <.1.K.U.U.U.U.U.U.U.U.U.U.U.U.U.U.U.U.U.U.U.U.U.U.U.U.U.U.U.",
"U.U.U.U.U.U.U.U.U.U.+...f.i.u.l.,X:X: U W U 8 8 8 e 7 : s s 0.p.p.p.p.s.1.U.U.U.U.U.U.U.U.U.U.U.U.U.U.U.U.U.U.U.U.U.U.U.U.U.U.U.",
"U.U.U.U.U.U.U.U.+...g.f.y.y.y.j j + % : o 7 q 8 7 q 8 8 q q 8 e w e e 6.O.U.U.U.U.U.U.U.U.U.U.U.U.U.U.U.U.U.U.U.U.U.U.U.U.U.U.U.",
"U.U.U.U.U.F.+.$.g.f.y.y.y.y.d + 9 + * u Y y = + 0 q q 8 q e q e e e e f } U.U.U.U.U.U.U.U.U.U.U.U.U.U.U.U.U.U.U.U.U.U.U.U.U.U.U.",
"U.U.U.U.@...z.g.y.y.y.y.y.d X + 0 * * y Y Y Y Y y u t - r 0 s s s s s Q <.U.U.U.U.U.U.U.U.U.U.U.U.U.U.U.U.U.U.U.U.U.U.U.U.U.U.U.",
"U.U.D...:Xg.i.y.y.y.y.y.d o + X 0 * * * t y Y Y y Y Y Y u y y Y Y Y Y / O.U.U.U.U.U.U.U.U.U.U.U.U.U.U.U.U.U.U.U.U.U.U.U.U.U.U.U.",
"U.U.F.Q i.y.y.y.y.y.y.~ *   9 + 9 * * % O O * - : : - = % t u Y Y Y Y Y ' U.U.U.U.U.U.U.U.U.U.U.U.U.U.U.U.U.U.U.U.U.U.U.U.U.U.U.",
"U.U.U.<.d u.y.y.y.y./ , * % o 0 9 * * * * O O . . O % = - - u Y Y Y Y Y ' D.n.H.U.U.U.U.H.U.U.U.U.U.U.U.U.U.U.U.U.U.U.U.U.U.U.U.",
"U.U.U.U.{ ^ y.y.y.^ +.x * *   + * * * % O O O       % = t u u Y Y Y Y Y ' D.b.U.U.U.U.H.n.U.U.U.U.U.U.U.U.U.U.U.U.U.U.U.U.U.U.U.",
"U.U.U.F.G ~ y.y.^ +.b.H * * * * * * - t t - - *   * - u u u Y Y Y Y Y Y } b.n.U.U.U.U.D.n.U.U.U.U.U.U.U.U.U.U.U.U.U.U.U.U.H.U.U.",
"U.F.D.I H a ^ Q +.D.n D., * * * * * t Y Y Y t t O - Y Y Y Y Y Y Y Y Y Q M.n D.U.U.U.U.I b.I.U.U.U.U.U.U.U.U.U.U.U.U.U.U.U.n.F.n.",
"U.I D.b K l J S.U.b.K U.<.& * * * * - Y Y Y Y y O - Y Y Y Y Y Y Y u ! D.I K D.U.U.U.F.K n.S.I.U.U.U.U.U.U.U.U.U.U.U.U.U.D.K b.b.",
"D.K I b I K A.S.n.K n.U.n.c x * * * = u Y Y Y u O = u Y Y Y Y Y T x Z.n.K n n.F.U.I.b.b n.A.S.U.U.U.U.U.U.U.U.U.U.U.U.D.K c K n.",
"H H H b P K I Z.K Z.F.D.H c S & * * * t Y Y Y Y O * y Y Y Y Y T / / S v Z.n n.I Z.Z.n b b K Z.U.U.I.U.U.S.I.U.U.D.A.I K P c Z.D.",
"c H P H H L P -.v P K n c $ * * * * : Y u Y Y Y % * = y Y u y y T ! *.P -.v b b P ;.H c c H ;.I I -.I I D.S.I.n.b P H b P H -.b ",
"z H -.H L *.L *.H L z z z z @ * % O O % t Y Y Y = * * * t - - u Y ' J *.L z z G G *.L z z z -.L H L H z z L ;.P H G P G -.-.H z ",
"M F L M L *.*.*.F F k k k k % * * = = = t Y Y Y = * * * y Y Y Y Y ~ | F l k k M M F F k k k L L F L F k k k L *.*.M L *.*.*.k l ",
"C C C m Z Z Z Z C m k m B   O O O t u Y Y Y Y Y - * * = Y Y Y Y Y u ' 3 @ @ $ $ B C C M $ $ M Z Z Z m $ $ $ C C C Z Z Z C V m C ",
"B B B V V B B B B V N # .   o r j | j r t y Y Y = * * * t Y y - o o o o + p j > N B B B V m B B V B B $ $ m B B B B B B B B B B ",
"N N N N N N N N N 3 , a Q Q a a a p p a p ; i u - * * * : Q Q Q Q | | | | | | X.X.m N N N N N N N N N N N N N N N N N N N N N N ",
"1 1 1 1 1 1 1 1 1 $ , A A A A { { { { { { { 5 # # # # > 5 3 5 A { A { { { A 5 A A 2 1 1 1 1 1 1 1 1 1 1 1 1 1 1 1 1 1 1 1 1 1 1 ",
"< < < < < < < < < < < < < < < < < < < < < < < < < < < < < < < < < < < < < < < < < < < < < < < < < < < < < < < < < < < < < < < < "
};
