/* XPM */
static char *a11592ca7f6449218f861b1113cdd673[] = {
/* columns rows colors chars-per-pixel */
"64 64 214 2 ",
"   c #220F00",
".  c #261100",
"X  c #2B1400",
"o  c #29180C",
"O  c #321700",
"+  c #361901",
"@  c #3B1B00",
"#  c #331E0C",
"$  c #3A1F09",
"%  c #2A1F14",
"&  c #321F10",
"*  c #182C15",
"=  c #1A351C",
"-  c #36200E",
";  c #3C210A",
":  c #2B2117",
">  c #2D241B",
",  c #332214",
"<  c #3A2512",
"1  c #33251B",
"2  c #34291E",
"3  c #3D2C1C",
"4  c #343918",
"5  c #0B3426",
"6  c #0F3C2B",
"7  c #153D2A",
"8  c #1B3C28",
"9  c #2D2622",
"0  c #312722",
"q  c #342C24",
"w  c #3B2F22",
"e  c #332E2B",
"r  c #283C28",
"t  c #373127",
"y  c #3B3126",
"u  c #36322D",
"i  c #3B342C",
"p  c #2E3930",
"a  c #373330",
"s  c #3A3531",
"d  c #3A3B35",
"f  c #3D3A35",
"g  c #421E00",
"h  c #452001",
"j  c #4D2301",
"k  c #46260B",
"l  c #542600",
"z  c #562800",
"x  c #542A06",
"c  c #5B2B00",
"v  c #5E3407",
"b  c #5D3409",
"n  c #452C18",
"m  c #4E341D",
"M  c #583513",
"N  c #612E00",
"B  c #633505",
"V  c #6C3501",
"C  c #653807",
"Z  c #6C3B06",
"A  c #623708",
"S  c #653908",
"D  c #693B08",
"F  c #703700",
"G  c #723E04",
"H  c #783C00",
"J  c #443325",
"K  c #4E3621",
"L  c #41352A",
"P  c #483928",
"I  c #433D35",
"U  c #493F36",
"Y  c #423E39",
"T  c #1C4A1D",
"R  c #1D581C",
"E  c #1F671B",
"W  c #226B1E",
"Q  c #14422E",
"!  c #1B412C",
"~  c #1C4B28",
"^  c #1E5323",
"/  c #144530",
"(  c #1B4833",
")  c #1A4C36",
"_  c #1C5135",
"`  c #1D543A",
"'  c #1E593D",
"]  c #27452C",
"[  c #36442A",
"{  c #2D592E",
"}  c #234630",
"|  c #234C32",
" . c #3A4636",
".. c #236B28",
"X. c #287628",
"o. c #25693B",
"O. c #326F3B",
"+. c #297936",
"@. c #347934",
"#. c #734106",
"$. c #73410A",
"%. c #7A4408",
"&. c #694116",
"*. c #734515",
"=. c #5A422C",
"-. c #4B4036",
";. c #454831",
":. c #474638",
">. c #44423C",
",. c #4B443C",
"<. c #544231",
"1. c #51463C",
"2. c #53493F",
"3. c #69492A",
"4. c #6E543C",
"5. c #246643",
"6. c #3C6041",
"7. c #267541",
"8. c #4A4641",
"9. c #464B42",
"0. c #4D4943",
"q. c #534B43",
"w. c #594E44",
"e. c #524F49",
"r. c #4D5B45",
"t. c #5B5146",
"y. c #55534B",
"u. c #5B554D",
"i. c #545B49",
"p. c #5C5C4A",
"a. c #5A5750",
"s. c #5D5A53",
"d. c #6C5545",
"f. c #6A5847",
"g. c #61564C",
"h. c #65594E",
"j. c #615D56",
"k. c #695E53",
"l. c #635E59",
"z. c #4A674A",
"x. c #52624B",
"c. c #58634C",
"v. c #4B7849",
"b. c #52764D",
"n. c #4F6D50",
"m. c #596754",
"M. c #546B54",
"N. c #567756",
"B. c #6C6156",
"V. c #65625A",
"C. c #6A655D",
"Z. c #696B5D",
"A. c #706B55",
"S. c #73665B",
"D. c #76695E",
"F. c #7B6959",
"G. c #5A5765",
"H. c #535C7B",
"J. c #5E7762",
"K. c #696A60",
"L. c #6D6A62",
"P. c #716D65",
"I. c #7B6E62",
"U. c #687565",
"Y. c #7A7666",
"T. c #854A0A",
"R. c #864A0A",
"E. c #84786A",
"W. c #8A7E72",
"Q. c #2F822B",
"!. c #398838",
"~. c #278B44",
"^. c #48884A",
"/. c #52804F",
"(. c #4B904E",
"). c #4E8E51",
"_. c #548453",
"`. c #568B59",
"'. c #4E9151",
"]. c #519556",
"[. c #54945A",
"{. c #53985A",
"}. c #5B8562",
"|. c #5A9765",
" X c #658769",
".X c #679470",
"XX c #669C75",
"oX c #5AA166",
"OX c #5CA56A",
"+X c #5EA96E",
"@X c #5FAA71",
"#X c #61A16F",
"$X c #63A275",
"%X c #62AD74",
"&X c #6BA77E",
"*X c #63AF78",
"=X c #66B37C",
"-X c #8F8276",
";X c #948678",
":X c #576587",
">X c #65728B",
",X c #72839E",
"<X c #68B680",
"1X c #6DB485",
"2X c #69B882",
"3X c #6BBA85",
"4X c #6CBC87",
"5X c #6EBC8A",
"6X c #6EBE8A",
"7X c #70BB8B",
"8X c #6FC08C",
"9X c #71C28F",
"0X c #71C390",
"qX c #9D9185",
/* pixels */
"0X0X0X0X0X0X0X0X0X0X0X0X0X0X0X0X0X0X0X0X0X0X0X0X0X0X0X0X0X0X0X0X0X0X0X0X0X0X0X0X0X0X0X0X0X0X0X0X0X0X0X0X0X0X0X0X0X0X0X0X0X0X0X0X",
"0X0X0X0X0X0X0X0X0X0X0X0X0X0X0X0X0X0X0X0X0X0X0X0X0X0X0X0X0X0X0X0X0X0X0X0X0X0X0X0X0X0X0X0X0X0X0X0X0X0X0X0X0X0X0X0X0X0X0X0X0X0X0X0X",
"9X9X9X9X9X9X9X9X9X9X9X9X9X9X9X9X9X9X9X9X9X9X9X0X9X&XJ.m.m.m. X}.N.M.r.M.K.C.U. X&X7X9X9X9X9X9X9X9X9X9X9X9X9X9X9X9X9X9X9X9X9X9X9X",
"9X9X9X9X9X9X9X9X9X9X9X9X9X9X9X9X9X9X9X9X9X9X6X.XJ.0.0.0.0.0.e.I ,.0.0.i i s.a.C.V.Z..X6X9X9X9X9X9X9X9X9X9X9X9X9X9X9X9X9X9X9X9X9X",
"8X8X8X8X8X8X8X8X8X8X8X8X6X8X8X8X8X8X6X6X6XXXU.q.i 0.0.0.0.0.y.Y ,.0.0.0.>.q s e.a.0.0.M.6X1X1X6X6X8X8X8X8X8X8X8X8X8X8X8X8X8X8X8X",
"6X6X6X6X6X6X6X6X6X6X6X6X6X6X6X6X6X1X XN.K.j.l.j.y.f 0.0.0.0.y.s ,.0.0.0.0.e.f : q 0 : I K.C.j.Z. X1X6X6X6X6X6X6X6X6X6X6X6X6X6X6X",
"6X6X6X6X6X6X6X6X6X6X6X6X6X6X6X6X6XN.Y s s.s.a.V.8.u 0.0.0.0.,.e 0.,.0.0.y.f s > >.u > s.s.s.s.a.j.U.6X6X6X6X6X6X6X6X6X6X6X6X6X6X",
"4X4X4X4X4X4X4X4X4X4X4X4X4X4X4X*X}.,.I 0 I s.V.l.f : q s I f e q y e s Y Y s u a a u i j.s.s.a.j.j.u.XX4X4X4X4X4X4X4X4X4X4X4X4X4X",
"3X3X3X3X3X3X3X3X3X3X3X3X3X=X|.:.j.j.j.s.i s 8.9.s + + # # - # + + + + # , , - 1 u q e.j.s.s.s.y.j.l.i.$X$X3X3X3X3X3X3X3X3X3X3X3X",
"3X3X3X3X3X3X3X3X3X3X3X3X2Xi.i u.j.s.y.s.j.s a s 0 + + + O X . . X X . . . X O + + 3 I e.j.s.y.y.V.l.f I >.$X2X3X3X3X3X3X3X3X3X3X",
"2X2X2X2X2X2X2X2X2X2X2X<XXX,.q j.u.s.a.y.j.>.1 0 # O X . . @ j l z z z j j g X . X O $ w >.>.0.j.s.>.q f f z.<X2X2X2X2X2X2X2X2X2X",
"<X<X<X<X=X=X<X<X<X<X<X$X9.t : y.l.s.j.s.l.I + + X . + j j c N z c z z l B N N l + . X + ; w I >.>.Y e q q :.=X<X<X<X<X<X<X<X<X<X",
"=X=X=X=X=X=X=X=X=X=X$X9.f f u e 0.j.l.j.0.3 O . + z z z j c N z z z c l N N N c c z X . X + + w s s 8.e.0.y N.=X=X=X=X=X=X=X=X=X",
"=X=X=X=X=X=X=X=X=X=XM.f f f d q a f >.Y 3 X X j c c z z j c N z z z c l N N c c z c l @   . + + # 0.0.0.0.>.t N.=X=X=X=X=X=X=X=X",
"=X=X=X=X=X=X=X=X=X=XN.u u u e > 0.e , # . X z c z c z z l c N z z z c z c N c c z c z z +   . + + -.0.0.0.Y s f |.=X=X=X=X=X=X=X",
"=X=X=X=X=X=X=X=X=XXXZ.s.y.I > 2 f 1 + . . B z c z c z z l c N c c z c z c V N c z c z z N h   X + < 0.0.0.f s f z.=X=X=X=X=X=X=X",
"*X*X*X*X*X*X*X*X$XV.s.l.l.a.e.# # + X X j V c c c c z z l c N z c z z z z V c c z c z z N c h   O + w 8.e.f u u z.*X*X*X*X*X*X*X",
"%X%X%X%X%X%X%X%X Xj.a.s.a.0.y.0 + X   j j V c c c c z z l c N z c z z z z V c c z c z z N c N + . + + 1 i 9 q I r.%X%X%X%X%X%X%X",
"%X%X%X%X%X%X%X%X Xj.j.s.j.e.>.e + . @ z j V c z c c z z l c N z c z z z z V N c z N z z N c c z X X + + 2 :.s.V.C.N.%X%X%X%X%X%X",
"%X%X%X%X%X%X%X%X|.9.a.l.j.9.Y e O X l z j V c z c c z z l c N z c z z z z V N c z N z z N c c c j   + + n j.y.l.C.M.%X%X%X%X%X%X",
"@X@X@X@X@X@X@X#Xx.q 0 i f y 0 1   j z z j V c z c c z z l c N c N z z z l V N c z c z z N c c c c X X + J s.j.V.a.z.+X@X@X@X@X@X",
"+X+X+X+X+X+X#XK.l.s.0 :.i # + O X N z z j V c z c c z z z c N z N z z z l F N c z c z z c c c c c j   + J j.l.,.>.i N.+X+X+X+X+X",
"+X+X+X+X+X+XK.j.a.a.q ,.Y 0 + . g N z z j V c z c c z z z c N z N z z z l V c c z c z z z c c N c c X X n a.u.>.s e.V.}.+X+X+X+X",
"OXOXOXOXOX|.j.s.s.9.0 0.s q +   z N l z j V N z c c z z z c N z c z z z l V c z z c z z z c c c c z @ . $ a.a.>.a s.a.n.OXOXOXOX",
"OXOXOXOXOXOXV.s.0.u q 8.e 1 X O c N l z j V N z z c z z z c N z c z z z j F c z z c z z z c c N z c j   + 2.u.>.e j.u.n.OXOXOXOX",
"OXOXOXOXOXOXN.I u w q a q X   g z N l z j V N z z c z z z z c z c z z z j F c z z c z l z c z N z c l X O < >.f q f 9.`.OXOXOXOX",
"oXoXoXoXoX|.c.0.>.> f f #   . z c N z z l V B z c N z z z c N z z z z z l F c z z c z l z N z N z c z + X + i >.0.q :.oXoXoXoXoX",
"oX|.`.`.`.M.0.0.s I j.a.& o M F V V V F F H H H H H H H H H H H H H H H H H H H H H H H H H H H H F F j . + -.8.s t x.oXoXoXoXoX",
"`.Y.W.E. Xx.0.8.0 j.j.s., o L k z k n z z z z z z z z z z z z z z z z z z z z z z z z z z z z z z z z l   + 0 q e.j.s.[.[.[.|.|.",
"p.E.p.b.[.x.0.s q j.s.s.2 o L , x k < k x z z z z z z z z z z z z z z z z z z z z z z z z z z z z z z z   + , ,.a.a.y.Z.E.-XU.`.",
"g.t.b._._.n.0.u q j.u.s.q o y # # # 1 , 3 j z z c c c c c z z z c c c c c z z z z c c z z z z c z z z z . + , 0.j.s.0.c.m.c.S.c.",
"i.-.r.E.;X .i q : u.j.u.u o L - z k - j l z z c c N N N N B B B B B N N N B B B N N c N N B N c z z z z . + L i ,.,.>.b.Y.b.2.t.",
"_.j.u.k.-Xq.: : : 2 >.>.e o y j z ; &.T.T.T.T.T.T.T.T.T.T.T.T.T.T.T.T.T.T.T.T.T.%.%.%.%.%.*.#.#.z z z l . + q.y.,.0 i B.qXp.,.e.",
"{.`.N.p.B.S.0 : : > u f q   x z z l G k.f.G G G G G G #.#.#.#.#.#.#.#.#.#.#.G G G #.#.#.3.>Xk.#.B @ + O . + 2.u.,.% -.I.k.-.B.N.",
"{.{.{.b.B.B.U : : u e.y.u   z N c N *.>X:X&.#.#.#.#.G G G G Z G G G G G #.#.#.#.#.#.#.#.4.H.G.G #.j j g . + 3 u.-.i k.B.p.z._.{.",
"].].].:.k.I.1.-.> > y.u.i   z N c c #.t.g.#.#.G G G G G G G G #.#.#.#.#.#.#.#.#.#.#.#.#.#.3.*.G #.z l j . K S.B.q.-.B.h._.].].].",
"].]._.q.w.k.-.t.h.% >.a.J   z N c c #.#.#.#.#.#.#.#.#.#.#.#.#.#.#.#.#.#.G G G G G G G #.#.#.#.#.$.3.4.d.-.g.q.g.h.U w.-.v.].].].",
"].'.`.u.k.,.2.-.S.q.> ,.< . l N c c #.#.#.G G #.G G G G G G G #.#.#.#.#.#.#.#.#.#.#.#.#.#.#.#.#.d.E.D.S.D.u.B.g.1.q.h.q./.'.'.'.",
"'.'.'.p.-Xc.2.-.,.D.q : # . l N c z D C S A A A A A v v v v v v v v v v v v v v v v v v v v v A =.t.B.2.2.q.-.t.D.W.B.p.'.'.'.'.",
"'.'.'.b.k.;Xt.u.,.w.-.% & . l N c z A A A A A A v A A A A A A A A A C C C C C C C C C A A A A A 3.t.g.2.2.g.B.D.S.k.I.A.'.'.'.'.",
"'.'.'.'.x.B.D.u.g.S.E.E.2.e l N z z A A A A A A A A A A A A A A C C C C C C C C C C C C C C A A 4.,.h.w.2.w.t.h.I.W.S.u._.'.'.'.",
"'.'.'.'.).i.g.h.q.w.t.k.E.I.x c z c A A A A A C C C C C C C C C C C C C C C C C C C C A A A A A 3.U -.2.1.q.w.t.w.,.-.s.N.'.'.'.",
"'.'.'.'.'._.q.2.w.U w.u.t.D.f.F.F.M A A C A A A A A v v v v v A v v v v v v v v v b b b b b b b M d.I y.U J J >.I q u.s.b.'.'.'.",
"'.'.'.'.'._.h.q.2.1.,.q.q.w.F.t.I.<.A &.3.C S S S S A A A A S S S D D D D D Z Z Z Z Z Z Z 3.#.#.A K m n X + J ,.q I V.e.v.'.'.'.",
"'.'.'.'.'._.V.y.-.-.g.0.w.h.t.g.k.I.&.>X>X&.#.#.#.#.#.#.#.#.#.#.#.#.#.#.#.G #.#.#.#.#.#.4.,Xl.G Z c z j . + -.e.,.> I i v.'.'.'.",
"'.'.'.'.'.).y.>.y U q.U t.;X,.2.=.<.D G.G.*.#.#.#.#.#.#.#.#.#.#.#.#.#.#.#.#.#.#.#.#.#.#.3.H.t.#.G c z j . + y f e 2 u I ^.'.'.'.",
"'.'.'.'.'.'.z.2 0 I U U -.E.I.q.=.B Z $.*.$.#.#.#.#.#.#.#.#.#.#.#.#.#.#.#.#.#.#.#.#.#.#.#.*.$.#.#.B c j . + w u i q 0.0.^.'.'.'.",
"'.'.'.'.'.'.J.s.u 1 I -.U ,.h.h.K x K G *.*.#.#.#.#.#.#.#.#.#.#.#.#.#.#.#.#.#.#.#.#.#.#.#.$.3.#.G V V N   + J j.j.s >.8.^.'.'.'.",
"'.'.'.'.'.'.V.j.j.I C.j.0.L 2.q.<.x < b v B B B B B V V V V V V V D D Z D Z V V V V V B B B B B V z z l . + 1.C.j.9.0 u ^.'.'.'.",
"'.'.'.'.'.).V.s.e.j.j.s.y.> L L 1.2 , w w k z z z z z z z z z z z z z z z z z z z z z z z z z c c c c z . + j.V.s.y.i 2 ^.'.'.'.",
"'.'.'.'.(.).C.V.8.u.a.y.e.9 L , k j # ; h z z z z c c c c c c c c c c c c c c c c c c c c c c c c c c z . + j.L.s.s.I I (.'.'.'.",
"'.'.'.(.X.^.y.,.0 w s.V.8.9 L < c k J z c c z z c c N N N N N N N N c c c c c c c c N N c c c c c c c z . + U e.j.l.Y f ).(.'.(.",
"'.(.^.@...!.{ y.u.>.a Y f , # l z j + h h z l j g @ @ + + j l j j h @ + + g z l j g g @ + j j h g h @ + . + 1 a s i 2 :._.!.(.!.",
"'.@.^.W X.X.m.j.l.j.u.8.e e X z N z z z c V N N z z j h g z c c N z z z j h N c c z z l j N c z z c z g . + , >.,.0.u.s.s.X.Q.Q.",
"^.X.@.W @.O.j.y.s.a.y.a.0.a o z N z z z z B N N z z z l z z c c N z z z z j N N z z z l j c c z z c z g X + U j.u.a.s.V.y.W X.!.",
"......W +.O.j.s.a.s.y.s.e.d o z N z z z z N c N z z z l z z c c N z z z z j N c z z z z l c c z z c z h X + u.j.V.C.K.l.>.E ~.^.",
"E ..+.....o.s.j.j.s.s.j.8.d o x c z l z z c c c l z z j l z z z c z l l l ; c z z z l l j z z z l z j h o - V.C.V.s.e.>.[ ..7.W ",
"R ..7...o.5.6.s.j.j.j.e.>.,.L.L.C.V.V.V.V.V.V.V.V.j.j.s.u.u.a.s.s.s.j.j.j.j.s.a.u.u.u.a.s.s.s.j.j.j.s.j.V.C.>. .>.>.>.r | 7...R ",
"^ _ o.^ o.5.5.|  . .r r  .V.C.L.P.L.L.L.L.L.L.P.P.L.L.C.V.V.V.V.C.L.L.P.P.P.P.P.P.P.P.P.L.L.L.L.L.L.L.C.V.j.a.r 8 = ! _ 5.5.T T ",
"` ` ' ~ ' ' ' ' ' ~ T ~  .;.P ;.;.;.[ 4 4 4 [ [ [ p d f >.>.>.>.Y Y Y Y Y >.>.>.>.>.>.>.>.>.:.>. . .p u d Y >.8 = _ ` ` ' _ ~ ` ",
") ) ) ` ` ) ) ) ) _ ) ) | | | | | ` _ = * * 8 ( ( ! ! 8 ! ] ] ] } | } } } ] ] r r 8 ( } ] ] | ) ` ( ! * * 8 ( ! 8 ( ) ) ) ) ) ) ",
"/ / / / / / / / / / / / / / / / / / / Q 7 7 7 7 7 7 / / / / / / / Q 7 Q Q 7 7 7 7 7 Q / / / / / / / Q Q Q / / Q Q / / / / / / / ",
"6 6 6 6 6 6 6 6 6 6 6 6 6 6 6 6 6 6 6 6 6 6 6 6 6 6 6 6 6 6 6 6 6 6 6 6 6 6 6 6 6 6 6 6 6 6 6 6 6 6 6 6 6 6 6 6 6 6 7 6 6 6 6 6 ",
"5 5 5 5 5 5 5 5 5 5 5 5 5 5 5 5 5 5 5 5 5 5 5 5 5 5 5 5 5 5 5 5 5 5 5 5 5 5 5 5 5 5 5 5 5 5 5 5 5 5 5 5 5 5 5 5 5 5 5 5 5 5 5 5 "
};
