/* XPM */
static char *_d3422529f524f64bf22b71096b0d6e7[] = {
/* columns rows colors chars-per-pixel */
"64 64 238 2 ",
"   c #1A2916",
".  c #1A3C14",
"X  c #193819",
"o  c #22231B",
"O  c #25371D",
"+  c #0B3426",
"@  c #0F3C2B",
"#  c #183E26",
"$  c #35312A",
"%  c #443B2B",
"&  c #463635",
"*  c #483737",
"=  c #4A3C38",
"-  c #613D25",
";  c #1B4C16",
":  c #1C4C1B",
">  c #1B5518",
",  c #1D5C19",
"<  c #22591C",
"1  c #1F681A",
"2  c #22691E",
"3  c #22751C",
"4  c #19462A",
"5  c #1D5329",
"6  c #144530",
"7  c #1A4C36",
"8  c #194E38",
"9  c #1C5235",
"0  c #1D543A",
"q  c #1E5A3D",
"w  c #2F4E2B",
"e  c #225B37",
"r  c #1F6122",
"t  c #236D24",
"y  c #246829",
"u  c #33642D",
"i  c #267626",
"p  c #246739",
"a  c #386A39",
"s  c #277737",
"d  c #337935",
"f  c #3D713F",
"g  c #49483B",
"h  c #554738",
"j  c #704639",
"k  c #4C6639",
"l  c #1E5D40",
"z  c #235E41",
"x  c #256844",
"c  c #386643",
"v  c #287748",
"b  c #3E7541",
"n  c #564342",
"m  c #5B4545",
"M  c #594A46",
"N  c #5E4949",
"B  c #545749",
"V  c #644D4C",
"C  c #684F4F",
"Z  c #64544E",
"A  c #70504B",
"S  c #6B5252",
"D  c #655B53",
"F  c #4A6B45",
"G  c #457747",
"H  c #587654",
"J  c #6C6B4B",
"K  c #656758",
"L  c #796A5B",
"P  c #65775B",
"I  c #727564",
"U  c #874D3A",
"Y  c #8F4B48",
"T  c #B14C4C",
"R  c #8A6E56",
"E  c #B16954",
"W  c #877764",
"Q  c #917A6D",
"!  c #AF7A68",
"~  c #D05A59",
"^  c #E95857",
"/  c #F55756",
"(  c #E1645C",
")  c #CD6D67",
"_  c #2B8225",
"`  c #31842D",
"'  c #3B883A",
"]  c #328B4B",
"[  c #468847",
"{  c #4E8B4F",
"}  c #4B8C4D",
"|  c #4B904D",
" . c #5B8957",
".. c #469654",
"X. c #4E9151",
"o. c #519556",
"O. c #539759",
"+. c #5D945A",
"@. c #54995C",
"#. c #6B8552",
"$. c #6B8C59",
"%. c #68925C",
"&. c #769457",
"*. c #76955B",
"=. c #5B9660",
"-. c #579E61",
";. c #589F63",
":. c #6A8764",
">. c #698566",
",. c #6C8C6B",
"<. c #788969",
"1. c #649A66",
"2. c #6E906E",
"3. c #739368",
"4. c #7C9574",
"5. c #5AA166",
"6. c #5CA56A",
"7. c #5EA96E",
"8. c #5FAA71",
"9. c #73A76F",
"0. c #65A771",
"q. c #62AD74",
"w. c #63AF78",
"e. c #66B37C",
"r. c #6BB37E",
"t. c #86905C",
"y. c #B38B59",
"u. c #8C8675",
"i. c #918F72",
"p. c #94887A",
"a. c #889474",
"s. c #AB8D68",
"d. c #AD8D6C",
"f. c #B89667",
"g. c #AB9A7A",
"h. c #B79974",
"j. c #8DA676",
"k. c #A6A879",
"l. c #B3A979",
"z. c #CE8F77",
"x. c #EA9A7C",
"c. c #CAA779",
"v. c #D0AC77",
"b. c #F2AD7C",
"n. c #68B680",
"m. c #6BBA85",
"M. c #6EBD8A",
"N. c #72BA89",
"B. c #6FC08C",
"V. c #71C28F",
"C. c #71C390",
"Z. c #7CC396",
"A. c #958D81",
"S. c #9D9381",
"D. c #A19485",
"F. c #A4988A",
"G. c #A5998B",
"H. c #AB9C92",
"J. c #8DAC8B",
"K. c #BCB583",
"L. c #ACA193",
"P. c #A4AC97",
"I. c #AFB096",
"U. c #B2B6A2",
"Y. c #B6B9A9",
"T. c #DD8685",
"R. c #D38D89",
"E. c #DE8C8C",
"W. c #D29690",
"Q. c #E28E87",
"!. c #E59586",
"~. c #E19393",
"^. c #E39C9C",
"/. c #CCB089",
"(. c #D7B688",
"). c #C5AA99",
"_. c #DAB695",
"`. c #EDA586",
"'. c #E8B58A",
"]. c #FAB688",
"[. c #FDBA8C",
"{. c #F0A991",
"}. c #E9BB97",
"|. c #F5BB97",
" X c #FDBD92",
".X c #C5B7AA",
"XX c #D2B9AD",
"oX c #E6A5A5",
"OX c #E9AAA9",
"+X c #EBB3A4",
"@X c #F6BAA4",
"#X c #E9B5B5",
"$X c #82C399",
"%X c #97C7A7",
"&X c #91CBA6",
"*X c #A6CEB3",
"=X c #A6CFB3",
"-X c #BDC7B6",
";X c #BEC8B7",
":X c #BEC9B8",
">X c #F3D28F",
",X c #EBC19A",
"<X c #F8C19B",
"1X c #FDC39C",
"2X c #D3C5AF",
"3X c #C8C3B5",
"4X c #C3CBBC",
"5X c #E8C4A5",
"6X c #FCC5A2",
"7X c #FEC9A5",
"8X c #F4C8A9",
"9X c #FDCBA9",
"0X c #E8CCB5",
"qX c #F6CDB1",
"wX c #F6D3BC",
"eX c #BAD4C2",
"rX c #C6CEC1",
"tX c #C9CEC2",
"yX c #CAD1C5",
"uX c #C4D8C9",
"iX c #DCD3CC",
"pX c #CDDDD2",
"aX c #DADAD6",
"sX c #ECC5C5",
"dX c #F1CCCB",
"fX c #E9D5C7",
"gX c #F2D6C2",
"hX c #E8DBD4",
"jX c #F4D9D9",
"kX c #DAE1DC",
"lX c #EBE2DC",
"zX c #DEE3E1",
"xX c #E5E5E5",
"cX c #E9E8E6",
"vX c #EBEBEB",
"bX c #F8E8E8",
"nX c #F0F0EF",
"mX c #F9F5F5",
/* pixels */
"C.C.C.C.C.C.C.C.C.C.C.C.C.C.C.C.C.C.C.C.C.C.C.C.C.C.C.C.C.C.C.C.C.C.C.C.C.C.C.C.C.C.C.C.C.C.C.C.C.C.C.C.C.C.C.C.C.C.C.C.C.C.C.C.",
"C.C.C.C.C.C.C.C.C.C.C.C.C.C.C.C.C.C.C.C.C.C.C.C.C.C.C.C.C.C.C.C.C.C.C.C.C.C.C.C.C.C.C.C.C.C.C.C.C.C.C.C.C.C.C.C.C.C.C.C.C.C.C.C.",
"V.V.V.V.V.V.V.V.V.V.V.V.V.V.V.V.V.V.V.V.V.C.C.C.C.V.V.V.V.V.V.V.V.V.V.V.V.V.V.V.V.V.V.V.V.V.V.V.V.V.V.V.V.V.V.V.V.V.V.V.V.V.V.V.",
"V.V.V.V.V.V.V.V.V.V.V.V.V.V.V.V.V.V.V.V.$XuXxXkX*XC.V.V.V.V.V.V.B.Z.&X*X*X&XC.V.V.V.V.V.V.V.V.V.V.V.V.V.V.V.V.V.V.V.V.V.V.V.V.V.",
"B.B.B.B.B.B.B.B.B.B.B.B.B.B.B.B.B.B.B.V.pXvXvXcXvX*XB.B.C.V.B.Z.eXzXvXvXvXcXpX&XZ.Z.V.B.B.B.B.B.B.B.B.B.B.B.B.B.B.B.B.B.B.B.B.B.",
"M.M.M.M.M.M.M.M.M.M.M.M.M.M.M.M.M.M.M.Z.vXvXcXcXvXpXM.M.*XpXuXxXcXcXcXcXcXvXvXcXxXkXpX&XM.M.M.M.M.M.M.M.M.M.M.M.M.M.M.M.M.M.M.M.",
"M.M.M.M.M.M.M.M.M.M.M.M.M.M.M.M.M.M.M.N.kXvXxXxXvXeXM.M.$XkXcXcXcXcXcXcXcXvXvXfXvXcXcXcX*XM.M.M.M.M.M.M.M.M.M.M.M.M.M.M.M.M.M.M.",
"M.M.M.M.M.M.M.M.M.M.M.M.M.M.M.M.M.M.%XuXxXvXcXxXxXkX*XN.*X*X*XpXxXcXcXcXvXlXwX9XfXvXcXcXzX$Xm.m.M.M.M.M.M.M.M.M.M.M.M.M.M.M.M.M.",
"m.m.m.m.m.m.m.m.m.m.m.m.m.m.m.m.m.*XxXxXcXcXnXcXcXcXvXuXZ.pXkXcXcXcXfX8X X1X6X8X9XwXcXcXcX*Xm.m.m.m.m.m.m.m.m.m.m.m.m.m.m.m.m.m.",
"m.m.m.m.m.m.m.m.m.m.m.m.m.m.m.m.&XxXcXvXvXcXnXvXxXcXcXvX%XN.%X0X8X].1X9XfXaX.XU.,X6X}.3XL.J.n.n.m.m.m.m.m.m.m.m.m.m.m.m.m.m.m.m.",
"n.n.n.n.n.n.n.n.n.n.n.n.n.n.n.N.aXvXvXnXlXhXvXvXxXcXcXvXpXm.I.0X3XiXqX9XfXg.g._.f.y.h.2X].v.r.n.n.n.n.n.n.n.n.n.n.n.n.n.n.n.n.n.",
"n.n.n.n.n.n.n.n.n.n.n.n.n.n.n.%XcXvXvXhXqXfXcXnXcXxXcXcXvXJ.I.G.).s.h.f.y./.d._.8Xf.hXgX].x.>.n.n.n.n.n.n.n.n.n.n.n.n.n.n.n.n.n.",
"e.e.e.e.e.e.e.e.e.e.e.e.e.e.r.eXvXvXhX9X9X9XfXxXvXcXkXxXvX%X#./.0XR f.b.b.h.5X5X8Xf.hX8X].z.K e.e.e.e.e.e.e.e.e.e.e.e.e.e.e.e.e.",
"e.e.e.e.e.e.e.e.e.e.e.e.e.e.e.pXvXhX9X9XqX9X9XqXfXaXhXiXcX*X#.k.5X8X].b.b.y.c.v.s.}.wX8X].Q D w.e.e.e.e.e.e.e.e.e.e.e.e.e.e.e.e.",
"e.e.e.e.e.e.e.e.e.e.e.e.e.e.e.uXxX8XfXfXfXqX9X9XfX).2X5XaX%X%.s.}./.b.]. X,XtX3X5XqX9X<XR S D w.e.e.e.e.e.e.e.e.e.e.e.e.e.e.e.e.",
"e.e.e.e.e.e.e.e.e.e.e.e.e.e.e.%XaX5X).W j /.9X8XQ - p.g.kXN.e.k.h.3XhXhXvXcXcXcXfX0XqX|.V S Z 1.e.e.e.e.e.e.e.e.e.e.e.e.e.e.e.e.",
"w.w.w.w.w.w.w.w.w.w.w.w.e.e.w.w.uX2XW U.h W Q W i.J W g.P.G r.j.0XxXcXvXhXlXcXcXcXhX9Xc.V S Z $.1.q.w.w.w.w.w.w.w.w.w.w.w.w.w.w.",
"q.q.q.q.q.q.q.q.q.q.q.q.q.q.q.q.P U.(.v.(.>Xv.'.>X>X>X>X2XJ.:Xu.aXcXlXgXwXwXqX9X9X9X<XR C D >.*.&.%.0.q.q.q.q.q.q.q.q.q.q.q.q.q.",
"q.q.q.q.q.q.q.q.q.q.q.q.q.q.q.N.9.U.>X>X>Xv.|.<Xc.v.v.f.a.rXJ.S L k.9X9X9X9X9X9X9X7Xh.C C >.,.2.*.&.$.0.q.q.q.q.q.q.q.q.q.q.q.q.",
"q.q.q.q.q.q.q.q.q.q.q.q.q.0.9.eXrX3Xs.d.h._.@X@X@X}.'.].Q.z.! S V <.6X9X9X9X9X9X7Xz.V S D 2.2.2.2.3.&.%.q.q.q.q.q.q.q.q.q.q.q.q.",
"8.8.8.8.8.8.8.8.8.8.8.9./.<X7X6X+XqX[.1X9X6XOXOX6X9X1X X{.T.T.R C R <X9X9X9X7X|.! C S V W a.k.a.k.2.3.&.1.8.8.8.8.8.8.8.8.8.8.8.",
"7.7.7.7.8.7.7.7.7.7.7.K.9X9X9X9X1X1X X].1X9X9X9X9X1X[.6X6XdXOX! S V R d.d.Q R A V S V D }./.,Xc.,Xg.3.3.$.6.7.7.7.7.7.7.7.7.7.7.",
"7.7.7.7.7.7.7.7.7.7.7./.9X7X6X X X X X X[.[.6X6X[. X X9X@XjXoX) A S C V N V S N n V P ,./.(.}.(.}.'.4.2.3.1.6.7.7.7.7.7.7.7.7.7.",
"6.6.6.6.6.6.6.6.6.6.6.k. X|.wX7Xx.1X X X1X1X[.[.1X7X1X9X{.T.^.sXR S S V S S S m n >.2.2.K._.}.'.'.'.,.,.2.$.6.6.6.6.6.6.6.6.6.6.",
"6.6.6.6.6.6.6.6.6.9.6.9.<X`.|.{.@X@X7X1X1X6X7X7X9X1X9X9X!.T.#XbXp.P D N C V N V n <.a.,.g.}.|.|.'./.,.,.2.3.1.6.6.6.6.6.6.6.6.6.",
"6.6.6.6.6.6.6.j.k.K.6.j. X|.`.Q.!.OX{.9X9X7X7X7X9X9X9X{.T.~.T.~.d.2.2.P V C S S V d.,X<.i.9X9X9X7Xl.>.2.2.2.$.5.6.6.6.6.6.6.6.6.",
"5.5.5.5.5.5.k.(.(./.9.v.[.{.E.~.E.T.oX@X9X9X9X9X9X6X+XT.#XmX^.T.d.2.2.P V C S S S D }.(.R <X|.|.<Xg.,.,.2.2.3.%.5.5.5.5.5.5.5.5.",
"5.5.5.5.5.5.k.|.,X/.l.'.[.`.T.bXbXE.bXjXQ.|.6X|.!.#XmXoX^.dXE.T.d.2.2.K C V S S S M g.7X}.6X|.|.<XL ,.>.2.2.2.$.;.5.5.5.5.5.5.5.",
";.;.;.;.;.;.j.1X1X}.<X X[.].T.#X#XT.^.~.#XbX~.oX^.E.oXT.T.T.sXsXp.2.2.D S N S S S N I }.9X9X<X|.}.% >.,.,.2.2.*.=.;.;.;.;.;.;.;.",
"-.-.-.-.-.-.9.6X9X9X9X7X].[.Q.T.E.sXoXT.oXjX~.mXbXT.sX#XT.T.jXfX<.2.,.D S m S S S V B l.6X9X<Xc.h o P ,.,.3.3.&.+.-.-.-.-.-.-.-.",
"-.-.@.@.-.-.1.,X9X9X9X1X X[.!.T.E.mXdXT.~.T.T.oX^.T.bXjXE.OXE.z.3.2.,.Z S m S S S S M >.:.% $ o o o >.>.&.&.&.$.@.-.-.-.-.-.-.-.",
"@.@.@.@.@.@.@.K.9X9X9X X X`.z.T.~.^.E.^.mX#XT.T.OX^.~.E.#XmXOXT.u.2.,.C S V S S S S m P >.B o o o B 3.$.&.&.$.@.@.@.@.@.@.@.@.@.",
"@.@.@.@.@.@.@.+.l.1X1X X[.d.T.E.bXjXT.E.dX^.T.E.mXjXT.T.E.OXE.#XD.2.>.V S V V S S S V K ,.,.P H P 2.$.&.$.+.@.@.@.@.@.@.@.@.@.@.",
"@.@.@.@.@.@.@.@.@.*.k.f.*.j.hX~.dX#XT.T.T.dXdXT.oX~.T.T.oX~.T.#XI.2.P V S S V S S S S D 2.,.>.,.:.$.$. .@.@.@.@.@.@.@.@.@.@.@.@.",
"O.O.O.O.O.O.O.O.O.O.O.@.O.U.4X).R.T.oXdXE.dXjXE.~.T.T.E.sXXX.X-X-X4.P S S S V S S S S N 2.2.2.,.,.3.&. .O.O.O.O.O.O.O.O.O.O.O.O.",
"o.o.o.o.o.o.o.o.o.o.o.o.O.3X4X;X-X.X.XXXW.R.R.XXXX)..X.X-X;X-X-X-XA.K S S S V S S S S m ,.2.2.2.2.3.&.$.o.o.o.o.o.o.o.o.o.o.o.o.",
"o.o.o.o.o.o.o.o.o.o.o.o.1.tX4X;X-X-X-X-X;X;X;X;X-X-X-X-X4X4X-X;X-XP.K S S S C V S S S m P 2.2.,.2.3.&. .o.o.o.o.o.o.o.o.o.o.o.o.",
"X.X.X.X.X.X.X.X.X.X.X.X.4.yX;X-X;X;X;X-X-X;X;X-X-X4X-X-X4X4X-X;X-XY.K S S S V m S S C m K 2.,.,.<.<.u.H X.X.X.X.X.X.X.X.X.X.X.X.",
"X.X.X.X.X.X.X.X.X.X.X.X.J.rX-X;X;X;X;X;X;X;X;X;X-XtX:X-X4XtX-X;X-X-XK N V N V M m m m N K a.A.G.H.G.S.P X.X.X.X.X.X.X.X.X.X.X.X.",
"X.X.X.X.X.X.X.X.X.X.X.X.I.4X-X;X;X;X;X;X;X;X;X;X;XrX4X-X:XyX;X-X-X;XQ m n n n L L Q A.G.L.L.L.L.L.G.S.<.X.X.X.X.X.X.X.X.X.X.X.X.",
"X.X.X.X.X.X.X.X.X.X.X.o.-X:X;X;X;X;X;X;X;X;X;X;X-XrXtX-X;XyX4X-X-X-XU.G.A.p.Q D.H.H.H.L.L.L.L.L.L.H.S.u.X.X.X.X.X.X.X.X.X.X.X.X.",
"X.X.X.X.X.X.X.X.X.X.X.+.4X-X;X;X;X;X;X;X;X;X;X;X;X4XyX-X-XyX4X-X;X-XY.H.H.H.H.H.H.H.H.H.L.L.L.L.L.H.S.u.} X.X.X.X.X.X.X.X.X.X.X.",
"X.X.X.X.X.X.X.X.X.X.X.3.4X-X:X:X;X;X;X;X;X;X-X;X-X4XyX:X-XrXtX-X-X-X-XH.H.H.H.H.S.G.p.H.L.L.L.L.L.H.S.u.} X.X.X.X.X.X.X.X.X.X.X.",
"X.X.X.X.X.X.X.X.X.X.X.j.4X-X-X:X;X;X;X;X-X-X-X;X-X4XyX4X-X4XyX;X-X4XtXL.H.H.H.H.S.p.P G.H.L.L.L.L.H.D.u.} X.X.X.X.X.X.X.X.X.X.X.",
"X.X.X.X.X.X.X.X.X.X.X.P.rX-X-X;X;X;X;X;X-X4X-X;X;X4XyX4X-X4XyX4X4XyXyXI.H.H.H.H.D.<.{ u.H.H.L.L.L.L.D.u.} X.X.X.X.X.X.X.X.X.X.X.",
"X.X.X.X.X.X.X.X.X.X.o.U.yX-X-X-X-X-X-X-X;X4X-X;X;X4XyXyX-X4XyXyXyXyX4XH.H.H.H.H.D.H X.P H.H.L.L.L.L.G.p.} X.X.X.X.X.X.X.X.X.X.X.",
"X.X.X.X.X.X.X.X.X.X.+.-XyX;X-X;X4XrX;X;X4X4X-X-X-X4XyXyX4X:XyXyXyXtXI.H.H.H.H.D.p.{ X.{ D.H.L.L.L.L.G.u.} X.X.X.X.X.X.X.X.X.X.X.",
"X.X.X.X.X.X.X.X.X.X.+.U.4X4X4XyXyXyX4X:XyXyX4X-X-XrXyXyXyX4XyXyX-X3.G.H.H.H.H.H.p.} X.} u.H.H.L.L.H.G.u.} X.X.X.X.X.X.X.X.X.X.X.",
"X.X.X.X.X.X.X.X.X.X.X.o.%.3.j.J.I.Y.-X4XrXtXyXtX4XyXyXyXyX4XY.J. .[ p.L.H.H.H.D.u.[ [ [ P H.H.L.H.H.D.u.} X.X.X.X.X.X.X.X.X.X.X.",
"X.X.X.X.X.X.X.X.X.X.X.X.X.X.X.X.o.+.3.5X5X}.k._.XX2XI.4.,. .G f b b I L.L.H.H.D.W b f f F G.p.u.p.p.W I } X.X.X.X.X.X.X.X.X.X.X.",
"X.X.X.X.} X.[ | X.X.| ' X.X.X.X.X.X.o.,X9X Xt.|.7X9Xt.f f f f f b b F u.u.Q p.p.I b f f u I G.L.L.H.D.p.G } } X.X.X.X.X.X.X.X.X.",
"X.X.X.} i } _ } X.X.` ' X.X.[ } } } { ,X9X XE !.6X9Xs.a f f f f f f P L.H.H.H.A.L F f a u G.H.L.L.H.S.p.F f b [ } X.X.X.X.| X.X.",
"X.} } d t ' _ ..X.[ 3 [ X.} _ [ G J f.7X7Xx.~ ~ `.7X6X! J b b b a < P H.H.H.H.H.D.F f y u D.A.L K D L u.f b G G } X.X.X.X.` | ' ",
"X.d [ 2 i i ' ] X._ i X.X.` ` { R z.9X7X`.^ j Y ( `.,X}.) R f w O O $ n D u.H.H.S.F f , u g * * * * n g [ X.X.X.X.X.X.X.[ 3 ` _ ",
"] i d 1 d i ' ] ' i ' X.' 3 [ E ~ ~ ) ) ~ Y a a Y ^ ^ ~ ^ / U $ * * * * * * = D u.G y > u $ * * * * * Z k X.X.X.X.X.X.[ i 1 i ' ",
"t y t t s i d ] i ' } [ 2 2 k ^ / ^ ^ ~ A G f p e j T ^ / / Y & * * * * * * n = w ] 1 > ; $ * * * * * Z c ..X.X.} ] d i s 1 ] [ ",
"1 y s t y p s v 1 s i 3 1 1 < j T T j w , t y y v 2 w h j h w & * * * * = g w 1 s v y , > O $ * = n V g b ] ..' 2 s t t s y v 2 ",
", y v y p x p x y p , , , , , , : : , , , , y y v y p y p x v : w g B w w > , r r x p , , , x 5 w w w > , y v s y r v r v v y , ",
"5 e p 5 p x x x e e ; ; : 5 ; ; : p 5 ; ; ; e e x e e e e z p ; ; e x z : ; ; 5 5 e e : ; ; p p e p e ; ; ; y x x 5 x x x x : : ",
"0 0 0 4 q q q q 0 4 : 4 9 9 . 4 0 q 5 . . . 9 q l 0 0 0 0 0 5 . 5 0 0 9 . . . . 7 0 0 5 . . 5 q q q 5 . . . 0 0 0 q l q 0 9 5 0 ",
"7 7 7 9 9 7 7 7 7 9 8 7 7 7 7 7 7 9 9 X     # 7 9 7 7 7 7 7 7 7 7 7 7 7 4 4 4 4 7 7 7 7 9 4 7 7 9 7 7 X   4 7 7 7 7 7 7 7 7 7 7 ",
"6 6 6 6 6 6 6 6 6 6 6 6 6 6 6 6 6 6 6 6 6 6 6 6 6 6 6 6 6 6 6 6 6 6 6 6 6 6 6 6 6 6 6 6 6 6 6 6 6 6 6 6 6 6 6 6 6 6 6 6 6 6 6 6 ",
"@ @ @ @ @ @ @ @ @ @ @ @ @ @ @ @ @ @ @ @ @ @ @ @ @ @ @ @ @ @ @ @ @ @ @ @ @ @ @ @ @ @ @ @ @ @ @ @ @ @ @ @ @ @ @ @ @ @ @ @ @ @ @ @ ",
"+ + + + + + + + + + + + + + + + + + + + + + + + + + + + + + + + + + + + + + + + + + + + + + + + + + + + + + + + + + + + + + + + "
};
