/* XPM */
static char *df083c50efc24292d6a727671cd662584NQdwMyeGLye6Ck9[] = {
/* columns rows colors chars-per-pixel */
"64 64 239 2 ",
"   c #1A3C16",
".  c #37281E",
"X  c #0C3627",
"o  c #0F3C2B",
"O  c #1B3D25",
"+  c #4B2E19",
"@  c #4F3C29",
"#  c #643726",
"$  c #1B4816",
"%  c #1B461B",
"&  c #1D5417",
"*  c #1D581B",
"=  c #1E6419",
"-  c #1F691A",
";  c #22621E",
":  c #216B1C",
">  c #21731C",
",  c #227B1C",
"<  c #1B4826",
"1  c #15442E",
"2  c #1F5726",
"3  c #174933",
"4  c #194834",
"5  c #1B4E37",
"6  c #1D5334",
"7  c #1D543A",
"8  c #1E5B3E",
"9  c #2D5132",
"0  c #215A3B",
"q  c #226021",
"w  c #226D25",
"e  c #226929",
"r  c #287726",
"t  c #24673A",
"y  c #247637",
"u  c #387537",
"i  c #367C34",
"p  c #59452A",
"a  c #5F4E34",
"s  c #634C35",
"d  c #6D4B30",
"f  c #65533A",
"g  c #695639",
"h  c #6A553C",
"j  c #735A3F",
"k  c #43743C",
"l  c #6D6336",
"z  c #245B41",
"x  c #3E5745",
"c  c #1F6040",
"v  c #246444",
"b  c #266B44",
"n  c #286C49",
"m  c #287647",
"M  c #35744F",
"N  c #525748",
"B  c #6C5942",
"V  c #675849",
"C  c #735D44",
"Z  c #765C45",
"A  c #4A7055",
"S  c #756145",
"D  c #796244",
"F  c #7A644B",
"G  c #79664B",
"H  c #6C6955",
"J  c #7B6856",
"K  c #92553A",
"L  c #88594F",
"P  c #816648",
"I  c #846B4D",
"U  c #826C52",
"Y  c #896D51",
"T  c #936B53",
"R  c #857256",
"E  c #8C7454",
"W  c #8A745A",
"Q  c #8A765B",
"!  c #977A5C",
"~  c #947C5D",
"^  c #AA6951",
"/  c #8A7967",
"(  c #8A796D",
")  c #937C63",
"_  c #957D65",
"`  c #B17F6F",
"'  c #23821D",
"]  c #2B8427",
"[  c #31852E",
"{  c #2A8136",
"}  c #358634",
"|  c #3C823C",
" . c #3D8A3B",
".. c #408A3F",
"X. c #2A8249",
"o. c #388842",
"O. c #2C8A54",
"+. c #318E52",
"@. c #369757",
"#. c #3AA058",
"$. c #448D44",
"%. c #458B49",
"&. c #4A8E4C",
"*. c #41904D",
"=. c #4C904E",
"-. c #488E53",
";. c #459654",
":. c #4E9151",
">. c #519455",
",. c #58975A",
"<. c #549A5C",
"1. c #68925D",
"2. c #579D60",
"3. c #599F62",
"4. c #5D986F",
"5. c #659B63",
"6. c #789968",
"7. c #798970",
"8. c #59A165",
"9. c #5CA66B",
"0. c #5EA96F",
"q. c #5FAA70",
"w. c #65A46C",
"e. c #62AD75",
"r. c #6BA973",
"t. c #77A673",
"y. c #76A978",
"u. c #65B37B",
"i. c #6BB37E",
"p. c #94825E",
"a. c #9C8264",
"s. c #9B856B",
"d. c #98856C",
"f. c #8E8B72",
"g. c #9C8B74",
"h. c #998979",
"j. c #859A72",
"k. c #A78A6A",
"l. c #A48B6C",
"z. c #B38B6C",
"x. c #AA916F",
"c. c #A58C75",
"v. c #AD9374",
"b. c #A3937C",
"n. c #A8957A",
"m. c #AD997B",
"M. c #B39677",
"N. c #B49A7B",
"B. c #BB9D7C",
"V. c #88A678",
"C. c #BDA17F",
"Z. c #C1A27E",
"A. c #68B680",
"S. c #6BBA85",
"D. c #6EBE8A",
"F. c #76B686",
"G. c #72BE8C",
"H. c #7FBF91",
"J. c #6FC08C",
"K. c #70C18E",
"L. c #71C390",
"P. c #9A8F82",
"I. c #A89987",
"U. c #AC9A84",
"Y. c #AC988D",
"T. c #B69C85",
"R. c #9AAE8B",
"E. c #84B68B",
"W. c #8ABC93",
"Q. c #98B797",
"!. c #A7A488",
"~. c #BCA284",
"^. c #B5A58A",
"/. c #BDA58A",
"(. c #B4A593",
"). c #B1AA93",
"_. c #B6A896",
"`. c #BCAA94",
"'. c #BCAC9B",
"]. c #AAB598",
"[. c #BCB59C",
"{. c #ACBFA4",
"}. c #BDB8A4",
"|. c #C3A686",
" X c #C5AB8C",
".X c #CBAD8C",
"XX c #CBB18E",
"oX c #C6AD92",
"OX c #CCB294",
"+X c #C3B29C",
"@X c #CAB699",
"#X c #CDB49A",
"$X c #D4B999",
"%X c #C3B4A2",
"&X c #CBBBA4",
"*X c #C6BAA8",
"=X c #CBBDAB",
"-X c #CCBBAE",
";X c #D4BDA3",
":X c #D5BCA7",
">X c #85C297",
",X c #94C19A",
"<X c #B3C39F",
"1X c #9FC6A2",
"2X c #A8C5A6",
"3X c #B6C4AB",
"4X c #BBCBB4",
"5X c #CAC3AC",
"6X c #DAC2A5",
"7X c #D6C4AA",
"8X c #DDC6AC",
"9X c #CCC3B3",
"0X c #C7CCB8",
"qX c #D4C4B4",
"wX c #DCCAB3",
"eX c #D3C7B8",
"rX c #D5CBBB",
"tX c #DCCCBB",
"yX c #C7D2BC",
"uX c #D7D3BF",
"iX c #E2C8AC",
"pX c #E3CDB4",
"aX c #E2CDBB",
"sX c #E6D3BB",
"dX c #D2D0C3",
"fX c #DBD3C4",
"gX c #DBD9C9",
"hX c #E6D8C6",
"jX c #EBDDCB",
"kX c #E8DED3",
"lX c #DEE1CC",
"zX c #EBE1CE",
"xX c #EEE3D3",
"cX c #EBE7DB",
"vX c #F2E6D9",
"bX c #F4ECE3",
"nX c #F9EFE6",
"mX c #F8F1E7",
"MX c #FBF3EB",
/* pixels */
"L.L.L.L.L.L.L.L.L.L.L.L.L.L.L.L.L.L.L.L.L.L.L.L.L.L.L.L.L.L.L.L.L.L.L.L.L.L.L.L.L.L.L.L.L.L.L.L.L.L.L.L.L.L.L.L.L.L.L.L.L.L.L.L.",
"L.L.L.L.L.L.L.L.L.L.L.L.L.L.L.L.L.L.L.L.L.L.L.L.L.L.L.L.L.L.L.L.L.L.L.L.L.L.L.L.L.L.L.L.L.L.L.L.L.L.L.L.L.L.L.L.L.L.L.L.L.L.L.L.",
"L.L.L.L.L.L.L.L.L.L.L.L.L.L.L.L.L.L.L.L.L.L.L.L.L.L.L.L.L.L.L.L.L.L.L.L.L.L.L.L.L.L.L.L.L.L.L.L.L.L.L.L.L.L.L.L.L.L.L.L.L.L.L.L.",
"K.K.K.K.K.K.K.K.K.K.K.K.K.K.K.K.K.K.K.K.K.K.K.K.K.K.K.K.K.K.K.K.J.K.K.K.K.K.K.K.K.K.K.K.K.K.K.K.K.K.K.K.K.K.K.K.K.K.K.K.K.K.K.K.",
"J.J.J.J.J.J.J.J.J.J.J.J.J.J.J.J.J.J.J.J.J.J.J.J.J.J.J.J.J.J.J.J.J.J.J.J.J.J.K.J.J.J.J.J.J.J.J.J.J.J.J.J.J.J.J.J.J.J.J.J.J.J.J.J.",
"D.D.D.D.D.D.D.D.D.D.D.D.D.D.D.D.D.D.D.D.D.D.D.D.D.D.D.D.D.G.D.D.G.G.D.G.G.D.D.D.D.D.D.D.D.D.D.D.D.D.D.D.D.D.D.D.D.D.D.D.D.D.D.D.",
"D.D.D.D.D.D.D.D.D.D.D.D.D.D.D.D.D.D.D.D.D.D.D.D.D.D.D.D.D.>X>XW.2X3X1X2X,X>XG.D.D.D.D.D.D.D.D.D.D.D.D.D.D.D.D.D.D.D.D.D.D.D.D.D.",
"S.S.S.S.S.S.S.S.S.S.S.S.S.S.S.S.S.S.S.S.S.S.S.S.S.S.D.G.W.{.}.&X:X&X7X5X9X4X>XD.S.S.S.S.S.S.S.S.S.S.S.S.S.S.S.S.S.S.S.S.S.S.S.S.",
"S.S.S.S.S.S.S.S.S.S.S.S.S.S.S.S.S.S.S.S.S.S.S.S.S.S.G.Q.).%X&X7X#X+X#X8XwXrX3X,XG.S.S.S.S.S.S.S.S.S.S.S.S.S.S.S.S.S.S.S.S.S.S.S.",
"S.S.S.S.S.S.S.S.S.S.S.S.S.S.S.S.S.S.S.S.S.S.S.S.S.S.E.!.+X+XwX:X7XT.#X8XwXxXrX3XH.S.H.G.S.S.S.S.S.S.S.S.S.S.S.S.S.S.S.S.S.S.S.S.",
"A.A.A.A.A.A.A.A.A.A.A.A.A.A.A.A.A.A.A.F.Q.].].R.Q.E.7.f.b.b.+X&XqX+X&XwXwXvXbX7X].T.T./.).W.A.A.A.A.A.A.A.A.A.A.A.A.A.A.A.A.A.A.",
"A.A.A.A.A.A.A.A.A.A.A.A.A.A.A.A.A.A.A.F.}.-XT.T L g.V / h.I.I.'.gXvXmXMXvXbXmXoXz.K ^ ` T.Q.A.A.A.A.A.A.A.A.A.A.A.A.A.A.A.A.A.A.",
"u.u.u.u.u.u.u.u.u.u.u.u.u.u.u.u.u.u.u.u.E.yXaX` d # Z V Y._.( h.eXvXMXMXbXfXP.v.K K ^ M.Q.A.u.u.u.u.u.u.u.u.u.u.u.u.u.u.u.u.u.u.",
"u.u.u.u.u.u.u.u.u.u.u.u.u.u.u.u.u.u.u.u.i.F.2X'.L # + @ J (.( P.eXvXMXMXvXqX( d K T b.E.i.u.u.u.u.u.u.u.u.u.u.u.u.u.u.u.u.u.u.u.",
"u.u.u.u.u.u.u.u.u.u.u.u.u.u.u.u.u.u.u.u.u.u.i.F.F.h.J ( f.J f.I.-XvXMXmXkXjXkXU.'.E.i.u.u.u.u.u.u.u.u.u.u.u.u.u.u.u.u.u.u.u.u.u.",
"u.u.u.u.u.u.u.u.u.u.u.u.u.u.u.u.u.u.u.u.u.u.u.u.F.I.S f.(./ h.P.9XvXMXMXnXnXvXb.`.3Xi.u.u.u.u.u.u.u.u.u.u.u.u.u.u.u.u.u.u.u.u.u.",
"e.e.e.e.e.e.e.e.e.e.e.e.e.e.e.e.e.e.e.e.e.e.e.e.E.I.B / (.I.I.I.rXcXMXMXmXnXxXoX#XwXW.u.e.e.e.e.e.e.e.e.e.e.e.e.e.e.e.e.e.e.e.e.",
"e.e.e.e.e.e.e.e.e.e.e.e.e.e.e.e.e.e.e.e.e.i.E.1X}.g.a J '._.(._.fXkXbXmXbXbXxXoXoX&XQ.e.e.e.e.e.e.e.e.e.e.e.e.e.e.e.e.e.e.e.e.e.",
"e.e.e.e.e.e.e.e.e.e.e.e.e.e.e.e.e.e.e.e.E.yXgXkX*Xg.h G '.'.P.( eXqX-XgXbXbXkXOXOX;X5XF.e.e.e.e.e.e.e.e.e.e.e.e.e.e.e.e.e.e.e.e.",
"e.e.e.e.e.e.e.e.e.e.e.e.e.e.e.e.e.e.e.E.0XfXfXtX+X/ s f ^.'.f.. W c.(.kXbXvXhX|. X#XwXyXW.e.e.e.e.e.e.e.e.e.e.e.e.e.e.e.e.e.e.e.",
"q.q.q.q.q.q.q.q.q.q.q.q.q.q.q.q.q.e.E.0XfXfX9XrX+X) s p g.%XY.( ( I.jXMXbXxX#X|.$XiXwXhXgX,Xe.q.q.q.q.q.q.q.q.q.q.q.q.q.q.q.q.q.",
"0.0.0.0.0.0.0.0.0.0.0.0.0.0.0.0.0.i.4XfXrX=XqXtX&Xd.C p B I.}.h.I.c.eXbXhX;XM.|.$X8XaXjXgXgX,Xq.0.0.0.0.0.0.0.0.0.0.0.0.0.0.0.0.",
"9.9.9.9.9.9.9.9.9.9.9.9.9.9.9.9.0.Q.fXeX=X=X=XtX7Xc.U p + p I.I.W ( -XfXm.v..XXX$X6XsXxXjXgXgXi.9.9.9.9.9.9.9.9.9.9.9.9.9.9.9.9.",
"9.9.9.9.9.9.9.9.9.9.9.9.9.9.9.9.y.dXdX*X9X5X5XqX7X^.U s s + @ h.'.*X&Xd.k..XM.$XXX6XhXxXxXhXkX4Xw.9.9.9.9.9.9.9.9.9.9.9.9.9.9.9.",
"9.9.9.9.9.9.9.9.9.9.9.9.9.9.9.w.2XfX9X=X9X=X=X*XwX^.~ I h s p B G s.M.v.M..XXX$XOX;XsXhXzXjXhXcXW.9.9.9.9.9.9.9.9.9.9.9.9.9.9.9.",
"8.8.8.8.8.8.8.8.8.8.8.8.8.8.8.F.dXfX9XeX5X*X+X+X7X@Xm.E Z G G W W l.M.x.Z.|.$X$XXXsXsXsXjXxXjXxXdXr.9.8.8.8.8.8.8.8.8.8.8.8.8.8.",
"8.8.8.8.8.8.8.8.8.8.8.8.8.8.w.3XfXrX9XeX*X'.`.(.`.@Xm.s.a.E ~ a.Y I l.a.M.Z.$X$XOXpXpXwXhXjXzXkXcXE.8.8.8.8.8.8.8.8.8.8.8.8.8.8.",
"8.8.8.8.8.8.8.8.8.8.8.8.8.8.y.dXgX9XeXqX'.^.T.I.g.^.oXm.a.~ x.! E j I E x.M.OXXX6X8X8X8XpXhXzXjXcX2X8.8.8.8.8.8.8.8.8.8.8.8.8.8.",
"3.3.3.3.3.3.3.3.3.3.3.3.3.3.W.fXfX*XfX*X(.b.U.d.W s./.m.l.l.l.x.a.P E x.Z.|.|. XiX;X@X8XpXsXzXzXcXyX8.3.3.3.3.3.3.3.3.3.3.3.3.3.",
"2.2.2.2.2.2.2.2.2.2.3.3.2.3.2XgXeX9XrX'.I.h.b.R J R d.W l.l.l.a.a.E E x.v.N.l. X#XiX;X8X8XaXhXxXxXlXr.3.2.2.2.2.2.2.2.2.2.2.2.2.",
"2.2.<.<.<.<.<.<.<.<.<.<.<.8.4XgX*XrX=X`.b.I.d.G B B G G G D P E I D g E E N.v.#X#X#X$X8X6XwXaXxXxXgXr.2.<.<.<.<.<.<.<.<.<.<.<.<.",
"<.<.<.<.<.<.<.<.<.<.<.<.<.3.0XfX*XtX%X^.g.I./ G h s G G h h C D D E D E N.oX/.;X#X~.OX6X6X8XwXjXxXzXy.<.<.<.<.<.<.<.<.<.<.<.<.<.",
"<.<.<.<.<.<.<.<.<.<.<.<.<.w.yXeX*XaX'.U.b.c./ U B s C C h C S S W a.v.l.m.$X/.pX#X~.|.$X#X8XpXjXxXlXr.<.<.<.<.<.<.<.<.<.<.<.<.<.",
"<.<.<.<.<.<.<.<.<.<.<.<.<.3.yX9X=XtX`.U.b.s.W J h h h S f G G S R ~ s.N./.OXoX8X$X~.N.OXoX6XpXjXxXgXr.<.<.<.<.<.<.<.<.<.<.<.<.<.",
">.>.>.>.>.>.>.>.>.>.>.>.>.5.yX9X=XtX(.(.m.d.d.) C f a C a S G G m. X~.~.OX~.|.8X@Xm.I /.$X;XwXjXxXgXw.>.>.>.>.>.>.>.>.>.>.>.>.>.",
">.>.>.>.>.>.>.>.>.>.>.>.>.3.yX9X=XtX^.^.g.s.c.R S h f f f f R G W l.N./.6X$X XoXoX XN.T.$XOX;XhXjXuX5.>.>.>.>.>.>.>.>.>.>.>.>.>.",
">.>.>.>.>.>.>.>.>.>.>.>.>.>.{.9X*XrX^.c.d.) d.~ U h B f h f G W  X~. X$X/.6X6XOX~./.OXa.XX#X;XpXhX0X,.>.>.>.>.>.>.>.>.>.>.>.>.>.",
":.:.:.:.:.:.:.:.:.:.:.:.:.:.y.9X}.wX`.g.d.R U a.W C B f s f h a n./.v.OXm.|.OX Xv.~. Xa.m.#X6X8XhXV.:.:.:.:.:.:.:.:.:.:.:.:.:.:.",
":.:.:.:.:.:.:.:.:.:.:.:.:.:.>.R.%XqX&Xm.c.W R ) ) S G B S h S s h d.m./.~..X.XOXx.v.v.a.~.$X;X7X<X,.:.:.:.:.:.:.:.:.:.:.:.:.:.:.",
":.:.:.:.:.:.:.:.:.:.:.:.:.:.:.t.9X=X&Xm.s.) U U U R U h C R U G C ~ m.~.|.$X XOX|.v.v._ T./.#X&Xt.:.:.:.:.:.:.:.:.:.:.:.:.:.:.:.",
":.:.:.:.:.:.:.:.:.:.:.:.:.:.:.>.R.=X&XT.s.~ R G U D G G j U ) U ) ) l.l.B..X X.X XB.v.a.l.T.OX[.,.:.:.:.:.:.:.:.:.:.:.:.:.:.:.:.",
":.:.:.:.:.:.:.:.:.:.:.:.:.:.:.:.>.].&X+XU.W R C D G D G D a.v.! v.v.l.x.C.B.OX X~.x.x.l.v.T.7Xt.:.:.:.:.:.:.:.:.:.:.:.:.:.:.:.:.",
":.:.:.:.:.:.:.:.:.:.:.:.:.:.:.:.:.5.].&XU._ U j s p s Z P ! B. X X.XB.k. XB.N.k.M.v.E ! N.oXR.>.:.:.:.:.:.:.:.:.:.:.:.:.:.:.:.:.",
":.:.:.:.:.:.:.:.:.:.:.:.:.:.:.:.:.:.5.].b.s.U D D D Z B j P a.B.|..X.XN.M.v.a.Y Y Y I ~ N.[.5.:.:.:.:.=.:.:.:.:.:.:.:.:.:.:.:.:.",
":.:.:.:.:.:.:.:.:.:.:.:.:.:.=.=.:.:.:.,.j.v.E P I W U Z p j P a.|..XB.! k.! U U Z I Y _ /.5.:.:.:.:. .$.:.:.:.:.:.:.%.:.:.:.:.:.",
":.:.:.:.:.=.:.:.=.%.:.:.:.:.} %.:.:.:.:.1.n.~ P Z ! ) G s D ~ k.x.B.M.|._ h J ) S Z a.m.t.>.:.:.:.=.] =.:.:.:.:.:.:.} :.:.:.:.:.",
":.:.:.:.:.i | :.[  .:.:.:.%.' =.:.:.:.%.>.6.l.E ~ ^.a.U G S l.B.|.C..XOXl.G _ g.p.~ l.V.>.:.:.:.:.} [ :.:.:.:.:.:.$.[ :.:.:.:.:.",
":.:.:.:.&.: | $.' %.:.:.:.[ ] :.:.:.%.] &.>.6.p.6.V.W Y c./ n./. X|.OX).!.g.c.d.5.V.j.=.$.:.:.:.%.' } :.:.:.:.:.:.[ [ ;.;.:.:.:.",
":.:.| =.i - o.r ] ;.:.:..., } :.:.:.] [ :.:.:.:.:.6.j d T.6.5.<.V.!.V. .!.g.d l >.>.:.w r :.:.:.[ , %.:.:.:.:.:.&.> [ ;.@.:.:.:.",
":.%.r &.: : o.: [ @.;.=.] > $.:.:. ., $.:.:.:.:.:.t.g.! `.5.;.#.:.>. .} R.U.! b.,.| : - r @.:.$.> r %.:.:.:.:.:.| - } ;.@.:.:.:.",
"&.r i i - w +.-  .+.;. .> r =.:.&., r =.:.:.:.:.:.y.[./.T.5.;.@.%.r > o.R.%X%X}.k : - - r +.&.r w r } :.:.:.;.&.r -  .=.+.;.:.:.",
"i e i : - r X.> } O.*.r { ..:.&.r - r :.:.:.:.:.:.V.}.`.n.6.;.@.] - r %.!.=X'.5Xu - - - y X.r r { >  .&.o.;.@.{ - - i r X.*.:.:.",
": e w w : r m w r m { - m $.&.i - - - i | i | i r 1.'.+Xc.j.o.O.y - $.M !.=X'.0X-.- - - m m - m y > } } > X.X.y - - - : X.+.:.:.",
"- t - X.w : m e w m w - m > r - - - - - - - - - - 1.'.*Xb.j.w X.X.- w M ).&X'.uX4.- - - m b w n y - - > - y m y - - - - m m i | ",
"= t = m e y b b e n e e b = - = = * * = = = = = ; j.%X:XU.7.e m m e ; M ).+X`.hXQ.= = = m b y n ; = = e = e n b * * * * y m e e ",
"& t 2 n * b t b t v t v t & & & & & & & & & & & q !.=XaXT.f.t t n t 2 A ).+X`.hX0Xq & 2 n n b t & & & 2 2 * v v 2 & & & e n e b ",
"< 0 2 v % t t z b z v z 0 $ $ $ < 6 % $ $ $ y m u *X%XwXh.H n 6 v 0 < M f.Y._.tXrXk $ 2 z v z 2 $ $ $ $ 0 < 0 0 0 $ $ $ % v t v ",
"7 7 7 7 < 6 8 7 7 8 8 7 < % % < 7 7 %   % 6 8 8 A %X`.rX( 9 0 c 8 7 6 7 x ( (.qXqX7.< 7 7 7 7           % 7 6 7 7 <       8 8 8 ",
"5 5 5 5 7 8 7 5 5 5 5 7 6 7 5 5 5 5 4 5 5 5 5 8 A h.J (.N O 5 7 7 5 5 5 5 x P.Y.h.7.7 5 5 5 5 1 < O 1 < < 5 5 5 5 7 6 <   7 5 7 ",
"3 3 3 3 3 3 3 3 3 3 3 3 3 3 3 3 3 3 3 3 3 3 3 3 z V N N O 1 3 3 3 3 3 3 3 4 x N V N 4 3 3 3 3 3 3 3 3 3 3 3 3 3 3 3 3 5 5 3 3 3 ",
"1 1 1 1 1 1 1 1 1 1 1 1 1 1 1 1 1 1 1 1 1 1 1 1 1 4 4 1 1 1 1 1 1 1 1 1 1 1 1 4 4 1 1 1 1 1 1 1 1 1 1 1 1 1 1 1 1 1 1 1 1 1 1 1 ",
"o o o o o o o o o o o o o o o o o o o o o o o o o o o o o o o o o o o o o o o o o o o o o o o o o o o o o o o o o o o o o o o o ",
"X X X X X X X X X X X X X X X X X X X X X X X X X X X X X X X X X X X X X X X X X X X X X X X X X X X X X X X X X X X X X X X X ",
"1 1 1 1 1 1 1 1 1 1 1 1 1 1 1 1 1 1 1 1 1 1 1 1 1 1 1 1 1 1 1 1 1 1 1 1 1 1 1 1 1 1 1 1 1 1 1 1 1 1 1 1 1 1 1 1 1 1 1 1 1 1 1 1 "
};
