/* XPM */
static char *_748321f9b1b42458c8184e6fe29a800[] = {
/* columns rows colors chars-per-pixel */
"64 64 239 2 ",
"   c #050404",
".  c #090807",
"X  c #0D0C0B",
"o  c #100F0D",
"O  c #0F100E",
"+  c #12110F",
"@  c #1A120F",
"#  c #141311",
"$  c #191714",
"%  c #161A17",
"&  c #1B1916",
"*  c #1D1B19",
"=  c #251A15",
"-  c #211E1A",
";  c #331F1A",
":  c #182D15",
">  c #1A3C14",
",  c #193619",
"<  c #25221E",
"1  c #2A251F",
"2  c #35271E",
"3  c #0B3426",
"4  c #0F3C2B",
"5  c #183E26",
"6  c #252321",
"7  c #2A2623",
"8  c #232C22",
"9  c #2C2925",
"0  c #2D2B28",
"q  c #362A23",
"w  c #322E2A",
"e  c #2B372C",
"r  c #35312D",
"t  c #3B332C",
"y  c #3C3733",
"u  c #442118",
"i  c #44342C",
"p  c #4D3429",
"a  c #57392A",
"s  c #433B34",
"d  c #443A34",
"f  c #1B4C16",
"g  c #1C4C1B",
"h  c #1D511F",
"j  c #1D5C19",
"k  c #215E1B",
"l  c #1F671A",
"z  c #1F691B",
"x  c #21601E",
"c  c #216B1E",
"v  c #22761D",
"b  c #19472A",
"n  c #1D5528",
"m  c #144530",
"M  c #1B4B35",
"N  c #1A4C36",
"B  c #1C5135",
"V  c #1E5935",
"C  c #1D543A",
"Z  c #1E5A3D",
"A  c #2F502E",
"S  c #344836",
"D  c #215C36",
"F  c #38533B",
"G  c #1F6223",
"H  c #236E22",
"J  c #236729",
"K  c #366B27",
"L  c #277628",
"P  c #236839",
"I  c #267737",
"U  c #357C35",
"Y  c #4B4F32",
"T  c #4B443D",
"R  c #735833",
"E  c #4A7135",
"W  c #77663B",
"Q  c #1E5D40",
"!  c #355B43",
"~  c #246544",
"^  c #256B44",
"/  c #3E6143",
"(  c #287747",
")  c #4C4C44",
"_  c #564D44",
"`  c #5C544B",
"'  c #5C5853",
"]  c #665649",
"[  c #785B46",
"{  c #635B53",
"}  c #47684B",
"|  c #4D714E",
" . c #4A7557",
".. c #6F6B53",
"X. c #776859",
"o. c #6C6761",
"O. c #736C63",
"+. c #7A736B",
"@. c #82582F",
"#. c #8C6C36",
"$. c #A5763B",
"%. c #937147",
"&. c #AC7B47",
"*. c #877A69",
"=. c #847C75",
"-. c #AD7566",
";. c #2C8327",
":. c #31842D",
">. c #3A8738",
",. c #33884B",
"<. c #389756",
"1. c #438946",
"2. c #438C44",
"3. c #498E4B",
"4. c #4A904D",
"5. c #428F53",
"6. c #578C58",
"7. c #459654",
"8. c #4E9151",
"9. c #519456",
"0. c #529759",
"q. c #5A975B",
"w. c #549A5C",
"e. c #5C985D",
"r. c #728A55",
"t. c #65945A",
"y. c #548B64",
"u. c #569D60",
"i. c #589F63",
"p. c #5B976B",
"a. c #5E9C72",
"s. c #6A8F6F",
"d. c #639B64",
"f. c #6A9D67",
"g. c #779C69",
"h. c #5AA165",
"j. c #5CA56A",
"k. c #5EA96E",
"l. c #5FAA71",
"z. c #6CA16D",
"x. c #75A16F",
"c. c #69A774",
"v. c #62AD74",
"b. c #63AF78",
"n. c #75A472",
"m. c #7DA474",
"M. c #66B37C",
"N. c #68B27D",
"B. c #908857",
"V. c #AB854E",
"C. c #869566",
"Z. c #88827C",
"A. c #918C72",
"S. c #9E8972",
"D. c #B2906B",
"F. c #BB9A78",
"G. c #95A87C",
"H. c #BFA377",
"J. c #C9A16F",
"K. c #73AE82",
"L. c #68B680",
"P. c #6ABA84",
"I. c #6EBD8A",
"U. c #73B887",
"Y. c #6FC08C",
"T. c #71C28F",
"R. c #71C390",
"E. c #78C392",
"W. c #8E8983",
"Q. c #968C84",
"!. c #97938D",
"~. c #A79687",
"^. c #A99D8E",
"/. c #87AD83",
"(. c #8AB48B",
"). c #93B189",
"_. c #97B38D",
"`. c #9BB895",
"'. c #A6A884",
"]. c #B8A888",
"[. c #A7A29B",
"{. c #B9AB96",
"}. c #A6BA99",
"|. c #B5B497",
" X c #B3ACA4",
".X c #A8BEA1",
"XX c #B7B1AC",
"oX c #B9B6A9",
"OX c #C5A786",
"+X c #C3AC8B",
"@X c #C5AE91",
"#X c #D0AC91",
"$X c #C5B194",
"%X c #C4B49A",
"&X c #C9B699",
"*X c #C6B7A6",
"=X c #CBBBA3",
"-X c #CDBEAA",
";X c #D3BAAC",
":X c #C2BCB5",
">X c #8DC39B",
",X c #9AC8A6",
"<X c #A8C5A7",
"1X c #B5C3A9",
"2X c #ADCEB3",
"3X c #BCCAB3",
"4X c #CDC1AD",
"5X c #D5C3AB",
"6X c #C7C6B8",
"7X c #D2C5B3",
"8X c #D7C9B5",
"9X c #D4CABB",
"0X c #DACDBC",
"qX c #D2D3BE",
"wX c #CDCBC2",
"eX c #D3CCC3",
"rX c #D9CFC2",
"tX c #CAD4C4",
"yX c #D4D3C3",
"uX c #DCD2C5",
"iX c #D5D2CB",
"pX c #DCD5CB",
"aX c #DAD9CD",
"sX c #DEDAD3",
"dX c #DBDAD5",
"fX c #E1D6C9",
"gX c #E2DACE",
"hX c #E1D7D0",
"jX c #E3DCD3",
"kX c #E3DFD9",
"lX c #E6E1D6",
"zX c #E5E2DC",
"xX c #E8E3DD",
"cX c #E6E4E0",
"vX c #E9E6E2",
"bX c #E6E9E1",
"nX c #EBEAE5",
"mX c #EEEDE9",
"MX c #F0EFEC",
/* pixels */
"R.R.R.R.R.R.R.R.R.R.R.R.R.R.R.R.R.R.R.R.R.R.R.R.R.R.R.R.R.R.R.R.R.R.R.R.R.R.R.R.R.R.R.R.R.R.R.R.R.R.R.R.R.R.R.R.R.R.R.R.R.R.R.R.",
"R.R.R.R.R.R.R.R.R.R.R.R.R.R.R.R.R.R.R.R.R.R.R.R.R.R.R.R.R.R.R.R.R.R.R.R.R.R.E.R.R.R.R.R.R.R.R.R.R.R.R.R.R.R.R.R.R.R.R.R.R.R.R.R.",
"T.T.T.T.T.T.T.T.T.T.T.T.T.T.T.T.T.T.T.T.T.T.T.T.T.T.T.T.T.T.T.T.T.T.T.T.>X3XqX6X,XR.T.T.T.T.T.T.T.T.T.T.T.T.T.T.T.T.T.T.T.T.T.T.",
"T.T.T.T.T.T.T.T.T.T.T.T.T.T.T.T.T.T.T.T.T.T.T.T.T.T.T.T.T.T.T.T.T.T.T.,XzXlXjX0X9X/.T.T.T.Y.T.T.T.T.T.T.T.T.T.T.T.T.T.T.T.T.T.T.",
"Y.Y.Y.Y.Y.Y.Y.Y.Y.Y.Y.Y.Y.Y.Y.Y.Y.Y.Y.Y.Y.Y.Y.Y.Y.Y.Y.Y.Y.Y.Y.Y.Y.I.>XbXnXnXxX9XrXS.K.I.Y.T.I.I.I.Y.Y.Y.Y.Y.Y.Y.Y.Y.Y.Y.Y.Y.Y.Y.",
"I.I.I.I.I.I.I.I.I.I.I.I.I.I.I.I.I.I.I.I.I.I.I.I.I.P.y. . .a.I.I.I.s.tXmXnXnXxXgXzXpX*Xo.N.I. .S S  .I.I.I.I.I.I.I.I.I.I.I.I.I.I.",
"I.I.I.I.I.I.I.I.I.I.I.I.I.I.I.I.I.I.I.I.I.I.I.I.b.e # o # %  .p.F { vXmXmXnXlXzXzXzX:X< w } % $ # &  .I.I.I.I.I.I.I.I.I.I.I.I.I.",
"I.I.I.I.I.I.I.I.I.I.I.I.I.I.I.I.I.I.I.I.I.I.I.I.a.$ X   X # X X * s aXmXvXzXzXvXvXzX X< X o # + o # / I.I.I.I.I.I.I.I.I.I.I.I.I.",
"P.P.P.P.P.P.P.P.P.P.P.P.P.P.P.P.P.P.P.P.P.P.P.P.L.S X   # #     X - [.nXxXzXxXnXzXzXy #   X + X $ 8 a.P.P.P.P.P.P.P.P.P.P.P.P.P.",
"P.P.P.P.P.P.P.P.P.P.P.P.P.P.P.P.P.P.P.P.P.P.P.P.P.b.S X X X     X * ` zXzXxXxXjXjXaX@ X X   X # e a.L.P.P.P.P.P.P.P.P.P.P.P.P.P.",
"L.L.L.L.L.L.L.L.L.L.L.L.L.L.L.L.L.L.L.L.L.L.L.L.L.L.b.F o + < s 9 7 r wXzXnXnXjXjX6X# X } ! e / v.L.L.L.L.L.L.L.L.L.L.L.L.L.L.L.",
"L.L.L.L.N.L.L.L.L.L.L.L.L.L.L.L.L.P.>X,X,XU.(.<Xs.| ) T w [.6X` w w 7 +.vXmXnXjX9Xo.X + a.M.M.M.L.L.L.L.L.L.L.L.L.L.L.L.L.L.L.L.",
"M.M.M.M.M.M.M.M.M.M.M.M.M.M.M.M.U.tXjXaX!.O.` r * 7 y w _ nXiXd 0 7 i < 6XMXnXkX%X< . X y.M.M.M.M.M.M.M.M.M.M.M.M.M.M.M.M.M.M.M.",
"M.M.M.M.M.M.M.M.M.M.M.M.M.M.M.M.2XkXjX=.* * * $ 6 r r 6 [.mX!.y 0 < $ * O.mXnXkX].@   # a.M.M.M.M.M.M.M.M.M.M.M.M.M.M.M.M.M.M.M.",
"M.M.M.M.M.M.M.M.M.M.M.M.M.M.M.U.iXkXeXw O $ * 6 r s w Z.dX=.T w 0 6 $ 7 { MXnXkX{.# . 8 v.M.M.M.M.M.M.M.M.M.M.M.M.M.M.M.M.M.M.M.",
"M.M.M.M.M.M.M.M.M.M.M.M.M.M.N.<XzXzXW.& * 0 w r y O.W.cXW.y y r 0 * & 6 =.MXnXzX{.# X & p.M.M.M.M.M.M.M.M.M.M.M.M.M.M.M.M.M.M.M.",
"b.b.b.b.b.b.b.b.b.b.b.b.b.U.2XiXdXXXy 6 0 y y y { :XvX!.w r w w 6 & & * W.mXnXjX-X6 X #  .b.b.b.b.b.b.b.b.b.b.b.b.b.b.b.b.b.b.b.",
"b.b.b.b.b.b.b.b.b.b.b.b.b.,X[.Z.=.r < 9 r w y d XXaX:X7 9 r w 0 * * < $  XmXnXjX7XT X @ S b.b.b.b.b.b.b.b.b.b.b.b.b.b.b.b.b.b.b.",
"v.v.v.v.b.b.b.b.v.v.b.b.b.>X) o.) w 9 9 w 7 ) Q.zXiX' < 0 0 r 0 * * y & oXmXvXjX9XX.o & # y.b.b.v.v.v.v.b.b.b.b.v.v.v.v.b.b.b.b.",
"v.v.v.v.v.v.v.v.v.v.v.v.v.s.6 ' y 0 7 7 6 7 [.cXdX+.7 9 w 9 7 6 $ # s < XXnXxXjXrX~.& 1 X F v.v.v.v.v.v.v.v.v.v.v.v.v.v.v.v.v.v.",
"l.l.l.l.l.l.l.l.l.l.l.l.l.| * ' r 9 * 7 - ' zXnXXX7 * w w 7 9 6 # o t r 6XnXlXlXjX9X{ 7 X 8 l.l.l.l.l.l.l.l.l.l.l.l.l.l.l.l.l.l.",
"k.k.k.k.k.k.k.k.k.k.k.k.k.} 1 O.T 1 * - 7 6XnXnX+.$ * 0 0 7 0 6 # + - _ zXgX8X5X0X7X{.6 X # 6.k.k.k.k.k.k.k.k.k.k.k.k.k.k.k.k.k.",
"k.k.k.k.k.k.k.k.k.k.k.k.k.| q 6X+.7 & & W.vXvXnX) # # 6 7 0 6 * $ & - Q.0XS.%.D.D.[ [ - X X | k.k.k.k.k.k.k.k.k.k.k.k.k.k.k.k.k.",
"j.j.j.j.j.j.j.j.j.j.j.j.j.6.o.cXZ.< & 7 iXvXvXnX7 # # < < * * * * - & wX5X-.p p p u @ $ X O / j.j.j.j.j.j.j.j.j.j.j.j.j.j.j.j.j.",
"j.j.j.j.j.j.j.j.j.j.j.j.j.d.[.eXo.- & ' zXcXvXzX= + + * - # X # * & < iXfX;X] i a a   # X X F j.j.j.j.j.j.j.j.j.j.j.j.j.j.j.j.j.",
"j.j.j.j.j.j.j.j.j.j.j.j.j.j.6X^.{ - * W.zXzXvXzX= X + # $ X X X $ # 1 6X0XS.T a a 2 X # X X F j.j.j.j.j.j.j.j.j.j.j.j.j.j.j.j.j.",
"h.h.h.h.h.h.h.h.h.h.h.h.h.h.<X X' - 7 6XzXzXcXzX= X + # X # X + $ + + s { S.].S.] 2 # X X + | h.h.h.h.h.h.h.h.h.h.h.h.h.h.h.h.h.",
"h.h.h.h.h.h.h.h.h.h.h.h.h.h.(.oXi < 9 iXxXzXzXzXq # # # # + X # # + + # & < +.{ & - # X X * 0.h.h.h.h.h.h.h.h.h.h.h.h.h.h.h.h.h.",
"i.i.i.i.i.i.i.i.i.i.i.i.i.i.c.oXq 1 s sXzXzXzXcX_ & $ $ # + X $ + + + + & * 1 s 1 A.X.o X S i.i.i.i.i.i.i.i.i.i.i.i.i.i.i.i.i.i.",
"u.u.u.u.u.u.u.u.u.u.u.u.i.u.h.6Xi q O.zXzXzXzXvX XT # * - 0 X & + # # + - - & T *.$XS.o _ 6.u.u.u.u.u.u.u.u.u.u.u.u.u.u.u.u.u.u.",
"u.u.u.u.u.u.u.u.u.u.u.u.u.u.u.tX] t { zXzXzXzXzXeX=.$ # 7 ^.# = q Z.=._ y 1 ` ].@X$X*.] |.u.u.u.u.u.u.u.u.u.u.u.u.u.u.u.u.u.u.u.",
"w.w.w.w.w.w.w.w.w.w.w.w.w.w.w.3XQ.q d sXzXzXzXzXiX=.& @ t iX7 = q sXjXeX:XO.*X&X$X&X].%X_.w.w.w.w.w.w.w.w.w.w.w.w.w.w.w.w.w.w.w.",
"w.w.w.w.w.w.w.w.w.w.w.w.w.w.w.<XeXa p 6XjXjXzXzXcX~.& $ Q.jXQ.; @ [.jXuXjXrX0X&X$X=X=X-X_.w.w.w.w.w.w.w.w.w.w.w.w.w.w.w.w.w.w.w.",
"0.0.0.0.0.0.0.0.0.0.0.0.0.0.0.(.zX~.] *XjXjXjXjXzX:X- i rXrXpXa = =.jXhXjXjX0X&X=X5X=X%X).0.0.0.0.0.0.0.0.0.0.0.0.0.0.0.0.0.0.0.",
"0.0.0.0.0.0.0.0.0.0.0.0.0.0.0.z.zXjX9XeXjXjXgXgXjXsXr =.jXuX6XX.q X.kXkXxXzX8X&X-X7X=X%Xm.0.0.0.0.0.0.0.0.0.0.0.0.0.0.0.0.0.0.0.",
"0.0.0.0.0.0.0.0.0.0.0.0.0.0.0.d.dXkXjXzXjXjXgXgXgXlX{ oXjXuX*X{.~.iXzXxXvXzX0X@X-X7X%X%Xf.0.0.0.0.0.0.0.0.0.0.0.0.0.0.0.0.0.0.0.",
"0.0.0.0.0.0.0.0.0.0.0.0.0.0.8.w.tXzXgXyXyXjXgXgXgXjX:XzXjXuXrX~.9XkXkXkXkXkX8X$X-X=X$X%Xe.0.0.0.0.0.0.0.0.0.0.0.0.0.0.0.0.0.0.0.",
"8.8.8.8.8.8.8.8.8.8.8.8.8.8.8.0.1XzXjX}.z.6XgXjXjXgXzXzXjXuX5X+XjXzXzXkXjXjX7X=X&X$X+X|.0.8.8.8.8.8.8.8.8.8.8.8.8.8.8.8.8.8.8.8.",
"8.8.8.8.8.8.8.8.8.8.8.8.8.8.8.8._.zXjX}.8.d.qXjXjXjXzXzXkXpX8X7XkXzXzXkXjXhX4X=X+X+X+XG.8.8.8.8.8.8.8.8.8.8.8.8.8.8.8.8.8.8.8.8.",
"8.8.8.8.8.8.8.8.8.8.8.8.8.8.8.8.(.zXjX.X8.f.0XfXfXuXiXzXkXpX.Xn.3XjXjXjXjXhX=X&XOX+X+Xg.8.8.8.8.8.8.8.8.8.8.8.8.8.8.8.8.8.8.8.8.",
"8.8.8.8.8.8.8.8.8.8.8.8.8.8.8.8.}.zXjX`.8.}.fXfX0X}.m.zXzXpX}.8.q._.yXpXhXuX4X$XOXOX].q.8.8.8.8.8.8.8.8.8.8.8.8.8.8.8.8.8.8.8.8.",
"8.8.8.8.8.8.8.8.8.8.8.8.8.8.8.8..XzXjX/.8.1XfXpXyXf.8.tXzXgXoX9.8.8.m.7XrX0X%X$XOX].'.8.8.8.8.8.8.8.8.8.8.8.8.8.8.8.8.8.8.8.8.8.",
"8.8.8.8.8.8.8.8.8.8.8.8.8.8.8.8..XzXjX`.8.}.gXpX6X9.8.`.zXjX4Xq.8.8.9.G.9X6Xx.&X+X@XG.8.8.8.8.8.8.8.8.8.8.8.8.8.8.8.8.8.8.8.8.8.",
"8.8.8.8.8.8.8.8.8.8.8.8.8.8.8.8.(.zXjX1X8.<XgXpX6X8.8.z.kXjX9Xx.8.8.8.9.n.f.9.$X$X=Xm.8.8.8.8.8.8.8.8.8.8.8.8.8.8.8.8.8.8.8.8.8.",
"8.8.8.8.8.8.8.8.8.8.8.8.8.8.8.8.z.dXsX/.8.`.jXjX`.8.8.e.dXjXrX_.8.8.8.8.8.8.q.%X-X4Xg.8.8.8.8.8.8.8.8.8.8.8.8.8.8.8.8.8.8.8.8.8.",
"8.8.8.8.8.8.8.8.8.8.8.8.8.8.8.8.q.aXyXd.8./.jXjXx.8.8.d.kXpX7X|.9.8.8.8.8.8.x.rX9X&Xg.8.8.8.8.8.8.8.8.8.8.8.8.8.8.8.8.8.8.8.8.8.",
"8.8.8.8.8.8.8.8.8.8.8.8.8.8.8.8.8.tX3X8.8.x.jXjXe.8.8.f.pX=XF.'.9.8.8.8.8.8.z.sX-XD.C.8.8.8.8.8.8.8.8.8.8.8.8.8.8.8.8.8.8.8.8.8.",
"8.8.8.8.8.8.8.8.8.8.8.8.8.8.8.8.8.6X1X8.8.d.gXpX9.8.8.e.4X+XF.g.8.8.8.8.8.8.9.yX@X&.C.8.8.8.8.8.8.8.8.8.8.8.8.8.8.8.8.8.8.8.8.8.",
"8.8.8.8.8.8.8.8.8.8.8.8.8.8.8.8.8.3X1X8.8.e.yXpX9.8.8.9.}.$X'.9.8.8.8.8.8.8.8.1X=XD.t.8.8.8.8.8.8.8.8.8.8.8.8.8.8.8.8.8.8.8.8.8.",
"8.8.8.8.8.8.8.8.8.8.8.8.8.8.8.8.8.3X3X8.8.e.qXgXe.8.8.8.}.7Xx.8.8.8.8.8.8.8.>.(.rX{.9.8.4.8.8.8.8.8.8.8.8.8.8.8.8.8.8.8.8.8.8.8.",
"8.8.8.8.3.8.2.4.8.8.4.>.8.8.8.8.8.tXwX0.8.d.uXhXm.8.8.8.<X9Xt.8.8.8.8.8.8.3.;.n.sX4X8.4.>.8.8.8.8.8.8.8.8.8.8.8.8.8.8.8.8.8.8.8.",
"8.8.8.3.L 3.;.3.8.4.:.>.8.8.2.3.e.iXpXx.8.f.8XuX`.8.8.4.6X9Xq.8.8.3.8.8.8.:.>.f.dX9X9.2.:.8.8.8.8.8.8.8.8.8.8.8.8.8.8.8.8.4.8.4.",
"8.3.1.U H >.;.7.8.2.v 2.4.3.;.3.f.uXpX/.8.f.8XrX1X8.3.0.iX7Xq.8.1.L 4.8.2.v 2.z.kX9Xd.:.:.7.8.8.8.8.8.8.8.8.8.8.8.8.8.8.8.:.4.>.",
"8.U 1.c L L >.<.4.;.L 8.4.:.:.8.m.pX0X}.8.r.5X8X7Xe.:.).uX4Xd.U c H <.4.L L 3.z.jX9Xm.H >.<.7.8.8.8.8.8.8.8.8.8.8.8.8.8.2.L :.;.",
",.L U l U L ,.<.>.L >.4.>.v 2.8.f.5X#X%X9.6.H.OXOXC.L 3X9X4Xr.l l z ,.>.L v >.z.sX9X'.c >.,.<.8.8.8.8.8.8.8.8.8.8.8.8.2.L l L >.",
"H J H c I L U ,.H ,.3.2.c l U 1.r.J.D.D.t.9.V.V.D.V.6.yX9X7Xg.z l H ( c ,.v >.n.uX4X{.K c L ,.8.8.5.8.8.<.7.8.8.3.,.U H I l ,.1.",
"l J I H J P I ( z I H v l l l c E V.V.%.r.H E #.B.B.C.pXrX8XG.c l I ^ I ( z c m.uX9X4XE l H ( U U ( U L 1.<.5.>.c I H c I J ( c ",
"j J ( J P ^ P ^ J P j j j j j j j K K K K j J J ( J r.5X=XOX'.x j P ^ ^ P j j ..rX8X-XC.k j ( P J P J j j P ( I J G I G ( ( J j ",
"n D P n P ~ ~ ~ D D f f g n f f f P n f f f D D ~ D B.J.F.V.H.A f D ~ Q h f f E D.F.OXF.K f P P D P D f f f P ~ ^ n P ^ ~ ~ g h ",
"C C C b Z Z Z Z C b g b B B > b V Z n > > > B Z Q C ..$.$.@.V.Y n C C B > > > Y #.%.&.%.%.> B Z Z Z b > > > C C C Z Q Z C B b C ",
"N N N C C N N N N C N N N N M N N B B , : : 5 N C N Y W W ] W F N N N M b b b M R R R #.$.A N N C N M , : b N N N N N N N N N N ",
"m m m m m m m m m m m m m m m m m m m m m m m m m m m m m m m m m m m m m m m m M S S F Y A m m m m m m m m m m m m m m m m m m ",
"4 4 4 4 4 4 4 4 4 4 4 4 4 4 4 4 4 4 4 4 4 4 4 4 4 4 4 4 4 4 4 4 4 4 4 4 4 4 4 4 4 4 4 4 4 4 4 4 4 4 4 4 4 4 4 4 4 4 4 4 4 4 4 4 ",
"3 3 3 3 3 3 3 3 3 3 3 3 3 3 3 3 3 3 3 3 3 3 3 3 3 3 3 3 3 3 3 3 3 3 3 3 3 3 3 3 3 3 3 3 3 3 3 3 3 3 3 3 3 3 3 3 3 3 3 3 3 3 3 3 "
};
