/* XPM */
static char *f1e9f514ac014a11f17361b5e82eb185uMoUdWl7fFuLADvH[] = {
/* columns rows colors chars-per-pixel */
"64 64 248 2 ",
"   c #170625",
".  c #1A0A29",
"X  c #160D31",
"o  c #17163D",
"O  c #15163E",
"+  c #2F0E22",
"@  c #240E2A",
"#  c #2F1429",
"$  c #2B132C",
"%  c #33172A",
"&  c #261635",
"*  c #351C32",
"=  c #2D223F",
"-  c #342239",
";  c #5E1C1C",
":  c #5F201C",
">  c #672B1C",
",  c #482639",
"<  c #542C34",
"1  c #562C3B",
"2  c #6F2D28",
"3  c #643738",
"4  c #6E423C",
"5  c #151840",
"6  c #171E48",
"7  c #251E41",
"8  c #13204D",
"9  c #172858",
"0  c #282545",
"q  c #312F50",
"w  c #0F2F65",
"e  c #112D64",
"r  c #18376C",
"t  c #0E3B75",
"y  c #0F3A76",
"u  c #163A74",
"i  c #273A6A",
"p  c #49324C",
"a  c #5B3642",
"s  c #643948",
"d  c #753C43",
"f  c #0E417D",
"g  c #19427A",
"h  c #2E4775",
"j  c #524559",
"k  c #694746",
"l  c #74424A",
"z  c #7B474A",
"x  c #705052",
"c  c #7E6354",
"v  c #4B516D",
"b  c #6D5463",
"n  c #6A5967",
"m  c #6F646F",
"M  c #8D2B16",
"N  c #8E3116",
"B  c #8A321C",
"V  c #953619",
"C  c #A13B1E",
"Z  c #BC3810",
"A  c #8E3A2B",
"S  c #AD3D23",
"D  c #CE3D11",
"F  c #BE4210",
"G  c #B84419",
"H  c #A45216",
"J  c #994827",
"K  c #B04B32",
"L  c #D6440E",
"P  c #D8490E",
"I  c #DA4D0E",
"U  c #DC520E",
"Y  c #DB580F",
"T  c #C94715",
"R  c #D44D1B",
"E  c #C75317",
"W  c #DA5916",
"Q  c #E1550E",
"!  c #E45B0E",
"~  c #E95D0E",
"^  c #E25514",
"/  c #DB6A12",
"(  c #E5640E",
")  c #EB630E",
"_  c #EE6B0E",
"`  c #F0670E",
"'  c #F26C0E",
"]  c #EE760E",
"[  c #F4730E",
"{  c #F57B0E",
"}  c #F87C0E",
"|  c #E86818",
" . c #F16E16",
".. c #E97219",
"X. c #F47718",
"o. c #C6542D",
"O. c #DA5724",
"+. c #D66934",
"@. c #E77628",
"#. c #EA722A",
"$. c #E97A37",
"%. c #884E4D",
"&. c #975745",
"*. c #8A5855",
"=. c #945657",
"-. c #9E5B5B",
";. c #B65B43",
":. c #A75C56",
">. c #9B6557",
",. c #956B56",
"<. c #A8655D",
"1. c #B36A50",
"2. c #A87759",
"3. c #8F5C65",
"4. c #886869",
"5. c #947271",
"6. c #AB6A66",
"7. c #B26D62",
"8. c #A77B6A",
"9. c #B97864",
"0. c #CA744D",
"q. c #D1734B",
"w. c #C77B54",
"e. c #E57B46",
"r. c #E27C55",
"t. c #C27F67",
"y. c #F6830E",
"u. c #FB830E",
"i. c #FB8B0E",
"p. c #FC950E",
"a. c #EF8615",
"s. c #FC8913",
"d. c #FD9515",
"f. c #FFA218",
"g. c #F58726",
"h. c #FA9A28",
"j. c #F18833",
"k. c #FDA628",
"l. c #FCB039",
"z. c #A38265",
"x. c #BB8966",
"c. c #B18C72",
"v. c #D48658",
"b. c #E9864A",
"n. c #F18E4A",
"m. c #F4994E",
"M. c #E48856",
"N. c #EA935C",
"B. c #F8AB58",
"V. c #C78767",
"C. c #D7996B",
"Z. c #CD9572",
"A. c #EB9964",
"S. c #E6946D",
"D. c #F29E63",
"F. c #D3A677",
"G. c #DBA574",
"H. c #E7A86C",
"J. c #F3A76A",
"K. c #FBB469",
"L. c #E7AA76",
"P. c #F3AA71",
"I. c #E8B67A",
"U. c #F9B876",
"Y. c #FBC37D",
"T. c #0D468A",
"R. c #164584",
"E. c #0C4A94",
"W. c #154F94",
"Q. c #17569B",
"!. c #2B5690",
"~. c #3E608D",
"^. c #0A56A6",
"/. c #0B5EAB",
"(. c #195DAA",
"). c #085EB5",
"_. c #2058A5",
"`. c #1565AF",
"'. c #0767BA",
"]. c #1668B6",
"[. c #2A6AAF",
"{. c #475A85",
"}. c #6F718F",
"|. c #5074A6",
" X c #056CC4",
".X c #086DC7",
"XX c #056DCB",
"oX c #0E6DCA",
"OX c #0670C6",
"+X c #0571CE",
"@X c #0974CB",
"#X c #1974C9",
"$X c #0571D0",
"%X c #097CD8",
"&X c #197DD8",
"*X c #2475C9",
"=X c #217CD8",
"-X c #147FE0",
";X c #8C7D87",
":X c #0781DE",
">X c #1981DD",
",X c #2A84D8",
"<X c #0484E2",
"1X c #0988E9",
"2X c #1783E3",
"3X c #1B8CEF",
"4X c #068DF4",
"5X c #178EF6",
"6X c #1B8EF2",
"7X c #0294FC",
"8X c #0C93FB",
"9X c #0995FA",
"0X c #1992F6",
"qX c #1392FB",
"wX c #1A91F9",
"eX c #2185E3",
"rX c #2387E8",
"tX c #228BEE",
"yX c #228CF1",
"uX c #958891",
"iX c #AF918D",
"pX c #A89797",
"aX c #AFA1A2",
"sX c #C2948C",
"dX c #D6A587",
"fX c #D7AD90",
"gX c #EAA987",
"hX c #ECB88E",
"jX c #D3B5A9",
"kX c #E4BDA5",
"lX c #F8C785",
"zX c #F6CE91",
"xX c #F9C896",
"cX c #DBC4B7",
"vX c #F2CFAD",
"bX c #E6CAB8",
"nX c #F7D9B8",
"mX c #FCE3BC",
"MX c #DED3C6",
"NX c #E9D4C6",
"BX c #F4DBC6",
"VX c #F9E5C9",
"CX c #F6EAD0",
"ZX c #F7EAD7",
"AX c #FDF4DA",
"SX c #FDF6E1",
"DX c #FEFCE6",
"FX c #FFFEE8",
/* pixels */
" XOX.X+X+XXX+XXX$X$XXX+X$X.X X'.'.OX.X+X+XXX+XXXXXXX'.!.h p 1 a a a s l %.=.:.-.-.-.-.-.-.-.-.-.-.-.3.}.[.#X$X$XXXXXXX+X$X.X X'.",
".XeXtX6X3X3XyXyXyXyX3X3X6XtXeXOX.XeXtX6X3X3XyXyXyXyX,X[.{.p a a a a s l %.=.:.:.-.-.-.-.-.-.-.-.-.-.4.}.|.,XyXyXyXyX3X3X6XtXeXOX",
".XtXwX8X8XqXwXwXwXwXqX8X8X0XtX.X.XtX0X5X1X2X2X2X2X2X*X[.{.j s s k l x *.3.6.6.6.6.6.6.6.6.6.6.6.6.6.5.}.|.,XrX3XyX0XqX8X8X0XtX.X",
"$X6X8X7X7X7X9X9X9X9X7X7X7X8X6X+X$X6X4X:X@X'././.`.`._.~.v b *.*.*.4.4.5.8.iXsXsXsXiXiXsXsXsXsXsXsXsXiXuX|.[.].&X>X4X7X7X7X8X6X+X",
"+X6X8X7X7X7X7X7X7X7X7X7X7XqX6X+X+X6X1X@X/.T.y g g g h v m 4.8.8.8.c.c.iXsXjXjXjXjXjXjXjXjXjXcXcXjXjXjXpX}.{.!.[.&X4X7X7X7XqX6X+X",
"XX3XqX7X7X7X7X7X7X7X7X7X7XqX6XXXXX3X2X'.T.9 5 6 0 0 q j 4.8.c.Z.sXdXfXkXbXbXNXNXNXNXNXBXBXCXZXZXZXZXMXaX;Xn v !.].1X7X7X7XqX6XXX",
"+XyXwX8X7X7X7X7X7X7X7X7X8XwXtX X X&X#XQ.i 0 % * , , a c 8.c.F.dXdXdXfXkXvXnXVXVXVXCXZXAXSXDXFXDXDXDXCXjXiX4.b {.[.>X1X4X4X5XyX+X",
"XXtXwX8X7X7X7X7X7X7X7X7X8XwXrX).^.(._.!.j a 3 4 z z ,.2.c.F.dXF.Z.Z.Z.dXkXvXnXmXCXZXAXAXSXDXDXDXSXSXCXcXaXuX;X}.|.[.].&X2X6XtX.X",
"XXtXwX8X7X7X7X7X7X7X7X7X8XwXeX^.T.g i j x %.&.>.2.2.x.Z.F.hXhXF.x.2.8.Z.dXxXvXnXVXAXSXSXDXDXDXSXSXAXCXNXjXjXpXuX}.{.!.[.&XrXtX.X",
"+XyXwX8X7X7X7X7X7X7X7X7X8XwX=XE.y 9 0 a %.1.0.v.C.H.I.I.lXzXlXF.x.>.>.9.C.I.zXvXVXAXDXDXDXDXDXSXAXZXCXBXBXNXjXpX5.b v !.[.rXyX+X",
"XX3XqX7X7X7X7X7X7X7X7X4X1X2X].y 9 o # 3 &.0.M.N.J.U.Y.lXlXzXlXF.x.&.&.2.V.H.lXxXmXAXFXFXFXFXDXZXCXBXBXBXBXCXMXaX5.k p !.[.2X6XXX",
"+X6X8X7X7X7X7X7X7X7X4X:X@X].W.w 6 X # 3 &.0.M.N.J.U.U.Y.lXlXlXG.V.1.1.1.v.C.L.xXnXAXFXFXFXFXAXVXbXkXkXbXnXBXMXaX4.s p !.].2X6X+X",
"$X6X8X7X7X7X9X9X9X9X1X@X/.R.r 6 o X # 3 &.0.M.N.J.P.U.U.Y.lXY.H.v.w.1.w.w.v.C.hXvXAXFXFXFXFXAXnXkXdXdXkXbXBXbXpX4.a q !.].2X6X+X",
".XtXwX8X8XqXwXwXwXwX2X`.R.9 o X .   # 3 &.0.M.N.A.J.P.U.U.Y.U.J.A.v.q.0.0.w.V.dXbXZXDXDXFXFXZXbXfXV.V.dXkXBXcXpX4.p q h `.>XtX.X",
".XeXtX6X3X3XtXrXeX&X#XQ.h 0 * % $ $ * 3 &.0.M.N.A.J.P.P.U.U.U.J.D.M.M.r.0.0.w.dXvXVXAXAXDXDXZXbXdXV.w.Z.fXjXjXuXm p q !.[.=XeXOX",
" XOX.X+X+XXX.X).^.E.R.h v k k s 1 , 1 %.:.q.M.N.A.J.P.P.U.U.U.J.A.N.M.v.q.0.v.G.hXnXVXCXAXDXAXvXhXC.V.Z.c.iXuX}.v h g W./.'. X'.",
"'.OX.X+X+X+X X^.T.y i v n ,.2.,.%.l z &.1.q.M.N.A.J.P.P.P.P.P.J.J.A.A.M.v.r.v.S.hXxXnXmXCXAXAXnXxXI.C.x.8.4.m v ~.!.Q./.'. X X'.",
".XeXtX6X3X3X&X(.R.9 0 x ,.Z.C.V.2.-.=.1.0.r.M.N.A.J.P.P.P.P.P.J.J.J.D.A.M.M.M.A.P.lXzXnXVXAXAXmXzXlXH.x.,.k p h ~.*X>X2X3XrXeXOX",
".XtX0X5X1X2X#X_.h q 1 c z.H.P.C.t.<.:.1.0.q.e.M.N.A.D.D.D.D.D.D.D.D.N.N.M.b.b.N.D.J.U.xXnXAXAXmXzXY.H.2.z , 0 h [.>XqX8X8X0XtX.X",
"$X6X5X:X@X'.Q.!.v n c 2.x.G.L.Z.9.<.:.1.0.+.$.e.b.b.n.n.n.n.n.n.n.n.n.b.$.$.$.e.b.n.D.hXvXCXCXvXhXJ.v.1.4 , 0 g `.:X7X7X7X8X6X+X",
"+X6X1X@X/.T.g v m z.c.x.Z.G.C.V.9.<.:.;.o.O.O.+.#.$.$.$.$.j.j.$.$.$.$.#.#.#.#.#.#.#.e.S.kXBXBXxXL.b.+.J 2 % 6 g /.<X7X7X7XqX6X+X",
"XX3X2X'.T.9 q n z.F.hXI.G.C.Z.t.7.<.:.;.o.O.W W | | |  . .X.X. . .| | | | | | ^ W R +.M.gXnXnXhXA.+.E V > + 5 y /.<X7X7X7XqX6XXX",
"+XyX&X/.y o - x z.lXzXhXG.Z.t.7.<.=.&.K K T P U Q ! ~ ~ ) ) ) ) ) ) ) ) ) ) ~ Q I L O.r.gXvXvXgXM.O.F N ; + 5 y /.<X7X7X8XwXyX+X",
"XXtX&X/.y o - x z.I.lXI.C.V.7.>.*.l d A S T L I U Q Q ! ! ! ~ ~ ~ ) ) ) ) ) ) ! Q I O.r.L.kXkXS.r.O.Z N ; + 5 y /.<X7X7X8XwXtX.X",
"XXtX&X/.y o * x z.I.Y.L.Z.9.<.*.d 1 < 2 C D L L I U U U I I U Q ~ ) ` ` ` ` ) ~ ! Q O.e.S.hXhXS.q.O.Z M ; + 5 y /.<X7X7X8XwXtX.X",
"+XyX&X/.y 5 * k 2.L.U.G.V.7.=.l 1 * % : M Z D L L P I P L L L U ~ ) ` ` ` ` ` ) ) ~ | e.A.gXgXS.q.R Z M ; + 5 y /.<X7X7X8XwXyX+X",
"XX6X-X/.y 5 * k 2.G.L.C.9.-.z s , @ + ; M Z D L L P P L L D L U ~ ` [ [ [ [ ' ` ) ) | $.N.L.L.M.+.R Z M ; + 5 y /.<X7X7X7XqX6XXX",
"+X6X2X/.y 5 * k ,.C.G.x.>.z s , * @ + ; M Z L L I U I I L L L Q _ { } } } } { ' _ ) | j.N.P.H.M.+.R Z M ; + o y /.<X7X7X7XqX6X+X",
"$X6X2X/.y o % k ,.V.Z.2.%.a , * $ . + ; N Z L I U U U U I L I ( ] y.i.i.u.} } [ _ ) | j.m.J.J.b.#.R Z N ; + o u /.:X7X7X7X8X6X+X",
".XtX>X/.u o $ a *.V.V.>.k - @ @ .   + ; N F P U Q Q Q Q U I U ( ] p.p.p.i.i.} { ' ) | j.m.B.B.n.@.W F N ; + o u (.>XqX8X8X0XtX.X",
".XeX=X(.u o $ a *.9.9.=.s - @ @ .   + : N F I U Q ~ ~ Q U I Y _ a.d.f.d.p.i.u.{ _ ) | j.m.K.B.m.@.W F N : + o r _.=X3X3X6XtXeXOX",
" XOX).T.w o $ a *.9.V.>.z a , * $ . + : N F I U ! ) ) ! U I Y ..a.k.k.f.d.s.u.[ ) ! | j.D.Y.Y.D.$.W F N : + o e T.'.XX+X$XXX X'.",
" XOX).T.w o $ a *.9.V.2.=.z s , * @ + : N F I U ~ ) ) ~ U I Y ..g.k.l.k.d.s.u.[ ) I O.b.P.xXxXP.b.O.F N : + o e T.'.+X+X$X.X X'.",
".XeX=X(.r o $ a *.9.V.9.<.=.z s , @ + : N F I Q ~ ) ) ~ Q U W @.j.l.l.k.h.s.} _ ! L O.M.hXnXnXhXM.O.F N : + o r _.=X3X3X6XtXeXOX",
".XtX>X/.u o $ 1 *.9.V.9.7.<.=.d , $ + ; N F I Q ) ' ' ) ~ U W @.j.l.l.k.h.d.u._ ~ I O.r.gXnXnXgXM.O.T N : + o u (.>XqX8X8X0XtX.X",
"+X6X2X/.y o $ 1 %.<.9.9.7.6.=.d , $ + : N F U Q ) [ { _ ) ~ ( ..g.h.k.h.d.p.i.{ ) Q O.e.N.gXgXA.b.| E V > + o y /.:X7X7X7X8X6X+X",
"+X6X2X/.y o $ 1 z >.7.7.7.7.-.l 1 $ + : N F U ! _ { } [ _ ) )  .X.g.g.d.d.p.p.y.[ ) ~ #.e.r.M.e.@.X./ H > + o y /.<X7X7X7XqX6X+X",
"XX3X-X/.y o $ , d =.<.6.7.7.<.z 1 $ + ; N F U ( _ } u.} [ ' ` ' [ X.{ s.p.p.p.i.{ ' ) ~ O.O.O.|  .} / H > # 5 y /.<X7X7X7XqX6XXX",
"+XyX2X'.T.9 7 p a z =.-.<.7.<.%.a * % > V F I ! _ { } { [ ` ` ` ` ` [ { i.p.p.i.{ ' ) Q U L L Q _ { / H > # 5 y /.<X7X7X8XwXyX+X",
"XXtX2XoX/.T.u i p s l %.-.7.<.*.l 1 < 2 C T P U ( _ _ _ ) ~ ~ ~ ) ) ' { y.i.i.{ ] ) ~ Q Q U U Q ) _ Y C > + 5 y /.<X7X7X8XwXtX.X",
"XXtX3X%X+X'.Q.R.i p 1 l *.<.7.-.%.l d A S D L I U ! ~ ! Q I I Q ! ) _ ' { { { ] ) ~ Q Q ! ! ! ! Q Q T V : + 5 y /.<X7X7X8XwXtX.X",
"+XyX5X4X1X<X@XQ.u 7 * a %.<.7.<.-.=.&.K G D D L I U U I L L L I Q ~ ) _ ' [ ' ) ~ U U Q ~ ) ) ! Q L Z M ; + 5 y /.<X7X7X8XwXyX+X",
"XX3XqX7X7X7X<X/.y 5 $ 1 z <.7.7.<.:.:.K o.D D L L P I L L D L I Q ) _ _ ' ' ` ) Q U U Q ) ` ` ~ I L Z M ; + 5 y /.<X7X7X7XqX6XXX",
"+X6X8X7X7X7X<X/.y 5 $ 1 z -.7.6.<.<.:.;.o.T L L I U U I L L P U ( ] { { { { [ _ ~ Q Q ( _ [ [ ) Q L Z M ; + o y /.<X7X7X7XqX6X+X",
"$X6X8X7X7X9X%X/.u 5 $ , l =.<.<.6.7.1.;.o.T L I U Q Q U I P I ! _ y.y.u.u.} { [ ) ~ ~ ) ' { { ) Q I Z N ; + o u /.:X7X7X7X8X6X+X",
".XtXwX8X8XqX2X(.u 5 $ , d =.:.<.7.7.1.0.o.R P U Q ! ! Q U I Y ( ] i.p.p.i.i.u.{ _ ) ) _ { } } _ ~ U F N ; + o u (.>XqX8X8X0XtX.X",
".XeXtX6X3X3X=X(.R.9 7 p s z =.-.<.7.1.0.o.R I U Q ~ ~ Q U U Y _ a.d.f.d.p.i.i.{ [ ) ) [ { i.u.] ( U F N : + o r _.=X3X3X6XtXeXOX",
" XOX.X+X+XXX X^.T.y e q p a l %.=.<.1.;.o.R I U ! ) ) ~ U I Y ..a.k.k.f.d.s.i.} [ _ _ [ u.i.i.] ( Y F N : + o e T.'.XX+X$X.X X'.",
" XOX.X+X+XXX.X).^.E.R.i q p 1 d %.-.<.;.o.R I U ~ ) ) ~ U U Y ..g.k.l.k.d.s.i.} { ` ' { u.p.i.] ( Y F N : + o e T.'.XX+X$X.X X'.",
".XeXtX6X3X3XtXrXeX&X#XQ.i 7 * 1 l =.:.;.o.R I Q ~ ) ) ~ Q U W @.j.l.l.k.h.d.i.} [ ' [ } i.p.p.y.( Y F N : + o r _.=X3X3X6XtXeXOX",
".XtXwX8X8XqXwXwXwXwX2X`.R.9 7 p a z &.K K T I Q ) ` ' ) ~ U W @.j.l.l.k.h.d.i.u.} [ [ } i.p.p.] ( Y F N : + o u (.>XqX8X8X0XtX.X",
"$X6X8X7X7X7X9X9X9X9X1X@X/.R.i q p s d A G T U Q ) [ [ _ ) ~ ( ..g.h.k.h.d.p.i.u.} [ [ } u.i.y.] ( U F N : + o u /.:X7X7X7X8X6X+X",
"+X6X8X7X7X7X7X7X7X7X4X:X@X]._.i q p < 2 C T U ! _ { } [ _ ) )  .X.g.g.d.d.p.p.i.} [ [ { } } { _ ! U F N : + o y /.<X7X7X7XqX6X+X",
"XX3XqX7X7X7X7X7X7X7X7X4X1X2X#XR.9 7 % > V T U ( _ } u.} [ ' ` ' [ X.} s.p.p.p.i.u.[ ' ' [ [ ' ) Q U F N : + 5 y /.<X7X7X7XqX6XXX",
"+XyXwX8X7X7X7X7X7X7X7X7X8XwX=XT.w o + : B G W / ..y.s.} X.X.X.X.X.X.X.g.h.k.k.h.g.g.#.#.#.#.#.#.| O.E A : + 5 y /.<X7X7X8XwXyX+X",
"XXtXwX8X7X7X7X7X7X7X7X7X8XwX=XT.w o + : A K o.+.@.@.g.g.j.j.j.j.j.j.j.m.B.B.B.B.B.B.D.D.D.m.m.b.b.e.+.J 3 $ 5 y /.<X7X7X8XwXtX.X",
"XXtXwX8X7X7X7X7X7X7X7X7X8XwX=XT.e o $ < 2 K K +.+.$.j.n.n.n.n.m.m.m.B.K.U.lXlXzXxXxXxXxXhXhXgXL.S.S.w.&.3 % 5 y /.<X7X7X8XwXtX.X",
"+XyXwX8X7X7X7X7X7X7X7X7X8XwX=XT.e o $ , d &.:.1.0.e.b.M.N.D.J.J.K.K.U.lXxXnXnXVXVXVXVXVXBXnXvXvXhXgXZ.,.k * 5 y /.<X7X7X8XwXyX+X",
"XX3XqX7X7X7X7X7X7X7X4X4X4X5X#XT.w 6 & , s z =.:.1.0.0.w.v.C.C.C.G.H.L.hXkXcXcXMXMXNXNXMXMXcXcXjXjXdXiX4.j = 8 f /.:X4X7X9XqX6XXX",
"+X6X8X7X7X7X7X4X4X1X<X<X<X&X#XT.w 9 0 q p s d z %.&.&.&.>.>.2.2.2.2.8.z.c.iXpXpXpXpXpXpXpXpXuXuX5.5.4.n j 9 w T.'.%X1X4X4XqX6X+X",
"$X6X8X7X7X7X4X4X1X:X%X%X@XoX`.T.y r 9 q q , , 1 1 3 3 3 3 4 k k k k k x x b n n n m m m n n b b x x j j h u f Q.'.@X:X<X1X8X6X+X",
".XtXwX8X8XqX5X2X>X&X#X].].`.Q.y y u r 9 0 & $ $ $ # # # % % % * * * * * - - - - - - - - - - - * * * 0 q r R.Q.(.].#X&X>X1X6XtX.X",
".XeXtX6X3X3XrX=X=X#X].`.(._.W.f u g u 9 6 X                                                         X 9 r R.(.(.].].#X&X>XrXeXOX",
" XOX.X+X+XXXXX X)./.^.E.E.T.R.f y y w 9 5 X                                                         X 6 e y T.E.E.^./.'. X X X'."
};
