/* XPM */
static char *_117d23d6cf24fb8fd623dd676fc9b9c8zCetbe2ozQigIVy[] = {
/* columns rows colors chars-per-pixel */
"64 64 72 1 ",
"  c #1C62B7",
". c #1C62B8",
"X c #1D62BD",
"o c #2365BC",
"O c #2B6AB9",
"+ c #2869BB",
"@ c #2B6CBC",
"# c #2B6CBE",
"$ c #2065C0",
"% c #2267C2",
"& c #2465C3",
"* c #2268C0",
"= c #2168C2",
"- c #2269C3",
"; c #2269C5",
": c #276AC5",
"> c #2769C7",
", c #266DC5",
"< c #266DC7",
"1 c #286BC4",
"2 c #256CC8",
"3 c #398FF2",
"4 c #3A90F3",
"5 c #3D91F1",
"6 c #3E90F3",
"7 c #3F91F4",
"8 c #3F91F5",
"9 c #3E92F4",
"0 c #3E92F5",
"q c #3E90F6",
"w c #3E91F7",
"e c #3E94F7",
"r c #498BE1",
"t c #488CE1",
"y c #458EEA",
"u c #468FEE",
"i c #488FE9",
"p c #4A8FEE",
"a c #4D8FED",
"s c #4C8EEE",
"d c #4790EC",
"f c #4B90EB",
"g c #4A91ED",
"h c #4B90EF",
"j c #438DF0",
"k c #418FF3",
"l c #448CF2",
"z c #458FF2",
"x c #468EF2",
"c c #458EF4",
"v c #4392F1",
"b c #4090F3",
"n c #4690F1",
"m c #4791F2",
"M c #4692F2",
"N c #4594F3",
"B c #4290F4",
"V c #4290F5",
"C c #4190F7",
"Z c #4391F6",
"A c #4193F6",
"S c #4193F7",
"D c #4195F7",
"F c #4294F7",
"G c #4A93F1",
"H c #4A93F2",
"J c #4E93F0",
"K c #4193F9",
"L c #4192FB",
"P c #4397FA",
"I c #4394FD",
"U c #469AFC",
/* pixels */
"OOX2==>&&>$=2XOOOOX2==>&&>$=2XOOOOX2==>&&>$=2XOOOOX2==>&&>$=2XOO",
"#tgGydgpsgdyGgr##tgGydgpsgdyGgr##tgGydgpsgdyGgr##tgGydgpsgdyGgr#",
".imkbNmzzmNbkmi .imkbNmzzmNbkmi .imkbNmzzmNbkmi .imkbNmzzmNbkmi ",
"<GkqFBbBBbBFqkG<<GkqFFbBBbBFqkG<<GkqFBbBBbBFqkG<<GkqFBbBBbBFqkG<",
";uBIe3qBLq3eIBu=;uBIe3qBLq3eIBu=;uBIe4qBLq3eIBu=;uBIe3qBLq3eIBu=",
"$uBL44PqqP44LBu$$uBL44PqqP44LBu$$uBL44PqqP44LBu$$uBL44PqqP44LBu$",
"1JcBqFUqqUFqBcJ11JcBqFUqqUFqBcJ11JcBqFUqqUFqBcJ11JcBqFUqqUFqBcJ1",
"ofzBB6B66B6BBksoofzBB6B66B6BBksoofzBB6B66B6BBksoofzBB6B66B6BBkso",
"ofzBB6B66B6BBksoofzBB6B66B6BBksoofzBB6B66B6BBksoofzBB6B66B6BBkso",
"1JcBqFUqqUFqBcJ11JcBqFUqqUFqBcJ11JcBqFUqqUFqBcJ11JcBqFUqqUFqBcJ1",
"$uBL44PqqP44LBu$$uBL44PqqP44LBu$$uBL44PqqP44LBu$$uBL44PqqP44LBu$",
";uBIe3qBLq3eIBu=;uBIe3qBLq3eIBu=;uBIe3qBLq3eIBu=;uBIe3qBLq3eIBu=",
"<GkqFBbBBbBFqkG<<GkqFBbBBbBFqkG<<GkqFBbBBbFFqkG<<GkqFBbBBbBFqkG<",
".imkbNmzzmNbkmi .imkbNmzzmNbkmi .imkbNmzzmNbkmi .imkbNmzzmNbkmi ",
"#tgGydgpsgdyGgr##tgGydgpsgdyGgr##tgGydgpsgdyGgr##tgGydgpsgdyGgr#",
"OOX2==>&&>$=2XOOOOX2==>&&>$=2XOOOOX2==>&&>$=2XOOOOX2==>&&>$=2XOO",
"OOX2==>&&>$=2XOOOOX2==>&&>$=2XOOOOX2==>&&>$=2XOOOOX2==>&&>$=2XOO",
"#tgGydggsgdyGgr##tgGydgpsgdyGgr##tgGydgpsgdyGgr##tgGydggsgdyGgr#",
".imkbNmmzmNbkmi .imkbNmzzmNbkmi .imkbNmzzmNbkmi .imkbNmmzmNbkmi ",
"<GkqFBbBBbBFqkG<<GkqFFbBBbBFqkG<<GkqFBbBBbBFqkG<<GkqFBbBBbBFqkG<",
";uBIe3qBLq3eIBu=;uBIe3qBLq3eIBu=;uBIe4qBLq3eIBu=;uBIe3qBLq3eIBu=",
"$uBL44PqqP44LBu$$uBL44PqqP44LBu$$uBL44PqqP44LBu$$uBL44PqqP44LBu$",
"1JcBqFUqqUFqBcJ11JcBqFUqqUFqBcJ11JcBqFUqqUFqBcJ11JcBqFUqqUFqBcJ1",
"ofzBB6B66B6BBksoofzBB6B66B6BBksoofzBB6B66B6BBksoofzBB6B66B6BBkso",
"ofzBB6B66B6BBksoofzBB6B66B6BBksoofzBB6B66B6BBksoofzBB6B66B6BBkso",
"1JcBqFUqqUFqBcJ11JcBqFUqqUFqBcJ11JcBqFUqqUFqBcJ11JcBqFUqqUFqBcJ1",
"$uBL44PqqP44LBu$$uBL44PqqP44LBu$$uBL44PqqP44LBu$$uBL44PqqP44LBu$",
";uBIe3qBLq3eIBu=;uBIe3qBLq3eIBu=;uBIe3qBLq3eIBu=;uBIe3qBLq3eIBu=",
"<GkqFBbBBbBFqkG<<GkqFBbBBbBFqkG<<GkqFBbBBbFFqkG<<GkqFBbBBbBFqkG<",
".imkbNmzzmNbkmi .imkbNmzzmNbkmi .imkbNmzzmNbkmi .imkbNmzzmNbkmi ",
"#tgGydggsgdyGgr##tgGydgpsgdyGgr##tgGydgpsgdyGgr##tgGydggsgdyGgr#",
"OOX2==>&&>$=2XOOOOX2==>&&>$=2XOOOOX2==>&&>$=2XOOOOX2==>&&>$=2XOO",
"OOX2==>&&>$=2XOOOOX2==>&&>$=2XOOOOX2==>&&>$=2XOOOOX2==>&&>$=2XOO",
"#tgGydgpsgdyGgr##tgGydgpsgdyGgr##tgGydgpsgdyGgr##tgGydgpsgdyGgr#",
".imkbNmzzmNbkmi .imkbNmzzmNbkmi .imkbNmzzmNbkmi .imkbNmzzmNbkmi ",
"<GkqFFbBBbBFqkG<<GkqFBbBBbBFqkG<<GkqFFbBBbBFqkG<<GkqFBbBBbBFqkG<",
";uBIe3qBLq3eIBu=;uBIe4qBLq3eIBu=;uBIe3qBLq3eIBu=;uBIe4qBLq3eIBu=",
"$uBL44PqqP44LBu$$uBL44PqqP44LBu$$uBL44PqqP44LBu$$uBL44PqqP44LBu$",
"1JcBqFUqqUFqBcJ11JcBqFUqqUFqBcJ11JcBqFUqqUFqBcJ11JcBqFUqqUFqBcJ1",
"ofzBB6B66B6BBksoofzBB6B66B6BBksoofzBB6B66B6BBksoofzBB6B66B6BBkso",
"ofzBB6B66B6BBksoofzBB6B66B6BBksoofzBB6B66B6BBksoofzBB6B66B6BBkso",
"1JcBqFUqqUFqBcJ11JcBqFUqqUFqBcJ11JcBqFUqqUFqBcJ11JcBqFUqqUFqBcJ1",
"$uBL44PqqP44LBu$$uBL44PqqP44LBu$$uBL44PqqP44LBu$$uBL44PqqP44LBu$",
";uBIe3qBLq3eIBu=;uBIe3qBLq3eIBu=;uBIe3qBLq3eIBu=;uBIe3qBLq3eIBu=",
"<GkqFBbBBbBFqkG<<GkqFBbBBbFFqkG<<GkqFBbBBbBFqkG<<GkqFBbBBbFFqkG<",
".imkbNmzzmNbkmi .imkbNmzzmNbkmi .imkbNmzzmNbkmi .imkbNmzzmNbkmi ",
"#tgGydgpsgdyGgr##tgGydgpsgdyGgr##tgGydgpsgdyGgr##tgGydgpsgdyGgr#",
"OOX2==>&&>$=2XOOOOX2==>&&>$=2XOOOOX2==>&&>$=2XOOOOX2==>&&>$=2XOO",
"OOX2==>&&>$=2XOOOOX2==>&&>$=2XOOOOX2==>&&>$=2XOOOOX2==>&&>$=2XOO",
"#tgGydgpsgdyGgr##tgGydgpsgdyGgr##tgGydgpsgdyGgr##tgGydgpsgdyGgr#",
".imkbNmzzmNbkmi .imkbNmzzmNbkmi .imkbNmzzmNbkmi .imkbNmzzmNbkmi ",
"<GkqFBbBBbBFqkG<<GkqFBbBBbBFqkG<<GkqFBbBBbBFqkG<<GkqFBbBBbBFqkG<",
";uBIe3qBLq3eIBu=;uBIe3qBLq3eIBu=;uBIe3qBLq3eIBu=;uBIe3qBLq3eIBu=",
"$uBL44PqqP44LBu$$uBL44PqqP44LBu$$uBL44PqqP44LBu$$uBL44PqqP44LBu$",
"1JcBqFUqqUFqBcJ11JcBqFUqqUFqBcJ11JcBqFUqqUFqBcJ11JcBqFUqqUFqBcJ1",
"ofzBB6B66B6BBksoofzBB6B66B6BBksoofzBB6B66B6BBksoofzBB6B66B6BBkso",
"ofzBB6B66B6BBksoofzBB6B66B6BBksoofzBB6B66B6BBksoofzBB6B66B6BBkso",
"1JcBqFUqqUFqBcJ11JcBqFUqqUFqBcJ11JcBqFUqqUFqBcJ11JcBqFUqqUFqBcJ1",
"$uBL44PqqP44LBu$$uBL44PqqP44LBu$$uBL44PqqP44LBu$$uBL44PqqP44LBu$",
";uBIe3qBLq3eIBu=;uBIe3qBLq3eIBu=;uBIe3qBLq3eIBu=;uBIe3qBLq3eIBu=",
"<GkqFBbBBbBFqkG<<GkqFBbBBbBFqkG<<GkqFBbBBbBFqkG<<GkqFBbBBbBFqkG<",
".imkbNmzzmNbkmi .imkbNmzzmNbkmi .imkbNmzzmNbkmi .imkbNmzzmNbkmi ",
"#tgGydgpsgdyGgr##tgGydgpsgdyGgr##tgGydgpsgdyGgr##tgGydgpsgdyGgr#",
"OOX2==>&&>$=2XOOOOX2==>&&>$=2XOOOOX2==>&&>$=2XOOOOX2==>&&>$=2XOO"
};
