/* XPM */
static char *_8ab9dbf64f74ffae25f94acadd2f7feik73So9NiqQw5DBF[] = {
/* columns rows colors chars-per-pixel */
"64 64 250 2 ",
"   c #5B0501",
".  c #6D0A02",
"X  c #761401",
"o  c #563604",
"O  c #79320A",
"+  c #3C4D01",
"@  c #286601",
"#  c #306305",
"$  c #2D7300",
"%  c #404F01",
"&  c #485904",
"*  c #6E5B03",
"=  c #4F6C03",
"-  c #6B7609",
";  c #676D20",
":  c #79775D",
">  c #851901",
",  c #951201",
"<  c #AE1D01",
"1  c #8E2A08",
"2  c #9D3603",
"3  c #A52903",
"4  c #B62A04",
"5  c #A73504",
"6  c #BB3B05",
"7  c #B02F11",
"8  c #EE140A",
"9  c #F71604",
"0  c #D82A0E",
"q  c #CD3804",
"w  c #D43802",
"e  c #EE2609",
"r  c #D82A21",
"t  c #904B0A",
"y  c #995A15",
"u  c #A94706",
"i  c #BB4505",
"p  c #B95408",
"a  c #B05712",
"s  c #9E6103",
"d  c #9D6015",
"f  c #B66F0A",
"g  c #A86916",
"h  c #B67513",
"j  c #9B492C",
"k  c #AE552D",
"l  c #966435",
"z  c #B77B28",
"x  c #A07A34",
"c  c #B47D34",
"v  c #C74606",
"b  c #D44702",
"n  c #C85705",
"m  c #D95703",
"M  c #C74613",
"N  c #CE5C16",
"B  c #ED4E0A",
"V  c #F95800",
"C  c #C86604",
"Z  c #D96A03",
"A  c #D57A07",
"S  c #CC7211",
"D  c #E36A01",
"F  c #FD6701",
"G  c #EA7803",
"H  c #F97C00",
"J  c #D24D2C",
"K  c #E4552A",
"L  c #CF6F30",
"P  c #F06D38",
"I  c #957948",
"U  c #B06858",
"Y  c #CE7150",
"T  c #E86C53",
"R  c #CF7C77",
"E  c #688405",
"W  c #799702",
"Q  c #749008",
"!  c #7A881B",
"~  c #75A901",
"^  c #7A8225",
"/  c #69962A",
"(  c #73B033",
")  c #5BC216",
"_  c #798B65",
"`  c #979908",
"'  c #8D9712",
"]  c #B68A0C",
"[  c #A89B18",
"{  c #84A805",
"}  c #89B804",
"|  c #97BC07",
" . c #93A911",
".. c #B2B002",
"X. c #A59A2D",
"o. c #B58C35",
"O. c #99AF35",
"+. c #D78504",
"@. c #D0900D",
"#. c #DC9819",
"$. c #F78701",
"%. c #F99A00",
"&. c #EB8417",
"*. c #CEAE03",
"=. c #FBA802",
"-. c #F3B115",
";. c #C7892A",
":. c #D89525",
">. c #C68C35",
",. c #D58B33",
"<. c #CC9336",
"1. c #E39530",
"2. c #CFA936",
"3. c #E7A53A",
"4. c #F5AE37",
"5. c #92C309",
"6. c #97C416",
"7. c #A4C511",
"8. c #B1CA2F",
"9. c #F6C317",
"0. c #E2CA29",
"q. c #AB8E4D",
"w. c #93A74E",
"e. c #B2B350",
"r. c #968D63",
"t. c #8FAB62",
"y. c #B1AC64",
"u. c #BBB465",
"i. c #C89648",
"p. c #D39649",
"a. c #C89857",
"s. c #E9994C",
"d. c #D9A64A",
"f. c #CFB44E",
"g. c #CDA25C",
"h. c #D7AA5A",
"j. c #EDB454",
"k. c #C78168",
"l. c #D89D68",
"z. c #D5AB64",
"x. c #DAB36B",
"c. c #CBAC71",
"v. c #DBB674",
"b. c #DEBA7B",
"n. c #E3A768",
"m. c #E9BC65",
"M. c #E4B875",
"N. c #95C05E",
"B. c #F7C647",
"V. c #F8C759",
"C. c #D1DC6C",
"Z. c #EBC46B",
"A. c #F3C973",
"S. c #F7CB75",
"D. c #016EBF",
"F. c #1876B6",
"G. c #2473AD",
"H. c #5A7B8D",
"J. c #056CC5",
"K. c #096FC6",
"L. c #056DCB",
"P. c #086DCB",
"I. c #0570C6",
"U. c #0870C5",
"Y. c #0571CE",
"T. c #0C74CA",
"R. c #056ED0",
"E. c #0571D0",
"W. c #227BC5",
"Q. c #3E9D9A",
"!. c #558B9F",
"~. c #6F9190",
"^. c #69A793",
"/. c #4A8EAD",
"(. c #6E99B1",
"). c #2B95D1",
"_. c #1B8CEF",
"`. c #1594E9",
"'. c #1C8EF2",
"]. c #1B8FFA",
"[. c #0F93F7",
"{. c #0697F9",
"}. c #0294FC",
"|. c #0C93FB",
" X c #0499FE",
".X c #1596F3",
"XX c #1893F7",
"oX c #1392FB",
"OX c #1A91FA",
"+X c #2185E3",
"@X c #228BEE",
"#X c #288BE9",
"$X c #2794EA",
"%X c #3898E5",
"&X c #228CF1",
"*X c #279AF4",
"=X c #3096F0",
"-X c #5295CF",
";X c #639BD3",
":X c #53A5DB",
">X c #6CABD2",
",X c #469AE2",
"<X c #4EA9EC",
"1X c #869684",
"2X c #B6B884",
"3X c #91ABB7",
"4X c #A8B2AD",
"5X c #B3BBB8",
"6X c #DB939D",
"7X c #DBB986",
"8X c #D2B095",
"9X c #E1BD85",
"0X c #EABD91",
"qX c #D4AEA9",
"wX c #A9C595",
"eX c #D1C791",
"rX c #E5C489",
"tX c #F4CE88",
"yX c #F7D28A",
"uX c #E7C994",
"iX c #EACC9C",
"pX c #E8D29D",
"aX c #F7D595",
"sX c #F3D29B",
"dX c #C9C7B7",
"fX c #EBCEA4",
"gX c #EBCFA9",
"hX c #E8D2A9",
"jX c #EED2AC",
"kX c #F1D4AC",
"lX c #F8DCA9",
"zX c #E1C1BB",
"xX c #EDD3B3",
"cX c #F1D5B2",
"vX c #F3D9B5",
"bX c #F1D7B8",
"nX c #F3DBBB",
"mX c #FBE2B5",
"MX c #8FB5CD",
"NX c #A6BEC6",
"BX c #C599C2",
"VX c #94C3D8",
"CX c #B4C3CA",
"ZX c #CBD2CE",
"AX c #E6DBCC",
"SX c #F5DDC1",
"DX c #F5E0C4",
"FX c #F6E4CA",
"GX c #F9E6C9",
"HX c #F5E7D4",
/* pixels */
"J.I.J.Y.Y.L.Y.L.R.R.L.Y.E.J.K.D.D.I.J.Y.Y.L.Y.L.R.R.L.Y.E.J.K.D.D.I.J.Y.Y.L.Y.L.R.R.L.Y.E.J.K.D.D.I.J.Y.Y.L.Y.L.R.R.L.Y.E.J.K.D.",
"K.+X@X'._._.&X&X&X&X_._.'.@X+XU.K.+X@X'._._.&X&X&X&X_._.'.@X+XU.K.+X@X'._._.&X&X&X&X_._.'.@X+XU.K.+X@X'._._.&X&X&X&X_._.'.@X+XI.",
"J.@XOX|.|.oXOXOXOXOXoX[.|.XX@XJ.J.@XOX|.|.oXOXOXOXOXoX[.|.XX@XJ.J.@XOX|.|.oXOXOXOXOXoX[.|.XX@XJ.J.@XOX|.|.oXOXOXOXOXoX[.|.XX@XJ.",
"E.'.|.}.}.}.|.|.|.|.}.}.}.|.'.Y.E.'.|.}.}.}.|.|.|.|.}.}.}.|.'.Y.E.'.|.}.}.}.|.|.|.|.}.}.}.|.'.Y.E.'.|.}.}.}.|.|.|.|.}.}.}.|.'.Y.",
"Y.'.|.}.}.}.}.}.}.}.}.}.}.oX'.Y.Y.'.|.}.}.}.}.}.}.}.}.}.}.oX@XT.Y.'.|.}.}.}.}.}.}.}.}.}.}.oX'.Y.Y.'.|.}.}.}.}.}.}.}.}.}.}.oX'.Y.",
"L._.oX}.}.}.}.}.}.}.}.}.}.oX'.L.L._.oX}.}.}.}.}.}.}.}.}.}.$XN.( G._.oX}.}.}.}.}.}.}.}.}.}.oX'.L.L._.oX}.}.}.}.}.}.}.}.}.}.oX'.L.",
"Y.&XOX|.}.}. X}.}. X}.}.|.OX&XY.Y.&XOX|.}.}. X}.}. X}.}.|./.6.| 8.wX*X|.}.}. X}.}. X}.}.|.OX&XY.Y.&XOX|.}.}. X}.}. X}.}.|.OX&XY.",
"L.@X].|.}.}.}.}.}.}.}.}.|.OX@XL.L.@X].|.}.}.}.}.}.}.}.}.)./.8.7.8.C.wXXX}.}.}.}.}.}.}.}.|.OX@XL.L.@X].|.}.}.}.}.}.}.}.}.|.OX@XK.",
"L.@X].|.}.}.}.}.}.}.}.}.|.OX@XL.L.@X].|.}.}.[.).}.}.}.:XO./  .| 6.8.0.N.*X}.}.}.}.}.}.}.|.OX@XL.L.@X].|.}.}.}.}.}.}.}.}.|.OX@XK.",
"Y.&XOX|.}.}. X}.}. X}.}.|.OX&XY.Y.&XOX|.}.}.^.e.Q.{.`.t.u.E - W { { E ] J qX<X}.}. X}.}.|.OX&XY.Y.&XOX|.}.}. X}.}. X}.}.|.OX&XY.",
"L._.oX}.}.}.}.}.}.}.}.}.}.oX'.L.L._.oX}.}.}.;Xw.E / / W ` [ Q ~ ~ { O.2XO 0 T VX}.}.}.}.}.oX'.L.L._.oX}.}.}.}.}.}.}.}.}.}.oX'.L.",
"Y.'.|.}.}.}.}.}.}.}.}.}.}.oX'.Y.Y.'.|.}.}.}.;Xr.= E ~ } 8.[ @.} } } } y.= * e P VX|.}.}.}.oX'.Y.Y.'.|.}.}.}.}.}.}.}.}.}.}.oX'.Y.",
"E.'.|.}.}.}.|.|.|.|.}.}.}.|.'.Y.E.'.|.}. X}.BXy.Q W | } C.eX3.*. .e.} | W + * e T MX}.}.}.|.'.Y.E.'.|.}.}.}.|.|.|.|.}.}.}.|.'.Y.",
"J.@XOX|.|.oXOXOXOXOXoX[.|.XX@XJ.J.@XOX|.`./.6X2.W W 5.5.eXeXeX8X8XqX[ ! O.w.! O e 0X<X[.|.XX@XJ.J.@XOX|.|.oXOXOXOXOXoX[.|.XX@XJ.",
"K.+X@X'._._.&X&X&X&X_._.'.@X+XU.K.+X@X'._ A 6XX.<.` } 6.) ( zXw.} 8Xf.1.&.n.e.X.N P ZX$X'.@X+XU.K.+X@X'._._.&X&X&X&X_._.'.@X+XI.",
"J.I.J.Y.Y.L.Y.L.R.R.L.Y.E.J.K.D.D.I.J.T.] +.R @ = E { 6.5.q.8X( 6.c.*.i v 3 5 n L n.aX-XE.J.K.D.J.I.J.Y.Y.L.Y.L.R.R.L.Y.E.J.K.D.",
"J.I.J.Y.Y.L.Y.L.R.R.L.Y.E.J.K.D.D.I.J.W.-.h R # @ $ $ | f.P l.O.u. ...C 4 q 2 5 n N Z.5XE.J.K.D.D.I.J.Y.Y.L.Y.L.R.R.L.Y.E.J.K.D.",
"K.+X@X'._._.&X&X&X&X_._.'.@X+XU.K.+X@X>X2.@.R = @ $ $ ` A B M L q.' ..n X 2 u 5 6 5 S pX$X@X+XU.K.+X@X'._._.&X&X&X&X_._.'.@X+XI.",
"J.@XOX|.|.oXOXOXOXOXoX[.|.XX@XJ.J.@X*X2X` | Y ; @ $ $ ' &.L n b D * o.Z =.-.B.S 5 M 2 tX,XXX@XJ.J.@XOX|.|.oXOXOXOXOXoX[.|.XX@XJ.",
"E.'.|.}.}.}.|.|.|.|.}.}.}.|.'.Y.E.'.=Xc.` 6.i.I p f ~ 7.3.,.#.V $.A hXk -.9.-.$.v N O M.>X|.'.E.E.'.|.}.}.}.|.|.|.|.}.}.}.|.'.Y.",
"Y.'.|.}.}.}.}.}.}.}.}.}.}.oX'.Y.Y.'.=X8Xu.| ' R 9 9 C m e B *.$.=.=.s.3.=.=.=.m m C N l.>XoX'.Y.Y.'.|.}.}.}.}.}.}.}.}.}.}.oX'.Y.",
"L._.oX}.}.}.}.}.}.}.}.}.}.oX'.L.L._.*XeXc e.w.u.T 8 8 K K 0 ] %.%.H F m H $.$.< v n p n.>XoX'.L.L._.oX}.}.}.}.}.}.}.}.}.}.oX'.L.",
"Y.&XOX|.}.}. X}.}. X}.}.|.OX&XY.Y.&XOXJ q z o.w.SXJ P 0...@.+.%.H F V 4 D G G > 6 6 p 9X:XOX&XY.Y.&XOX|.}.}. X}.}. X}.}.|.OX&XY.",
"L.@X].|.}.}.}.}.}.}.}.}.|.OX@XL.L.@XOXU e 4 y ! ^ O.8...*.@.+.H F V e , v D n > 4 6 p 0X*XOX&XL.L.@X].|.}.}.}.}.}.}.}.}.|.OX@XK.",
"L.@X].|.}.}.}.}.}.}.}.}.|.OX@XL.L.@X]./.q 9 4 - + & E O.f.f.x.3.3.B w , 3 b w m A i a 4X|.OX@XL.L.@X].|.}.}.}.}.}.}.}.}.|.OX@XK.",
"Y.&XOX|.}.}. X}.}. X}.}.|.OX&XY.Y.&X].).h J 9 w t & & ; hX7Xc.a.p.b 4 w q m b n n 3 l.>X|.OX&XY.Y.&XOX|.}.}. X}.}. X}.}.|.OX&XY.",
"L._.oX}.}.}.}.}.}.}.}.}.}.oX'.L.L._.oX|.x c Y 8 9 6 * & dXc.X.c i q 6 m M M 5 X O N uX$X}.oX'.L.L._.oX}.}.}.}.}.}.}.}.}.}.oX'.L.",
"Y.'.|.}.}.}.}.}.}.}.}.}.}.oX'.Y.Y.'.oX}.I z o.a.J r 8 7 o.^ = ` > 3 , > .   . X u L ZX.X}.oX'.Y.Y.'.|.}.}.}.}.}.}.}.}.}.}.oX'.Y.",
"E.'.|.}.}.}.|.|.|.|.}.}.}.|.'.Y.E.'.|.|._ z i.i.g.c.k.J , s E { ` ] i 1 >   1 u N kXZX[.}.|.'.Y.E.'.|.}.}.}.|.|.|.|.}.}.}.|.'.Y.",
"J.@XOX|.|.oXOXOXOXOXoX[.|.XX@XJ.J._.OX|.~.z i.a.z.z.x.rX8Xj o % & W p 2 > > t n s.mXCXXX|.XX@XJ.J.@XOX|.|.oXOXOXOXOXoX[.|.XX@XJ.",
"K.+X@X'._._.&X&X&X&X_._.'.@X+XU.K.+X@X'.!.c i.g.z.x.b.rXrX9Xk o W = a X > 5 i k tXmXMX'.'.@X+XU.K.+X@X'._._.&X&X&X&X_._.'.@X+XI.",
"J.I.J.Y.Y.L.Y.L.R.R.L.Y.E.J.K.D.D.I.J.Y.G.g o.a.x.b.M.rXuXuX0Xk ! ! 1 6 3 , . 8XS.aX(.E.E.J.K.D.D.I.J.Y.Y.L.Y.L.R.R.L.Y.E.J.K.D.",
"J.I.J.Y.Y.L.Y.L.R.R.L.Y.E.J.K.D.D.I.J.Y.F.y C S d.b.rXrXuXuXiXiXfXhXbX3.n i p.aX-.lX(.E.E.L.K.D.D.I.J.Y.Y.L.Y.L.R.R.L.Y.E.J.K.D.",
"K.+X@X'._._.&X&X&X&X_._.'.@X+XU.K.+X@X'._.l C C A :.x.9XuXuXZ.Z.iXcXkXm.n N lXB.V.GX;X_.'.@X+XU.K.+X@X'._._.&X&X&X&X_._.'.@X+XI.",
"J.@XOX|.|.oXOXOXOXOXoX[.|.XX@XJ.J.@XOX|.|.: S +.C A d.7XuXuXZ.Z.fXbXiX#.Z 3.4.B.S.DX,X[.|.XX@XJ.J.@XOX|.|.oXOXOXOXOXoX[.|.XX@XJ.",
"E.'.|.}.}.}.|.|.|.|.}.}.}.|.'.Y.E.'.|.}.}.!.f S A +.h.7XfXiXrXjXcXiX:.Z &.G 4.sXaXhX*X}.}.|.'.Y.E.'.|.}.}.}.|.|.|.|.}.}.}.|.'.Y.",
"Y.'.|.}.}.}.}.}.}.}.}.}.}.oX'.Y.Y.'.|.}.}.).o.<.>.<.b.rXiXfXiXtXM.S p ,.3.A.sXS.mXv.|.}.}.oX'.Y.Y.'.|.}.}.}.}.}.}.}.}.}.}.oX'.Y.",
"L._.oX}.}.}.}.}.}.}.}.}.}.oX'.L.L._.oX}.}.{.o.>.h.b.uXuXiXfXA.z.p p d.j.iXjXsXS.DX5X}.}.}.oX'.L.L._.oX}.}.}.}.}.}.}.}.}.}.oX'.L.",
"Y.&XOX|.}.}. X}.}. X}.}.|.OX&XY.Y.'.].|.}.}.r.;.p.b.uXuXrXZ.h.a u h.fXjXfXcXcXFXlXNX}.}.|.OX&XY.Y.&XOX|.}.}. X}.}. X}.}.|.OX&XY.",
"L.@X].|.}.}.}.}.}.}.}.}.|.OX@XL.L.&X].|.}.}.~.>.i.v.rXiXiXh.y t a.xXjXfXjXkXtXSXlXMX}.}.|.OX@XL.L.@X].|.}.}.}.}.}.}.}.}.|.OX@XK.",
"L.@X].|.}.}.}.}.}.}.}.}.|.OX@XL.L.@X].|.}.}./.>.<.:.M.uXz.t t i.jXjXjXjXcXkXaXlXS.>X}.}.{.OX@XL.L.@X].|.}.}.}.}.}.}.}.}.|.XX@XK.",
"Y.&XOX|.}.}. X}.}. X}.}.|.OX&XY.Y.&XOX|.}.}.).z ;.d.rXb.d O o.fXxXfXcXkXcXbXvXyXyX,X}.}.{.OX&XY.Y.&XOX|.}.}. X}.}. X}.}.|.OX&XY.",
"L._.oX}.}.}.}.}.}.}.}.}.}.oX'.L.L._.oX}.}.}..Xq.;.:.d.i.O l gXjXiXiXcXcXcXnXaXB.uX*X}.}.}.oX'.L.L._.oX}.}.}.}.}.}.}.}.}.}.oX'.L.",
"Y.'.|.}.}.}.}.}.}.}.}.}.}.oX'.Y.Y.'.|.}.}.}.}.1X<.2.d.d y uXcXjXuXjXkXcXcXvXaXaXdX[.}.}.}.oX'.Y.Y.'.|.}.}.}.}.}.}.}.}.}.}.oX'.Y.",
"E.'.|.}.}.}.|.|.|.|.}.}.}.|.'.Y.E.'.|.}.}.|.|.!.p.@.2.t p.bXjXjXjXcXjXkXcXvXvXlX3X|.}.}.}.|.'.Y.E.'.|.}.}.}.|.|.|.|.}.}.}.|.'.Y.",
"J.@XOX|.|.oXOXOXOXOXoX[.|.XX@XJ.J.@XOX|.|.oXOX-X<.<.;.y rXkXcXjXcXjXA.4.A.vXsXV.;XOXoX[.|.XX@XJ.J.@XOX|.|.oXOXOXOXOXoX[.|.XX@XJ.",
"K.+X@X'._._.&X&X&X&X_._.'.@X+XU.K.+X@X'._._.&X#Xi.<.g g.fXjXnXbXkXsXV.4.kXvXyXrX%X&X_._.'.@X+XU.K.+X@X'._._.&X&X&X&X_._.'.@X+XI.",
"J.I.J.Y.Y.L.Y.L.R.R.L.Y.E.J.K.D.D.I.J.Y.Y.L.Y.L.r.<.s v.fXxXnXjXcXsXV.sXvXvXyX5XP.R.L.Y.E.J.K.D.D.I.J.Y.Y.L.Y.L.R.R.L.Y.E.J.K.D.",
"J.I.J.Y.Y.L.Y.L.R.R.L.Y.E.J.K.D.D.I.J.Y.Y.L.Y.L.H.<.g 7XjXjXcXjXcXcXbXnXvXvXFX;XR.R.L.Y.E.J.K.D.D.I.J.Y.Y.L.Y.L.R.R.L.Y.E.J.K.D.",
"K.+X@X'._._.&X&X&X&X_._.'.@X+XU.K.+X@X'._._.&X&X/.;.y 7XgXxXcXcXcXsXtXnXaXnXFX,X&X&X_._.'.@X+XU.K.+X@X'._._.&X&X&X&X_._.'.@X+XI.",
"J.@XOX|.|.oXOXOXOXOXoX[.|.XX@XJ.J.@XOX|.|.oXOXOX$Xi.y 7XgXgXcXbXvXkXvXnXyXFXAX=XOXOXoX[.|.XX@XJ.J.@XOX|.|.oXOXOXOXOXoX[.|.XX@XJ.",
"E.'.|.}.}.}.|.|.|.|.}.}.}.|.'.Y.E.'.|.}.}.}.|.|.`.q.g a.jXxXbXvXnXnXnXDXFXFXZX[.|.|.}.}.}.|.'.Y.E.'.|.}.}.}.|.|.|.|.}.}.}.|.'.Y.",
"Y.'.|.}.}.}.}.}.}.}.}.}.}.oX'.Y.Y.'.|.}.}.}.}.}.}.r.h v.jXcXbXvXnXnXSXDXFXnXNX}.}.}.}.}.}.oX'.Y.Y.'.|.}.}.}.}.}.}.}.}.}.}.oX'.Y.",
"L._.oX}.}.}.}.}.}.}.}.}.}.oX'.L.L._.oX}.}.}.}.}.}.1X@.M.cXbXnXvXnXnXnXFXHXAX%X}.}.}.}.}.}.oX'.L.L._.oX}.}.}.}.}.}.}.}.}.}.oX'.L.",
"Y.&XOX|.}.}. X}.}. X}.}.|.OX&XY.Y.&XOX|.}.}. X}.}.(.<.d.cXnXnXvXnXDXDXFXHXMX X}.}. X}.}.|.OX&XY.Y.&XOX|.}.}. X}.}. X}.}.|.OX&XY.",
"L.@X].|.}.}.}.}.}.}.}.}.|.OX@XL.L.@X].|.}.}.}.}.}.~.i.d.fXSXnXnXnXDXHXFXCX.X}.}.}.}.}.}.|.OX@XL.L.@X].|.}.}.}.}.}.}.}.}.|.OX@XK.",
"L.@X].|.}.}.}.}.}.}.}.}.|.OX@XL.L.@X].|.}.}.}.}.}.~.i.h.uXSXSXnXSXDXAXMX.X}.}.}.}.}.}.}.|.OX@XL.L.@X].|.}.}.}.}.}.}.}.}.|.OX@XK.",
"Y.&XOX|.}.}. X}.}. X}.}.|.OX&XY.Y.&XOX|.}.}. X}.}.).a.x.rXjXSXnXxX5X:X|.}.}. X}.}. X}.}.|.OX&XY.Y.&XOX|.}.}. X}.}. X}.}.|.OX&XY.",
"L._.oX}.}.}.}.}.}.}.}.}.}.oX'.L.L._.oX}.}.}.}.}.}.}.%X3X4X4XdX3X-X@XoX}.}.}.}.}.}.}.}.}.}.oX'.L.L._.oX}.}.}.}.}.}.}.}.}.}.oX'.L.",
"Y.'.|.}.}.}.}.}.}.}.}.}.}.oX'.Y.Y.'.|.}.}.}.}.}.}.}.}.}.{.oX@XY.Y.'.|.}.}.}.}.}.}.}.}.}.}.oX'.Y.Y.'.|.}.}.}.}.}.}.}.}.}.}.oX'.Y.",
"E.'.|.}.}.}.|.|.|.|.}.}.}.|.'.Y.E.'.|.}.}.}.|.|.|.|.}.}.}.|.'.Y.E.'.|.}.}.}.|.|.|.|.}.}.}.|.'.Y.E.'.|.}.}.}.|.|.|.|.}.}.}.|.'.Y.",
"J.@XOX|.|.oXOXOXOXOXoX[.|.XX@XJ.J.@XOX|.|.oXOXOXOXOXoX[.|.XX@XJ.J.@XOX|.|.oXOXOXOXOXoX[.|.XX@XJ.J.@XOX|.|.oXOXOXOXOXoX[.|.XX@XJ.",
"K.+X@X'._._.&X&X&X&X_._.'.@X+XU.K.+X@X'._._.&X&X&X&X_._.'.@X+XU.K.+X@X'._._.&X&X&X&X_._.'.@X+XU.K.+X@X'._._.&X&X&X&X_._.'.@X+XI.",
"J.I.J.Y.Y.L.Y.L.R.R.L.Y.E.J.K.D.J.I.J.Y.Y.L.Y.L.R.L.L.Y.E.J.K.D.D.K.J.Y.Y.L.Y.L.R.R.L.Y.E.J.K.D.J.I.J.Y.Y.L.Y.L.R.R.L.Y.E.J.K.D."
};
