/* XPM */
static char *bbd686eb9f5643e8e75458b5370b82a4KWzkEtMfURTmbNkq[] = {
/* columns rows colors chars-per-pixel */
"64 64 237 2 ",
"   c #36061E",
".  c #170625",
"X  c #1A0725",
"o  c #160F32",
"O  c #17143A",
"+  c #15153C",
"@  c #210623",
"#  c #250926",
"$  c #2B0B27",
"%  c #2D0E28",
"&  c #340C26",
"*  c #3D0E29",
"=  c #2F1029",
"-  c #38132B",
";  c #261637",
":  c #25193E",
">  c #391737",
",  c #58000E",
"<  c #4A071B",
"1  c #580516",
"2  c #690716",
"3  c #770616",
"4  c #6C111C",
"5  c #460E26",
"6  c #430F28",
"7  c #550D23",
"8  c #46122A",
"9  c #4B132B",
"0  c #581026",
"q  c #53142B",
"w  c #5B152C",
"e  c #551A2E",
"r  c #5B1C2E",
"t  c #491A35",
"y  c #591A32",
"u  c #691427",
"i  c #63152B",
"p  c #621A2E",
"a  c #6D1A2E",
"s  c #761323",
"d  c #731B2E",
"f  c #7C1B2E",
"g  c #771E30",
"h  c #4B2239",
"j  c #5B2234",
"k  c #5D313F",
"l  c #642332",
"z  c #682839",
"x  c #742231",
"c  c #7C2332",
"v  c #742837",
"b  c #772B39",
"n  c #76363C",
"m  c #161B45",
"M  c #3B1E40",
"N  c #13204C",
"B  c #142858",
"V  c #1A2B5C",
"C  c #29234B",
"Z  c #35284C",
"A  c #2E2D5A",
"S  c #37325C",
"D  c #0F2E65",
"F  c #112D63",
"G  c #1D366A",
"H  c #0E3570",
"J  c #0F3A75",
"K  c #143972",
"L  c #183A74",
"P  c #25376B",
"I  c #263D70",
"U  c #482649",
"Y  c #572B45",
"T  c #5B3649",
"R  c #623B4C",
"E  c #753A43",
"W  c #493F62",
"Q  c #16427E",
"!  c #25427B",
"~  c #314274",
"^  c #6C495E",
"/  c #464267",
"(  c #860918",
")  c #980819",
"_  c #A2091A",
"`  c #AB0A1B",
"'  c #B50B1D",
"]  c #861823",
"[  c #831D2E",
"{  c #8B1E2F",
"}  c #961927",
"|  c #871E30",
" . c #BB0F21",
".. c #A51624",
"X. c #B41726",
"o. c #8D242C",
"O. c #842231",
"+. c #8D2332",
"@. c #842B34",
"#. c #8A2B35",
"$. c #8B2E3A",
"%. c #932332",
"&. c #9B2633",
"*. c #952A34",
"=. c #9C2A35",
"-. c #9B2F39",
";. c #893339",
":. c #96363A",
">. c #9C343A",
",. c #A6272D",
"<. c #B2272F",
"1. c #A32C35",
"2. c #AA2E36",
"3. c #A22E39",
"4. c #A53137",
"5. c #AA3237",
"6. c #AC3339",
"7. c #A6383B",
"8. c #B53536",
"9. c #B23539",
"0. c #B43A3B",
"q. c #BB3C3C",
"w. c #C20D1E",
"e. c #CA0E21",
"r. c #C51727",
"t. c #D61427",
"y. c #E5192D",
"u. c #D32434",
"i. c #C03E3C",
"p. c #EA283A",
"a. c #A9413F",
"s. c #B4403E",
"d. c #BD413E",
"f. c #C3423E",
"g. c #853941",
"h. c #973A40",
"j. c #A83B41",
"k. c #B83E41",
"l. c #DC3441",
"z. c #ED3746",
"x. c #984847",
"c. c #8B4D53",
"v. c #925656",
"b. c #A94847",
"n. c #B44243",
"m. c #B74947",
"M. c #B6584C",
"N. c #A65754",
"B. c #AF5652",
"V. c #B86756",
"C. c #B46956",
"Z. c #B66C66",
"A. c #B9726A",
"S. c #BA7B71",
"D. c #C34541",
"F. c #C84640",
"G. c #C54B44",
"H. c #CC4C44",
"J. c #C84D4A",
"K. c #C9564B",
"L. c #D35247",
"P. c #DC5447",
"I. c #D15149",
"U. c #D35649",
"Y. c #D55D4D",
"T. c #DA5C4C",
"R. c #CA5E5A",
"E. c #EB5152",
"W. c #D9624F",
"Q. c #CA6351",
"!. c #C86956",
"~. c #D36453",
"^. c #DB6552",
"/. c #DD6C55",
"(. c #C9785D",
"). c #D57359",
"_. c #DE735A",
"`. c #D9775B",
"'. c #E5675A",
"]. c #E07B5C",
"[. c #CF7867",
"{. c #E27D66",
"}. c #D98764",
"|. c #D08F6A",
" X c #DA936C",
".X c #E18864",
"XX c #E3966C",
"oX c #E59D71",
"OX c #DEA475",
"+X c #E6A576",
"@X c #E9B27E",
"#X c #0D478A",
"$X c #194584",
"%X c #0C4690",
"&X c #0B4B93",
"*X c #0D5197",
"=X c #17559A",
"-X c #2E4D82",
";X c #245499",
":X c #0A58A6",
">X c #0B5DAB",
",X c #195CA6",
"<X c #085EB4",
"1X c #2058A5",
"2X c #0C61AE",
"3X c #1861AE",
"4X c #0767BB",
"5X c #1A68B8",
"6X c #056EC4",
"7X c #086BC5",
"8X c #056DCA",
"9X c #116FC7",
"0X c #0670C6",
"qX c #0572CD",
"wX c #0B73C8",
"eX c #1B72C9",
"rX c #0878D6",
"tX c #1D7CD8",
"yX c #2170C4",
"uX c #217BD6",
"iX c #1C7FE0",
"pX c #0880DE",
"aX c #1981DE",
"sX c #0786E7",
"dX c #1784E5",
"fX c #1B8AED",
"gX c #078DF2",
"hX c #138EF4",
"jX c #1B8EF2",
"kX c #0294FC",
"lX c #0E92F8",
"zX c #1792F9",
"xX c #2185E3",
"cX c #218AED",
"vX c #228DF1",
"bX c #EDBC84",
"nX c #F4CB8E",
/* pixels */
". . . . . . . . . . O D %X<X7X4X4X0X8XqXqX8X4X#XD O . . . . . . . . . . . . O D %X4X8XqXqX8X7X4X4X0X<X%XD O . . . . . . . . . . ",
". . . . . . . . . . + K ,XuXxXwX0XxXcXjXfXfXuX,XL + . . . . . . . . . X . . + L 1XuXfXfXjXcXxXwX0XxXuX,XK + . . . . . . . . . . ",
". . X @ # % = % % $ : P =XeXtX4X7XcXjXhXsXdXeX;XP : $ $ $ % % % % = = % % % : P ;XeXdXsXhXzXcX4X4XtXeX=XG : $ % % = % $ @ X . . ",
". . @ = 9 r l r e q t S ! =X3X:X4XfXhXpXqX4X=X! S t q q e e r r j j j j r r h S ! =X4XqXrXgXfX4X:X3X=X! S t q e r l r 9 = @ . . ",
"X X $ 9 l @.:.#.@.c z U S P $X#X:XdXdXqX>X#XG S U z x c c c @.;.;.:.:.;.;.@.b T S G #X>XwXhXdX:X#X$XP S U z c @.#.:.#.l 9 # X . ",
"X X % r @.0.f.q.5.3.#.z t : B H &XtXdX2X#XB : t z #.=.4.4.5.0.s.m.G.G.m.s.0.:.b h : B #X4XdXtX%XH B : t z #.1.6.q.f.0.@.r % . . ",
". . = l :.H.P.H.i.9.=.c r * : V $XyXeX=XG : & r c =.9.0.q.f.F.H.U.T.T.U.H.F.0.#.l 8 : G =XeXyX$XV : - r c =.9.i.H.P.H.:.l = . . ",
". . = z h.I.T.H.q.5.&.O.x p h Z P ;X=XI A > q a #.4.0.q.f.F.H.U.Y.^.^.Y.U.H.d.>.@.l h S ! ;X;XP Z h p x O.&.5.k.H.T.I.h.z = . . ",
". . = z x.Y.^.I.k.1.&.%.#.@.b Y Z P P A U y a O.*.6.q.f.F.H.U.Y./._._./.Y.U.G.s.7.#.b T S P P Z Y b @.#.%.&.1.k.I.^.Y.x.z = . . ",
". . = z x.~.'.K.k.=.%.=.1.5.:.v h : : > y d { *.4.0.f.F.H.L.T.^._.{.{._.^.T.L.G.d.0.:.b h : : h v :.5.1.=.%.=.k.K.'.~.x.z = . . ",
"O + C T c.V.~.J.n.7.3.5.6.0.5.@.r & & 9 a { &.1.6.q.i.F.H.L.T.^._.{.{._.^.T.L.H.F.f.6.@.r & & r @.5.0.6.5.3.7.n.J.R.V.c.T C + O ",
"D L I / ^ c.b.b.b.m.m.n.k.6.1.O.a q 9 i f +.&.1.6.8.q.f.F.H.U.Y./._._./.Y.U.H.F.f.q.5.#.d q q a O.1.9.0.n.m.m.b.b.b.c.^ / I L D ",
"%X,X=X-X/ T E x.B.!.R.J.n.5.&.+.f a a f +.&.1.2.6.9.0.q.f.F.H.U.Y.^.^.T.U.H.F.f.q.0.5.*.O.a a f +.&.5.n.J.R.!.B.x.E T / -X=X,X%X",
"<XtXeX=XI C h E N.[.{.R.m.3.%.{ { [ { +.&.1.2.2.2.6.9.0.q.f.F.H.U.T.T.U.H.F.f.q.0.9.2.=.%.{ [ { { %.3.m.R.{.[.N.E h C I =XeXuX<X",
"wXxXuX3X$XB Z R v.[.[.R.b.*.{ { { %.%.&.=.1.2.2.2.2.6.9.q.q.f.F.H.L.L.H.F.f.q.0.6.2.1.=.&.%.%.{ { { *.b.R.[.[.v.R Z B $X3XuXxX0X",
"0X0X4X:X#XH P W ^ v.N.x.h.+.| { %.%.&.&.&.=.=.1.1.2.6.9.8.q.q.f.F.H.H.F.f.q.0.6.1.=.=.&.&.&.%.%.+.{ +.h.x.N.v.^ W P H #X:X4X7X4X",
"6X0X7X4X:X&X$X~ W R E b b c { +.%.=.=.&.%.+.%.=.1.2.6.9.9.9.0.q.f.F.F.f.q.0.6.1.=.%.+.%.=.=.=.%.+.{ c b b E R / ~ $X&X:X4X7X7X4X",
"0XxXcXfXaXtXyX;XI Z - e p d [ +.&.1.1.=.+.O.O.%.=.1.6.6.6.6.9.0.q.f.f.q.0.9.2.=.%.O.O.+.=.1.1.&.+.[ d p e - Z I ;XyXtXaXfXcXxX0X",
"8XcXzXlXlXzXdX,XL + # * w d O.+.=.1.=.%.O.d d O.%.=.1.2.2.6.9.8.q.q.q.0.9.2.=.%.O.d d O.%.=.1.=.+.O.d w * # + L ,XaXzXlXlXzXcX7X",
"qXjXlXkXkXkXsX>XK + # 8 p O.*.*.*.=.%.c a w w a c %.=.1.2.9.8.q.q.q.q.0.5.=.%.c a w w a O.%.=.*.*.*.O.p 8 # + K >XpXkXkXkXlXjXqX",
"qXjXlXkXkXkXsX2XJ + $ 9 x *.4.*.*.+.O.a w 8 8 w a O.%.=.5.8.q.q.q.f.q.6.=.%.O.a w 8 8 w a O.+.*.=.4.*.x 9 $ m J >XsXkXkXkXzXjXqX",
"8XfXzXkXkXkXsX2XJ m $ q c 4.0.4.*.O.d w 8 % % 8 w d O.*.5.0.q.q.f.f.q.5.*.O.d w 8 % % 8 w d O.*.4.0.4.c q $ m J >XsXkXkXkXzXjX8X",
"qXvXjXgXsXsXwX*XG : - p @.0.q.5.*.+.g p 8 % % 9 l c $.>.a.m.G.G.G.K.G.n.>.;.c l 9 % % 8 p g +.*.5.q.0.#.p - : G =XwXsXsXgXjXvXqX",
"8XcXfXrXwX4X*XL A > q x *.0.q.0.5.>.$.x r 8 9 l n x.b.M.M.Q.).).`.`.(.!.V.N.x.n z 9 8 r x $.>.5.0.q.0.-.c r t S ! *X4XwXpXfXvXwX",
"8XvXdX9X>X#XG A U y a O.=.0.d.d.n.n.j.$.x p l n x.C.V.(.(.}.}. XoX+X+X X|.|.C.v.n l p x $.j.n.n.d.d.0.4.*.c z U S G #X>XwXdXcXwX",
"qXvXdX2X#XB : > y d { *.4.q.f.D.G.J.m.j.$.g c x.C.(.|. X XOX+XbXnXnXnXbX@XOX|.C.x.c g $.j.m.J.G.D.f.q.0.5.=.#.z t : B #X2XdXvXqX",
"8XjXiX>XJ + # 6 i [ %.1.5.0.f.D.G.J.G.n.>.$.:.b.V.}.XXoX+X+X@XbXnXnXnXnXbX@X X(.N.h.$.h.n.G.J.G.D.f.q.q.0.9.-.x q $ + J >XdXjX8X",
"qXjXdX>XJ m # 6 i [ %.=.2.9.q.q.k.k.n.n.b.b.b.M.!.}..XXXXXoX+X+X@XbXbX@X+X+X X}.V.N.N.b.m.n.n.n.d.d.q.q.q.k.7.b e % + J >XdXjXqX",
"qXjXdX>XJ + # 6 i [ %.&.1.6.9.9.5.5.7.n.m.M.M.!.).`..X.X.XXXXXoXoX+X+XoXoXXX X}.}.(.V.V.m.j.6.0.0.q.f.D.D.G.j.@.r % + J >XpXjXqX",
"8XcXaX>XK + # 6 i [ %.&.1.2.6.1.1.&.=.n.M.!.).)._._._.].]..X.X.X.X.X.X.X.X.X}. X XOX|.(.B.>.=.4.9.q.f.F.H.I.m.;.j % + K 2XaXcX7X",
"0XxXuX,XK + # 8 i [ %.&.1.1.1.1.=.&.3.n.K.).`.).!.Q.Q.!.).`.].].].].`.`.(.(.(.}. X+X X(.M.7.=.4.6.0.q.D.J.K.m.;.j % + K ,XuXxX0X",
"6X0X<X%XD O # 8 a +.&.&.=.1.1.1.4.5.0.m.Y./.).Q.M.x.x.M.Q.).].].].].).!.C.N.N.C.(. X X(.!.M.b.n.7.6.9.q.D.J.n.;.j % O D %X<X7X4X",
"6X0X<X%XD O # 8 a %.1.=.&.&.=.4.9.q.D.K.~./.!.M.x.n n x.M.!._._._._.!.M.x.n E v.C.(.}.`.(.!.V.M.n.4.1.6.q.D.n.@.r % O D %X<X7X4X",
"0XxXuX,XK + $ 9 d *.1.1.&.%.&.5.q.H.U.Y.^./.Q.x.n t t n x.Q././././.Q.x.n h h n x.!.`.`.}.}.(.V.b.=.&.1.9.q.0.@.e % + K ,XuXxX0X",
"<XtXeX=XG : & w c =.2.1.&.%.&.5.d.H.T.T.^./.Q.x.z - - z x.K././././.Q.x.z - - z x.Q./.]..X.X}.Q.b.*.%.1.6.q.7.@.r & : G =XeXtX<X",
"%X,X=X! A > q a O.1.2.1.&.%.%.1.q.F.L.Y.W./.Q.b.n e e b b.K.^././.].!.b.n e e n b.Q./._.].].).K.n.=.%.=.5.8.5.#.d q > A ! =X,X%X",
"D L G A U y a f %.1.2.1.&.%.%.1.0.f.H.U.W.^.Q.m.;.x d $.n.I.^.^./.].).M.:.x x ;.m.Q././././.~.G.7.=.%.&.1.6.5.*.O.a y U A G L D ",
"O + : > y d { %.=.1.2.1.&.%.%.1.9.q.G.H.Y.^.~.m.7.#.+.3.n.L.W.^./.`.).M.a.#.#.7.m.~./.^.^.W.U.m.5.&.%.&.1.2.2.=.%.{ d y > : + O ",
". . # 6 i [ %.%.=.1.1.=.%.%.%.1.6.q.f.H.U.W.Y.G.0.4.1.0.D.L.T.^./._.).K.n.4.3.n.K.W.^.W.T.P.H.d.5.&.%.%.=.1.1.=.&.%.{ i 8 # . . ",
". . # 6 i [ { %.%.&.&.%.%.{ %.=.2.8.q.D.H.U.U.G.m.s.0.n.D.H.U.Y.^././.Y.M.n.n.m.U.W.W.T.U.L.F.q.4.%.{ %.%.&.=.=.=.1.%.a 8 $ . . ",
". . # 6 i [ { +.+.+.+.+.+.{ %.&.1.6.0.d.D.H.H.G.G.G.G.G.G.F.H.U.Y.^.^.W.Q.K.K.K.Y.W.T.U.L.H.f.0.1.%.{ +.+.+.%.=.1.5.*.x 9 $ . . ",
". . # 6 i [ { { { [ [ { { { %.&.1.2.9.0.q.f.G.H.U.W.W.I.H.F.f.H.L.T.T.^./.).).^.^.T.U.L.H.f.q.9.1.%.{ { { [ O.*.4.0.4.c e $ . . ",
". . # 6 i [ { { { [ f f [ f { +.&.1.2.6.0.q.f.H.U.W.^.U.H.f.f.F.H.L.Y.W.^._._./.W.T.L.F.f.q.0.4.%.{ f [ f f O.*.4.0.4.c e $ . . ",
". . # 6 i [ { +.+.+.O.f d i a d O.%.=.1.6.0.q.D.H.U.U.H.G.f.f.f.F.F.H.I.Y.~.~.Y.U.L.F.d.0.5.=.#.c a i d f O.%.=.1.5.*.x 9 $ . . ",
". . # 6 i [ { %.%.&.+.g i 9 9 w d O.%.=.4.6.0.d.D.H.H.G.F.f.f.f.q.q.n.D.G.K.I.H.H.F.f.0.5.*.#.d p 9 q i g +.=.=.=.1.%.a 8 $ . . ",
". . # 6 i [ %.%.=.1.*.g q & & 8 w d O.%.=.5.9.0.q.f.f.f.f.f.q.q.0.9.8.q.d.f.G.f.f.f.q.5.*.#.d w 8 & & q g *.1.=.&.%.{ i 8 # . . ",
". . # 6 i f { %.=.1.=.c q & % * q p g @.-.7.0.0.0.9.8.8.8.8.8.8.5.2.2.5.8.8.0.q.d.D.n.4.$.c p q * % & q x =.1.=.%.{ f i 6 # . . ",
". . # 6 w f { %.%.=.%.f p 8 * 8 8 q p b h.b.m.n.7.=.&.,.,.<.<.<.<.<.<.,.,.&.=.7.m.K.M.x.@.l q 9 8 * 8 p g %.=.%.%.{ f w 6 # . . ",
". . # * w d { +.%.%.%.f a w q 8 8 * e z c.B.V.b.:.o.] ] } ....X.X.X.X...} ] o.:.b.V.V.c.n e * 8 8 q w a [ %.%.%.+.{ d w * # . . ",
". . @ * q a f { { { { [ f d p q * % - T c.A.A.N.;.s 2 3 ( ) _ ` ' ' ' ) ( 3 s ;.N.A.A.v.T - $ * q p d f { { { { { f a q * @ . . ",
"o O ; > t p d f [ { { { [ f d w 6 $ - k c.Z.Z.b.#.4 2 3 ( ) ` '  .r. ._ ( 3 4 #.b.Z.Z.c.k - $ 6 w d f [ { { { [ d d p t > ; O o ",
"B V V C M t w i d [ { { [ [ d i 7   5 l g.N.B.7.%.( ( ) _ '  .r.r.u.u.X...( ( %.7.B.N.g.l 6   7 i d [ [ { { [ d i w t M C V V B ",
"J $XQ G C > 8 q i f [ [ { { f u 1 < < u O.>.5.,.} ) ) ` ' e.t.u.p.l.l.u.X._ ) } ,.5.>.O.u < < 1 u f { { [ [ f i q 8 > C G $X$XJ ",
"&X,X,XQ V O % 8 w a f [ { { [ s 2 1 1 2 ( } ....` ` ' w.e.t.y.p.z.E.E.l.u. .` ` ....} ( 2 1 1 2 s [ { { [ f a w 8 % ; V Q ,X,X&X",
">XeX5X*XK N ; > t p a d f f f s 4 2 2 3 3 ( ) ) ` ' w.e.t.y.y.p.z.E.E.l.u.r.' ` _ ) ( 3 3 2 2 4 s f f f d a p t > ; N K *X5XyX>X",
"<XuXeX3X&XH V C > t q w w w i u 4 4 2 3 3 3 ( ) ) ` ' w.e.t.t.p.p.z.z.p.r.' ` ) ) ( 3 3 3 2 4 4 u i i w w q t > C V J &X3XeXuX<X",
"4XuXtX9X2X*XQ G C > & * 6 6 9 0 u s s 3 3 3 3 ( ) ) ` ' w.e.t.t.p.p.p.u.r.` ) ) ( 3 3 3 3 s s u 7 9 6 * * * > C G Q *X2XwXtXuX4X",
"8XcXdXrXqX4X:XQ V ; @ # # # & 9 i f ] s 2 2 2 3 ( ) _ ` ' ' e.t.t.y.y.t. ._ ) ( 3 2 2 2 s ] f i 9 & # # # @ ; V Q :X4XqXrXdXcX8X",
"8XfXhXsXpXrX4X*XJ N O O O O ; - w d f u 2 1 1 2 ( } ....` ` ' ' e.t.t.r.X...} ( 2 1 1 2 u f d w - ; o O O O N J *X4XrXsXsXhXjX8X",
"qXjXlXgXsXpXqX2X&XK F B B B C > t y w 7 < < < u O.>.5.,.} ) ) _ ` ' X.X.2.6.>.O.u < < < 7 w y t > C B B B F K &X2XqXpXsXgXzXjXqX",
"qXjXlXgXgXsXrXwX2X*X#X#XQ K G C > - 6 * &   5 l g.N.B.7.%.( ( ( ( ( } &.7.m.N.g.l 5   & * 6 - > C G L Q #X#X*X2X9XrXsXgXgXlXjXqX",
"8XcXzXlXlXhXfXtXeX5X3X,X=X=XQ V m ; # @ @ @ - k c.Z.Z.b.@.4 2 2 2 2 s $.b.Z.Z.c.k - @ @ @ # ; m B Q =X=X,X3X5XeXtXfXhXlXlXzXcX7X",
"wXxXcXjXfXfXcXuXuXyX5X3X3X;X$XF m o . . . . = T v.S.S.N.;.4 , , , , 4 ;.N.S.S.v.T = . . . . o m F $X=X,X3X5XyXuXiXcXfXfXjXcXxX0X",
"6X0X8XqXqX8X8X7X<X>X:X*X&X#XJ B m o . . . . = T v.S.S.N.;.4 , , , , 4 ;.N.S.S.v.T = . . . . o m B J #X&X*X:X>X<X7X8X8XqXqX8X7X4X"
};
