/* XPM */
static char *_690f88b0f3d489ed02ba3fa204c1f69pcI7YPMVQJNuYrYp[] = {
/* columns rows colors chars-per-pixel */
"64 64 250 2 ",
"   c #1C0206",
".  c #230707",
"X  c #3A1809",
"o  c #3A1B17",
"O  c #063A04",
"+  c #153D15",
"@  c #39260A",
"#  c #2E330D",
"$  c #372414",
"%  c #3A2C24",
"&  c #383528",
"*  c #373A30",
"=  c #461A09",
"-  c #581907",
";  c #51110B",
":  c #67170F",
">  c #661B0C",
",  c #46210C",
"<  c #482916",
"1  c #512E11",
"2  c #582A17",
"3  c #583719",
"4  c #682809",
"5  c #792C07",
"6  c #6F3509",
"7  c #773706",
"8  c #7C3403",
"9  c #7C340B",
"0  c #7C3B0C",
"q  c #692714",
"w  c #762B14",
"e  c #67361A",
"r  c #7B3412",
"t  c #773816",
"y  c #502B23",
"u  c #483524",
"i  c #5C3A23",
"p  c #593829",
"a  c #643B24",
"s  c #663A27",
"d  c #703B2F",
"f  c #054706",
"g  c #16470D",
"h  c #07530D",
"j  c #18520D",
"k  c #064513",
"l  c #184418",
"z  c #075715",
"x  c #195316",
"c  c #28490B",
"v  c #23510E",
"b  c #2E4D13",
"n  c #294C16",
"m  c #374B13",
"M  c #064E24",
"N  c #184E25",
"B  c #055729",
"V  c #0E5B3B",
"C  c #145A37",
"Z  c #2C512C",
"A  c #384538",
"S  c #156635",
"D  c #126D33",
"F  c #286C39",
"G  c #554C1B",
"H  c #65411E",
"J  c #7D451B",
"K  c #564D30",
"L  c #684426",
"P  c #7A4A27",
"I  c #694637",
"U  c #724F30",
"Y  c #596334",
"T  c #6C6632",
"R  c #254549",
"E  c #3D4F46",
"W  c #395748",
"Q  c #2C5457",
"!  c #355758",
"~  c #32684E",
"^  c #256355",
"/  c #386765",
"(  c #525248",
")  c #495A55",
"_  c #7A5946",
"`  c #72564C",
"'  c #516557",
"]  c #736C55",
"[  c #796758",
"{  c #445F62",
"}  c #476662",
"|  c #5A706E",
" . c #6D7670",
".. c #823403",
"X. c #843A08",
"o. c #863B0F",
"O. c #883E25",
"+. c #884518",
"@. c #954B1A",
"#. c #99521E",
"$. c #864927",
"%. c #8D4C24",
"&. c #944E26",
"*. c #8A532B",
"=. c #975325",
"-. c #824D37",
";. c #994B35",
":. c #895939",
">. c #965A36",
",. c #A55C39",
"<. c #8D6739",
"1. c #A7603F",
"2. c #8B594A",
"3. c #A85E44",
"4. c #87684A",
"5. c #946648",
"6. c #836954",
"7. c #906E52",
"8. c #96755B",
"9. c #AF6E4D",
"0. c #A8795A",
"q. c #B57656",
"w. c #8E776F",
"e. c #8A7B6C",
"r. c #967863",
"t. c #A87B66",
"y. c #B57B65",
"u. c #C2764D",
"i. c #C77758",
"p. c #D37B66",
"a. c #38844E",
"s. c #508A5E",
"d. c #6F8D73",
"f. c #90855E",
"g. c #A7875B",
"h. c #988969",
"j. c #998778",
"k. c #B6866A",
"l. c #A68C71",
"z. c #A68977",
"x. c #B78A79",
"c. c #B69678",
"v. c #C9885D",
"b. c #C78969",
"n. c #DA8966",
"m. c #C78875",
"M. c #CF9171",
"N. c #D99B7A",
"B. c #E38A67",
"V. c #E5926C",
"C. c #E69977",
"Z. c #F59A7A",
"A. c #DEA47D",
"S. c #EAA37A",
"D. c #F5A27E",
"F. c #016EBF",
"G. c #056CC5",
"H. c #096FC6",
"J. c #056DCB",
"K. c #096DCA",
"L. c #0670C6",
"P. c #0970C5",
"I. c #0571CE",
"U. c #0B72CF",
"Y. c #1675C8",
"T. c #056ED0",
"R. c #0571D0",
"E. c #0D75D0",
"W. c #1A7CD1",
"Q. c #237CCA",
"!. c #2B83CD",
"~. c #1B8CEF",
"^. c #1C8EF2",
"/. c #1B8FFA",
"(. c #0F93F7",
"). c #0294FC",
"_. c #0C93FB",
"`. c #0499FE",
"'. c #0C99FC",
"]. c #1893F7",
"[. c #1393FB",
"{. c #1A91FA",
"}. c #1799FA",
"|. c #2185E2",
" X c #2688E2",
".X c #228BEE",
"XX c #3497EE",
"oX c #228CF1",
"OX c #2896F2",
"+X c #38A4F4",
"@X c #5295CD",
"#X c #619CD2",
"$X c #75A8D0",
"%X c #57ABE9",
"&X c #4DAEF3",
"*X c #64AAE8",
"=X c #73B7EE",
"-X c #94928E",
";X c #A99786",
":X c #B3968A",
">X c #B3A296",
",X c #BAAA99",
"<X c #889EA1",
"1X c #95A7B1",
"2X c #B0B1AD",
"3X c #B7BAB6",
"4X c #C69487",
"5X c #D49985",
"6X c #C59891",
"7X c #E89C87",
"8X c #D2AB8C",
"9X c #C7AA9A",
"0X c #C6B39D",
"qX c #D7B39B",
"wX c #E9A986",
"eX c #F4AB85",
"rX c #F7A886",
"tX c #E8B18F",
"yX c #C8B5A8",
"uX c #CCB5AE",
"iX c #D7B7AA",
"pX c #ECB8A6",
"aX c #A7CCBE",
"sX c #BAC3BB",
"dX c #CEC3AC",
"fX c #C8C5B8",
"gX c #D7C7B8",
"hX c #EDCBB0",
"jX c #8AB1CE",
"kX c #A7BCC8",
"lX c #B4BDC7",
"zX c #8DBEE4",
"xX c #9BC1DC",
"cX c #ACCAC6",
"vX c #B8C5C4",
"bX c #A9C6D8",
"nX c #B3CDDC",
"mX c #93C5EC",
"MX c #A6C7E3",
"NX c #AAD0EB",
"BX c #C7C8C4",
"VX c #D0CFCC",
"CX c #E4D6C9",
"ZX c #F0D6C7",
"AX c #E3DBD5",
"SX c #F0E6D2",
"DX c #C3D2E0",
"FX c #F4EEE4",
"GX c #F0EFE9",
"HX c #F8F5E8",
/* pixels */
"G.L.G.I.I.J.I.J.T.T.J.I.R.G.G.F.F.L.G.I.I.J.I.J.T.T.J.I.R.G.G.F.L.L.1Xk.+.9 6 6 t *.c.@XI.G.H.F.F.L.G.I.I.J.I.J.T.T.J.I.R.G.G.F.",
"H.|..X^.~.~.oXoXoXoX~.~.^..X|.P.H.|..X^.~.~.oXoXoXoX~.~.^..X|.P.@XkXuXk.+.0 7 0 t *.k.3XjXXX|.P.H.|..X^.~.~.oXoXoXoX~.~.^..X|.L.",
"G..X{._._.[.{.{.{.{.[.(._.]..XG.G..X{._._.[.{.{.{.{.[.(._.].~.H.3X8Xk.5.%.+.+.+.$.*.7.l.0XkX.XG.G..X{._._.[.{.{.{.{.[.(._.]..XG.",
"R.^._.).).)._._._._.).).)._.^.I.R.^._.).).)._._._.}.&X%X%X%X*X$XyX0.%.%.%.&.&.&.*.*.-.-.l.uX*XW.R.^._.).).)._._._._.).).)._.^.I.",
"I.^._.).).).).).).).).).).[.^.I.I.^._.).).).).).}.DXdX,X,X,X9X9Xk.>.0 +.+.@.=.=.&.*.$.$.5.x.yXBX!.^._.).).).).).).).).).).[.^.I.",
"J.~.[.).).).).).).).).).).[.^.J.J.~.[.).).).'.}.=XgXz.[ _ _ :.:.*.J 7 7 7 +.#.=.&.%.%.%.*.:.8.0X$X.X[.).).).).).).).).).).[.^.J.",
"I.oX{._.).).`.).).`.).)._.{.oXI.I.oX{._.%XVXfXfXgX>X7.L L L t t t 0 7 8 8 X.@.@.#.&.=.=.%.+.:.c.dXDX&X_.).).`.).).`.).)._.{.oXI.",
"J..X/._.).).).).).).).)._.{..XJ.J..X/.}.VX,Xh.r.8.7.:.U P P $.%.+.0 7 8 8 ..o.@.@.=.=.=.=.&.*.5.r.yXzX_.).).).).).).).)._.{..XK.",
"J..X/._.).).).).).).).)._.{..XJ.J..X*XbXdXh.U L H L P *.*.*.%.&.@.X.7 8 8 ..X.o.@.#.=.=.=.=.&.P U ;XbX_.).).).).).).).)._.{..XK.",
"I.oX{._.).).`.).).`.).)._.{.oXI.I.XXVX,Xl.4.U P P J J J +.+.+.+.+.X.8 8 8 ....X.o.+.@.#.=.=.%.P U z.bX_.).).`.).).`.).)._.{.oXI.",
"J.~.[.).).).).).).).).).).[.^.J.!.MXyX8.U U *.*.=.%.J 7 7 8 8 X.X.X...8 5 8 ......X.+.@.#.&.%.P U c.bX).).).).).).).).).).[.^.J.",
"I.^._.).).).).).).).).).).[.^.@XVXyXz.4.P P $.$.@.+.0 8 8 8 8 8 8 ....8 8 8 8 8 8 9 X.+.+.+.*.5.l.yXzX).).).).).).).).).).[.^.I.",
"R.^._.).).)._._._._.).).)._.^.jX0Xr.4.:.*.$.t 0 0 7 8 8 8 ....8 8 8 8 8 8 8 8 8 8 8 9 0 0 J :.c.fXbXOX).).)._._._._.).).)._.^.I.",
"G..X{._._.[.{.{.{.{.[.(._.]..XkX;XI s -.*.+.9 9 8 8 8 8 8 ....8 8 8 7 9 8 5 6 4 4 6 J *.:.5.t.yX@X.X{._._.[.{.{.{.{.[.(._.]..XG.",
"H.|..X^.~.~.oXoXoXoX~.~.^..X XBXz.i 2 e J t 0 9 8 8 X.X.9 9 9 9 9 7 7 4 4 4 - - - q 5.c.9X,X2XjXY.|..X^.~.~.oXoXoXoX~.~.^..X|.L.",
"G.L.G.I.I.J.I.J.T.T.J.I.R.Q.jXgXr.2 , 4 6 0 0 9 8 9 o.o.r r r r r t 6 4 - - - ; - 3 h.3X!.Y.Y.G.F.L.G.I.I.J.I.J.T.T.J.I.R.G.G.F.",
"G.L.G.I.I.J.I.J.J.J.J.I.I.kXyXz._ 2 2 q 6 r 0 9 9 9 r r w 4 4 4 4 > q d -.2.2.U d U c.jXR.G.G.F.F.L.G.I.I.J.I.J.T.T.J.I.R.G.G.F.",
"H.|..X^.~.~.oXoXoXoX~.~.oXsXe.p i 3 e e r 9 r 9 9 9 r w 4 - - - ; ; ; 2.t.x.x.t.6.6.>XjX^..X|.P.H.|..X^.~.~.oXoXoXoX~.~.^..X|.L.",
"G..X{._._.[.{.{.{.{.[.(.}.3X[ < 1 i e e t r r r r w q q e d U _ _ _ 2.z.9X9X>X:X;X;XdX=X_.[..XG.G..X{._._.[.{.{.{.{.[.(._.]..XG.",
"R.^._.).).)._._._._.).).(.3X[ < 1 s s s t t t r r q - q -.t.x.9XyXyXuXgXCXgX,X,XuXVXAX&X)._.^.R.R.^._.).).)._._._._.).).)._.^.I.",
"I.^._.).).).).).).).).).'.3X[ $ 1 s s s e e q w r q - 2 2.4XiXSXFXHXHXHXHXCXyXyXAXHXGX&X).[.^.R.I.^._.).).).).).).).).).).[.^.I.",
"J.~.[.).).).).).).).).)._.sX[ $ < s e 2 2 - > q w q - 2 2.:XiXSXHXHXHXHXHXAXuXuXAXHXHXNX'.[.^.J.J.~.[.).).).).).).).).).).[.^.J.",
"I.oX{._.).).`.).).`.).).[.sX[ @ < 3 2 2 - ; ; > w q - 2 2.4XiXSXHXFXFXFXFXAXgXBXAXGXGXGXmX*X*X!.I.oX{._.).).`.).).`.).)._.{.oXI.",
"J..X/._.).).).).).).).).}.3X[ @ , 1 2 e q - ; > w w - q 5.5XhXSXCX2X-X-X-X>XyXyX>X>XfXFXFXCXCXAX!..X/._.).).).).).).).)._.{..XK.",
"J..X/._.).).).).).).).).}.3X[ X X = 2 P $.q ; > w w : : 9.7XhXSXdX[ % % u [ >X>X[ ( -XAXCX9X9XCXxXOX/._.).).).).).).).)._.{..XK.",
"I.oX{._.).).`.).).`.).).[.vXj.` p 2 s >.>.t > > w > - q 9.tXhXSX0X(     . ( :X;XI o w.AXCX6X4XuXCXDX+X_.).).`.).).`.).)._.{.oXI.",
"J.~.[.).).).).).).).).).).mXBX>Xw._ 2.0.q.>.$.w > - ; q 9.wXhXSX0X( .   . I :X:Xd o w.CXZXqX5X6X9XgX=X).).).).).).).).).).[.^.J.",
"I.^._.).).).).).).).).).).[.OXkX,Xr.0.k.b.9.,.O.q : > t 9.wXhXZX0X` o o , _ x.x._ y w.CXZXpX7Xm.x.yXMX).).).).).).).).).).[.^.I.",
"R.^._.).).)._._._._.).)._._.^.$X0Xr.0.k.b.q.,.>.;.;.;.3.b.wXtXhXqXy.2.2.5.y.5X5Xt.5.m.pXpXtX7Xm.k.yXMX).).)._._._._.).).)._.^.I.",
"G..X{._._.[.{.{.{.{.[.(._.]..X$X0Xr.0.m.m.9.1.9.u.i.n.n.C.wXeXeXwXC.C.S.S.wXwXwXN.N.wXeXeXeX7XM.m.iXxX_._.[.{.{.{.{.[.(._.]..XG.",
"H.|..X^.~.~.oXoXoXoX~.~.^..X|.@XgX>Xx.k.y.q.q.i.v.n.V.C.S.eXeXeXeXS.C.S.S.S.C.C.C.C.C.V.V.V.C.5XqXgX*X^.~.~.oXoXoXoX~.~.^..X|.L.",
"G.L.G.I.I.J.I.J.T.T.J.I.I.G.H.P.#XvX9Xt.7.q.b.b.n.V.S.eXeXeXeXeXD.V.n.B.V.V.B.B.B.B.n.i.i.p.m.qXBX#XK.I.I.J.I.J.T.T.J.I.R.G.G.F.",
"G.L.G.I.I.J.I.J.T.T.J.I.R.G.G.F.F.!.3X:Xt.k.b.b.v.M.S.eXeXeXeXeXD.V.B.B.B.B.B.B.B.p.p.b.b.m.5XuX!.L.G.I.I.J.I.J.T.T.J.I.R.G.G.F.",
"H.|..X^.~.~.oXoXoXoX~.~.^..X|.P.H.|.*X3X9Xc.0.0.9.v.C.eXeXeXeXD.D.Z.Z.Z.Z.Z.Z.V.p.p.5XqXiXuXkX@XP.|..X^.~.~.oXoXoXoX~.~.^..X|.L.",
"G..X{._._.[.{.{.{.{.[.(._.]..XG.G..X{.+XVXc.4.<.<.9.M.S.eXeXD.D.Z.Z.Z.Z.Z.Z.Z.C.p.p.8XhXAXmXXXG.G..X{._._.[.{.{.{.{.[.(._.]..XG.",
"R.^._.).).)._._._._.).).)._.^.I.R.]._._.BXj.U L P <.g.M.M.M.n.n.n.n.B.B.n.n.B.n.i.i.m.8XgXnXXXR.R.]._.).).)._._._._.).).)._.^.I.",
"I.^._.).).).).).).).).).).[.^.I.I.^._.'.vXe.1 1 3 U 5.g.g.q.q.q.q.u.u.u.u.u.u.u.u.q.q.y.8XCX=XW.I.^._.).).).).).).).).).).[.^.I.",
"J.~.[.).).).).).).).).).).[.^.J.J.~.[.[.vX[ # @ 1 G T T <.<.<.<.<.>.>.>.>.>.>.1.q.b.b.b.N.qXgXkXQ.~.[.).).).).).).).).).).[.^.J.",
"I.oX{._.).).`.).).`.).)._.{.oXI.I.oX{.[.vX] # # m G G G G G G G G G 3 3 3 3 3 P q.N.C.C.N.M.8XhXjXOX{._.).).`.).).`.).)._.{.oXI.",
"J..X/._.).).).).).).).)._.{..XJ.J..X{.}.cX .# # n b b b b m m m m # # # # @ @ L 0.tXtXeXC.b.b.qXCXnX+X_.).).).).).).).)._.{..XK.",
"J..X/._.).).).).).).).)._.{..XJ.J..X/.}.cX .+ + n x x x x x v v c c c c c # # L g.8XtXeXS.N.N.8XqXgX=X_.).).).).).).).)._.]..XK.",
"I.oX{._.).).`.).).`.).)._.{.oXI.I.oX{.[.cXd.+ l N x z z z z h j j v v v c b m T g.8XwXeXeXwXA.M.k.iXMX_.).).`.).).`.).)._.{.oXI.",
"J.~.[.).).).).).).).).).).[.^.J.J.~.[._.cXd.N l k z z z z z h j j j v v c b m Y g.8XtXeXeXeXS.b.k.qXMX).).).).).).).).).).[.^.J.",
"I.^._.).).).).).).).).).).[.^.I.I.^._.'.cXd.N k k k z z z h z x j j j v c b m Y h.8XtXeXeXeXwXb.y.qXnX).).).).).).).).).).[.^.I.",
"R.^._.).).)._._._._.).).)._.^.I.R.]._.'.cXd.Z N N x z h h h h j x j g v v b b Y h.8XtXeXeXeXwXb.k.qXnX).).)._._._._.).).)._.^.I.",
"G..X{._._.[.{.{.{.{.[.(._.]..XG.G..X{.}.cXd.F F ~ F x f f f f h j j x n n n b Y h.8XtXtXeXeX7Xm.x.yXnX_._.[.{.{.{.{.[.(._.]..XG.",
"H.|..X^.~.~.oXoXoXoX~.~.^..X|.P.P.|..XOXcXd.F ~ s.a.N O f f f f h j x x x n n Y h.8X8XwXwXwX7X4X:XiXMX^.~.~.oXoXoXoX~.~.^..X|.L.",
"G.L.G.I.I.J.I.J.T.T.J.I.R.G.G.F.F.L.J.E.aXd.S F a.~ S x z z h f f g g g g g l Z ] l.c.M.M.M.5X9XiXCXjXI.I.J.I.J.T.T.J.I.R.G.G.F.",
"G.L.G.I.I.J.I.J.T.T.J.I.R.G.G.F.F.L.Y.@XaXd.C S F F F D D D z f O O O O O O + n ' f.f.g.y.y.4XiXSXGX#XR.I.I.I.T.T.T.J.I.R.G.G.F.",
"H.|..X^.~.~.oXoXoXoX~.~.^..X|.P.H. XbXsX<Xs.S S S S D D D D B k k k k k k + + Z Y ] 4.4.0.x.qXCXFXHX=X^.~.~.oXoXoXoX~.~.^..X|.L.",
"G..X{._._.[.{.{.{.{.[.(._.]..XH.H.%XsXd.' ~ ~ S B B V V B B B B M M M M M M l Z Y ] U L 7.0XZXSXFXHX=X_._.[.{.{.{.{.[.(._.]..XG.",
"R.^._.).).)._._._._.).).).mXDXlX3XfX-X' A W ~ ~ C C V V V V V V V V V V V C Z A ( ` K 3 _ :XdXdXdXAXmX).).)._._._._.).).)._.^.I.",
"I.^._.).).).).).).).).).'.BX>Xe.[ [ ( * & A W ~ ~ ^ ^ Q ^ ^ ^ ^ ^ ^ ^ ^ ^ ~ W ) ( ` p , y U 6.[ 6.,XMX).).).).).).).).).).[.^.I.",
"J.~.[.).).).).).).).).)._.3X[ $ $ $ $ $ $ A E ) } } / / / / / / / / / / / / } ' ( K u X X = , , < j.bX).).).).).).).).).).[.^.J.",
"I.oX{._.).).`.).).`.).).[.3X[ o < < < u & * A E { } } / ! Q Q Q Q Q Q ! / } } ) K u < < < 2 < @ < e.bX_.).).`.).).`.).)._.{.oXI.",
"J..X/._.).).).).).).).).}.3X[ o < p p p u & & A ) ) } { ! R R R R R R Q / } ' ( & @ < 3 3 s i < $ e.bX_.).).).).).).).)._.{..XK.",
"J..X/._.).).).).).).).).}.3X[ o y d d s p u & * A ( ) ) | |  . . . .| } ! E ( K u < 1 3 L L i < $ e.bX_.).).).).).).).)._.{..XK.",
"I.oX{._.).).`.).).`.).).[.3X` X y d I s i p u u % & * ) -XkXkXkXkXcX2Xd.E * & % < 3 3 H L L i < $ e.bX_.).).`.).).`.).)._.{.oXI.",
"J.~.[.).).).).).).).).)._.sXw.p s d d s s s K u $ % (  .2X+X^.J.J.~.%X<X' A $ $ < s s L s i i p K -XxX).).).).).).).).).).[.^.J.",
"I.^._.).).).).).).).).).).xXyXz._ p 2 s s s L u $ K j.2XxX}.^.I.I.^.}.*X1X .* $ y s s s 3 < p [ ;XfX=X).).).).).).).).).).[.^.I.",
"R.^._.).).)._._._._.).).).[.XXjXj.p 2 2 s s p u $ ` 2X+X'._.^.I.R.^._.).+X<X( % p s s i 3 < I ;X$X+X[.).)._._._._._.).).)._.^.I.",
"G..X{._._.[.{.{.{.{.[.(._.]..XY.<Xw._ s 2 2 2 < $ ` 3X}._.].~.G.G..X{._.[.%X<X[ I 2 2 2 I [ j.1XY..X{.[._.[.{.{.{.{.[.(._.]..XG.",
"H.|..X^.~.~.oXoXoXoX~.~.^..X|.P.Y.#X-XI = = = X $ ` 2XOX^..X|.P.P.|..X^.~..X%X>X` = = , _ >X$XQ.H.|..X^.~.~.oXoXoXoX~.~.^..X|.L.",
"G.L.G.I.I.J.I.J.T.T.J.I.R.G.G.F.G.H.<XI = = = X o ` 2XE.R.J.G.F.F.L.G.I.I.J.U.1X[ X X = 6.<XH.G.G.L.G.I.I.J.I.J.T.T.J.I.R.G.G.F."
};
