/* XPM */
static char *result[] = {
/* columns rows colors chars-per-pixel */
"64 64 225 2 ",
"   c #170625",
".  c #1D0825",
"X  c #1B0C2B",
"o  c #180625",
"O  c #1C1030",
"+  c #230E29",
"@  c #2A132C",
"#  c #25112C",
"$  c #361B2E",
"%  c #291934",
"&  c #291631",
"*  c #371A32",
"=  c #3E2234",
"-  c #49181F",
";  c #49151F",
":  c #5A1C1D",
">  c #5C211E",
",  c #642D1D",
"<  c #481A24",
"1  c #44222F",
"2  c #432236",
"3  c #4C2C3B",
"4  c #492936",
"5  c #552B3A",
"6  c #49333B",
"7  c #55343C",
"8  c #5E2327",
"9  c #6C3636",
"0  c #73453C",
"q  c #5A2F40",
"w  c #5C3142",
"e  c #573B46",
"r  c #623644",
"t  c #673B47",
"y  c #713F49",
"u  c #5A444A",
"i  c #66454A",
"p  c #784849",
"a  c #7A564A",
"s  c #754C56",
"d  c #79555A",
"f  c #654954",
"g  c #7E645A",
"h  c #775F65",
"j  c #7B666C",
"k  c #7E7279",
"l  c #7C6C75",
"z  c #923216",
"x  c #98331A",
"c  c #912B16",
"v  c #A12E14",
"b  c #A33914",
"n  c #A23616",
"m  c #843933",
"M  c #AD3E21",
"N  c #CD3C0F",
"B  c #D23E0F",
"V  c #B55214",
"C  c #BB4927",
"Z  c #B25734",
"A  c #93453C",
"S  c #D5440E",
"D  c #D34A0F",
"F  c #DA4C0E",
"G  c #D8440E",
"H  c #DC520E",
"J  c #D54C11",
"K  c #D84A16",
"L  c #DA5517",
"P  c #CF4811",
"I  c #E14F0E",
"U  c #E2560E",
"Y  c #E45B0E",
"T  c #E95E0E",
"R  c #E45A12",
"E  c #E5630E",
"W  c #EC640E",
"Q  c #EC6A0E",
"!  c #F26C0E",
"~  c #F0670E",
"^  c #ED740E",
"/  c #F4740E",
"(  c #F67A0E",
")  c #F97D0E",
"_  c #EA6411",
"`  c #E76A17",
"'  c #F16B11",
"]  c #E4701F",
"[  c #F57A14",
"{  c #F37418",
"}  c #C7542B",
"|  c #DB5C27",
" . c #C55432",
".. c #D96428",
"X. c #E46B2A",
"o. c #E9762D",
"O. c #EC7C33",
"+. c #F17E30",
"@. c #E46F3A",
"#. c #88574A",
"$. c #995745",
"%. c #895553",
"&. c #925556",
"*. c #9D5B5B",
"=. c #945358",
"-. c #834A50",
";. c #AB5749",
":. c #AD594B",
">. c #8C6558",
",. c #976456",
"<. c #9D6B51",
"1. c #B8654B",
"2. c #A4625D",
"3. c #A8665E",
"4. c #A67859",
"5. c #B56F52",
"6. c #8E5D63",
"7. c #9C7469",
"8. c #96797B",
"9. c #966C6B",
"0. c #A66666",
"q. c #AB6863",
"w. c #B16D62",
"e. c #AC7A67",
"r. c #B57662",
"t. c #C4724C",
"y. c #DB7948",
"u. c #C77954",
"i. c #D67B52",
"p. c #C66A49",
"a. c #E47C44",
"s. c #E17B56",
"d. c #C07E67",
"f. c #FA830E",
"g. c #FB8B0E",
"h. c #F4880E",
"j. c #FC950E",
"k. c #F98B15",
"l. c #FE9314",
"z. c #FD9C1B",
"x. c #FD9516",
"c. c #FEA61A",
"v. c #F48627",
"b. c #F69628",
"n. c #EB8135",
"m. c #F48534",
"M. c #F49836",
"N. c #FFA629",
"B. c #FEB43B",
"V. c #FBA736",
"C. c #BA8259",
"Z. c #9E8465",
"A. c #B1886E",
"S. c #DC8253",
"D. c #D88D5C",
"F. c #E88548",
"G. c #E58954",
"H. c #E9925E",
"J. c #EA9359",
"K. c #F19555",
"L. c #F2985A",
"P. c #F5A558",
"I. c #FAAD52",
"U. c #C78667",
"Y. c #CA946B",
"T. c #D59869",
"R. c #CB9B7B",
"E. c #D69D74",
"W. c #D88D63",
"Q. c #EE9F69",
"!. c #EC9A63",
"~. c #E99B72",
"^. c #EB9263",
"/. c #D8A877",
"(. c #D4A371",
"). c #F4A869",
"_. c #F8B168",
"`. c #E6AA75",
"'. c #F3AB71",
"]. c #F3A770",
"[. c #F9B977",
"{. c #EBB377",
"}. c #FAC075",
"|. c #BD928D",
" X c #B39794",
".X c #AA9190",
"XX c #9E8787",
"oX c #C89B84",
"OX c #C79992",
"+X c #D3A58A",
"@X c #CAA59B",
"#X c #D6AD91",
"$X c #E7AA89",
"%X c #E9B786",
"&X c #F6BF8E",
"*X c #E9B799",
"=X c #CEB8AF",
"-X c #D6B9A9",
";X c #E7BFA5",
":X c #F1BFA0",
">X c #FBC783",
",X c #FACF9B",
"<X c #F2CB8B",
"1X c #D3C5BB",
"2X c #E7C6AB",
"3X c #F5CAAA",
"4X c #FBDAAB",
"5X c #E7CBBC",
"6X c #F8D8B6",
"7X c #F2CFB8",
"8X c #FCE3BE",
"9X c #D8CEC2",
"0X c #ECD7C6",
"qX c #F5DEC8",
"wX c #E5CFC1",
"eX c #FCE6C7",
"rX c #EFE3D1",
"tX c #F9ECD6",
"yX c #FDF4DC",
"uX c #FDF5DB",
"iX c #FFF1CF",
"pX c #FEFBE4",
"aX c #FFFEE8",
"sX c #FDF6E2",
"dX c None",
/* pixels */
"dXdXdXdXdXdXdXdXdXdXdXdXdXdXdXdXdXdXdXdXdXdXdXdXdXdXdXdXdXdXdXdXdXdXdXdXdXdXdXdXdXdXdXdXdXdXdXdXdXdXdXdXdXdXdXdXdXdXdXdXdXdXdXdX",
"dXdXdXdXdXdXdXdXdXdXdXdXdXdXdXdXdXdXdXdXdXdXdXdXdXdXdXdXdXdXdXdXdXdXdXdXdXdXdXdXdXdXdXdXdXdXdXdXdXdXdXdXdXdXdXdXdXdXdXdXdXdXdXdX",
"dXdXdXdXdXdXdXdXdXdXdXdXdXdXdXdXdXdXdXdXdXdXdXdXdXdXdXdXdXdXdXdXdXdXdXdXdXdXdXdXdXdXdXdXdXdXdXdXdXdXdXdXdXdXdXdXdXdXdXdXdXdXdXdX",
"dXdXdXdXdXdXdXdXdXdXdXdXdXdXdXdXdXdXdXdXdXdXdXdXdXdXdXdXdXdXdXdXdXdXdXdXdXdXdXdXdXdXdXdXdXdXdXdXdXdXdXdXdXdXdXdXdXdXdXdXdXdXdXdX",
"dXdXdXdXdXdXdXdXdXdXdXdXdXdXdXdXdXdXdXdXdXdXdXdXdXdXdXdXdXdXdXdXdXdXdXdXdXdXdXdXdXdXdXdXdXdXdXdXdXdXdXdXdXdXdXdXdXdXdXdXdXdXdXdX",
"dXdXdXdXdXdXdXdXdXdXdXdXdXdXdXdXdXdXdXdXdXdXdXdXdXdXdXdXdXdXdXdXdXdXdXdXdXdXdXdXdXdXdXdXdXdXdXdXdXdXdXdXdXdXdXdXdXdXdXdXdXdXdXdX",
"dXdXdXdXdXdXdXdXdXdXdXdXdXdXdXdXdXdXdXdXdXdXdXdXdXdXdXdXdXdXdXdXdXdXdXdXdXdXdXdXdXdXdXdXdXdXdXdXdXdXdXdXdXdXdXdXdXdXdXdXdXdXdXdX",
"dXdXdXdXdXdXdXdXdXdXdXdXdXdXdXdXdXdXdXdXdXdXdXdXdXdXdXdXdXdXdXdXdXdXdXdXdXdXdXdXdXdXdXdXdXdXdXdXdXdXdXdXdXdXdXdXdXdXdXdXdXdXdXdX",
"dXdXdXdXdXdXdXdXdXdXdXdXdXdXdXdXdXdXdXdXdXdXdXdXdXdXdXdXdXdXdXdXdXdXdXdXdXdXdXdXdXdXdXdXdXdXdXdXdXdXdXdXdXdXdXdXdXdXdXdXdXdXdXdX",
"dXdXdXdXdXdXdXdXdXdXdXdXdXdXdXdXdXdXdXdXdXdXdXdXdXdXdXdXdXdXdXdXdXdXdXdXdXdXdXdXdXdXdXdXdXdXdXdXdXdXdXdXdXdXdXdXdXdXdXdXdXdXdXdX",
"dXdXdXdXdXdXdXdXdXdXdXdXdXdXdXdXdXdXdXdXdXdXdXdXdXdXdXdXdXdXdXdXdXdXdXdXdXdXdXdXdXdXdXdXdXdXdXdXdXdXdXdXdXdXdXdXdXdXdXdXdXdXdXdX",
"dXdXdXdXdXdXdXdXdXdXdXdXdXdXdXdXdXdXdXdXdXdXdXdXdXdXdXdXdXq q e w t p &.*.*.2.*.2.*.*.2.*.dXdXdXdXdXdXdXdXdXdXdXdXdXdXdXdXdXdXdX",
"dXdXdXdXdXdXdXdXdXdXdXdXdXdXdXdXdXdXdXdXdXdXdXdXdXdXdXdXdXw r t t f =.*.0.0.0.0.0.0.0.0.0.dXdXdXdXdXdXdXdXdXdXdXdXdXdXdXdXdXdXdX",
"dXdXdXdXdXdXdXdXdXdXdXdXdXdXdXdXdXdXdXdXdXdXdXdXdXdXdXdX6 p %.>.9.7.XX|.OXOXOXOX@X@X@X@X|.8.dXdXdXdXdXdXdXdXdXdXdXdXdXdXdXdXdXdX",
"dXdXdXdXdXdXdXdXdXdXdXdXdXdXdXdXdXdXdXdXdXdXdXdXo . + & 6 g A.A.oX+X*X;XwXwXwX0XrXrXrXrX=X8.w dXdXdXdXdXdXdXdXdXdXdXdXdXdXdXdXdX",
"dXdXdXdXdXdXdXdXdXdXdXdXdXdXdXdXdXdXdXdXdXdXdXdX$ 1 5 7 f Z.R.oXoX+X*X5XqXqXtXtXsXaXsXsX9X.X6.s dXdXdXdXdXdXdXdXdXdXdXdXdXdXdXdX",
"dXdXdXdXdXdXdXdXdXdXdXdXdXdXdXdXdXdXdXdXdXdX  1 9 $.$.4.C./.<X/.A.e.R.&X4XeXyXpXpXaXsXsX0X=X X8.d dXdXdXdXdXdXdXdXdXdXdXdXdXdXdX",
"dXdXdXdXdXdXdXdXdXdXdXdXdXdXdXdXdXdXdXdXdXdXo 4 $.y.J.`.}.<X<X/.4.#.C.{.,X8XyXaXaXpXtXrXrXrXwX Xd q dXdXdXdXdXdXdXdXdXdXdXdXdXdX",
"dXdXdXdXdXdXdXdXdXdXdXdXdXdXdXdXdXdXdXdXdXo   1 $.i.L.'.}.>X<X`.u.:.u.T.{.6XpXaXaXsX0X;X2X7X0X Xf q dXdXdXdXdXdXdXdXdXdXdXdXdXdX",
"dXdXdXdXdXdXdXdXdXdXdXdXdXdXdXdXdXdXdX  o o . 4 $.S.^.).{.}.>X[.D.t.u.u./.2XuXaXaXtX;XR.+X2X5X.Xf = dXdXdXdXdXdXdXdXdXdXdXdXdXdX",
"dXdXdXdXdXdXdXdXdXdXdXdXdXdXdXdXdXdXdX% $ & @ 7 $.i.J.Q.].[.[._.!.G.i.5.U.2XiXuXpXtX*XU.U.#X1XXXu * dXdXdXdXdXdXdXdXdXdXdXdXdXdX",
"dXdXdXdXdXdXdXdXdXdXdXdXdXdXdXdXdXdX7 a #.p r 0 1.G.H.Q.].'.[.].Q.J.D.y.W.%X4XeXyXtX2X/.Y.A.8.j e dXdXdXdXdXdXdXdXdXdXdXdXdXdXdX",
"dXdXdXdXdXdXdXdXdXdXdXdXdXdXdXdXX X 0 C.`.r.*.:.t.s.H.).].].'.].).!.J.S.G.'.>X4XiXuX4X>XY.>.7 4 dXdXdXdXdXdXdXdXdXdXdXdXdXdXdXdX",
"dXdXdXdXdXdXdXdXdXdXdXdXdXdXdXdX6 u >.Y.`.U.3.3.p.y.a.G.K.K.K.K.K.K.F.F.F.G.).&X8XtX,X_.C.0 $ @ dXdXdXdXdXdXdXdXdXdXdXdXdXdXdXdX",
"dXdXdXdXdXdXdXdXdXdXdXdXdXdX  6 g Z.Y.(.E.d.2.:. ...X.@.+.+.+.+.+.o.o.X.X.X.@.~.3XqX$Xa.Z 9 + + dXdXdXdXdXdXdXdXdXdXdXdXdXdXdXdX",
"dXdXdXdXdXdXdXdXdXdXdXdXdXdX  6 Z.<X}./.U.w.*.;.C K H Y _ W ~ ' _ _ T _ Y I K s.:X7X~.| b > + o dXdXdXdXdXdXdXdXdXdXdXdXdXdXdXdX",
"dXdXdXdXdXdXdXdXdXdXdXdXdXdX  6 e.<X{.Y.w.&.y m C P F H U U U T T W W ~ T U K s.$X:X^.} n : o o dXdXdXdXdXdXdXdXdXdXdXdXdXdXdXdX",
"dXdXdXdXdXdXdXdXdXdXdXdXdXdX  6 4.{./.A.*.y 2 8 c N S F F F G I T ~ ! ! ~ T R a.$X$Xi.K v : o o dXdXdXdXdXdXdXdXdXdXdXdXdXdXdXdX",
"dXdXdXdXdXdXdXdXdXdXdXdXdXdX  4 <.`.Y.3.p 5 + ; c N S F F S S F W / / / ! ~ _ O.!.`.y.K v : .   dXdXdXdXdXdXdXdXdXdXdXdXdXdXdXdX",
"dXdXdXdXdXdXdXdXdXdXdXdXdXdX  4 >.(.e.p 4 * + ; c N F H H F D H / g.) ) / ~ _ O.P.).y.L v : .   dXdXdXdXdXdXdXdXdXdXdXdXdXdXdXdX",
"dXdXdXdXdXdXdXdXdXdXdXdXdXdX  2 #.U.,.7 + +   ; z D H Y Y H F E h.j.j.g.f.' _ v.I.I.n.L n : o   dXdXdXdXdXdXdXdXdXdXdXdXdXdXdXdX",
"dXdXdXdXdXdXdXdXdXdXdXdXdXdX  = #.A.2.9 * @ o ; z D H T T H F ` k.c.z.l.[ ' R O._.}.F.L n : X X dXdXdXdXdXdXdXdXdXdXdXdXdXdXdXdX",
"dXdXdXdXdXdXdXdXdXdXdXdXdXdX  = %.U.w.&.t 4 + - z D U E W H H ] b.B.N.g.( W K F.&X4X!.| b > . o dXdXdXdXdXdXdXdXdXdXdXdXdXdXdXdX",
"dXdXdXdXdXdXdXdXdXdXdXdXdXdX  = #.d.r.3.=.5 @ ; z D Y Q ! T H ] M.B.N.l.( Y K s.:XqX~.| b > . o dXdXdXdXdXdXdXdXdXdXdXdXdXdXdXdX",
"dXdXdXdXdXdXdXdXdXdXdXdXdXdX  * p w.w.w.*.w @ ; z D T ! / Q T ` v.b.b.z.f.~ U @.^.~.F.Q V , . . dXdXdXdXdXdXdXdXdXdXdXdXdXdXdXdX",
"dXdXdXdXdXdXdXdXdXdXdXdXdXdX  * y *.3.w.2.r @ - z D E ( ) / ~ ~ ^ [ g.j.l.[ ' R | | ` ( V , . . dXdXdXdXdXdXdXdXdXdXdXdXdXdXdXdX",
"dXdXdXdXdXdXdXdXdXdXdXdXdXdX  * w p =.q.3.y 2 8 x D H ^ / Q W W Q ! ) j.g.( W Y F I T / V , .   dXdXdXdXdXdXdXdXdXdXdXdXdXdXdXdX",
"dXdXdXdXdXdXdXdXdXdXdXdXdXdXdX@ 2 3 p *.w.=.y m M S H Y E U U U T W / ) ( Q Y U U U U U V > .   dXdXdXdXdXdXdXdXdXdXdXdXdXdXdXdX",
"dXdXdXdXdXdXdXdXdXdXdXdXdXdXdXdX. + 5 &.w.2.=.;.C N S F F S N F U W ~ ! W Y F H W ~ U G v : .   dXdXdXdXdXdXdXdXdXdXdXdXdXdXdXdX",
"dXdXdXdXdXdXdXdXdXdXdXdXdXdXdXdXo o 3 %.w.q.2.:.} S S F F F S H E / / ( ! E Y E ! ! U G v : .   dXdXdXdXdXdXdXdXdXdXdXdXdXdXdXdX",
"dXdXdXdXdXdXdXdXdXdXdXdXdXdXdXdX  . 2 -.0.q.w.1.} J F U U H D E ( j.h.f.) ~ T W ( ( E F v : o   dXdXdXdXdXdXdXdXdXdXdXdXdXdXdXdX",
"dXdXdXdXdXdXdXdXdXdXdXdXdXdXdXdX  . 2 y =.*.q.p.} J H T T H J E h.c.x.g.) / W / f.f.Q H b > .   dXdXdXdXdXdXdXdXdXdXdXdXdXdXdXdX",
"dXdXdXdXdXdXdXdXdXdXdXdXdXdXdXdXdXdX* q r -.2.1.} J Y E E Y F ` b.N.c.l.) / ' / g.h.^ H b : .   dXdXdXdXdXdXdXdXdXdXdXdXdXdXdXdX",
"dXdXdXdXdXdXdXdXdXdXdXdXdXdXdXdXdXdXdX+ * r =.;.} J U W W Y H ] M.B.N.l.) ) ! ) j.j.^ H b > . o dXdXdXdXdXdXdXdXdXdXdXdXdXdXdXdX",
"dXdXdXdXdXdXdXdXdXdXdXdXdXdXdXdXdXdXdXo + 5 y A C J H Q ! E Y ] b.V.b.z.g.) ! ) h.h.^ H n : . o dXdXdXdXdXdXdXdXdXdXdXdXdXdXdXdX",
"dXdXdXdXdXdXdXdXdXdXdXdXdXdXdXdXdXdXdXdXdX* 2 9 b D E ( ( ! W ' [ v.x.l.g.) ! / ( ( _ F b : . o dXdXdXdXdXdXdXdXdXdXdXdXdXdXdXdX",
"dXdXdXdXdXdXdXdXdXdXdXdXdXdXdXdXdXdXdXdXdXo + ; z F E [ f.[ ' { { { k.z.z.k.{ { { { _ L b > . o dXdXdXdXdXdXdXdXdXdXdXdXdXdXdXdX",
"dXdXdXdXdXdXdXdXdXdXdXdXdXdXdXdXdXdXdXdXdX    ; m Z ..o.v.m.m.m.M.M.P.I.I._._.).).K.G.y.;.5 . o dXdXdXdXdXdXdXdXdXdXdXdXdXdXdXdX",
"dXdXdXdXdXdXdXdXdXdXdXdXdXdXdXdXdXdXdXdXdXo   * 9 :.p.y.F.K.K.P._._.>X,X4X6X6X6X3X3X*X`.r.e X o dXdXdXdXdXdXdXdXdXdXdXdXdXdXdXdX",
"dXdXdXdXdXdXdXdXdXdXdXdXdXdXdXdXdXdXdXdXdXo X * r -.$.1.t.u.U.T.T.(.#X-X1X9X9X9X1X=X@X|.7.u X o dXdXdXdXdXdXdXdXdXdXdXdXdXdXdXdX",
"dXdXdXdXdXdXdXdXdXdXdXdXdXdXdXdXdXdXdXdXdXX X & 2 5 r 9 0 0 p a a #.g j l k k k l j j d u q X dXdXdXdXdXdXdXdXdXdXdXdXdXdXdXdXdX",
"dXdXdXdXdXdXdXdXdXdXdXdXdXdXdXdXdXdXdXdXdXO X X X + + @ + @ @ @ @ & @ & % % % % % & & # O O dXdXdXdXdXdXdXdXdXdXdXdXdXdXdXdXdXdX",
"dXdXdXdXdXdXdXdXdXdXdXdXdXdXdXdXdXdXdXdXdXO O O o o o             o o o o o o o o o o o o X dXdXdXdXdXdXdXdXdXdXdXdXdXdXdXdXdXdX",
"dXdXdXdXdXdXdXdXdXdXdXdXdXdXdXdXdXdXdXdXdXdXdXdXdXdXdXdXdXdXdXdXdXdXdXdXdXdXdXdXdXdXdXdXdXdXdXdXdXdXdXdXdXdXdXdXdXdXdXdXdXdXdXdX",
"dXdXdXdXdXdXdXdXdXdXdXdXdXdXdXdXdXdXdXdXdXdXdXdXdXdXdXdXdXdXdXdXdXdXdXdXdXdXdXdXdXdXdXdXdXdXdXdXdXdXdXdXdXdXdXdXdXdXdXdXdXdXdXdX",
"dXdXdXdXdXdXdXdXdXdXdXdXdXdXdXdXdXdXdXdXdXdXdXdXdXdXdXdXdXdXdXdXdXdXdXdXdXdXdXdXdXdXdXdXdXdXdXdXdXdXdXdXdXdXdXdXdXdXdXdXdXdXdXdX",
"dXdXdXdXdXdXdXdXdXdXdXdXdXdXdXdXdXdXdXdXdXdXdXdXdXdXdXdXdXdXdXdXdXdXdXdXdXdXdXdXdXdXdXdXdXdXdXdXdXdXdXdXdXdXdXdXdXdXdXdXdXdXdXdX",
"dXdXdXdXdXdXdXdXdXdXdXdXdXdXdXdXdXdXdXdXdXdXdXdXdXdXdXdXdXdXdXdXdXdXdXdXdXdXdXdXdXdXdXdXdXdXdXdXdXdXdXdXdXdXdXdXdXdXdXdXdXdXdXdX",
"dXdXdXdXdXdXdXdXdXdXdXdXdXdXdXdXdXdXdXdXdXdXdXdXdXdXdXdXdXdXdXdXdXdXdXdXdXdXdXdXdXdXdXdXdXdXdXdXdXdXdXdXdXdXdXdXdXdXdXdXdXdXdXdX",
"dXdXdXdXdXdXdXdXdXdXdXdXdXdXdXdXdXdXdXdXdXdXdXdXdXdXdXdXdXdXdXdXdXdXdXdXdXdXdXdXdXdXdXdXdXdXdXdXdXdXdXdXdXdXdXdXdXdXdXdXdXdXdXdX",
"dXdXdXdXdXdXdXdXdXdXdXdXdXdXdXdXdXdXdXdXdXdXdXdXdXdXdXdXdXdXdXdXdXdXdXdXdXdXdXdXdXdXdXdXdXdXdXdXdXdXdXdXdXdXdXdXdXdXdXdXdXdXdXdX",
"dXdXdXdXdXdXdXdXdXdXdXdXdXdXdXdXdXdXdXdXdXdXdXdXdXdXdXdXdXdXdXdXdXdXdXdXdXdXdXdXdXdXdXdXdXdXdXdXdXdXdXdXdXdXdXdXdXdXdXdXdXdXdXdX",
"dXdXdXdXdXdXdXdXdXdXdXdXdXdXdXdXdXdXdXdXdXdXdXdXdXdXdXdXdXdXdXdXdXdXdXdXdXdXdXdXdXdXdXdXdXdXdXdXdXdXdXdXdXdXdXdXdXdXdXdXdXdXdXdX",
"dXdXdXdXdXdXdXdXdXdXdXdXdXdXdXdXdXdXdXdXdXdXdXdXdXdXdXdXdXdXdXdXdXdXdXdXdXdXdXdXdXdXdXdXdXdXdXdXdXdXdXdXdXdXdXdXdXdXdXdXdXdXdXdX"
};
