/* XPM */
static char *_eec6cc7239f4432b47a5a55ebd12de4[] = {
/* columns rows colors chars-per-pixel */
"64 64 135 2 ",
"   c None",
".  c #0B0C0B",
"X  c #0F100E",
"o  c #10100F",
"O  c #141413",
"+  c #191716",
"@  c #191917",
"#  c #1F1E1C",
"$  c #211F1D",
"%  c #301F1D",
"&  c #24201E",
"*  c #2F291F",
"=  c #362C11",
"-  c #3B201D",
";  c #352E1D",
":  c #38301D",
">  c #262221",
",  c #292524",
"<  c #2C2827",
"1  c #2D2C2A",
"2  c #363432",
"3  c #3E3E3C",
"4  c #45391C",
"5  c #433723",
"6  c #4E3E26",
"7  c #413E3E",
"8  c #68541F",
"9  c #544428",
"0  c #73592D",
"q  c #373E41",
"w  c #2E355A",
"e  c #2E3760",
"r  c #6A2B42",
"t  c #454242",
"y  c #494646",
"u  c #484846",
"i  c #4E4D4C",
"p  c #52514F",
"a  c #5D5B5A",
"s  c #555352",
"d  c #605F5E",
"f  c #61605F",
"g  c #55656C",
"h  c #586971",
"j  c #656464",
"k  c #686766",
"l  c #6C6B6A",
"z  c #71716F",
"x  c #757474",
"c  c #787776",
"v  c #7D7C7B",
"b  c #87241F",
"n  c #8C241F",
"m  c #9E1E20",
"M  c #A81F22",
"N  c #B02720",
"B  c #EF2A22",
"V  c #987821",
"C  c #807F7E",
"Z  c #A88321",
"A  c #E8B324",
"S  c #E5A945",
"D  c #E9AC45",
"F  c #5F7882",
"G  c #79878C",
"H  c #698D9B",
"J  c #74A5B8",
"K  c #7AA6B9",
"L  c #7AB0C6",
"P  c #7FB5CB",
"I  c #848383",
"U  c #888887",
"Y  c #8D8D8D",
"T  c #8F8E90",
"R  c #8F9094",
"E  c #959595",
"W  c #9D9D9D",
"Q  c #A09F9F",
"!  c #8299A2",
"~  c #879FA8",
"^  c #8B9EA4",
"/  c #9D9DA0",
"(  c #87A2AD",
")  c #88A4AF",
"_  c #97A5AB",
"`  c #8EA9B4",
"'  c #86ACBB",
"]  c #8CACB9",
"[  c #91AFBB",
"{  c #9CACB2",
"}  c #95B2BD",
"|  c #99B4BF",
" . c #A4A4A3",
".. c #A6A5A8",
"X. c #ADADAC",
"o. c #AEAEB1",
"O. c #ADB6BA",
"+. c #AEB8BC",
"@. c #B5B4B4",
"#. c #B8B7B6",
"$. c #B9B8B6",
"%. c #B6B6B9",
"&. c #B7B8BB",
"*. c #BBBBBD",
"=. c #81AEC0",
"-. c #86B6CA",
";. c #8EBCCD",
":. c #96B5C1",
">. c #9CB6C0",
",. c #9FB8C2",
"<. c #90BDCE",
"1. c #80BBD3",
"2. c #94BFD0",
"3. c #A3BAC4",
"4. c #83C1DA",
"5. c #8AC5DC",
"6. c #97C0D1",
"7. c #92C8DE",
"8. c #9DC3D3",
"9. c #97CBE0",
"0. c #9BCDE1",
"q. c #A4D1E3",
"w. c #C4C5C5",
"e. c #CBCBCB",
"r. c #D0CFCF",
"t. c #CED0D0",
"y. c #D2D2D2",
"u. c #DDDDDD",
"i. c #E4E4E4",
"p. c #E7E8E7",
"a. c #E7E8E8",
"s. c #EBEBEB",
"d. c #EFF1F1",
"f. c #F3F4F4",
"g. c #F7F9F9",
/* pixels */
"                                                                                                                                ",
"                                                                                                                                ",
"                                                                                                                                ",
"                                                                                                                                ",
"                                                                                                                                ",
"                                                                                                                                ",
"                                                                                                                                ",
"                                                                                                                                ",
"                                                                                                                                ",
"                                                                                                                                ",
"                                                                                                                                ",
"                                                                                                                                ",
"                                                                                                                                ",
"                                                                                                                                ",
"                                                                                                                                ",
"                                                                                                                                ",
"                                                                                                                                ",
"                                                                                                                                ",
"                                                                                                                                ",
"                                                                                                                                ",
"                                                                                                                                ",
"                                                                                                                                ",
"                                                                                                                                ",
"                                                              w e r M m                                                         ",
"                                                  u.y.y.y.y.e.#.#.#.#.#.e.y.y.t.y.t.u.i.                                        ",
"                                                y.] ;.<.2.2.~ ] 8.6.;.-.P J g L L L ) i.u.                                      ",
"                                            i.e.] 7.9.9.0.0.` :.q.q.9.7.5.1.g 4.4.4.1.+.i.                                      ",
"                                          u.t.' 7.7.9.9.0.0.` :.q.q.9.7.5.4.h P 4.4.4.K y.i.                                    ",
"                                        i.w.' 5.7.7.9.9.0.0.` :.q.q.9.7.5.4.F J 4.4.4.4.( i.                                    ",
"                                      u.*.=.5.5.7.7.9.9.0.0.` :.q.q.9.7.5.4.H H 4.4.4.4.1.O.i.                                  ",
"                                    i.I q ] [ } } } | >.,.3._ { 3.3.>.} ] ] ! G ] ] ] ] ] ^ u.Q                                 ",
"                          $ # $ & & c y.@.a.a.a.a.a.a.p.*.$.y.a.a.a.a.a.i.#.#.i.a.a.a.a.a.a.a.I # # # # # # # # # % b n         ",
"              # # # # # # # & 8 V : k g.g.g.g.g.g.g.g.g.f.f.d.f.g.g.g.g.g.f.f.g.g.g.g.g.g.g.e.2 # $ # # # # $ $ # $ N B         ",
"        0 0 * $ $ # # # # # # Z A ; j s.s.s.s.w.Y  .a.#.U e.w.e.s. .i.X.U e.E Y e.s.s.s.a.v > # # # # # # # # # # $ $ -         ",
"      D D S 5 $ # # # O . . . = 4 & d i.i.i.i.Y v a U t @.2 I W i.i  .a X.X.t W y.i.i.i.v # # # # # . . . . @ # # # # $         ",
"      9 9 6 & # # # O O & & > @ . # d i.i.i.i.Y u f W p e.2 v Y r.i E l w.*.3 v e.i.i.i.1 $ # # @ . # & & $ . O # # $ $         ",
"      > > > $ # # @ . & a T c , + O a i.i.i.i.X.X.i.i.E k X.X.l C I y.U k #.z x @.i.i.u.> # # # . $ 2 I Y 7 > . # $ > > >       ",
"      > > > $ # # X # 7 &.%.*.l & . 3 E E E E E E E E E E E E E E E E E E E E E E E E E @ O O O o , Y *.%...> O @ $ > > >       ",
"                    > s *.R *.v >                                                               @ < W o./ %.< >                 ",
"                    > < / *.o.t >                                                                 > j #.&.v &                   ",
"                      > < y 2 >                                                                   > > 7 t , >                   ",
"                          > >                                                                         > >                       ",
"                                                                                                                                ",
"                                                                                                                                ",
"                                                                                                                                ",
"                                                                                                                                ",
"                                                                                                                                ",
"                                                                                                                                ",
"                                                                                                                                ",
"                                                                                                                                ",
"                                                                                                                                ",
"                                                                                                                                ",
"                                                                                                                                ",
"                                                                                                                                ",
"                                                                                                                                ",
"                                                                                                                                ",
"                                                                                                                                ",
"                                                                                                                                ",
"                                                                                                                                ",
"                                                                                                                                ",
"                                                                                                                                ",
"                                                                                                                                ",
"                                                                                                                                ",
"                                                                                                                                "
};
