/* XPM */
static char *result[] = {
/* columns rows colors chars-per-pixel */
"64 64 233 2 ",
"   c #570D04",
".  c #771705",
"X  c #641303",
"o  c #4F3A06",
"O  c #722308",
"+  c #702E0C",
"@  c #3D4902",
"#  c #386202",
"$  c #4A5204",
"%  c #424E02",
"&  c #7A430B",
"*  c #7D540E",
"=  c #576405",
"-  c #437302",
";  c #416F01",
":  c #697706",
">  c #736F0A",
",  c #5D5F21",
"<  c #73712A",
"1  c #931E04",
"2  c #872F09",
"3  c #952D05",
"4  c #983E0C",
"5  c #8D3D08",
"6  c #A43C07",
"7  c #B33C03",
"8  c #953723",
"9  c #DB1811",
"0  c #C8290E",
"q  c #C23808",
"w  c #D93D0C",
"e  c #E9380A",
"r  c #E63617",
"t  c #EF2A0E",
"y  c #8B4D0C",
"u  c #9A4709",
"i  c #864418",
"p  c #995610",
"a  c #A94409",
"s  c #B34D09",
"d  c #BB4A05",
"f  c #A5580B",
"g  c #B55206",
"h  c #A94A18",
"j  c #BA4915",
"k  c #BC5B1B",
"l  c #A86816",
"z  c #BB621B",
"x  c #BB6817",
"c  c #BD781E",
"v  c #B36C09",
"b  c #9E572F",
"n  c #A95B28",
"m  c #B54F24",
"M  c #9B6B2B",
"N  c #986529",
"B  c #88702F",
"V  c #B56C28",
"C  c #A9752B",
"Z  c #B67A2D",
"A  c #AC7A33",
"S  c #AB793B",
"D  c #B77938",
"F  c #A76130",
"G  c #C65808",
"H  c #CF490E",
"J  c #E6510C",
"K  c #C56A0A",
"L  c #D87508",
"P  c #C46716",
"I  c #C67918",
"U  c #CB6B06",
"Y  c #F37B03",
"T  c #ED6803",
"R  c #D34935",
"E  c #C37B35",
"W  c #D37529",
"Q  c #EB6E36",
"!  c #887943",
"~  c #9B6C52",
"^  c #B67251",
"/  c #BC7C6A",
"(  c #C97F40",
")  c #F27951",
"_  c #C07A68",
"`  c #5A8106",
"'  c #728708",
"]  c #748A0B",
"[  c #7DA406",
"{  c #65B806",
"}  c #7C8C2E",
"|  c #879C04",
" . c #848512",
".. c #95991C",
"X. c #8E9505",
"o. c #B8900D",
"O. c #87AA04",
"+. c #98AA09",
"@. c #95B908",
"#. c #99B718",
"$. c #8BB10B",
"%. c #A9AE16",
"&. c #B2B50D",
"*. c #8C882B",
"=. c #BA883C",
"-. c #9BA23B",
";. c #97A428",
":. c #B4A72A",
">. c #A3BE29",
",. c #A9B633",
"<. c #BBB93A",
"1. c #AEA435",
"2. c #D68A1A",
"3. c #CE8E10",
"4. c #E88703",
"5. c #E69A09",
"6. c #F29603",
"7. c #E49010",
"8. c #CCA810",
"9. c #F2A706",
"0. c #C6892D",
"q. c #C18436",
"w. c #D89935",
"e. c #CF8E30",
"r. c #EC8E2B",
"t. c #CFAB30",
"y. c #F0B62F",
"u. c #ADC21A",
"i. c #9FC328",
"p. c #A6C325",
"a. c #B7C737",
"s. c #B7C82F",
"d. c #EEC33C",
"f. c #8E9747",
"g. c #AC8646",
"h. c #B68745",
"j. c #BC914A",
"k. c #BD9758",
"l. c #A89F49",
"z. c #B5A748",
"x. c #ACBA41",
"c. c #AAB85C",
"v. c #B9B659",
"b. c #AEA45B",
"n. c #9EB461",
"m. c #B4A96B",
"M. c #C48F45",
"N. c #C39346",
"B. c #C79748",
"V. c #C18757",
"C. c #C69B54",
"Z. c #C59954",
"A. c #E8904E",
"S. c #CEA64B",
"D. c #D4A14A",
"F. c #CAAD54",
"G. c #EBB74F",
"H. c #C79E62",
"J. c #CB8F69",
"K. c #E98A77",
"L. c #C7A568",
"P. c #D1A762",
"I. c #CAB76E",
"U. c #CAA974",
"Y. c #D5A876",
"T. c #C9B77C",
"R. c #D3B374",
"E. c #D3B57B",
"W. c #DAB879",
"Q. c #D7B465",
"!. c #E4B967",
"~. c #E9BB7C",
"^. c #F3C65D",
"/. c #ECC356",
"(. c #D3CD70",
"). c #F4CB69",
"_. c #E8C472",
"`. c #F5CD7C",
"'. c #E6D36F",
"]. c #BBB8B4",
"[. c #C6B889",
"{. c #DBBE85",
"}. c #D5B98B",
"|. c #C8AB95",
" X c #DCBF99",
".X c #D2AE9A",
"XX c #EEBC8F",
"oX c #D8BAA9",
"OX c #C4BEB5",
"+X c #E2B7A6",
"@X c #DCC293",
"#X c #D0C98C",
"$X c #E2C68C",
"%X c #E6C888",
"&X c #F4D287",
"*X c #E5C994",
"=X c #E0C69A",
"-X c #E3CA9C",
";X c #E6CB96",
":X c #EED19B",
">X c #EDD096",
",X c #F3D596",
"<X c #DCCCA3",
"1X c #DAC6A4",
"2X c #CBC3B6",
"3X c #D7CAB7",
"4X c #DBD6AE",
"5X c #E4CCA4",
"6X c #E8CDA2",
"7X c #E6CEA9",
"8X c #EED3A3",
"9X c #E6D0AD",
"0X c #EAD2AD",
"qX c #EED8AD",
"wX c #F4DBA9",
"eX c #EBD4B3",
"rX c #E3D4BD",
"tX c #ECD7B9",
"yX c #EEDABC",
"uX c #EAD6B5",
"iX c #F0DCBD",
"pX c #F2DBB5",
"aX c #E0CEB4",
"sX c #F7E2B8",
"dX c #DAD3C8",
"fX c #E9DBC4",
"gX c #F1DDC3",
"hX c #F5E3C4",
"jX c #F3E2C9",
"kX c #F6E9D4",
"lX c #F4E8D6",
"zX c #EAE1D5",
"xX c None",
/* pixels */
"xXxXxXxXxXxXxXxXxXxXxXxXxXxXxXxXxXxXxXxXxXxXxXxXxXxXxXxXxXxXxXxXxXxXxXxXxXxXxXxXxXxXxXxXxXxXxXxXxXxXxXxXxXxXxXxXxXxXxXxXxXxXxXxX",
"xXxXxXxXxXxXxXxXxXxXxXxXxXxXxXxXxXxXxXxXxXxXxXxXxXxXxXxXxXxXxXxXxXxXxXxXxXxXxXxXxXxXxXxXxXxXxXxXxXxXxXxXxXxXxXxXxXxXxXxXxXxXxXxX",
"xXxXxXxXxXxXxXxXxXxXxXxXxXxXxXxXxXxXxXxXxXxXxXxXxXxXxXxXxXxXxXxXxXxXxXxXxXxXxXxXxXxXxXxXxXxXxXxXxXxXxXxXxXxXxXxXxXxXxXxXxXxXxXxX",
"xXxXxXxXxXxXxXxXxXxXxXxXxXxXxXxXxXxXxXxXxXxXxXxXxXxXxXxXxXxXxXxXxXxXxXxXxXxXxXxXxXxXxXxXxXxXxXxXxXxXxXxXxXxXxXxXxXxXxXxXxXxXxXxX",
"xXxXxXxXxXxXxXxXxXxXxXxXxXxXxXxXxXxXxXxXxXxXxXxXxXxXxXxXxXxXxXxXxXxXxXxXxXxXxXxXxXxXxXxXxXxXxXxXxXxXxXxXxXxXxXxXxXxXxXxXxXxXxXxX",
"xXxXxXxXxXxXxXxXxXxXxXxXxXxXxXxXxXxXxXxXxXxXxXxXxXxXxXxXxXxXxXxXxXxXxXxXxXxXxXxXxXxXxXxXxXxXxXxXxXxXxXxXxXxXxXxXxXxXxXxXxXxXxXxX",
"xXxXxXxXxXxXxXxXxXxXxXxXxXxXxXxXxXxXxXxXxXxXxXxXxXxXxXxXxXxXxXxXxXxXxXxXxXxXxXxXxXxXxXxXxXxXxXxXxXxXxXxXxXxXxXxXxXxXxXxXxXxXxXxX",
"xXxXxXxXxXxXxXxXxXxXxXxXxXxXxXxXxXxXxXxXxXxXxXxXxXxXxXxXxXxXxXxXxXxXxXxXxXxXxXxXxXxXxXxXxXxXxXxXxXxXxXxXxXxXxXxXxXxXxXxXxXxXxXxX",
"xXxXxXxXxXxXxXxXxXxXxXxXxXxXxXxXxXxXxXxXxXxXxXxXxXxXxXxXxXxXxXxXxXxXxXxXxXxXxXxXxXxXxXxXxXxXxXxXxXxXxXxXxXxXxXxXxXxXxXxXxXxXxXxX",
"xXxXxXxXxXxXxXxXxXxXxXxXxXxXxXxXxXxXxXxXxXxXxXxXxXxXxXxXxXxXa.u.xXxXxXxXxXxXxXxXxXxXxXxXxXxXxXxXxXxXxXxXxXxXxXxXxXxXxXxXxXxXxXxX",
"xXxXxXxXxXxXxXxXxXxXxXxXxXxXxXxXxXxXxXxXxXxXxXxXxXxXxXxXxXxX,.p.s.'.xXxXxXxXxXxXxXxXxXxXxXxXxXxXxXxXxXxXxXxXxXxXxXxXxXxXxXxXxXxX",
"xXxXxXxXxXxXxXxXxXxXxXxXxXxXxXxXxXxXxXxXxXxXxXxXxXxXxXxXxXxX,.u.s.(.'.xXxXxXxXxXxXxXxXxXxXxXxXxXxXxXxXxXxXxXxXxXxXxXxXxXxXxXxXxX",
"xXxXxXxXxXxXxXxXxXxXxXxXxXxXxXxXxXxXxXxXxXxXxXxXt.xXxXxX#X} ] ] @.#.+.E +XxXxXxXxXxXxXxXxXxXxXxXxXxXxXxXxXxXxXxXxXxXxXxXxXxXxXxX",
"xXxXxXxXxXxXxXxXxXxXxXxXxXxXxXxXxXxXxXxXxXxXxXxX[.]  .;...1. .[ [ $.c.B 0 K.xXxXxXxXxXxXxXxXxXxXxXxXxXxXxXxXxXxXxXxXxXxXxXxXxXxX",
"xXxXxXxXxXxXxXxXxXxXxXxXxXxXxXxXxXxXxXxXxXxXxXxX.X= ' O.@.x.3.@.$.#.#.} : q ) fXxXxXxXxXxXxXxXxXxXxXxXxXxXxXxXxXxXxXxXxXxXxXxXxX",
"xXxXxXxXxXxXxXxXxXxXxXxXxXxXxXxXxXxXxXxXxXxXxXxX1X] ] @.#.4XI.5.;.v.$.$.: % H ) dXxXxXxXxXxXxXxXxXxXxXxXxXxXxXxXxXxXxXxXxXxXxXxX",
"xXxXxXxXxXxXxXxXxXxXxXxXxXxXxXxXxXxXxXxXxXxXxX_ U.1.O.$.i.#XT.2Xm.|.z.z.I.f.< r XXxXxXxXxXxXxXxXxXxXxXxXxXxXxXxXxXxXxXxXxXxXxXxX",
"xXxXxXxXxXxXxXxXxXxXxXxXxXxXxXxXxXxXxXxXxXxXo.A.! *...,.i.{ |.n.@.[.S.K z S Z ( A.fXxXxXxXxXxXxXxXxXxXxXxXxXxXxXxXxXxXxXxXxXxXxX",
"xXxXxXxXxXxXxXxXxXxXxXxXxXxXxXxXxXxXxXxXxXxX7.^ < # - ` i.z.V.n.,.z.&.s d u 6 z P.:XxXxXxXxXxXxXxXxXxXxXxXxXxXxXxXxXxXxXxXxXxXxX",
"xXxXxXxXxXxXxXxXxXxXxXxXxXxXxXxXxXxXxXxXxXxXt.V.! # - - %.Q W N.k.| o.6 . g 4 k 6 !.xXxXxXxXxXxXxXxXxXxXxXxXxXxXxXxXxXxXxXxXxXxX",
"xXxXxXxXxXxXxXxXxXxXxXxXxXxXxXxXxXxXxXxXxX(.+.1.~ # # - :.Q l d I > 0.5.5./.o.u m n 3XxXxXxXxXxXxXxXxXxXxXxXxXxXxXxXxXxXxXxXxXxX",
"xXxXxXxXxXxXxXxXxXxXxXxXxXxXxXxXxXxXxXxXxXI.%.>.J.f P @.&.W t.L 4.2.<X3.d.d.7.g m i fXxXxXxXxXxXxXxXxXxXxXxXxXxXxXxXxXxXxXxXxXxX",
"xXxXxXxXxXxXxXxXxXxXxXxXxXxXxXxXxXxXxXxXxX}.v.#.g.R t H w r 3.5.9.6.A.5.9.9.G d z z aXxXxXxXxXxXxXxXxXxXxXxXxXxXxXxXxXxXxXxXxXxX",
"xXxXxXxXxXxXxXxXxXxXxXxXxXxXxXxXxXxXxXxXxXP.F b.-.oX9 R D.z v 5.6.Y T U 4.4.6 s g V 3XxXxXxXxXxXxXxXxXxXxXxXxXxXxXxXxXxXxXxXxXxX",
"xXxXxXxXxXxXxXxXxXxXxXxXxXxXxXxXxXxXxXxXxXr J b -.m.m.F.&.8.3.6.Y T w 3 L U O a a E OXxXxXxXxXxXxXxXxXxXxXxXxXxXxXxXxXxXxXxXxXxX",
"xXxXxXxXxXxXxXxXxXxXxXxXxXxXxXxXxXxXxXxXxXD e 0 > % = O.a.t.S.w.r.J 7 X G d d P f ^ xXxXxXxXxXxXxXxXxXxXxXxXxXxXxXxXxXxXxXxXxXxX",
"xXxXxXxXxXxXxXxXxXxXxXxXxXxXxXxXxXxXxXxXxXxXV r J y @ $ f.<XT.U.P.H 7 H G G K x 6 }.xXxXxXxXxXxXxXxXxXxXxXxXxXxXxXxXxXxXxXxXxXxX",
"xXxXxXxXxXxXxXxXxXxXxXxXxXxXxXxXxXxXxXxXxXxXS h.R t d * , 3Xl.^ h a a G h 4 O + E 1XxXxXxXxXxXxXxXxXxXxXxXxXxXxXxXxXxXxXxXxXxXxX",
"xXxXxXxXxXxXxXxXxXxXxXxXxXxXxXxXxXxXxXxXxXxXC g.k.J.R 0 m B = | 5 6 1 X   . O h Y.dXxXxXxXxXxXxXxXxXxXxXxXxXxXxXxXxXxXxXxXxXxXxX",
"xXxXxXxXxXxXxXxXxXxXxXxXxXxXxXxXxXxXxXxXxXxXA g.k.L.U.U./ 8 = : : +.j 6 X + h E sX].xXxXxXxXxXxXxXxXxXxXxXxXxXxXxXxXxXxXxXxXxXxX",
"xXxXxXxXxXxXxXxXxXxXxXxXxXxXxXxXxXxXxXxXxXxXZ h.H.I.R.E. X X^ o = : n O 2 P V ~.hXxXxXxXxXxXxXxXxXxXxXxXxXxXxXxXxXxXxXxXxXxXxXxX",
"xXxXxXxXxXxXxXxXxXxXxXxXxXxXxXxXxXxXxXxXxXxXxXA k.U.E.{.$X*X Xb > : 2 3 . . ~ `.qXxXxXxXxXxXxXxXxXxXxXxXxXxXxXxXxXxXxXxXxXxXxXxX",
"xXxXxXxXxXxXxXxXxXxXxXxXxXxXxXxXxXxXxXxXxXxXxXv c B.#X$X@X-X5X5X5X<X@XP g n :Xy.tXxXxXxXxXxXxXxXxXxXxXxXxXxXxXxXxXxXxXxXxXxXxXxX",
"xXxXxXxXxXxXxXxXxXxXxXxXxXxXxXxXxXxXxXxXxXxXxXl x U 0.W.@X-X$X_.:XtXqXw.g ;X).).zXxXxXxXxXxXxXxXxXxXxXxXxXxXxXxXxXxXxXxXxXxXxXxX",
"xXxXxXxXxXxXxXxXxXxXxXxXxXxXxXxXxXxXxXxXxXxXxXl 3.c I P.@X8X%X%X9XuXW.3.2.y.).&XrXxXxXxXxXxXxXxXxXxXxXxXxXxXxXxXxXxXxXxXxXxXxXxX",
"xXxXxXxXxXxXxXxXxXxXxXxXxXxXxXxXxXxXxXxXxXxXxXA Z Z I R.@X7X6X6X0XE.K W W G.,XsX@XxXxXxXxXxXxXxXxXxXxXxXxXxXxXxXxXxXxXxXxXxXxXxX",
"xXxXxXxXxXxXxXxXxXxXxXxXxXxXxXxXxXxXxXxXxXxXxXj.=.H.R.@X=X5X-X;Xe.f q.!.;XeX`.sX}.xXxXxXxXxXxXxXxXxXxXxXxXxXxXxXxXxXxXxXxXxXxXxX",
"xXxXxXxXxXxXxXxXxXxXxXxXxXxXxXxXxXxXxXxXxXxXxXxX=.C.E.-X=X$X*X=.p N.-X6XeXeXiXsXOXxXxXxXxXxXxXxXxXxXxXxXxXxXxXxXxXxXxXxXxXxXxXxX",
"xXxXxXxXxXxXxXxXxXxXxXxXxXxXxXxXxXxXxXxXxXxXxXxXh.N.R.@X5X$XD y D aXeX7XeX>XhXpX].xXxXxXxXxXxXxXxXxXxXxXxXxXxXxXxXxXxXxXxXxXxXxX",
"xXxXxXxXxXxXxXxXxXxXxXxXxXxXxXxXxXxXxXxXxXxXxXxXh.Z.S.$X=Xg.y A 9XeXeX0XtX:XpX&XxXxXxXxXxXxXxXxXxXxXxXxXxXxXxXxXxXxXxXxXxXxXxXxX",
"xXxXxXxXxXxXxXxXxXxXxXxXxXxXxXxXxXxXxXxXxXxXxXxX=.q.S.{.L.& N 5XeX9XeXeXtXgX&X>XxXxXxXxXxXxXxXxXxXxXxXxXxXxXxXxXxXxXxXxXxXxXxXxX",
"xXxXxXxXxXxXxXxXxXxXxXxXxXxXxXxXxXxXxXxXxXxXxXxXxXN.D.Q.M & 1XeX*X5XeXeXeXpX).<XxXxXxXxXxXxXxXxXxXxXxXxXxXxXxXxXxXxXxXxXxXxXxXxX",
"xXxXxXxXxXxXxXxXxXxXxXxXxXxXxXxXxXxXxXxXxXxXxXxXxXZ.e.S.& }.eX9X0XeX0XtXtX8XpX2XxXxXxXxXxXxXxXxXxXxXxXxXxXxXxXxXxXxXxXxXxXxXxXxX",
"xXxXxXxXxXxXxXxXxXxXxXxXxXxXxXxXxXxXxXxXxXxXxXxXxXj.B.h.p 6XeX9XuX0X&X!.qXpX&XxXxXxXxXxXxXxXxXxXxXxXxXxXxXxXxXxXxXxXxXxXxXxXxXxX",
"xXxXxXxXxXxXxXxXxXxXxXxXxXxXxXxXxXxXxXxXxXxXxXxXxXj.B.C }.9XtXtXeX6X).G.gX8X$XxXxXxXxXxXxXxXxXxXxXxXxXxXxXxXxXxXxXxXxXxXxXxXxXxX",
"xXxXxXxXxXxXxXxXxXxXxXxXxXxXxXxXxXxXxXxXxXxXxXxXxXxXB.l }.eXtXeXeX:X_.0XiX,X3XxXxXxXxXxXxXxXxXxXxXxXxXxXxXxXxXxXxXxXxXxXxXxXxXxX",
"xXxXxXxXxXxXxXxXxXxXxXxXxXxXxXxXxXxXxXxXxXxXxXxXxXxXM.M 5X9XeXeXeXeXpXiXiXjX2XxXxXxXxXxXxXxXxXxXxXxXxXxXxXxXxXxXxXxXxXxXxXxXxXxX",
"xXxXxXxXxXxXxXxXxXxXxXxXxXxXxXxXxXxXxXxXxXxXxXxXxXxXq.N 5X0XeXeXiX>X8XiX:XkXxXxXxXxXxXxXxXxXxXxXxXxXxXxXxXxXxXxXxXxXxXxXxXxXxXxX",
"xXxXxXxXxXxXxXxXxXxXxXxXxXxXxXxXxXxXxXxXxXxXxXxXxXxXZ.N =X0XeXyXtXtXgXyXjXlXxXxXxXxXxXxXxXxXxXxXxXxXxXxXxXxXxXxXxXxXxXxXxXxXxXxX",
"xXxXxXxXxXxXxXxXxXxXxXxXxXxXxXxXxXxXxXxXxXxXxXxXxXxXj.C }.eXtXtXyXgXgXjXjXrXxXxXxXxXxXxXxXxXxXxXxXxXxXxXxXxXxXxXxXxXxXxXxXxXxXxX",
"xXxXxXxXxXxXxXxXxXxXxXxXxXxXxXxXxXxXxXxXxXxXxXxXxXxXZ.0.=XeXtXyXyXyXhXkXlX].xXxXxXxXxXxXxXxXxXxXxXxXxXxXxXxXxXxXxXxXxXxXxXxXxXxX",
"xXxXxXxXxXxXxXxXxXxXxXxXxXxXxXxXxXxXxXxXxXxXxXxXxXxXxXB.W.tXgXtXgXjXjXkXdXxXxXxXxXxXxXxXxXxXxXxXxXxXxXxXxXxXxXxXxXxXxXxXxXxXxXxX",
"xXxXxXxXxXxXxXxXxXxXxXxXxXxXxXxXxXxXxXxXxXxXxXxXxXxXxXC.P.gXgXyXgXjXkXdXxXxXxXxXxXxXxXxXxXxXxXxXxXxXxXxXxXxXxXxXxXxXxXxXxXxXxXxX",
"xXxXxXxXxXxXxXxXxXxXxXxXxXxXxXxXxXxXxXxXxXxXxXxXxXxXxXZ.E.9XgXgXyXgX2XxXxXxXxXxXxXxXxXxXxXxXxXxXxXxXxXxXxXxXxXxXxXxXxXxXxXxXxXxX",
"xXxXxXxXxXxXxXxXxXxXxXxXxXxXxXxXxXxXxXxXxXxXxXxXxXxXxXm.E.@XuXfX2XxXxXxXxXxXxXxXxXxXxXxXxXxXxXxXxXxXxXxXxXxXxXxXxXxXxXxXxXxXxXxX",
"xXxXxXxXxXxXxXxXxXxXxXxXxXxXxXxXxXxXxXxXxXxXxXxXxXxXxXxXxXxXxXxXxXxXxXxXxXxXxXxXxXxXxXxXxXxXxXxXxXxXxXxXxXxXxXxXxXxXxXxXxXxXxXxX",
"xXxXxXxXxXxXxXxXxXxXxXxXxXxXxXxXxXxXxXxXxXxXxXxXxXxXxXxXxXxXxXxXxXxXxXxXxXxXxXxXxXxXxXxXxXxXxXxXxXxXxXxXxXxXxXxXxXxXxXxXxXxXxXxX",
"xXxXxXxXxXxXxXxXxXxXxXxXxXxXxXxXxXxXxXxXxXxXxXxXxXxXxXxXxXxXxXxXxXxXxXxXxXxXxXxXxXxXxXxXxXxXxXxXxXxXxXxXxXxXxXxXxXxXxXxXxXxXxXxX",
"xXxXxXxXxXxXxXxXxXxXxXxXxXxXxXxXxXxXxXxXxXxXxXxXxXxXxXxXxXxXxXxXxXxXxXxXxXxXxXxXxXxXxXxXxXxXxXxXxXxXxXxXxXxXxXxXxXxXxXxXxXxXxXxX",
"xXxXxXxXxXxXxXxXxXxXxXxXxXxXxXxXxXxXxXxXxXxXxXxXxXxXxXxXxXxXxXxXxXxXxXxXxXxXxXxXxXxXxXxXxXxXxXxXxXxXxXxXxXxXxXxXxXxXxXxXxXxXxXxX",
"xXxXxXxXxXxXxXxXxXxXxXxXxXxXxXxXxXxXxXxXxXxXxXxXxXxXxXxXxXxXxXxXxXxXxXxXxXxXxXxXxXxXxXxXxXxXxXxXxXxXxXxXxXxXxXxXxXxXxXxXxXxXxXxX",
"xXxXxXxXxXxXxXxXxXxXxXxXxXxXxXxXxXxXxXxXxXxXxXxXxXxXxXxXxXxXxXxXxXxXxXxXxXxXxXxXxXxXxXxXxXxXxXxXxXxXxXxXxXxXxXxXxXxXxXxXxXxXxXxX",
"xXxXxXxXxXxXxXxXxXxXxXxXxXxXxXxXxXxXxXxXxXxXxXxXxXxXxXxXxXxXxXxXxXxXxXxXxXxXxXxXxXxXxXxXxXxXxXxXxXxXxXxXxXxXxXxXxXxXxXxXxXxXxXxX",
"xXxXxXxXxXxXxXxXxXxXxXxXxXxXxXxXxXxXxXxXxXxXxXxXxXxXxXxXxXxXxXxXxXxXxXxXxXxXxXxXxXxXxXxXxXxXxXxXxXxXxXxXxXxXxXxXxXxXxXxXxXxXxXxX"
};
