/* XPM */
static char *ce521561670245fa98cf55f990e74942MTrLVvIVArF9yRhh[] = {
/* columns rows colors chars-per-pixel */
"64 64 145 2 ",
"   c None",
".  c #1B1A18",
"X  c #22201C",
"o  c #52544C",
"O  c #56584F",
"+  c #5E605A",
"@  c #676761",
"#  c #6E6E6B",
"$  c #71726D",
"%  c #7C7C75",
"&  c #878883",
"*  c #8A8A85",
"=  c #868A89",
"-  c #8C8D8B",
";  c #908F86",
":  c #8E908F",
">  c #94938D",
",  c #98968E",
"<  c #939493",
"1  c #999791",
"2  c #9A9A95",
"3  c #9C9D9B",
"4  c #A4A29E",
"5  c #9C9EA2",
"6  c #A09FA0",
"7  c #A4A4A4",
"8  c #A8A7A6",
"9  c #ABA9A6",
"0  c #A3A5AB",
"q  c #A8A7A9",
"w  c #A7A8AE",
"e  c #ACABAB",
"r  c #B0AFA7",
"t  c #B1AEAD",
"y  c #B4B2AE",
"u  c #AEADB2",
"i  c #B0AFB2",
"p  c #AFB1B6",
"a  c #B5B3B3",
"s  c #B9B5B4",
"d  c #BBB9B5",
"f  c #B5B5B9",
"g  c #B8B7B9",
"h  c #BDBBBB",
"j  c #C0BEBD",
"k  c #C3C1BE",
"l  c #BCBDC1",
"z  c #C0BFC0",
"x  c #BEC0C6",
"c  c #C4C3C3",
"v  c #C8C7C7",
"b  c #CAC9C5",
"n  c #C4C5CA",
"m  c #C9C7C9",
"M  c #C7C8CC",
"N  c #CCCCCB",
"B  c #D0CFCD",
"V  c #D2D1CE",
"C  c #D8D4CE",
"Z  c #CFCFD1",
"A  c #CFD1D2",
"S  c #D5D5D4",
"D  c #D8D7D5",
"F  c #D7D8D7",
"G  c #D9D9D6",
"H  c #D7D7D8",
"J  c #D7D8D8",
"K  c #DCDCDB",
"L  c #E0DFDB",
"P  c #E0DFDC",
"I  c #E0DEDC",
"U  c #E0DFDC",
"Y  c #DFE0DF",
"T  c #E1E1DC",
"R  c #E2E1DC",
"E  c #E2E1DD",
"W  c #E2E2DD",
"Q  c #E3E2DE",
"!  c #E6E3DC",
"~  c #E4E1DF",
"^  c #E3E2DE",
"/  c #DDDEE0",
"(  c #DFDFE2",
")  c #E0E0E1",
"_  c #E0E1E3",
"`  c #E4E2E0",
"'  c #E6E3E1",
"]  c #E6E3E0",
"[  c #E5E4E1",
"{  c #E3E2E4",
"}  c #E5E5E4",
"|  c #E5E4E6",
" . c #E7E6E6",
".. c #E4E4E2",
"X. c #E8E5E0",
"o. c #EAE7E4",
"O. c #E9E7E7",
"+. c #EAE7E7",
"@. c #E9E7E3",
"#. c #EBE8E1",
"$. c #E9E8E7",
"%. c #EBE9E7",
"&. c #EAE8E6",
"*. c #EDEAE4",
"=. c #EEEBE5",
"-. c #ECE9E7",
";. c #EDEBE7",
":. c #EDEBE5",
">. c #E9E8E8",
",. c #EAE8E8",
"<. c #EBE9E8",
"1. c #EBEAE8",
"2. c #ECEAE8",
"3. c #EDEAE8",
"4. c #EEEBE8",
"5. c #EFECE8",
"6. c #F1EEE6",
"7. c #F2EEE7",
"8. c #F1EEE7",
"9. c #F0EDE9",
"0. c #F1EEE9",
"q. c #F3EFE8",
"w. c #F1EEEA",
"e. c #F2EEEA",
"r. c #F2EFEA",
"t. c #F2EFE8",
"y. c #F3F0EB",
"u. c #F5F1EA",
"i. c #F6F3EB",
"p. c #F3F0EC",
"a. c #F4F1EC",
"s. c #F5F2EC",
"d. c #F6F3ED",
"f. c #F7F4EC",
"g. c #F7F4ED",
"h. c #F7F5EE",
"j. c #F7F5EF",
"k. c #F3F0E8",
"l. c #F9F6ED",
"z. c #F8F5EE",
"x. c #F9F5EE",
"c. c #F8F6EE",
"v. c #F9F6EE",
"b. c #F8F6EF",
"n. c #F9F6EF",
/* pixels */
"                                                                                                                                ",
"                                                                                                                                ",
"                                                                                                                                ",
"                                                                                                                                ",
"                                                                                                                                ",
"                                                                                                                                ",
"                                                                          0                                                     ",
"                              M c l l l g l l l l l x c c c n n n n M M M M n l p                                               ",
"                            [ *.&.| ) / K K K K / / _ _ | | O.O.&.>.>.2.>.>.2.>.| v                                             ",
"                            *.7.r.i.i.g.c.c.g.g.c.c.c.c.c.c.c.c.c.c.g.d.d.r.r.2.O.S                                             ",
"                            G *.7.i.c.c.c.c.c.g.d.d.y.r.r.r.r.5.2.2.2.&.&.&.O.! V e                                             ",
"                              G D G ! #.X.` ` ` ` I K D S B b k j d g g g s a a a 7                                             ",
"                              K L K G N g 3 < 3 8 g h c v N N S S H J J H H H S v                                               ",
"                              K W W W L N - * X . Z H H H H J J J J J J J H H S c                                               ",
"                              K W W W W K c 4 @ # H J J J J K K K K K K J J H N g                                               ",
"                              G W W W W G c d j m H J J K K K K K K K K J G S m a                                               ",
"                              D L W W I G V N N S F J K K K K K Y K K K J H S v e                                               ",
"                              S K L I K K S S S H H K K K K K K Y Y K K J H V c                                                 ",
"                                J K K K K H S H H J J K K K K K K K K J J S N d                                                 ",
"                                G K K K G G H H H G J K K K K K K K K J G S N s                                                 ",
"                                S G K G G G H H J J J K K K W W K K K J H S v t                                                 ",
"                                V G G G G G H H J K K K K K K Y K K J G H V c 9                                                 ",
"                                B S G G G G H H J J J K K K Y Y K K J H S N h                                                   ",
"                                N S D G G G G S J J J J K K K K K J G H S m g                                                   ",
"                                  S S D G G H H H J J J K K K K J J H S N c t                                                   ",
"                                  S S D G D H H S H G J J J J J H H H S N j 9                                                   ",
"                                  B S D H H H H S H G J J J J J G F H H B h 7                                                   ",
"                                  c V S S S S S H G K K K K K K W W W I K V S J                                                 ",
"                                      j v N V V S K I X.*.*.5.7.5.*.*.*.&.&.[ K K K J A                                         ",
"                                        9       4 V C *.7.7.7.7.5.5.*.*.*.&.X.) K K K K K F S                                   ",
"                                                  W #.! 7.7.7.7.7.7.5.*.*.*.&.` Y Y K K K K K J H                               ",
"                                                    K C #.y.y.y.7.7.7.5.5.5.*.| ) ) ) W W Y Y Y K K                             ",
"                                                    D S N b ! 7.k.i.k.k.r.7.5.&.[ ..[ [ [ [ [ [ [ K                             ",
"                                                    D S V G b y s b G ! 5.5.5.5.5.5.*.*.&.[ L V s r                             ",
"                                                      D S k g k C V y 2 > > - * & & & * * * ; 4 k y                             ",
"                                                      G K G S c 2 2 1 > > 3 8 e e e e 8 4 1 , > 1 k                             ",
"                                                      v K K J S N m z 9 - $ + O o o O @ % > 9 j N V                             ",
"                                                        N J J H S N m c g a w 7 5 5 7 w g z c m B V                             ",
"                                                        c m N N A A N v l l f a u u u a l c v m N v                             ",
"                                                        c c M v c c l g f i u w w w w u g h j c v                               ",
"                                                        m c c v v c c l l h g f a a i u a d c v                                 ",
"                                                        v S h j c c v c c l h h l c c c c v c                                   ",
"                                                        h N k v c j z h d g g h h l z c z                                       ",
"                                                          c s v c j g 8 3 e g g h h z j d                                       ",
"                                                          c r c c v c e - = 3 t s h d d j                                       ",
"                                                          k y c v m v e < - : 3 e a a s d                                       ",
"                                                          c c c m N v e < : < 4 7 e y a d                                       ",
"                                                          d j j N N m i 2 < 2 7 9 e t y d                                       ",
"                                                      g d d d c N N v a 3 2 3 8 9 e t y g                                       ",
"                                                    z j c 9 h v N N m a 7 3 3 8 e e r y d                                       ",
"                                                    v c h d c N N N m g 8 6 7 9 e e t y d                                       ",
"                                                      v v c c N N N m f 8 7 7 e t t t a d                                       ",
"                                                        c v m N N N m g e 8 8 t y y a s d                                       ",
"                                                          h v N N N m g e q q t a a a s h                                       ",
"                                                            B v m m v g e e e e a a s g d s                                     ",
"                                                                c v c g e e e e a g a s a                                       ",
"                                                                  s d a e e e e t a t 9                                         ",
"                                                                                                                                ",
"                                                                                                                                ",
"                                                                                                                                ",
"                                                                                                                                ",
"                                                                                                                                ",
"                                                                                                                                ",
"                                                                                                                                "
};
