/* XPM */
static char *d55c0de9aa37401185483f1983ad9585[] = {
/* columns rows colors chars-per-pixel */
"64 64 254 2 ",
"   c #1E2E0E",
".  c #213411",
"X  c #233B14",
"o  c #2E3816",
"O  c #1F430E",
"+  c #264D0D",
"@  c #24510A",
"#  c #2B540E",
"$  c #2D5B0D",
"%  c #315A0F",
"&  c #254413",
"*  c #2A4715",
"=  c #2C4D14",
"-  c #334919",
";  c #334C1A",
":  c #2C5213",
">  c #2E5911",
",  c #325415",
"<  c #355C14",
"1  c #33531B",
"2  c #3B5518",
"3  c #355B19",
"4  c #3B5C1B",
"5  c #366A0F",
"6  c #356314",
"7  c #3B6415",
"8  c #3D6C14",
"9  c #356618",
"0  c #3B631A",
"q  c #3D6B1A",
"w  c #3C7415",
"e  c #3B4F21",
"r  c #3C5823",
"t  c #3C6822",
"y  c #445A1C",
"u  c #426E0F",
"i  c #436616",
"p  c #436C16",
"a  c #43651C",
"s  c #4B631A",
"d  c #436C1B",
"f  c #496C1D",
"g  c #556C1D",
"h  c #447415",
"j  c #4A7416",
"k  c #457C14",
"l  c #4B7C15",
"z  c #44731B",
"x  c #4A751D",
"c  c #457B1B",
"v  c #4B7C1C",
"b  c #56781B",
"n  c #527D1D",
"m  c #647F1E",
"M  c #425C23",
"N  c #475728",
"B  c #4C5D31",
"V  c #436323",
"C  c #4A6625",
"Z  c #456B22",
"A  c #4B6D24",
"S  c #4A672A",
"D  c #556A29",
"F  c #4C7423",
"G  c #487627",
"H  c #4C7B23",
"J  c #4D732A",
"K  c #527525",
"L  c #537C24",
"P  c #5A7D25",
"I  c #53742B",
"U  c #5B732C",
"Y  c #537C2A",
"T  c #5B7D2D",
"R  c #566835",
"E  c #5A7834",
"W  c #667337",
"Q  c #647A39",
"!  c #6C7746",
"~  c #667843",
"^  c #3E8018",
"/  c #458317",
"(  c #4B8314",
")  c #4F8B11",
"_  c #4C8A15",
"`  c #4D831B",
"'  c #4D891B",
"]  c #548715",
"[  c #538C16",
"{  c #53841C",
"}  c #5A841D",
"|  c #538B1C",
" . c #5A8C1D",
".. c #559314",
"X. c #5A9515",
"o. c #599B16",
"O. c #55921C",
"+. c #5B941C",
"@. c #5D9B1C",
"#. c #668D1B",
"$. c #628C1E",
"%. c #63941D",
"&. c #649C1D",
"*. c #69991B",
"=. c #5DA21A",
"-. c #66B60F",
";. c #66A817",
":. c #63A21C",
">. c #6AA41C",
",. c #6CAB1B",
"<. c #73AC1D",
"1. c #78AB1B",
"2. c #6BB519",
"3. c #73B21C",
"4. c #78B91C",
"5. c #4D8223",
"6. c #4E8826",
"7. c #538323",
"8. c #5B8423",
"9. c #558B24",
"0. c #5B8C24",
"q. c #55832A",
"w. c #5A842B",
"e. c #568A29",
"r. c #5C8B2B",
"t. c #569222",
"y. c #5C9323",
"u. c #5D9A23",
"i. c #5E932A",
"p. c #5A9C2B",
"a. c #5C8432",
"s. c #5B8835",
"d. c #5D9038",
"f. c #668527",
"g. c #628D24",
"h. c #63842B",
"j. c #638C2B",
"k. c #6A8C2B",
"l. c #738B29",
"z. c #639324",
"x. c #6B9525",
"c. c #639B23",
"v. c #6B9D24",
"b. c #63942B",
"n. c #6B942C",
"m. c #659B2C",
"M. c #6B9C2B",
"N. c #729C24",
"B. c #73942C",
"V. c #729C2C",
"C. c #7A9B2C",
"Z. c #648333",
"A. c #638C33",
"S. c #6B8C33",
"D. c #638638",
"F. c #69833B",
"G. c #648B39",
"H. c #6B8D3B",
"J. c #738B39",
"K. c #659333",
"L. c #6A9433",
"P. c #659B33",
"I. c #6C9B33",
"U. c #6B933B",
"Y. c #65983A",
"T. c #6C9C3B",
"R. c #739432",
"E. c #729D33",
"W. c #72943B",
"Q. c #739C3C",
"!. c #7B9A38",
"~. c #5EA323",
"^. c #65A324",
"/. c #6CA324",
"(. c #65AA24",
"). c #6CAB24",
"_. c #65A12A",
"`. c #6CA42B",
"'. c #6DAB2C",
"]. c #73A424",
"[. c #73AC24",
"{. c #79AA25",
"}. c #74A32C",
"|. c #7AA52D",
" X c #74AB2C",
".X c #7BAB2C",
"XX c #6CB124",
"oX c #6EB42C",
"OX c #73B225",
"+X c #7AB425",
"@X c #78BB27",
"#X c #74B32B",
"$X c #7AB42C",
"%X c #7BBC2C",
"&X c #6DA333",
"*X c #6EAA33",
"=X c #6EA53B",
"-X c #73A434",
";X c #7BA533",
":X c #73AA33",
">X c #7BAC34",
",X c #74A33B",
"<X c #79A43C",
"1X c #74AB3A",
"2X c #7BAC3A",
"3X c #75B233",
"4X c #7BB434",
"5X c #7CBB33",
"6X c #7BB33B",
"7X c #7AB93A",
"8X c #7AC01E",
"9X c #7DC326",
"0X c #7DC136",
"qX c #698642",
"wX c #758949",
"eX c #739B43",
"rX c #789948",
"tX c #759350",
"yX c #6EA142",
"uX c #7BA443",
"iX c #7AA647",
"pX c #7BA942",
"aX c #7CB341",
"sX c #7EB645",
"dX c #839C35",
"fX c #85AA27",
"gX c #83AC2D",
"hX c #85B72B",
"jX c #87A737",
"kX c #83AC33",
"lX c #82AB3C",
"zX c #82B435",
"xX c #84BC34",
"cX c #8BBA37",
"vX c #84B43B",
"bX c #83BB3C",
"nX c #92BB38",
"mX c #87D71C",
"MX c #86C428",
"NX c #83C32D",
"BX c #87C537",
"VX c #92CE35",
"CX c #839947",
"ZX c #839C5C",
"AX c #85A948",
"SX c #87B746",
"DX c #86A656",
"FX c #89B552",
"GX c #94B751",
"HX c #92AE65",
"JX c #8CC747",
"KX c #91C648",
"LX c #9AD748",
"PX c #9CD855",
/* pixels */
"1Xm.c.L 0 P < X Q SXQ.Z b.}. .m.^.^.'.m.1X<Xx 7.8.( XX:...7X:Xn.R.lXSX7.v #XbXw.< 8 c.I.h.u.y.0.z @.+.m.b.^.+.` F y L f A Z.q.v ",
"_.y.y.4 * M d F Q vX4X-X`.} p v.|.7.*X0XKXGX0.y.0., r.:.#XSX2XI.,XuXSXFXG.w.,XJ 0 I.2X!.U r.}.[ ` c.l e.K.K.x v 0.r M 7 4 Q.A.F ",
"'.z 0.c.K.I c.5XL.P +X@X X .y.|.jXj.<X-XE.{ +./.M.; A &.u.Y.sX1X&XI.7.r N E D.w.8.jXC.h.d L ^.,.^.^.v 7.s.I 7.M.xX1Xb.#X^.M.i.u.",
"G x OXVXxX2Xg.v Z 2 g i { 5X Xg.S.rXrXCXI.r.S.g.L < l OX XI e.O.y.].O.# 8 ( L AX;X;Xf.b  .( 3.3.+.c.[ b.i.7.,X X).3Xy.=.@. .b.=X",
"J w. X$X9X%Xr.Z - ; M 2 %  .4XA.Z K.z.!.AXpXU.0.z | 0.v z.l 6 h j z.0.< 6 q q.Q.-X}.z.$.z.0.>.NXc.v.+.0.,Xj.>X`.y.0.< y.| ` e.Z ",
"F e.:X<X}.%. .r.Y 4 w.G.3 7.0X4Xr.L l n.AXtXG.eXP b.y.( &.+Xc.O.z.b.b.k.L.K.F z { +.`.L.w.P j.b.| y.z p i.K.h.i.v.+.@._.^.h 0.-X",
"x ` ^.L p ) &.E.P.T.Y.G d z.#XxXA.H L w.U.U.eXa.4 b.1X+.,.<.[.x.R.-X^.x.:X&XH / ` 8.eXU.eXAXr.z e.r.$ v '.W.U 8.2X&.@X(.).(  XJX",
"Q.b.( } 2 l [ 8.,XAXY.t q I.B.n.< w `.K.U.m.1Xw.T &X5X,.4.].} b a c.<.z.M.H q ` ` z a.pXKXPX1Xd r , 7 L.2X!.K 0  .,.>.+.+.c.v.P ",
"LXLX:.lXh.6 h j.8.K J 1 4 M.+X>.n k (. .-XCXH.I.`.I.>X].gXN.j L i.$X<.}.}.7.q z v +.bX&X3XbX4XF M : L lX|.k.n ( [ 4.mX[.f 7.{ 4 ",
"aXLXVXcXk.< 7.L.8.K.L +.z.c.[.hXnX X4Xp j.S.U 0.^.v.v.x.eXrXP I.b.m.{ a j. X{ F K.M.|.8. .g.S.U.Q.q.8.lX|.j [ -.3.$.{.N.< 3 1 ; ",
"c.4XSX;Xl.} 0.a 7 :XsX=.4.<.b l.C. XcXy j.`.8.} +.v.v./.a.qXP e.9.'.7.Z :XNX .d Z w.g.7.L S.k.k.w.eX2X|.!.z.o.,.V.U R.;XZ - Y t.",
"=.2.:X,X<Xq.7 i { %XBX3.1.].g g C.x.kXh.z.%Xg.#.[.j.h.xXm.x :.v 7.u.w.uXvXNX XH d O.@.7.Y.iX7.{ 8.W.2Xx.h.I.b.lXQ.M o e r r.0Xt.",
"l ../.m.lXA.x j.^.@X$X].;XV.b B.kX;XlXE.k.M.C C f.T C A H.{ :.y.v. .` M.2XSXSX0.g.x.^.7.8 w L *X5.h.F 4 y 7. .V.M.<   = 1XSXaXP.",
"bX+X{.n.U F 7X&X@.@X>.x.G.tXZ.wXG.vXxXE.B.g.A y D L A H yXy.=.@.y.{ l X./.j.w.g.M.U A.x # i I.JXT.J 5 = 9.:.@X}.n.> Z 5.6XpXu.bX",
"SXxX|.r.q | 1XJXy./.z. Xi.a.0.} p N.fX[.lX,XB.B.x.[ z 7.oX(.:...{ i { %.{ x.x.M.d B tXG.i.x.>XI.G.t w c u.>.{.nXh.& q e.i.:Xp.-X",
"BX4X.Xy._ O.y.KXSXK.P 4X-XZ :.,. .#.fXcX,Xy.8.B.R.+.8 p *Xc.} %.w h zX-Xr.z.`.K.7 q.<XiXAX^.g.r.7.9 9 ` v n M.B.a J k 9.8.n.q.:X",
"OXz.z.).2.;.[ K.T I A Z Q w.o.>.].8.K P 0.:.`.f.W 8. .+.&Xe.p y.&.&.kXAXF.A J F ` `.1XA.T.).O.`.M.H 9 d a.S.2XSXD F +.z.B.zX7.u.",
"=.0.j.:X3X^.| 0.8 L A 0 T.P.o.:.).} : G r.@.|.!.Z.h.L c.:Xr.4 H M.v.M.Q.eXR D y.o.| I 4 { 4.,.>XV.`.| d J A w.vXL v | b.P f.8.b.",
"0.L.F i.bX`.+./.r.c | a _.XX;.&.}.V.n 7.w.) N.CXF.Q F.E.c.A - , ` y.:X<XS B Y 9._ m.L 7.`.%X+.a K $X@X` q 4 +.%Xm.Y.8 L i.[ +.L ",
"y.2X0 9.$X{. X#X9.w ( < y.7X'.:X;X|.vX,X-X>..XAXW N y r.b.8.d d O.| 5XKXS X t O.u.`.i.b.b.b.` = q.%X9X X9.7 g.V.h.w.v ` ` [ O.0.",
"_.#Xz.` ^.&XvXnX,X{ X.` c.P.y.y.b.L H.AXhX4.E.U ~ W 3 H +.+.x 7 ` | OX:X= X 1 ` @.^.b.I.e.'.`.Y uXvX$XJX&X8.B.Q Q R.g.9.c.c.| b.",
"0.%.v./.c.Z g.gXDXrX/.%.^.:X&X9.-XU.qXlXkXAX~ R Q I z z +.[ 8.p k _ [ _.F & & , ^.}.b.5.5.| 9.H U.,XSXuXT.x.z.S ! DXrXrXuX6XM.Q.",
"A y.h [ { a z.B.C Q M.+.].m.FX2XxXSXD.D.AXDXCX! T c v h ^.c.c.n z | c.>.N.4 $ q m.m.f x 7.c. .` ] ,.`.8.8.,X` 3 E 1XAXrXtXpXb.Q ",
"V | l v e.c  X%.V B V { :X&X2X#X@X>Xu.t eX<XrXwXD i } %.^.^.$Xx.x c &.4.>.{ h x r.e.+ 8 [ ^.g.l ( &.{ x.v.6XG 9 P.bX-Xy.A.uXI.S.",
"P k { J G O.@X+X0.J 3 6 e.+.%.y.L.,X&Xz 3XvXeXQ.2 #  .hXbX&X Xn.< < c.3.[.+.8.L.M.c $ ` _.P.n i 0.`. .g.r.r.F ' u.I.w.y.`.:XBXvX",
"kXl h Y b.m.>.+X{.2XH > x O._ 8 > Z 0.@.^.b.U.2XT.F 5.0.<XI.x.n.x I b.+. X/.z.b.-Xw.< [ &.| ` 8 }.vXL.U A C L ~...i.4 z `.y.OXMX",
">X`.6 j `.iX8.*.*.].`.z 8 ^.O.;.o.u.c.[. XE.k.!.SXFXeXR Q r.| @.b.-X1XL.n.V.z.7.A.w.v [ %.&.k l N.lXAXrXR R r.O._ 6Xm.H 2XzX].fX",
"-X3X8 < 8.rXjXfX8.$.hX Xk +.'.).+XxXz.[ 3X2Xn.E.<XA.0 4 l { @.0.v 0.W.rXM.M. .} g.8.8.0.j { ^./.v.x.I.G.S S 7.| t.:XNX&Xr.M.;Xn.",
"w.M.F # 7 Z k.N.b n V.cX%.X.@.[ z.$XXX:.5XSX2X:Xx.z.8 # 8 z { v l +.{ z.].+Xv.V.>Xg.m x.F 8 i.M.c.M.SXU.e X 1 t.@.:.#XcX X`.vX0.",
"kXgXzXc.6 7.0.8.i % ( $X0.+.8 z v h `.+._.Y.1Xu. .v.m.f b.&X XM.` | c.6Xu.v./.z.qXH.J.W.J , , z | c.JXGXr X ; 3 z @.`.j.r. X#XBX",
"7X{.nXkXa q.d Y , @ d `.d 7.6 w +.1 E &.).q.d w v { g.n.>X`.b./.2.o._.KXpXP M. XY 8.L d a 2 , ` _ O.@X4X0 & * & ; &X:Xa , l +.:X",
"aXV.kX2X-Xy.0 A.J 9 Z =X7.c h _ ).A < +.`.z.[ ` 0.8.n L w.8.w.*X@X@.y.L T I K U.w.X.>.l b 0.0 z | | +.^.&Xf * + h d m.z O w `.FX",
"4Xc. X].{.V.v a f 8.OX'.4X X[ _ +.d O.{ j &.+X%.F a # ; F.U.q.b.4X+.c.n x J 4 s.b.:.[.z.L 8.n 7 w _ [ @.>.].L 8 c F P.v @ 6 m.4X",
"^.i.7X>Xz.P W.F.L  .+Xv.^./.[.%.` q q.e. .$XBX4XL v 0.M rXSXw.H ).#Xy.M.w.q d *X(.o.:.c.7 Z r.p d 8 t.`.3.1.c.[ 8.L.V.:X4 7 X.c.",
"' r.vXcXC.;XAX}./. .>.,.+.+.+.+. X:XJ q.`.@XBXbXj.`.0XA.,XxXr.w.`.OX@.7XI.= 8 _.~.o.M.|.8.L b.z.h.x H | 4.<. XX.z.0.m.,XA k +.+.",
"` b.b.x.B.M.`.,.8Xv.,.mX/.z.c.&.zX>Xc i.2X.X@XNXV.x  .a.K +X#X:Xz.8.0.7X`.d c t.p.p.i.V.lXK.c.hXz.p > x ^.%..X].v.b.H T L c.BX*X",
"F d d y P z.0. X.X8.V.hX8.a y.z.K K.H _.c.k.v.*.g.J ; - y x.[.`. .h 0./.^.u.7.6.9.e.H Y W.Q.m. XjXx , Y i. .V.n.V.8.a.b.x.2XbX1X",
"t w : 4 7.{ h.SXZ.B S.kXL , 0 4 F KX&Xl | y j X.+.w.S - - - a _.`.y.|.jX8.i.#Xi.*Xr.w.eXU.`.u.z.l.b.j.E.<XiXU.g.n.w.T.`.%.g.j.s.",
"6 ^ w (.:.+X0. XF o o C 1 * V 1 w.LXVX .k.y u o.-XL.F 0 a.D # +.NXz.C.jXh.-X5XJXGXL.e.m.e.*X0.z.l @. X<XF.wXG.m.7.3 z.4.+.0.i.w ",
"6 c ' c.>.hXcXb.6 *   4 J P._.u.z.SXLXhXjXK h k 7.,XsXT.d.G > v 5XS.A rXrXuXM.;XR.0.i.3X7.I.-X-Xc.n { ,XE E 7.y.0.r.#X3.v.>XM.H ",
"z d K x v.jXlXa = G H 7XSXKX*X` ;.#XGXkXC.0 7 7.b.k.iX=XY 0 7.'.BXI.F Y.K.rXW. .( c.z.b.` '.2X<XA.2 j x.h.I H r.b.&X3X:. .g.-XH ",
"n 0 G.A.6X;Xf 4 , H r.1XiX&X*Xx ..).1XL.l.n r.E.h.L K J : q M./.%X1Xq.L | W.AX=XA.M.M.c.).v.A.E.,XZ h /.4XA 0 w.b.i.b.v * C 4X#X",
"v 9 4 C pXlXM I / O.6.I.&Xc.bX3X+.^.&X6XuXz n 0 7 m.T F 4 x |.V.R.K 5.F 5.<XFXT.K.E.zX+.^.4XR.R.SXSXU.a.U.S q z H u.'.0.V I.9X9X",
"M.L 0 { 4Xj.4  .@. .n.E.e.M.2XBXhX}.g.!.Q.d p 0 u.BX6X:./. .hX1.8.+ / `.A.A.rXF.S.z.OX:.).SX-XE.<XL.V M A = > q L ` 9.L eXAX@XNX",
"7XH p :.#X0.i.` m.h.gX.XH `.BXxX].E.h.s L K.m.c.oX%X5X2.MX>./.hXcXn O.(.K.L.m.T.U.d q.c.^.1XsX*Xz.y.< 6 { a > ` c.c.` v I.<XSXKX",
"aXg.B.l.h.q.Y.8 7.q.b g.b.^.#X X Xb.q c *XJXm.>.9X+X[.<.1.*.g dXcX X3X .0.!.I.1Xb.8.;  .).w.7.(  .`.F a L { l v 9.g.+.( X.OXAXQ.",
"w.x.x.U W S.f.v ` t.` { 0.~.u.L `.=.=.O.y.JXm.>.+Xv.V.;XV.b s l.g.hXkX2 j.CXJ.L.I.Z.F  .c.z.k ` v h L V.>X/.&. .y.x i k &.&.g.8.",
"-X&Xz N tXrXx.` | ` O.u.x r.r.q.1XXX2...u.PXsXc.g.].g.wXeXf.l.gXx..XR.y I.n.D 0.(.b.I.0.{ /.[.v.P 6 q.z.c.*.%.&.( 7 x }.c.{ V.].",
"2Xw.< A K.DXZXeX&X/.@.| 9.-XA.Z b.4X X[ 8.w.U.a.h.hX`.s.E J.CX;X;X>XE.0.#X`.x 0.c.n.A.n.v.u.c. .c.b.2XI.j.} b v._ h z.vX-X8.k.z.",
"Y d h &X4X2XuXDXDX3Xc.i._.NX7.< 3XxXc.@.c.< F C L L.,XZ @. .M b.KX4XS.n. X8.} >.z.E wXrXrXeX`.+.v.K.I.iXrXY 7 | ).>.v.vXAXQ U Z ",
"I 9.o.u.pXI.y.s.iX>XE.Q.z./._.` ^.+X/.%.`.H 7.A ; r G.v ;.>.l x.fX>.!.g.P M K {.`.V E iXiXeXQ.M.T C {  .L Z 0 7.M.v.v.n.AXrXB N ",
"e.~.) t.J H _.T.pXk.I S r.n  Xv.c.M.bX5X'.v _ 7.H =XP.@.>.N.$.#.hXhX2X-Xl.y D S.P.6 r.6X&Xy.I.2XvXn.h ] 0 ; * : v u.m.-XK.E R Q ",
"e.' ' aXH < _.m.4XbXL.V t.l l +.L d $XcX-X8 ( < a XX(.o.:.).z.f j.lXI.m.k.l.f.r.r.h u.b.F 8.m.c.%XcXg.h a j 2 q _ _ _.JXSXM - Z ",
"u.o.P.bX`.Y 7X_.).BX;Xh ( l { 7.a n {.jXHXz.X.l 0.3X#X:.v./.0., q { +._.8.dXjXY A 0...u.L d 2X>X{.gXzX{ < h 4 q O.' :.VXFXr . & ",
"z o.:.@XxXr.,X.X].hXkXn ] x J 7.5.}.V.C E <Xc.+.^.P._.*X>X|.x.z a.A.>.#Xn.W Q B D y._ m.7XM.L.M.;Xn.,Xm.$ d j 7 c [ &.xXe.O X 1 ",
"X v @.}.cX_.z.V.;XkX:X9.8 I q.` ).%X] S R K.+.c.3X*Xt.y.M.x.vXn.r.8.] ;XdXH.Q R E H O._.OXxX`._.4Xb.n.V.8.9.v < k [ ` y.P.3 O 3 ",
"& L 3Xn.g.-X:X2Xb.A.bXy.< n `.L.).MXz.J r Z  ..XM.SXP.b.j.J eXAX>X*.*.jXCXE.I e X 3 ` +.:.}.b.M.).$XzXgXcX]. .F p ' y.:./.8.& + ",
"| z &Xa , 7.).NX-Xw.M.v # l ;XU.n ].{.T.Z : 7.4XI.FX6X5XGXtXW.SX4.4.>XAXJ.S.qXR X ; = 4 :Xb., 7 _ :XaXn.z.$X$X8.v 5.u.3.1.v.d $ ",
"c A &Xq + 8 [ ).zXkX|.K # f wXAXgX*.N.lXL > G +.z. XXX4XAXH.U.>XzXQ.T W W B C E < & & 6 7.m.9 $ { bX1X`.y.'.;Xn 6 7 +.9X<./.| 8 ",
"K.E.b.$ $ ( M.SXSX.XnXhXk 6 A R.fXg.$./.y.6 v | X.{ &X2X#Xv R DXHX! B Q ~ E z 9.i.A > / z m.c # 8 ^.#Xu.t.M.dX7.@ 4 b.>.[.[.+.0.",
"z.}.:X< > ` bXSX<XV.cXcXx H j.z.*.b 8.$X'.8 O.| ( 7 , Y 2X5.J iXQ.AXwXD.I e.5.c.<.].[ c h.}.-Xa l +._.t.9.} 8.b.P K.i.| M.[.*.z.",
"e.b.U.a p ..(.OX`.].zX;Xh.7.F P p 7 9._.(.' +.'.XX,.w 5.i.' _.xXQ.tX! F h 0.Y y.3.[.c.z.z.b.A.L ` 7.r.i.-Xc.+.[. X2X-Xi.n.n.].z.",
"z H J `  .+.@.^.0.M.>X/.$X0.H ,XJ + t.t.p.5.5._.@.+X%X`.^.<.c.b.eX,XC 2 j j.7.9.&.c.m.M.M.Y J A 7.| M.6X-Xm.yX2X^.m.FXHXr.x.V.n ",
"| c.` z.0.m.y.F T E.n.{ OX#Xu.0X&Xd z H 5.i.w.{ | N.xXz.@.[.;Xj.-X6XZ +  .{.y.y.m.c H T.h.j.Y w.'.).(.&X7.x -X2X-X,XI.I.M.V.M. ."
};
