/* XPM */
static char *result[] = {
/* columns rows colors chars-per-pixel */
"64 64 136 2 ",
"   c #010100",
".  c #090606",
"X  c #0B0807",
"o  c #0D0B09",
"O  c #120E0B",
"+  c #16120E",
"@  c #18120F",
"#  c #171310",
"$  c #1A1611",
"%  c #1D1914",
"&  c #221B16",
"*  c #261F19",
"=  c #281F1A",
"-  c #301F1C",
";  c #25201A",
":  c #2C231D",
">  c #33241E",
",  c #3D2723",
"<  c #352C24",
"1  c #3B2D25",
"2  c #383127",
"3  c #3C3329",
"4  c #452C28",
"5  c #42332B",
"6  c #4D322C",
"7  c #43392E",
"8  c #48382E",
"9  c #463C30",
"0  c #4C3D32",
"q  c #523C33",
"w  c #5C3D36",
"e  c #4F4336",
"r  c #564237",
"t  c #524739",
"y  c #594539",
"u  c #574B3C",
"i  c #5C4A3D",
"p  c #61473C",
"a  c #68433C",
"s  c #614B3E",
"d  c #6A483F",
"f  c #644E40",
"g  c #764C44",
"h  c #625443",
"j  c #6B5445",
"k  c #675847",
"l  c #6F5648",
"z  c #6C5D4B",
"x  c #715748",
"c  c #7D5048",
"v  c #745A4B",
"b  c #795D4D",
"n  c #72614E",
"m  c #756451",
"M  c #7B6552",
"N  c #7D6B56",
"B  c #7F6D58",
"V  c #82584E",
"C  c #816453",
"Z  c #886957",
"A  c #826E59",
"S  c #8B6B59",
"D  c #9E6B5E",
"F  c #85735C",
"G  c #8A745E",
"H  c #92705E",
"J  c #8C7760",
"K  c #8E7A62",
"L  c #977662",
"P  c #9A7462",
"I  c #927B63",
"U  c #9B7B65",
"Y  c #9F7F68",
"T  c #A47665",
"R  c #AD7466",
"E  c #A37E69",
"W  c #9B866B",
"Q  c #A3836C",
"!  c #AA846E",
"~  c #A1896F",
"^  c #B4836F",
"/  c #AD8771",
"(  c #A48E71",
")  c #AA8D73",
"_  c #BE8774",
"`  c #B38C74",
"'  c #BA8F77",
"]  c #A69073",
"[  c #AA9276",
"{  c #AF9779",
"}  c #B39579",
"|  c #BD9279",
" . c #B49B7D",
".. c #BA9D7E",
"X. c #C0957B",
"o. c #C1997E",
"O. c #BCA282",
"+. c #C59C81",
"@. c #C99A81",
"#. c #D09F85",
"$. c #C4A384",
"%. c #CCA386",
"&. c #C4A987",
"*. c #CAA688",
"=. c #C6AA89",
"-. c #CCAD8C",
";. c #D4A287",
":. c #D5A689",
">. c #D4AC8D",
",. c #DAAC8E",
"<. c #CDB08E",
"1. c #D4B18F",
"2. c #DEAF91",
"3. c #D2B491",
"4. c #DCB493",
"5. c #D7BA95",
"6. c #DABB96",
"7. c #DDBE99",
"8. c #E2B796",
"9. c #E3B997",
"0. c #E4BD99",
"q. c #DEC09A",
"w. c #E4C49E",
"e. c #E9C39E",
"r. c #E7C7A0",
"t. c #EBC6A0",
"y. c #EDCBA3",
"u. c #EECDAB",
"i. c #F0CFA6",
"p. c #F1D0A7",
"a. c #F1D1AA",
"s. c #F3D5B2",
"d. c #F4DABB",
"f. c #F4DBC0",
"g. c #F7E2CC",
"h. c None",
/* pixels */
"h.h.h.h.h.h.h.h.h.h.h.h.h.h.h.h.h.h.h.h.h.h.h.h.h.h.h.h.h.h.h.h.h.h.h.h.h.h.h.h.h.h.h.h.h.h.h.h.h.h.h.h.h.h.h.h.h.h.h.h.h.h.h.h.",
"h.h.h.h.h.h.h.h.h.h.h.h.h.h.h.h.h.h.h.h.h.h.h.h.h.h.h.h.h.h.h.h.h.h.h.h.h.h.h.h.h.h.h.h.h.h.h.h.h.h.h.h.h.h.h.h.h.h.h.h.h.h.h.h.",
"h.h.h.h.h.h.h.h.h.h.h.h.h.h.h.h.h.h.h.h.h.h.h.h.h.h.h.h.h.h.h.h.h.h.h.h.h.h.h.h.h.h.h.h.h.h.h.h.h.h.h.h.h.h.h.h.h.h.h.h.h.h.h.h.",
"h.h.h.h.h.h.h.h.h.h.h.h.h.h.h.h.h.h.h.h.h.h.h.h.h.h.h.h.              h.h.h.h.h.h.h.h.h.h.h.h.h.h.h.h.h.h.h.h.h.h.h.h.h.h.h.h.h.",
"h.h.h.h.h.h.h.h.h.h.h.h.h.h.h.h.h.h.h.h.h.h.h.h.h.h.h.O O + + + + + + O h.h.h.h.h.h.h.h.h.h.h.h.h.h.h.h.h.h.h.h.h.h.h.h.h.h.h.h.",
"h.h.h.h.h.h.h.h.h.h.h.h.h.h.h.h.h.h.h.h.h.h.h.h.    O 8 l M N A B N b s <     h.h.h.h.h.h.h.h.h.h.h.h.h.h.h.h.h.h.h.h.h.h.h.h.h.",
"h.h.h.h.h.h.h.h.h.h.h.h.h.h.h.h.h.h.h.h.h.h.h.X X o & v X.,.q.w.w.6.:.Q 0 o o X h.h.h.h.h.h.h.h.h.h.h.h.h.h.h.h.h.h.h.h.h.h.h.h.",
"h.h.h.h.h.h.h.h.h.h.h.h.h.h.h.h.h.h.h.h.h.h.& 0 f k M ) 4.e.y.a.a.t.e.*.L z j i 5 h.h.h.h.h.h.h.h.h.h.h.h.h.h.h.h.h.h.h.h.h.h.h.",
"h.h.h.h.h.h.h.h.h.h.h.h.h.h.h.h.h.h.h.h.h.  : S o.<.q.w.e.y.i.p.p.y.i.t.w.3.*.` d +   h.h.h.h.h.h.h.h.h.h.h.h.h.h.h.h.h.h.h.h.h.",
"h.h.h.h.h.h.h.h.h.h.h.h.h.h.h.h.h.h.h.h.; 8 v ` 0.a.s.s.a.p.p.p.p.p.p.p.p.y.e.>.U y 3 h.h.h.h.h.h.h.h.h.h.h.h.h.h.h.h.h.h.h.h.h.",
"h.h.h.h.h.h.h.h.h.h.h.h.h.h.h.h.h.h.h.  1 S +.4.p.f.g.d.a.a.p.p.p.p.p.p.p.p.y.e.:.` j +   h.h.h.h.h.h.h.h.h.h.h.h.h.h.h.h.h.h.h.",
"h.h.h.h.h.h.h.h.h.h.h.h.h.h.h.h.h.h.h.  5 ! 0.t.a.d.g.d.a.p.p.p.p.p.p.p.p.p.a.y.e.>.M @   h.h.h.h.h.h.h.h.h.h.h.h.h.h.h.h.h.h.h.",
"h.h.h.h.h.h.h.h.h.h.h.h.h.h.h.h.h.h.h.  7 } y.i.a.a.s.a.a.p.p.p.p.p.p.p.p.p.p.p.y.9.F +   h.h.h.h.h.h.h.h.h.h.h.h.h.h.h.h.h.h.h.",
"h.h.h.h.h.h.h.h.h.h.h.h.h.h.h.h.h.h.h.  7  .p.p.a.p.a.a.p.p.p.p.p.p.p.p.p.p.p.p.p.w.F $   h.h.h.h.h.h.h.h.h.h.h.h.h.h.h.h.h.h.h.",
"h.h.h.h.h.h.h.h.h.h.h.h.h.h.h.h.h.h.h.  9  .p.p.p.p.p.p.p.p.p.p.p.p.p.p.p.p.p.p.p.w.F $   h.h.h.h.h.h.h.h.h.h.h.h.h.h.h.h.h.h.h.",
"h.h.h.h.h.h.h.h.h.h.h.h.h.h.h.h.h.h.h.  3 W 3.w.p.p.p.p.p.p.p.p.p.p.p.p.p.p.p.p.p.w.G $   h.h.h.h.h.h.h.h.h.h.h.h.h.h.h.h.h.h.h.",
"h.h.h.h.h.h.h.h.h.h.h.h.h.h.h.h.h.h.h.  $ 9 N &.p.p.p.p.p.p.i.p.p.p.p.p.p.p.p.p.a.w.F $   h.h.h.h.h.h.h.h.h.h.h.h.h.h.h.h.h.h.h.",
"h.h.h.h.h.h.h.h.h.h.h.h.h.h.h.h.h.h.h.+ # # 9 [ p.p.p.p.p.p.a.a.p.p.p.p.p.p.p.p.p.r.F $   h.h.h.h.h.h.h.h.h.h.h.h.h.h.h.h.h.h.h.",
"h.h.h.h.h.h.h.h.h.h.h.h.h.h.h.h.h.h.7 m N b G *.p.p.p.p.p.i.p.a.p.p.p.p.p.p.p.p.p.w.F $   h.h.h.h.h.h.h.h.h.h.h.h.h.h.h.h.h.h.h.",
"h.h.h.h.h.h.h.h.h.h.h.h.h.h.h.h.h.  u O.6.:.:.w.p.p.p.p.i.y.w.w.i.p.p.p.p.p.p.a.r.6.N #   h.h.h.h.h.h.h.h.h.h.h.h.h.h.h.h.h.h.h.",
"h.h.h.h.h.h.h.h.h.h.h.h.h.h.h.h.h.  u =.e.4.2.e.p.p.p.p.r.O.K ] q.p.p.p.p.p.p.w. .B e X   h.h.h.h.h.h.h.h.h.h.h.h.h.h.h.h.h.h.h.",
"h.h.h.h.h.h.h.h.h.h.h.h.h.h.h.h.h.  u &.e.,.,.0.p.p.p.p.w.W < k <.p.p.p.p.p.p.q.F : O     h.h.h.h.h.h.h.h.h.h.h.h.h.h.h.h.h.h.h.",
"h.h.h.h.h.h.h.h.h.h.h.h.h.h.h.h.h.  9 F K S U -.p.p.a.i.y.{ v W q.p.p.p.p.p.a.q.] h < X   h.h.h.h.h.h.h.h.h.h.h.h.h.h.h.h.h.h.h.",
"h.h.h.h.h.h.h.h.h.h.h.h.h.h.h.h.h.h.h.& & & 0 { p.p.i.i.i.q.3.7.w.p.p.p.p.p.a.y.q.&.n +   h.h.h.h.h.h.h.h.h.h.h.h.h.h.h.h.h.h.h.",
"h.h.h.h.h.h.h.h.h.h.h.h.h.h.h.h.h.h.h.  + 2 z O.p.p.p.p.p.p.p.p.i.q. .] ] { 3.i.p.w.F $   h.h.h.h.h.h.h.h.h.h.h.h.h.h.h.h.h.h.h.",
"h.h.h.h.h.h.h.h.h.h.h.h.h.h.h.h.h.h.h.  < K =.q.p.p.p.p.p.p.p.p.a. .h 2 2 e ] y.p.w.F $   h.h.h.h.h.h.h.h.h.h.h.h.h.h.h.h.h.h.h.",
"h.h.h.h.h.h.h.h.h.h.h.h.h.h.h.h.h.h.h.  7 { y.y.p.p.p.p.p.p.p.p.i...k 3 2 e ] r.y.9.A #   h.h.h.h.h.h.h.h.h.h.h.h.h.h.h.h.h.h.h.",
"h.h.h.h.h.h.h.h.h.h.h.h.h.h.h.h.h.h.h.  5 ! 9.t.p.p.p.p.p.p.p.p.p.q...[ ] [ q.y.e.>.C @   h.h.h.h.h.h.h.h.h.h.h.h.h.h.h.h.h.h.h.",
"h.h.h.h.h.h.h.h.h.h.h.h.h.h.h.h.h.h.h.  1 S o.4.y.y.p.p.p.p.p.p.p.p.p.i.a.p.y.w.-.` j +   h.h.h.h.h.h.h.h.h.h.h.h.h.h.h.h.h.h.h.",
"h.h.h.h.h.h.h.h.h.h.h.h.h.h.h.h.h.h.h.h.; 8 l } 0.t.p.a.p.p.p.p.p.p.p.i.a.y.w.1.L y 1 h.h.h.h.h.h.h.h.h.h.h.h.h.h.h.h.h.h.h.h.h.",
"h.h.h.h.h.h.h.h.h.h.h.h.h.h.h.h.h.h.h.h.h.  > Z o.>.5.5.5.w.w.e.e.e.6.6.6.3.*.` f O   h.h.h.h.h.h.h.h.h.h.h.h.h.h.h.h.h.h.h.h.h.",
"h.h.h.h.h.h.h.h.h.h.h.h.h.h.h.h.h.h.h.h.h.h.& q f j z z n L | o.o./ A z n n s i 5 h.h.h.h.h.h.h.h.h.h.h.h.h.h.h.h.h.h.h.h.h.h.h.",
"h.h.h.h.h.h.h.h.h.h.h.h.h.h.h.h.h.h.h.h.h.h.h.X X X o O & w D R R V 4 @ O o o X h.h.h.h.h.h.h.h.h.h.h.h.h.h.h.h.h.h.h.h.h.h.h.h.",
"h.h.h.h.h.h.h.h.h.h.h.h.h.h.h.h.h.h.h.h.h.h.h.h.    . < s Z ^ _ X.T V r &     h.h.h.h.h.h.h.h.h.h.h.h.h.h.h.h.h.h.h.h.h.h.h.h.h.",
"h.h.h.h.h.h.h.h.h.h.h.h.h.h.h.h.h.h.h.h.h.h.h.h.h.  + j ' @.;.;.o.o.o.R 5   h.h.h.h.h.h.h.h.h.h.h.h.h.h.h.h.h.h.h.h.h.h.h.h.h.h.",
"h.h.h.h.h.h.h.h.h.h.h.h.h.h.h.h.h.h.h.h.h.h.h.h.h.5 s E ,.9.9.9.9.9.0.o.b , = h.h.h.h.h.h.h.h.h.h.h.h.h.h.h.h.h.h.h.h.h.h.h.h.h.",
"h.h.h.h.h.h.h.h.h.h.h.h.h.h.h.h.h.h.h.h.h.h.h.  $ v ' >.e.y.y.y.y.y.y.1.R c ,   h.h.h.h.h.h.h.h.h.h.h.h.h.h.h.h.h.h.h.h.h.h.h.h.",
"h.h.h.h.h.h.h.h.h.h.h.h.h.h.h.h.h.h.h.h.h.h.h.1 i Q ,.$.[ =.t.p.i.i.i.4.P d 6 > & h.h.h.h.h.h.h.h.h.h.h.h.h.h.h.h.h.h.h.h.h.h.h.",
"h.h.h.h.h.h.h.h.h.h.h.h.h.h.h.h.h.h.h.h.h.  = b ` -.4.G e F 7.p.i.p.p.&.j - w g 4 . h.h.h.h.h.h.h.h.h.h.h.h.h.h.h.h.h.h.h.h.h.h.",
"h.h.h.h.h.h.h.h.h.h.h.h.h.h.h.h.h.h.h.h.h.  > H ,.w.q.m $ z 5.p.p.p.i.O.t @ d D q X   h.h.h.h.h.h.h.h.h.h.h.h.h.h.h.h.h.h.h.h.h.",
"h.h.h.h.h.h.h.h.h.h.h.h.h.h.h.h.h.h.h.h.h.  : H ,.e.7.n % z 6.i.p.p.p.$.e @ v ^ p X   h.h.h.h.h.h.h.h.h.h.h.h.h.h.h.h.h.h.h.h.h.",
"h.h.h.h.h.h.h.h.h.h.h.h.h.h.h.h.h.h.h.h.h.; 0 Q 1.<...n 1 A 7.p.p.p.i.=.j 1 b E j : % h.h.h.h.h.h.h.h.h.h.h.h.h.h.h.h.h.h.h.h.h.",
"h.h.h.h.h.h.h.h.h.h.h.h.h.h.h.h.h.h.h.  2 N [ -.1.K h v S } w.p.p.p.p.6.) C j r l C y O h.h.h.h.h.h.h.h.h.h.h.h.h.h.h.h.h.h.h.h.",
"h.h.h.h.h.h.h.h.h.h.h.h.h.h.h.h.h.h.h.  9 } i.i.3.h $ v %.9.y.p.p.i.a.t.4.| r % x | b @   h.h.h.h.h.h.h.h.h.h.h.h.h.h.h.h.h.h.h.",
"h.h.h.h.h.h.h.h.h.h.h.h.h.h.h.h.h.h.h.  9  .a.p.3.h $ n 1.e.i.i.p.p.i.i.0.%.i # x X.b O   h.h.h.h.h.h.h.h.h.h.h.h.h.h.h.h.h.h.h.",
"h.h.h.h.h.h.h.h.h.h.h.h.h.h.h.h.h.h.h.  9  .p.p.3.h $ N 9.y.i.i.i.i.i.i.y.>.h @ x X.b @   h.h.h.h.h.h.h.h.h.h.h.h.h.h.h.h.h.h.h.",
"h.h.h.h.h.h.h.h.h.h.h.h.h.h.h.h.h.h.h.  7  .p.p.<.h # M 1.0.0.0.9.0.0.0.0.$.i @ x X.b @   h.h.h.h.h.h.h.h.h.h.h.h.h.h.h.h.h.h.h.",
"h.h.h.h.h.h.h.h.h.h.h.h.h.h.h.h.h.h.h.  9  .y.t.<.h & b @.,.:.:.:.:.:.:.,.| y @ j ` b @   h.h.h.h.h.h.h.h.h.h.h.h.h.h.h.h.h.h.h.",
"h.h.h.h.h.h.h.h.h.h.h.h.h.h.h.h.h.h.h.h.2 m I K J m z ~ -.} S C C C C L ..$.u o 5 v r + h.h.h.h.h.h.h.h.h.h.h.h.h.h.h.h.h.h.h.h.",
"h.h.h.h.h.h.h.h.h.h.h.h.h.h.h.h.h.h.h.h.h.% % & 2 J <.q.q.W > % $ % % 7 [ <.i . O # + h.h.h.h.h.h.h.h.h.h.h.h.h.h.h.h.h.h.h.h.h.",
"h.h.h.h.h.h.h.h.h.h.h.h.h.h.h.h.h.h.h.h.h.      ; K t.a.w.F $     + 3 n O.1.h .     h.h.h.h.h.h.h.h.h.h.h.h.h.h.h.h.h.h.h.h.h.h.",
"h.h.h.h.h.h.h.h.h.h.h.h.h.h.h.h.h.h.h.h.h.h.h.  % K y.i.w.G $     2 K <.q.3.h .   h.h.h.h.h.h.h.h.h.h.h.h.h.h.h.h.h.h.h.h.h.h.h.",
"h.h.h.h.h.h.h.h.h.h.h.h.h.h.h.h.h.h.h.h.h.h.h.  ; K w.p.w.G $     7  .a.i.3.h . h.h.h.h.h.h.h.h.h.h.h.h.h.h.h.h.h.h.h.h.h.h.h.h.",
"h.h.h.h.h.h.h.h.h.h.h.h.h.h.h.h.h.h.h.h.h.h.h.  ; K y.p.w.F $     9  .p.i.3.h . h.h.h.h.h.h.h.h.h.h.h.h.h.h.h.h.h.h.h.h.h.h.h.h.",
"h.h.h.h.h.h.h.h.h.h.h.h.h.h.h.h.h.h.h.h.h.h.h.  % W w.a.r.F %     9  .p.p.3.h   h.h.h.h.h.h.h.h.h.h.h.h.h.h.h.h.h.h.h.h.h.h.h.h.",
"h.h.h.h.h.h.h.h.h.h.h.h.h.h.h.h.h.h.h.h.h.h.h.  ; G w.a.w.F % .   9  .p.p.3.h . h.h.h.h.h.h.h.h.h.h.h.h.h.h.h.h.h.h.h.h.h.h.h.h.",
"h.h.h.h.h.h.h.h.h.h.h.h.h.h.h.h.h.h.h.h.h.h.h.  & I y.i.w.F #     3 ( 5.r.<.h .   h.h.h.h.h.h.h.h.h.h.h.h.h.h.h.h.h.h.h.h.h.h.h.",
"h.h.h.h.h.h.h.h.h.h.h.h.h.h.h.h.h.h.h.h.h.h.h.  & K t.e.,.N +     & e A ..+.i       h.h.h.h.h.h.h.h.h.h.h.h.h.h.h.h.h.h.h.h.h.h.",
"h.h.h.h.h.h.h.h.h.h.h.h.h.h.h.h.h.h.h.h.h.h.h.  % K w.0.:.M ; + O o o < L X.f # O o + h.h.h.h.h.h.h.h.h.h.h.h.h.h.h.h.h.h.h.h.h.",
"h.h.h.h.h.h.h.h.h.h.h.h.h.h.h.h.h.h.h.h.h.h.h.  % G 4.0.8.} B m m t % < U 1.~ M m n t + h.h.h.h.h.h.h.h.h.h.h.h.h.h.h.h.h.h.h.h.",
"h.h.h.h.h.h.h.h.h.h.h.h.h.h.h.h.h.h.h.h.h.h.h.  % C ,.0.y.e.q.q.q.W 2 < ( y.w.q.w.3.N #   h.h.h.h.h.h.h.h.h.h.h.h.h.h.h.h.h.h.h.",
"h.h.h.h.h.h.h.h.h.h.h.h.h.h.h.h.h.h.h.h.h.h.h.h.$ C :.0.y.p.a.p.i.[ 3 < ~ i.i.i.p.e.F # h.h.h.h.h.h.h.h.h.h.h.h.h.h.h.h.h.h.h.h.",
"h.h.h.h.h.h.h.h.h.h.h.h.h.h.h.h.h.h.h.h.h.h.h.h.h.h.h.h.h.h.h.h.h.h.h.h.h.h.h.h.h.h.h.h.h.h.h.h.h.h.h.h.h.h.h.h.h.h.h.h.h.h.h.h.",
"h.h.h.h.h.h.h.h.h.h.h.h.h.h.h.h.h.h.h.h.h.h.h.h.h.h.h.h.h.h.h.h.h.h.h.h.h.h.h.h.h.h.h.h.h.h.h.h.h.h.h.h.h.h.h.h.h.h.h.h.h.h.h.h."
};
