/* XPM */
static char *result[] = {
/* columns rows colors chars-per-pixel */
"64 64 141 2 ",
"   c #010100",
".  c #080705",
"X  c #0B0807",
"o  c #0E0B09",
"O  c #110D0B",
"+  c #15110E",
"@  c #19110F",
"#  c #171410",
"$  c #1A1611",
"%  c #1E1914",
"&  c #221513",
"*  c #211C16",
"=  c #241E18",
"-  c #291F1A",
";  c #27201B",
":  c #2B231D",
">  c #332721",
",  c #3A2522",
"<  c #352B23",
"1  c #3C2D26",
"2  c #393127",
"3  c #3E3229",
"4  c #462D28",
"5  c #43352C",
"6  c #4B322C",
"7  c #44392E",
"8  c #4A392F",
"9  c #463C30",
"0  c #4A3D31",
"q  c #553731",
"w  c #513F34",
"e  c #5C3D36",
"r  c #4D4235",
"t  c #524336",
"y  c #534638",
"u  c #5A463A",
"i  c #55493B",
"p  c #5B4B3D",
"a  c #64423A",
"s  c #624B3E",
"d  c #69493F",
"f  c #5C4F40",
"g  c #5F5141",
"h  c #654E41",
"j  c #615443",
"k  c #695244",
"l  c #6C5748",
"z  c #6B5C4A",
"x  c #715749",
"c  c #7C564B",
"v  c #745B4B",
"b  c #7B5E4F",
"n  c #6F604D",
"m  c #72624F",
"M  c #756551",
"N  c #7C6452",
"B  c #7D6C56",
"V  c #82564C",
"C  c #826553",
"Z  c #846956",
"A  c #836D59",
"S  c #8C6C5A",
"D  c #976559",
"F  c #906D5B",
"G  c #9D685C",
"H  c #85735C",
"J  c #8A745E",
"K  c #92735E",
"L  c #9F6F60",
"P  c #8C7760",
"I  c #8E7A62",
"U  c #957661",
"Y  c #9B7663",
"T  c #917C64",
"R  c #9D7864",
"E  c #AC7265",
"W  c #A17C67",
"Q  c #A37D68",
"!  c #958067",
"~  c #9B856B",
"^  c #9F896E",
"/  c #A5836C",
"(  c #AA846E",
")  c #B0816D",
"_  c #A38C70",
"`  c #AB8B72",
"'  c #B38671",
"]  c #B28A73",
"[  c #BC8975",
"{  c #BF8D78",
"}  c #A79074",
"|  c #AB9276",
" . c #B49177",
".. c #B19578",
"X. c #BC9178",
"o. c #B59B7D",
"O. c #BB9B7E",
"+. c #C48E79",
"@. c #C2977D",
"#. c #C4997F",
"$. c #BB9F80",
"%. c #BDA282",
"&. c #C69A80",
"*. c #CA9D83",
"=. c #C2A585",
"-. c #CDA587",
";. c #C3A887",
":. c #CDA688",
">. c #C5AA88",
",. c #CCAD8B",
"<. c #D0A287",
"1. c #D4A68A",
"2. c #D2AB8C",
"3. c #DAAA8D",
"4. c #CEB28F",
"5. c #D1B591",
"6. c #DAB392",
"7. c #D6B994",
"8. c #DBBA96",
"9. c #DDBD99",
"0. c #E2B695",
"q. c #E3BA97",
"w. c #E4BC99",
"e. c #DFC09A",
"r. c #E4C49E",
"t. c #E9C49E",
"y. c #E7C6A0",
"u. c #EBC6A0",
"i. c #E7C8A0",
"p. c #EDCBA3",
"a. c #EBC9A9",
"s. c #F0CFA6",
"d. c #F1D0A7",
"f. c #F2D2AB",
"g. c #F3D5B2",
"h. c #F3D7B9",
"j. c #F4D9BB",
"k. c #F5DDC2",
"l. c #F6E0C7",
"z. c #F7E4D0",
"x. c None",
/* pixels */
"x.x.x.x.x.x.x.x.x.x.x.x.x.x.x.x.x.x.x.x.x.x.x.x.x.x.x.x.x.x.x.x.x.x.x.x.x.x.x.x.x.x.x.x.x.x.x.x.x.x.x.x.x.x.x.x.x.x.x.x.x.x.x.x.",
"x.x.x.x.x.x.x.x.x.x.x.x.x.x.x.x.x.x.x.x.x.x.x.x.x.x.x.x.x.x.x.x.x.x.x.x.x.x.x.x.x.x.x.x.x.x.x.x.x.x.x.x.x.x.x.x.x.x.x.x.x.x.x.x.",
"x.x.x.x.x.x.x.x.x.x.x.x.x.x.x.x.x.x.x.x.x.x.x.x.x.x.x.x.x.x.x.x.x.x.x.x.x.x.x.x.x.x.x.x.x.x.x.x.x.x.x.x.x.x.x.x.x.x.x.x.x.x.x.x.",
"x.x.x.x.x.x.x.x.x.x.x.x.x.x.x.x.x.x.x.x.x.x.x.x.x.x.x.x.                x.x.x.x.x.x.x.x.x.x.x.x.x.x.x.x.x.x.x.x.x.x.x.x.x.x.x.x.",
"x.x.x.x.x.x.x.x.x.x.x.x.x.x.x.x.x.x.x.x.x.x.x.x.x.x.x.* - : : : : : - = x.x.x.x.x.x.x.x.x.x.x.x.x.x.x.x.x.x.x.x.x.x.x.x.x.x.x.x.",
"x.x.x.x.x.x.x.x.x.x.x.x.x.x.x.x.x.x.x.x.x.x.x.x.    O t Z U ~ ~ ^ R K v 1       x.x.x.x.x.x.x.x.x.x.x.x.x.x.x.x.x.x.x.x.x.x.x.x.",
"x.x.x.x.x.x.x.x.x.x.x.x.x.x.x.x.x.x.x.x.x.x.x.+ # # : C <.w.p.s.d.r.0.] u $ # @ O x.x.x.x.x.x.x.x.x.x.x.x.x.x.x.x.x.x.x.x.x.x.x.",
"x.x.x.x.x.x.x.x.x.x.x.x.x.x.x.x.x.x.x.x.x.x.= s C A T O.0.u.s.s.d.p.t.5.} H Z v 8 o x.x.x.x.x.x.x.x.x.x.x.x.x.x.x.x.x.x.x.x.x.x.",
"x.x.x.x.x.x.x.x.x.x.x.x.x.x.x.x.x.x.x.x.x.o 1 K 2.8.i.i.s.d.d.d.d.d.d.p.p.y.6.$.k % o x.x.x.x.x.x.x.x.x.x.x.x.x.x.x.x.x.x.x.x.x.",
"x.x.x.x.x.x.x.x.x.x.x.x.x.x.x.x.x.x.x.x.: u Z O.w.i.d.d.d.d.d.d.d.d.d.f.j.j.a.6.( x 0 O x.x.x.x.x.x.x.x.x.x.x.x.x.x.x.x.x.x.x.x.",
"x.x.x.x.x.x.x.x.x.x.x.x.x.x.x.x.x.x.x.  5 U 1.q.s.s.d.d.d.d.d.d.d.d.d.g.l.z.h.p.6.@.x @   x.x.x.x.x.x.x.x.x.x.x.x.x.x.x.x.x.x.x.",
"x.x.x.x.x.x.x.x.x.x.x.x.x.x.x.x.x.x.x.  5 ( w.p.d.d.d.d.d.d.d.d.d.d.d.f.j.k.g.d.t.6.N #   x.x.x.x.x.x.x.x.x.x.x.x.x.x.x.x.x.x.x.",
"x.x.x.x.x.x.x.x.x.x.x.x.x.x.x.x.x.x.x.  7 o.s.s.d.d.d.d.d.d.d.d.d.d.d.d.f.f.f.d.s.w.H #   x.x.x.x.x.x.x.x.x.x.x.x.x.x.x.x.x.x.x.",
"x.x.x.x.x.x.x.x.x.x.x.x.x.x.x.x.x.x.x.  8 o.s.d.d.d.d.d.d.d.d.d.d.d.d.d.d.d.d.d.s.y.H #   x.x.x.x.x.x.x.x.x.x.x.x.x.x.x.x.x.x.x.",
"x.x.x.x.x.x.x.x.x.x.x.x.x.x.x.x.x.x.x.  7 o.d.d.d.d.d.d.d.d.d.d.d.d.d.d.d.d.d.d.s.y.H #   x.x.x.x.x.x.x.x.x.x.x.x.x.x.x.x.x.x.x.",
"x.x.x.x.x.x.x.x.x.x.x.x.x.x.x.x.x.x.x.  0 o.d.d.d.d.d.d.d.d.d.d.d.d.d.d.d.d.d.p.4...j +   x.x.x.x.x.x.x.x.x.x.x.x.x.x.x.x.x.x.x.",
"x.x.x.x.x.x.x.x.x.x.x.x.x.x.x.x.x.x.x.  9 o.d.d.d.d.d.d.d.d.d.d.d.d.d.d.d.d.s.e.T r = .   x.x.x.x.x.x.x.x.x.x.x.x.x.x.x.x.x.x.x.",
"x.x.x.x.x.x.x.x.x.x.x.x.x.x.x.x.x.x.x.  9 o.d.d.d.d.d.d.d.d.d.d.d.d.d.d.d.d.s.r.J 1 : : : x.x.x.x.x.x.x.x.x.x.x.x.x.x.x.x.x.x.x.",
"x.x.x.x.x.x.x.x.x.x.x.x.x.x.x.x.x.x.x.  9 o.d.d.d.d.d.d.d.d.d.d.d.d.d.d.d.d.d.i.O.U T ~ n = x.x.x.x.x.x.x.x.x.x.x.x.x.x.x.x.x.x.",
"x.x.x.x.x.x.x.x.x.x.x.x.x.x.x.x.x.x.x.  3 ^ 8.i.d.d.d.d.d.d.s.r.9.9.i.d.d.d.d.s.w.3.q.i.~ :   x.x.x.x.x.x.x.x.x.x.x.x.x.x.x.x.x.",
"x.x.x.x.x.x.x.x.x.x.x.x.x.x.x.x.x.x.x.  % r H %.d.d.d.d.d.d.s.%.B P 4.d.d.d.d.p.w.3.w.p.^ :   x.x.x.x.x.x.x.x.x.x.x.x.x.x.x.x.x.",
"x.x.x.x.x.x.x.x.x.x.x.x.x.x.x.x.x.x.x.  . + r | d.d.d.d.d.d.s._ 3 g %.d.d.d.d.p.6.*.2.7.I :   x.x.x.x.x.x.x.x.x.x.x.x.x.x.x.x.x.",
"x.x.x.x.x.x.x.x.x.x.x.x.x.x.x.x.x.x.x.  = g ! ,.d.d.d.d.d.d.d.;.P ^ 5.d.d.d.d.y.` v x M p % x.x.x.x.x.x.x.x.x.x.x.x.x.x.x.x.x.x.",
"x.x.x.x.x.x.x.x.x.x.x.x.x.x.x.x.x.x.x.  3 | e.i.s.p.i.i.i.i.d.i.e.r.s.d.d.d.d.e.B : # O O x.x.x.x.x.x.x.x.x.x.x.x.x.x.x.x.x.x.x.",
"x.x.x.x.x.x.x.x.x.x.x.x.x.x.x.x.x.x.x.  7 o.d.d.r.o.P J I %.r.d.d.d.d.d.d.d.d.i.} z 2 o   x.x.x.x.x.x.x.x.x.x.x.x.x.x.x.x.x.x.x.",
"x.x.x.x.x.x.x.x.x.x.x.x.x.x.x.x.x.x.x.  0 o.d.d.7.m * % ; M 9.d.d.d.d.d.d.d.d.s.r.,.M #   x.x.x.x.x.x.x.x.x.x.x.x.x.x.x.x.x.x.x.",
"x.x.x.x.x.x.x.x.x.x.x.x.x.x.x.x.x.x.x.  5 ` t.s.e.! p i g ~ r.d.d.d.d.d.d.d.d.s.p.8.Z #   x.x.x.x.x.x.x.x.x.x.x.x.x.x.x.x.x.x.x.",
"x.x.x.x.x.x.x.x.x.x.x.x.x.x.x.x.x.x.x.  5 / 0.t.i.7.>.>.>.7.p.d.d.d.d.d.d.d.d.p.w.1.N +   x.x.x.x.x.x.x.x.x.x.x.x.x.x.x.x.x.x.x.",
"x.x.x.x.x.x.x.x.x.x.x.x.x.x.x.x.x.x.x.  < N ` 2.i.p.d.d.d.d.d.d.d.d.d.d.d.d.i.r.&.R h + x.x.x.x.x.x.x.x.x.x.x.x.x.x.x.x.x.x.x.x.",
"x.x.x.x.x.x.x.x.x.x.x.x.x.x.x.x.x.x.x.x.x.> u ( 0.r.d.d.d.d.d.p.d.d.d.d.d.p.w.:.Z 5 : x.x.x.x.x.x.x.x.x.x.x.x.x.x.x.x.x.x.x.x.x.",
"x.x.x.x.x.x.x.x.x.x.x.x.x.x.x.x.x.x.x.x.x.  : N ] o.=.%.;.4.8.q.q.7.>.=.=.=. .Q u O x.x.x.x.x.x.x.x.x.x.x.x.x.x.x.x.x.x.x.x.x.x.",
"x.x.x.x.x.x.x.x.x.x.x.x.x.x.x.x.x.x.x.x.x.x.x.1 0 r t t i C ' +.{ R l y t t 0 7 > x.x.x.x.x.x.x.x.x.x.x.x.x.x.x.x.x.x.x.x.x.x.x.",
"x.x.x.x.x.x.x.x.x.x.x.x.x.x.x.x.x.x.x.x.x.x.x.        o & e G E E V 1 O X       x.x.x.x.x.x.x.x.x.x.x.x.x.x.x.x.x.x.x.x.x.x.x.x.",
"x.x.x.x.x.x.x.x.x.x.x.x.x.x.x.x.x.x.x.x.x.x.x.x.x.  X 5 b Y [ +.+.) F h -     x.x.x.x.x.x.x.x.x.x.x.x.x.x.x.x.x.x.x.x.x.x.x.x.x.",
"x.x.x.x.x.x.x.x.x.x.x.x.x.x.x.x.x.x.x.x.x.x.x.x.x.o $ v #.3.3.3.3.3.1.( t O x.x.x.x.x.x.x.x.x.x.x.x.x.x.x.x.x.x.x.x.x.x.x.x.x.x.",
"x.x.x.x.x.x.x.x.x.x.x.x.x.x.x.x.x.x.x.x.x.x.x.x.O , a W 6.w.w.w.w.w.w.:.U h 1 x.x.x.x.x.x.x.x.x.x.x.x.x.x.x.x.x.x.x.x.x.x.x.x.x.",
"x.x.x.x.x.x.x.x.x.x.x.x.x.x.x.x.x.x.x.x.x.x.x.. @ e D #.t.p.s.p.s.i.y.9.2.] u O x.x.x.x.x.x.x.x.x.x.x.x.x.x.x.x.x.x.x.x.x.x.x.x.",
"x.x.x.x.x.x.x.x.x.x.x.x.x.x.x.x.x.x.x.x.x.x.@ , 6 q d ( r.d.d.d.s.5._ ~ =.1.U u 3 x.x.x.x.x.x.x.x.x.x.x.x.x.x.x.x.x.x.x.x.x.x.x.",
"x.x.x.x.x.x.x.x.x.x.x.x.x.x.x.x.x.x.x.x.x.  & a V 4 - J r.d.d.d.d.o.y 9 ` t.2.' s o x.x.x.x.x.x.x.x.x.x.x.x.x.x.x.x.x.x.x.x.x.x.",
"x.x.x.x.x.x.x.x.x.x.x.x.x.x.x.x.x.x.x.x.x.  - c L 6 # B r.d.d.d.d.| 2 < _ s.q.&.k o   x.x.x.x.x.x.x.x.x.x.x.x.x.x.x.x.x.x.x.x.x.",
"x.x.x.x.x.x.x.x.x.x.x.x.x.x.x.x.x.x.x.x.x.  : S ) t $ Z r.p.d.d.d.| 3 < _ p.0.#.k O   x.x.x.x.x.x.x.x.x.x.x.x.x.x.x.x.x.x.x.x.x.",
"x.x.x.x.x.x.x.x.x.x.x.x.x.x.x.x.x.x.x.x.x.< w b J d w ~ r.d.d.d.d.%.l y J o.-.2.J r < x.x.x.x.x.x.x.x.x.x.x.x.x.x.x.x.x.x.x.x.x.",
"x.x.x.x.x.x.x.x.x.x.x.x.x.x.x.x.x.x.x.  < C S u 5 v / :.p.d.d.d.d.6. .S p i _ q.4...m # x.x.x.x.x.x.x.x.x.x.x.x.x.x.x.x.x.x.x.x.",
"x.x.x.x.x.x.x.x.x.x.x.x.x.x.x.x.x.x.x.  4 Q ( 6 % Z 3.w.p.d.d.d.d.p.0.` 7 * ! i.d.i.H #   x.x.x.x.x.x.x.x.x.x.x.x.x.x.x.x.x.x.x.",
"x.x.x.x.x.x.x.x.x.x.x.x.x.x.x.x.x.x.x.  1 Q ( 6 % J t.p.s.s.s.s.d.p.u.O.0 * T p.d.r.H $   x.x.x.x.x.x.x.x.x.x.x.x.x.x.x.x.x.x.x.",
"x.x.x.x.x.x.x.x.x.x.x.x.x.x.x.x.x.x.x.  3 W ( 7 * J r.p.s.u.s.s.p.p.p.%.r * T i.d.y.H $   x.x.x.x.x.x.x.x.x.x.x.x.x.x.x.x.x.x.x.",
"x.x.x.x.x.x.x.x.x.x.x.x.x.x.x.x.x.x.x.  4 Q ( 6 & S 6.0.0.0.0.q.q.0.0.] 0 % I i.d.r.H $   x.x.x.x.x.x.x.x.x.x.x.x.x.x.x.x.x.x.x.",
"x.x.x.x.x.x.x.x.x.x.x.x.x.x.x.x.x.x.x.  1 U Y 5 & C 1.<.*.#.#.#.&.*.3.] y < I 7.9.5.B $   x.x.x.x.x.x.x.x.x.x.x.x.x.x.x.x.x.x.x.",
"x.x.x.x.x.x.x.x.x.x.x.x.x.x.x.x.x.x.x.x.: u w * & J 2./ z k k k k J =.,.^ B M M M M y + x.x.x.x.x.x.x.x.x.x.x.x.x.x.x.x.x.x.x.x.",
"x.x.x.x.x.x.x.x.x.x.x.x.x.x.x.x.x.x.x.x.x.o o   % I 7.A ; + o o o t O.p.r.>.j + o o o x.x.x.x.x.x.x.x.x.x.x.x.x.x.x.x.x.x.x.x.x.",
"x.x.x.x.x.x.x.x.x.x.x.x.x.x.x.x.x.x.x.x.x.x.    * T e.} n 3 o     7 o.d.d.5.g .     x.x.x.x.x.x.x.x.x.x.x.x.x.x.x.x.x.x.x.x.x.x.",
"x.x.x.x.x.x.x.x.x.x.x.x.x.x.x.x.x.x.x.x.x.x.x.  * I i.r.4.M +     0 o.d.d.4.g .   x.x.x.x.x.x.x.x.x.x.x.x.x.x.x.x.x.x.x.x.x.x.x.",
"x.x.x.x.x.x.x.x.x.x.x.x.x.x.x.x.x.x.x.x.x.x.x.  * T i.d.r.H #     9 o.d.d.5.j . x.x.x.x.x.x.x.x.x.x.x.x.x.x.x.x.x.x.x.x.x.x.x.x.",
"x.x.x.x.x.x.x.x.x.x.x.x.x.x.x.x.x.x.x.x.x.x.x.  ; I p.d.r.H %     7 o.d.d.5.j . x.x.x.x.x.x.x.x.x.x.x.x.x.x.x.x.x.x.x.x.x.x.x.x.",
"x.x.x.x.x.x.x.x.x.x.x.x.x.x.x.x.x.x.x.x.x.x.x.  % I p.d.i.H %     9 o.d.d.4.j . x.x.x.x.x.x.x.x.x.x.x.x.x.x.x.x.x.x.x.x.x.x.x.x.",
"x.x.x.x.x.x.x.x.x.x.x.x.x.x.x.x.x.x.x.x.x.x.x.  ; I i.d.r.H $     9 o.d.d.4.j . x.x.x.x.x.x.x.x.x.x.x.x.x.x.x.x.x.x.x.x.x.x.x.x.",
"x.x.x.x.x.x.x.x.x.x.x.x.x.x.x.x.x.x.x.x.x.x.x.  * P q.5.o.l +     7 ..p.s.5.j . x.x.x.x.x.x.x.x.x.x.x.x.x.x.x.x.x.x.x.x.x.x.x.x.",
"x.x.x.x.x.x.x.x.x.x.x.x.x.x.x.x.x.x.x.x.x.      % A :.T i : .     5 ( q.t.5.j . x.x.x.x.x.x.x.x.x.x.x.x.x.x.x.x.x.x.x.x.x.x.x.x.",
"x.x.x.x.x.x.x.x.x.x.x.x.x.x.x.x.x.x.x.x.x.* ; % 1 K #.k o O % * * u ` 0.t.,.s . x.x.x.x.x.x.x.x.x.x.x.x.x.x.x.x.x.x.x.x.x.x.x.x.",
"x.x.x.x.x.x.x.x.x.x.x.x.x.x.x.x.x.x.x.x.2 M I ! ~ =.4.n # 3 H T T } 4.w.0.=.u . x.x.x.x.x.x.x.x.x.x.x.x.x.x.x.x.x.x.x.x.x.x.x.x.",
"x.x.x.x.x.x.x.x.x.x.x.x.x.x.x.x.x.x.x.  9 ..p.p.p.p.9.m % z 5.i.i.p.s.u.0.X.u   x.x.x.x.x.x.x.x.x.x.x.x.x.x.x.x.x.x.x.x.x.x.x.x.",
"x.x.x.x.x.x.x.x.x.x.x.x.x.x.x.x.x.x.x.x.x.x.x.x.x.x.x.x.x.x.x.x.x.x.x.x.x.x.x.x.x.x.x.x.x.x.x.x.x.x.x.x.x.x.x.x.x.x.x.x.x.x.x.x.",
"x.x.x.x.x.x.x.x.x.x.x.x.x.x.x.x.x.x.x.x.x.x.x.x.x.x.x.x.x.x.x.x.x.x.x.x.x.x.x.x.x.x.x.x.x.x.x.x.x.x.x.x.x.x.x.x.x.x.x.x.x.x.x.x.",
"x.x.x.x.x.x.x.x.x.x.x.x.x.x.x.x.x.x.x.x.x.x.x.x.x.x.x.x.x.x.x.x.x.x.x.x.x.x.x.x.x.x.x.x.x.x.x.x.x.x.x.x.x.x.x.x.x.x.x.x.x.x.x.x."
};
