/* XPM */
static char *result[] = {
/* columns rows colors chars-per-pixel */
"64 64 128 2 ",
"   c #000000",
".  c #080705",
"X  c #0B0907",
"o  c #0D0B09",
"O  c #110E0B",
"+  c #15110E",
"@  c #1A1611",
"#  c #1E1914",
"$  c #221B16",
"%  c #251E19",
"&  c #281E19",
"*  c #26211A",
"=  c #2C231D",
"-  c #32231E",
";  c #2D2720",
":  c #2E2820",
">  c #342620",
",  c #332B23",
"<  c #3B2D25",
"1  c #383027",
"2  c #3D3329",
"3  c #43342B",
"4  c #49372E",
"5  c #433A2E",
"6  c #463C30",
"7  c #4B3E32",
"8  c #503E33",
"9  c #4C4235",
"0  c #534136",
"q  c #544639",
"w  c #5A453A",
"e  c #56493B",
"r  c #5A4A3C",
"t  c #634A3E",
"y  c #5C4F40",
"u  c #5D5141",
"i  c #644D40",
"p  c #635545",
"a  c #695244",
"s  c #6B5B4A",
"d  c #755348",
"f  c #7F5149",
"g  c #745C4C",
"h  c #795D4E",
"j  c #73624F",
"k  c #7A604F",
"l  c #736450",
"z  c #7C6552",
"x  c #7D6A55",
"c  c #7F6D58",
"v  c #83564C",
"b  c #8A5F53",
"n  c #826755",
"m  c #896053",
"M  c #846956",
"N  c #826F5A",
"B  c #8A6C59",
"V  c #946759",
"C  c #946B5B",
"Z  c #85735C",
"A  c #8C725D",
"S  c #92705E",
"D  c #8F7660",
"F  c #8C7961",
"G  c #957560",
"H  c #9A7662",
"J  c #937B64",
"K  c #9D7A65",
"L  c #A37162",
"P  c #A97566",
"I  c #A67F6A",
"U  c #B37B6C",
"Y  c #958167",
"T  c #9B8369",
"R  c #9F896E",
"E  c #A5816B",
"W  c #A9826C",
"Q  c #A18B6F",
"!  c #AE8770",
"~  c #A38C70",
"^  c #AB8B72",
"/  c #B38C74",
"(  c #BE8875",
")  c #AB9376",
"_  c #B19377",
"`  c #B2967A",
"'  c #BA937A",
"]  c #B59B7D",
"[  c #BA9B7E",
"{  c #C2917A",
"}  c #C9957E",
"|  c #BCA282",
" . c #C59C81",
".. c #CB9B82",
"X. c #C4A384",
"o. c #CEA387",
"O. c #C5A887",
"+. c #CEA588",
"@. c #C6AA89",
"#. c #CCA989",
"$. c #D3A287",
"%. c #D3A689",
"&. c #D3AC8D",
"*. c #DBAC8E",
"=. c #CEB18E",
"-. c #D1B18F",
";. c #DDAE90",
":. c #D3B491",
">. c #DDB191",
",. c #D7B995",
"<. c #DBBB96",
"1. c #DDBE98",
"2. c #E1B595",
"3. c #E4BA97",
"4. c #E5BE9A",
"5. c #E5C49D",
"6. c #E9C39E",
"7. c #EBC7A1",
"8. c #EDCBA3",
"9. c #F0CFA6",
"0. c #F1D0A7",
"q. c #F1D2AC",
"w. c #EECFB0",
"e. c #F3D6B3",
"r. c #F4DABB",
"t. c #F6DFC6",
"y. c #F8E4CF",
"u. c None",
/* pixels */
"u.u.u.u.u.u.u.u.u.u.u.u.u.u.u.u.u.u.u.u.u.u.u.u.u.u.u.u.u.u.u.u.u.u.u.u.u.u.u.u.u.u.u.u.u.u.u.u.u.u.u.u.u.u.u.u.u.u.u.u.u.u.u.u.",
"u.u.u.u.u.u.u.u.u.u.u.u.u.u.u.u.u.u.u.u.u.u.u.u.u.u.u.u.u.u.u.u.u.u.u.u.u.u.u.u.u.u.u.u.u.u.u.u.u.u.u.u.u.u.u.u.u.u.u.u.u.u.u.u.",
"u.u.u.u.u.u.u.u.u.u.u.u.u.u.u.u.u.u.u.u.u.u.u.u.u.u.u.u.u.u.u.u.u.u.u.u.u.u.u.u.u.u.u.u.u.u.u.u.u.u.u.u.u.u.u.u.u.u.u.u.u.u.u.u.",
"u.u.u.u.u.u.u.u.u.u.u.u.u.u.u.u.u.u.u.u.u.u.u.u.u.u.u.u.            .   u.u.u.u.u.u.u.u.u.u.u.u.u.u.u.u.u.u.u.u.u.u.u.u.u.u.u.u.",
"u.u.u.u.u.u.u.u.u.u.u.u.u.u.u.u.u.u.u.u.u.u.u.u.u.u.u.< 7 0 r r e q 0 5 = u.u.u.u.u.u.u.u.u.u.u.u.u.u.u.u.u.u.u.u.u.u.u.u.u.u.u.",
"u.u.u.u.u.u.u.u.u.u.u.u.u.u.u.u.u.u.u.u.u.u.u.      O t W [ O.@.@.X.' S 3       u.u.u.u.u.u.u.u.u.u.u.u.u.u.u.u.u.u.u.u.u.u.u.u.",
"u.u.u.u.u.u.u.u.u.u.u.u.u.u.u.u.u.u.u.u.u.u.u., 2 5 q J *.4.9.9.q.8.3.{ k 5 3 1 = u.u.u.u.u.u.u.u.u.u.u.u.u.u.u.u.u.u.u.u.u.u.u.",
"u.u.u.u.u.u.u.u.u.u.u.u.u.u.u.u.u.u.u.u.u.  = g E ^ | -.6.8.9.9.0.8.8.1.O.` ^ H w o u.u.u.u.u.u.u.u.u.u.u.u.u.u.u.u.u.u.u.u.u.u.",
"u.u.u.u.u.u.u.u.u.u.u.u.u.u.u.u.u.u.u.u.u.= 0 E 2.6.0.0.0.0.0.0.0.0.0.q.q.q.5.+.n < & u.u.u.u.u.u.u.u.u.u.u.u.u.u.u.u.u.u.u.u.u.",
"u.u.u.u.u.u.u.u.u.u.u.u.u.u.u.u.u.u.u.  , g E +.6.8.8.0.0.0.0.0.0.0.0.q.r.t.w.3.[ S r O u.u.u.u.u.u.u.u.u.u.u.u.u.u.u.u.u.u.u.u.",
"u.u.u.u.u.u.u.u.u.u.u.u.u.u.u.u.u.u.u.  3 E 2.6.q.0.0.0.0.0.0.0.0.0.0.q.y.y.r.8.4.%.k @   u.u.u.u.u.u.u.u.u.u.u.u.u.u.u.u.u.u.u.",
"u.u.u.u.u.u.u.u.u.u.u.u.u.u.u.u.u.u.u.  3 ) 6.8.0.0.0.0.0.0.0.0.0.0.q.q.e.r.q.0.7.<.n +   u.u.u.u.u.u.u.u.u.u.u.u.u.u.u.u.u.u.u.",
"u.u.u.u.u.u.u.u.u.u.u.u.u.u.u.u.u.u.u.  5 ] 9.0.0.0.0.0.0.0.0.0.0.0.0.0.0.0.0.0.9.5.Z @   u.u.u.u.u.u.u.u.u.u.u.u.u.u.u.u.u.u.u.",
"u.u.u.u.u.u.u.u.u.u.u.u.u.u.u.u.u.u.u.  5 ] 0.0.0.0.0.0.0.0.0.0.0.0.0.0.0.0.0.0.9.7.Z @   u.u.u.u.u.u.u.u.u.u.u.u.u.u.u.u.u.u.u.",
"u.u.u.u.u.u.u.u.u.u.u.u.u.u.u.u.u.u.u.  7 ] 0.0.0.0.0.0.0.0.0.0.0.0.0.0.0.0.0.0.9.5.Z @   u.u.u.u.u.u.u.u.u.u.u.u.u.u.u.u.u.u.u.",
"u.u.u.u.u.u.u.u.u.u.u.u.u.u.u.u.u.u.    5 ] 0.0.0.0.0.0.0.0.0.0.0.0.0.0.0.0.0.0.q.5.Z @     u.u.u.u.u.u.u.u.u.u.u.u.u.u.u.u.u.u.",
"u.u.u.u.u.u.u.u.u.u.u.u.u.u.u.u.u.      7 | 8.0.0.0.0.0.0.0.0.0.0.0.0.0.0.0.0.0.9.5.Z # .     u.u.u.u.u.u.u.u.u.u.u.u.u.u.u.u.u.",
"u.u.u.u.u.u.u.u.u.u.u.u.u.u.u.u.2 e q 8 n #.0.0.0.0.0.0.0.0.0.0.0.0.0.0.0.0.0.0.9.8.) t q r 9 * u.u.u.u.u.u.u.u.u.u.u.u.u.u.u.u.",
"u.u.u.u.u.u.u.u.u.u.u.u.u.u.u.o p ] X.'  .1.0.0.0.0.0.0.0.0.0.0.0.0.0.0.0.0.0.0.0.8.&.' [ O.Y 1   u.u.u.u.u.u.u.u.u.u.u.u.u.u.u.",
"u.u.u.u.u.u.u.u.u.u.u.u.u.u.u.o s ,.5.;.2.7.0.0.0.0.0.0.0.0.0.0.0.0.0.0.0.0.0.0.q.8.4.*.2.8.) 2   u.u.u.u.u.u.u.u.u.u.u.u.u.u.u.",
"u.u.u.u.u.u.u.u.u.u.u.u.u.u.u.o s ,.5.;.2.7.0.0.0.0.0.0.0.0.0.0.0.0.0.0.0.0.0.0.0.0.4.*.2.8.) 2   u.u.u.u.u.u.u.u.u.u.u.u.u.u.u.",
"u.u.u.u.u.u.u.u.u.u.u.u.u.u.u.X y ) ` ! [ 3.0.0.0.0.0.0.0.0.0.0.0.0.0.0.0.0.0.0.0.8.&./ / [ F 1   u.u.u.u.u.u.u.u.u.u.u.u.u.u.u.",
"u.u.u.u.u.u.u.u.u.u.u.u.u.u.u.u., 7 7 4 l O.0.0.0.0.0.0.0.0.0.0.0.0.0.0.0.0.0.0.0.6.Q q 5 9 5 u.u.u.u.u.u.u.u.u.u.u.u.u.u.u.u.u.",
"u.u.u.u.u.u.u.u.u.u.u.u.u.u.u.u.u.      6 ] 0.0.0.0.0.0.0.0.0.0.0.0.0.0.0.0.0.0.0.5.Z @       u.u.u.u.u.u.u.u.u.u.u.u.u.u.u.u.u.",
"u.u.u.u.u.u.u.u.u.u.u.u.u.u.u.u.u.u.    6 ] 9.9.0.0.0.0.0.0.0.0.0.0.0.0.0.0.0.0.9.5.Z @   u.u.u.u.u.u.u.u.u.u.u.u.u.u.u.u.u.u.u.",
"u.u.u.u.u.u.u.u.u.u.u.u.u.u.u.u.u.u.u.  5 ] 9.9.0.0.0.0.0.0.0.0.0.0.0.0.0.0.0.0.9.5.Z @   u.u.u.u.u.u.u.u.u.u.u.u.u.u.u.u.u.u.u.",
"u.u.u.u.u.u.u.u.u.u.u.u.u.u.u.u.u.u.u.  3 ^ 4.7.0.0.0.0.0.0.0.0.0.0.0.0.0.0.0.9.7.>.z @   u.u.u.u.u.u.u.u.u.u.u.u.u.u.u.u.u.u.u.",
"u.u.u.u.u.u.u.u.u.u.u.u.u.u.u.u.u.u.u.  2 K *.5.9.9.0.0.0.0.0.0.0.0.0.0.0.9.9.8.>...g +   u.u.u.u.u.u.u.u.u.u.u.u.u.u.u.u.u.u.u.",
"u.u.u.u.u.u.u.u.u.u.u.u.u.u.u.u.u.u.u.u.> i B  .4.7.0.0.0.0.q.0.0.0.0.0.0.9.6.<.! h 8 O u.u.u.u.u.u.u.u.u.u.u.u.u.u.u.u.u.u.u.u.",
"u.u.u.u.u.u.u.u.u.u.u.u.u.u.u.u.u.u.u.u.u.O 2 H ;.4.8.8.8.8.8.8.0.0.8.8.8.6.1.} g $ O u.u.u.u.u.u.u.u.u.u.u.u.u.u.u.u.u.u.u.u.u.",
"u.u.u.u.u.u.u.u.u.u.u.u.u.u.u.u.u.u.u.u.u.u.& i B D J Y T _ +.&.%.[ Q Y Y J A n 8 o u.u.u.u.u.u.u.u.u.u.u.u.u.u.u.u.u.u.u.u.u.u.",
"u.u.u.u.u.u.u.u.u.u.u.u.u.u.u.u.u.u.u.u.u.u.u.# $ % * * ; t L U U m 4 * * * $ $ @ u.u.u.u.u.u.u.u.u.u.u.u.u.u.u.u.u.u.u.u.u.u.u.",
"u.u.u.u.u.u.u.u.u.u.u.u.u.u.u.u.u.u.u.u.u.u.u., 3 3 3 3 4 d P U ( V t 3 3 3 3 < - u.u.u.u.u.u.u.u.u.u.u.u.u.u.u.u.u.u.u.u.u.u.u.",
"u.u.u.u.u.u.u.u.u.u.u.u.u.u.u.u.u.u.u.u.u.  = k I I I I E ( } ..} { ! W I I I S w o u.u.u.u.u.u.u.u.u.u.u.u.u.u.u.u.u.u.u.u.u.u.",
"u.u.u.u.u.u.u.u.u.u.u.u.u.u.u.u.u.u.u.u.u.= q W *.>.>.>.>.>.>.>.*.>.>.>.>.>.>.$.M < = u.u.u.u.u.u.u.u.u.u.u.u.u.u.u.u.u.u.u.u.u.",
"u.u.u.u.u.u.u.u.u.u.u.u.u.u.u.u.u.u.u.  , h W %.6.6.6.6.6.6.6.6.6.6.6.6.6.6.6.4.[ S t + u.u.u.u.u.u.u.u.u.u.u.u.u.u.u.u.u.u.u.u.",
"u.u.u.u.u.u.u.u.u.u.u.u.u.u.u.u.u.u.u.$ w ^ *.-.:.5.9.0.0.0.0.0.0.0.0.0.9.8.1.=.&.%.B - # u.u.u.u.u.u.u.u.u.u.u.u.u.u.u.u.u.u.u.",
"u.u.u.u.u.u.u.u.u.u.u.u.u.u.u.u.u.  3 g T &.O.A j ] 8.0.0.0.0.0.0.0.0.0.0.3.T s Q >.[ B r $ u.u.u.u.u.u.u.u.u.u.u.u.u.u.u.u.u.u.",
"u.u.u.u.u.u.u.u.u.u.u.u.u.u.u.u.u.  4 ! >.5.| q * Y 8.9.0.0.0.0.0.0.0.0.0.:.p # N 1.4.%.B %   u.u.u.u.u.u.u.u.u.u.u.u.u.u.u.u.u.",
"u.u.u.u.u.u.u.u.u.u.u.u.u.u.u.u.u.  8 / >.8.| 9 # F 7.9.0.0.0.0.0.0.0.0.0.=.p # x 5.4.%.B % . u.u.u.u.u.u.u.u.u.u.u.u.u.u.u.u.u.",
"u.u.u.u.u.u.u.u.u.u.u.u.u.u.u.u.u.O w / >.3.] q = Y 8.0.0.0.0.0.0.0.0.0.0.-.s * x -.<.*.A , o u.u.u.u.u.u.u.u.u.u.u.u.u.u.u.u.u.",
"u.u.u.u.u.u.u.u.u.u.u.u.u.u.u.u.4 s T #.O.T z s k [ 8.9.0.0.0.0.0.0.0.0.0.5.T a g Z ) *.] c r = u.u.u.u.u.u.u.u.u.u.u.u.u.u.u.u.",
"u.u.u.u.u.u.u.u.u.u.u.u.u.u.u.o s O.1.8.` 9 2 B ..2.9.0.0.9.9.8.0.0.0.0.0.6.&._ a = j <.5.1.R 1   u.u.u.u.u.u.u.u.u.u.u.u.u.u.u.",
"u.u.u.u.u.u.u.u.u.u.u.u.u.u.u.o s ,.q.0.) 2 = C *.4.9.0.9.8.5.5.5.6.8.0.0.8.3.} a @ s ,.q.q.) 2   u.u.u.u.u.u.u.u.u.u.u.u.u.u.u.",
"u.u.u.u.u.u.u.u.u.u.u.u.u.u.u.o s ,.0.0.) 2 = S *.6.9.9.9.4.;.*.*.2.6.0.0.9.3.} a @ s ,.0.0.) 2   u.u.u.u.u.u.u.u.u.u.u.u.u.u.u.",
"u.u.u.u.u.u.u.u.u.u.u.u.u.u.u.o s ,.0.0.) 2 , J 2.4.6.6.6.*...} } $.2.6.6.6.3.+.a @ s ,.0.0.) 2   u.u.u.u.u.u.u.u.u.u.u.u.u.u.u.",
"u.u.u.u.u.u.u.u.u.u.u.u.u.u.u.o s ,.q.0.) 2 , T 6.3.;.2.*.} U U U ( $.2.;.2.3.-.j @ s ,.0.0.) 2   u.u.u.u.u.u.u.u.u.u.u.u.u.u.u.",
"u.u.u.u.u.u.u.u.u.u.u.u.u.u.u.O r ) ] ] Z : , ~ 5. .W I I C v f f m S W I / &.1.j @ q ~ ] | F 1   u.u.u.u.u.u.u.u.u.u.u.u.u.u.u.",
"u.u.u.u.u.u.u.u.u.u.u.u.u.u.u.u., 6 7 7 , + , ~ ,.Z 4 3 3 < - - - > 2 3 3 e ) ,.j + # 5 9 9 2 u.u.u.u.u.u.u.u.u.u.u.u.u.u.u.u.u.",
"u.u.u.u.u.u.u.u.u.u.u.u.u.u.u.u.u.          , ~ ,.l * +               . @ 2 R ,.l O           u.u.u.u.u.u.u.u.u.u.u.u.u.u.u.u.u.",
"u.u.u.u.u.u.u.u.u.u.u.u.u.u.u.u.u.u.u.u.    , ~ 5.| F 7 X   u.u.u.    $ p ~ =.,.l o   u.u.u.u.u.u.u.u.u.u.u.u.u.u.u.u.u.u.u.u.u.",
"u.u.u.u.u.u.u.u.u.u.u.u.u.u.u.u.u.u.u.u.u.  , ~ 9.9.,.j O   u.u.u.u.  : R 9.9.1.l O   u.u.u.u.u.u.u.u.u.u.u.u.u.u.u.u.u.u.u.u.u.",
"u.u.u.u.u.u.u.u.u.u.u.u.u.u.u.u.u.u.u.u.u.  , ~ 9.9.1.l O   u.u.u.u.  , ~ 0.0.1.l O   u.u.u.u.u.u.u.u.u.u.u.u.u.u.u.u.u.u.u.u.u.",
"u.u.u.u.u.u.u.u.u.u.u.u.u.u.u.u.u.u.u.u.u.  , ~ 0.9.1.l O   u.u.u.u.  , ~ 0.0.1.l O   u.u.u.u.u.u.u.u.u.u.u.u.u.u.u.u.u.u.u.u.u.",
"u.u.u.u.u.u.u.u.u.u.u.u.u.u.u.u.u.u.u.u.u.  , ~ 0.0.1.l O   u.u.u.u.  , ~ 0.9.1.l o   u.u.u.u.u.u.u.u.u.u.u.u.u.u.u.u.u.u.u.u.u.",
"u.u.u.u.u.u.u.u.u.u.u.u.u.u.u.u.u.u.u.u.u.  , Q 9.9.1.l O   u.u.u.u.  , ~ 9.9.1.j +   u.u.u.u.u.u.u.u.u.u.u.u.u.u.u.u.u.u.u.u.u.",
"u.u.u.u.u.u.u.u.u.u.u.u.u.u.u.u.u.u.u.u.    , T 4.8.1.l O   u.u.u.u.  , ~ 8.8.&.s o   u.u.u.u.u.u.u.u.u.u.u.u.u.u.u.u.u.u.u.u.u.",
"u.u.u.u.u.u.u.u.u.u.u.u.u.u.u.u.u.u.u.      = S >.5.1.j O   u.u.u.u.  , ~ 8.3...a o       u.u.u.u.u.u.u.u.u.u.u.u.u.u.u.u.u.u.u.",
"u.u.u.u.u.u.u.u.u.u.u.u.u.u.u.u.u.u.: 6 9 9 s _ 2.4.:.g o   u.u.u.u.  , T 6.3.&.J e 9 9 2 u.u.u.u.u.u.u.u.u.u.u.u.u.u.u.u.u.u.u.",
"u.u.u.u.u.u.u.u.u.u.u.u.u.u.u.u.u.  9 ~ | | @.1.6.3.o.a o   u.u.u.u.  = S 2.4.5.:.| | | N *   u.u.u.u.u.u.u.u.u.u.u.u.u.u.u.u.u.",
"u.u.u.u.u.u.u.u.u.u.u.u.u.u.u.u.u.  r @.0.0.0.0.8.3.} a o u.u.u.u.u.  - S *.6.9.0.0.0.9.T =   u.u.u.u.u.u.u.u.u.u.u.u.u.u.u.u.u.",
"u.u.u.u.u.u.u.u.u.u.u.u.u.u.u.u.u.u.u.u.u.u.u.u.u.u.u.u.u.u.u.u.u.u.u.u.u.u.u.u.u.u.u.u.u.u.u.u.u.u.u.u.u.u.u.u.u.u.u.u.u.u.u.u.",
"u.u.u.u.u.u.u.u.u.u.u.u.u.u.u.u.u.u.u.u.u.u.u.u.u.u.u.u.u.u.u.u.u.u.u.u.u.u.u.u.u.u.u.u.u.u.u.u.u.u.u.u.u.u.u.u.u.u.u.u.u.u.u.u.",
"u.u.u.u.u.u.u.u.u.u.u.u.u.u.u.u.u.u.u.u.u.u.u.u.u.u.u.u.u.u.u.u.u.u.u.u.u.u.u.u.u.u.u.u.u.u.u.u.u.u.u.u.u.u.u.u.u.u.u.u.u.u.u.u."
};
