/* XPM */
static char *result[] = {
/* columns rows colors chars-per-pixel */
"64 64 127 2 ",
"   c #010000",
".  c #080706",
"X  c #0B0907",
"o  c #0D0B09",
"O  c #110E0B",
"+  c #15110E",
"@  c #1A1611",
"#  c #1D1914",
"$  c #241C17",
"%  c #251D18",
"&  c #291F1A",
"*  c #27211B",
"=  c #2C231D",
"-  c #30261F",
";  c #332721",
":  c #342C23",
">  c #3B2D26",
",  c #383127",
"<  c #3D3429",
"1  c #43362C",
"2  c #453A2F",
"3  c #48382F",
"4  c #463C30",
"5  c #4C3C32",
"6  c #513E34",
"7  c #4D4335",
"8  c #544237",
"9  c #574539",
"0  c #584438",
"q  c #56493B",
"w  c #5B4C3E",
"e  c #5D5141",
"r  c #644F41",
"t  c #625443",
"y  c #6C5446",
"u  c #675947",
"i  c #6C5C4A",
"p  c #715F4C",
"a  c #795E4E",
"s  c #6F604D",
"d  c #73614E",
"f  c #7A604F",
"g  c #736450",
"h  c #7A6452",
"j  c #7C6B56",
"k  c #7F6E58",
"l  c #826554",
"z  c #8F6456",
"x  c #846956",
"c  c #816F59",
"v  c #8A6C59",
"b  c #926A5A",
"n  c #85735C",
"m  c #8B735D",
"M  c #92705E",
"N  c #8E7660",
"B  c #8D7A62",
"V  c #967661",
"C  c #987762",
"Z  c #947C64",
"A  c #9B7B65",
"S  c #9D7F68",
"D  c #A57163",
"F  c #A17E68",
"G  c #A97968",
"H  c #B2796A",
"J  c #948067",
"K  c #978268",
"L  c #9C846B",
"P  c #9E886E",
"I  c #A1856C",
"U  c #AA856E",
"Y  c #A28A6F",
"T  c #A38C71",
"R  c #AC8B72",
"E  c #B78270",
"W  c #B58B74",
"Q  c #A79073",
"!  c #AA9375",
"~  c #AF9779",
"^  c #B39177",
"/  c #BA9077",
"(  c #B39579",
")  c #BC947B",
"_  c #B59B7D",
"`  c #BC9C7F",
"'  c #C4967D",
"]  c #C9957E",
"[  c #C5997E",
"{  c #BC9F80",
"}  c #BCA282",
"|  c #C69980",
" . c #C89D82",
".. c #C4A485",
"X. c #CCA286",
"o. c #C5A987",
"O. c #CAA788",
"+. c #C5AA89",
"@. c #CBAC8B",
"#. c #D1A689",
"$. c #D5AB8C",
"%. c #DBAC8E",
"&. c #CDB18E",
"*. c #DCAE90",
"=. c #D3B491",
"-. c #DBB392",
";. c #D7B995",
":. c #DBBB97",
">. c #DCBE98",
",. c #E0B494",
"<. c #E2B997",
"1. c #E5BD9A",
"2. c #DFC09A",
"3. c #E4C49D",
"4. c #E9C29D",
"5. c #E6C7A0",
"6. c #EBC6A0",
"7. c #EDCBA3",
"8. c #EECEAC",
"9. c #F0CFA6",
"0. c #F1D0A7",
"q. c #F1D1AA",
"w. c #F3D5B1",
"e. c #F4D9BB",
"r. c #F5DEC4",
"t. c #F7E4D0",
"y. c None",
/* pixels */
"y.y.y.y.y.y.y.y.y.y.y.y.y.y.y.y.y.y.y.y.y.y.y.y.y.y.y.y.y.y.y.y.y.y.y.y.y.y.y.y.y.y.y.y.y.y.y.y.y.y.y.y.y.y.y.y.y.y.y.y.y.y.y.y.",
"y.y.y.y.y.y.y.y.y.y.y.y.y.y.y.y.y.y.y.y.y.y.y.y.y.y.y.y.y.y.y.y.y.y.y.y.y.y.y.y.y.y.y.y.y.y.y.y.y.y.y.y.y.y.y.y.y.y.y.y.y.y.y.y.",
"y.y.y.y.y.y.y.y.y.y.y.y.y.y.y.y.y.y.y.y.y.y.y.y.y.y.y.y.y.y.y.y.y.y.y.y.y.y.y.y.y.y.y.y.y.y.y.y.y.y.y.y.y.y.y.y.y.y.y.y.y.y.y.y.",
"y.y.y.y.y.y.y.y.y.y.y.y.y.y.y.y.y.y.y.y.y.y.y.y.y.y.y.y.                y.y.y.y.y.y.y.y.y.y.y.y.y.y.y.y.y.y.y.y.y.y.y.y.y.y.y.y.",
"y.y.y.y.y.y.y.y.y.y.y.y.y.y.y.y.y.y.y.y.y.y.y.y.y.y.y.- 1 1 4 4 4 2 1 > $ y.y.y.y.y.y.y.y.y.y.y.y.y.y.y.y.y.y.y.y.y.y.y.y.y.y.y.",
"y.y.y.y.y.y.y.y.y.y.y.y.y.y.y.y.y.y.y.y.y.y.y.      O w F U _ ` _ ^ U x 1       y.y.y.y.y.y.y.y.y.y.y.y.y.y.y.y.y.y.y.y.y.y.y.y.",
"y.y.y.y.y.y.y.y.y.y.y.y.y.y.y.y.y.y.y.y.y.y.y.& - : 1 m #.1.9.9.0.7.<.) i : ; = $ y.y.y.y.y.y.y.y.y.y.y.y.y.y.y.y.y.y.y.y.y.y.y.",
"y.y.y.y.y.y.y.y.y.y.y.y.y.y.y.y.y.y.y.y.y.  & y V L ! O.1.6.9.9.0.7.4.;.{ Y A v 8 o y.y.y.y.y.y.y.y.y.y.y.y.y.y.y.y.y.y.y.y.y.y.",
"y.y.y.y.y.y.y.y.y.y.y.y.y.y.y.y.y.y.y.y.y.# 3 S -.3.9.0.0.0.0.0.0.0.0.0.q.8.1.X.f = @ y.y.y.y.y.y.y.y.y.y.y.y.y.y.y.y.y.y.y.y.y.",
"y.y.y.y.y.y.y.y.y.y.y.y.y.y.y.y.y.y.y.  ; y C  .3.7.9.0.0.0.0.0.0.0.0.q.e.r.8.<.^ x 0 O y.y.y.y.y.y.y.y.y.y.y.y.y.y.y.y.y.y.y.y.",
"y.y.y.y.y.y.y.y.y.y.y.y.y.y.y.y.y.y.y.  < F %.3.9.9.0.0.0.0.0.0.0.0.0.w.r.t.e.7.<.X.a +   y.y.y.y.y.y.y.y.y.y.y.y.y.y.y.y.y.y.y.",
"y.y.y.y.y.y.y.y.y.y.y.y.y.y.y.y.y.y.y.  1 R 4.7.0.0.0.0.0.0.0.0.0.0.0.q.e.e.w.0.6.-.l @   y.y.y.y.y.y.y.y.y.y.y.y.y.y.y.y.y.y.y.",
"y.y.y.y.y.y.y.y.y.y.y.y.y.y.y.y.y.y.y.  2 _ 7.0.0.0.0.0.0.0.0.0.0.0.0.0.q.q.0.0.0.3.n @   y.y.y.y.y.y.y.y.y.y.y.y.y.y.y.y.y.y.y.",
"y.y.y.y.y.y.y.y.y.y.y.y.y.y.y.y.y.y.y.  4 _ 0.0.0.0.0.0.0.0.0.0.0.0.0.0.0.0.0.0.8.5.n @   y.y.y.y.y.y.y.y.y.y.y.y.y.y.y.y.y.y.y.",
"y.y.y.y.y.y.y.y.y.y.y.y.y.y.y.y.y.y.y.  2 _ 0.0.0.0.0.0.0.0.0.0.0.0.0.0.0.0.0.0.9.5.n @   y.y.y.y.y.y.y.y.y.y.y.y.y.y.y.y.y.y.y.",
"y.y.y.y.y.y.y.y.y.y.y.y.y.y.y.y.y.y.    4 _ 0.0.0.0.0.0.0.0.0.0.0.0.0.0.0.0.0.0.0.3.n #   y.y.y.y.y.y.y.y.y.y.y.y.y.y.y.y.y.y.y.",
"y.y.y.y.y.y.y.y.y.y.y.y.y.y.y.y.y.      4 _ 0.0.0.0.0.0.0.0.0.0.0.0.0.0.0.0.0.0.7.3.n @       y.y.y.y.y.y.y.y.y.y.y.y.y.y.y.y.y.",
"y.y.y.y.y.y.y.y.y.y.y.y.y.y.y.y.: 4 4 1 p o.0.0.0.9.0.0.0.0.0.0.0.0.0.0.0.0.0.9.0.7.Y 8 1 7 < y.y.y.y.y.y.y.y.y.y.y.y.y.y.y.y.y.",
"y.y.y.y.y.y.y.y.y.y.y.y.y.y.y.X e Q ( U ) >.0.0.q.q.0.0.0.0.0.0.0.0.0.0.0.0.9.9.0.7.$.R R _ m ,   y.y.y.y.y.y.y.y.y.y.y.y.y.y.y.",
"y.y.y.y.y.y.y.y.y.y.y.y.y.y.y.X i ;.3.*.,.6.0.0.7.=.} ;.7.0.0.0.0.0.0.5.&.} 2.9.0.0.1.%.,.7.! <   y.y.y.y.y.y.y.y.y.y.y.y.y.y.y.",
"y.y.y.y.y.y.y.y.y.y.y.y.y.y.y.X i ;.4.*.,.4.0.0.2.B e T 5.0.0.9.0.0.0.&.n e ~ 7.0.9.1.%.<.6.~ <   y.y.y.y.y.y.y.y.y.y.y.y.y.y.y.",
"y.y.y.y.y.y.y.y.y.y.y.y.y.y.y.X t { ..)  .3.0.0.;.g , B 3.0.0.9.0.0.0.+.u < P 9.0.7.-.) ` @.K ,   y.y.y.y.y.y.y.y.y.y.y.y.y.y.y.",
"y.y.y.y.y.y.y.y.y.y.y.y.y.y.y.y.< q q 8 x @.0.0.2.} Y } 7.9.9.9.0.0.0.2.~ P &.7.9.7.! r q w 8 *   y.y.y.y.y.y.y.y.y.y.y.y.y.y.y.",
"y.y.y.y.y.y.y.y.y.y.y.y.y.y.y.y.y.. .   7 _ 0.0.9.9.9.9.9.5.2.:.2.2.7.0.9.7.9.q.9.3.m #   .   y.y.y.y.y.y.y.y.y.y.y.y.y.y.y.y.y.",
"y.y.y.y.y.y.y.y.y.y.y.y.y.y.y.y.y.y.    2 _ 0.0.0.0.0.0.7._ j s s J &.q.q.0.0.0.0.5.n @     y.y.y.y.y.y.y.y.y.y.y.y.y.y.y.y.y.y.",
"y.y.y.y.y.y.y.y.y.y.y.y.y.y.y.y.y.y.y.  4 ( 9.9.0.0.0.0.5.J : # # q } 0.0.0.0.0.0.3.n @   y.y.y.y.y.y.y.y.y.y.y.y.y.y.y.y.y.y.y.",
"y.y.y.y.y.y.y.y.y.y.y.y.y.y.y.y.y.y.y.  1 R 4.7.0.0.0.0.7._ j s s J &.0.0.0.0.9.4.-.l @   y.y.y.y.y.y.y.y.y.y.y.y.y.y.y.y.y.y.y.",
"y.y.y.y.y.y.y.y.y.y.y.y.y.y.y.y.y.y.y.  1 F *.3.9.0.0.0.0.3.>.>.2.2.5.q.0.0.9.7.<.X.a @   y.y.y.y.y.y.y.y.y.y.y.y.y.y.y.y.y.y.y.",
"y.y.y.y.y.y.y.y.y.y.y.y.y.y.y.y.y.y.y.  ; y C X.4.7.0.0.0.0.0.0.0.0.0.0.0.9.3.2.^ x 0 O y.y.y.y.y.y.y.y.y.y.y.y.y.y.y.y.y.y.y.y.",
"y.y.y.y.y.y.y.y.y.y.y.y.y.y.y.y.y.y.y.y.y.# 3 F -.4.0.0.0.0.0.0.0.0.0.0.0.7.1.X.a = # y.y.y.y.y.y.y.y.y.y.y.y.y.y.y.y.y.y.y.y.y.",
"y.y.y.y.y.y.y.y.y.y.y.y.y.y.y.y.y.y.y.y.y.  & y C I T T Q { $.-.*.o.( Q Q Y K v 8 o y.y.y.y.y.y.y.y.y.y.y.y.y.y.y.y.y.y.y.y.y.y.",
"y.y.y.y.y.y.y.y.y.y.y.y.y.y.y.y.y.y.y.y.y.y.y.= - : > , < y G E E b 0 , , > - - % y.y.y.y.y.y.y.y.y.y.y.y.y.y.y.y.y.y.y.y.y.y.y.",
"y.y.y.y.y.y.y.y.y.y.y.y.y.y.y.y.y.y.y.y.y.y.y.= : : , , 1 y D H H z 0 , , , : - & y.y.y.y.y.y.y.y.y.y.y.y.y.y.y.y.y.y.y.y.y.y.y.",
"y.y.y.y.y.y.y.y.y.y.y.y.y.y.y.y.y.y.y.y.y.  & y C I Q Q R ^ ] ] ] ' ^ Q Q Q L v 6 o y.y.y.y.y.y.y.y.y.y.y.y.y.y.y.y.y.y.y.y.y.y.",
"y.y.y.y.y.y.y.y.y.y.y.y.y.y.y.y.y.y.y.y.y.$ 5 F ,.4.9.0.7.4.,.%.%.,.4.0.9.9.<.X.f - # y.y.y.y.y.y.y.y.y.y.y.y.y.y.y.y.y.y.y.y.y.",
"y.y.y.y.y.y.y.y.y.y.y.y.y.y.y.y.y.y.y.  ; y C O.1.7.0.0.7.7.4.3.4.4.0.0.9.9.4.<.^ x 0 O y.y.y.y.y.y.y.y.y.y.y.y.y.y.y.y.y.y.y.y.",
"y.y.y.y.y.y.y.y.y.y.y.y.y.y.y.y.y.y.y.+ 5 U %.-.>.4.0.0.0.0.9.9.9.9.0.0.0.7.3.;.*.X.l = + y.y.y.y.y.y.y.y.y.y.y.y.y.y.y.y.y.y.y.",
"y.y.y.y.y.y.y.y.y.y.y.y.y.y.y.y.y.y.> y C O.o.Z c } 7.0.0.0.0.0.0.0.0.0.0.3.Y h Q -.^ l 0 # y.y.y.y.y.y.y.y.y.y.y.y.y.y.y.y.y.y.",
"y.y.y.y.y.y.y.y.y.y.y.y.y.y.y.y.y.  5 U %.3.} q = J 7.0.0.0.0.0.0.0.0.0.9.=.u * c 1.<.X.x $   y.y.y.y.y.y.y.y.y.y.y.y.y.y.y.y.y.",
"y.y.y.y.y.y.y.y.y.y.y.y.y.y.y.y.y.  5 W ,.7.} 7 $ B 7.0.0.0.0.0.0.0.0.0.0.=.t # j 3.1.%.x $   y.y.y.y.y.y.y.y.y.y.y.y.y.y.y.y.y.",
"y.y.y.y.y.y.y.y.y.y.y.y.y.y.y.y.y.. 8 W -.4.} 8 * Z 7.q.9.9.0.0.0.0.0.0.0.=.t $ j :.1.$.v * . y.y.y.y.y.y.y.y.y.y.y.y.y.y.y.y.y.",
"y.y.y.y.y.y.y.y.y.y.y.y.y.y.y.y.< w N X.X.T n y y ( 7.9.0.0.0.0.0.0.0.0.0.>.Z w d Z ( *.^ g 7 = y.y.y.y.y.y.y.y.y.y.y.y.y.y.y.y.",
"y.y.y.y.y.y.y.y.y.y.y.y.y.y.y.o t } ;.7.( q 1 x [ -.9.0.0.0.0.0.0.0.0.0.0.4.#.R y , j ;.3.=.K ,   y.y.y.y.y.y.y.y.y.y.y.y.y.y.y.",
"y.y.y.y.y.y.y.y.y.y.y.y.y.y.y.o i ;.0.0.~ < - Z <.4.9.0.0.0.0.0.0.0.0.0.0.7.4.X.y # u ;.0.0.! <   y.y.y.y.y.y.y.y.y.y.y.y.y.y.y.",
"y.y.y.y.y.y.y.y.y.y.y.y.y.y.y.o u ;.0.0.! < : P 9.9.9.0.0.0.0.0.0.0.0.0.0.0.9.-.d @ u ;.0.0.! <   y.y.y.y.y.y.y.y.y.y.y.y.y.y.y.",
"y.y.y.y.y.y.y.y.y.y.y.y.y.y.y.o s 2.0.0.! < ; L 4.4.4.4.6.6.6.6.7.4.7.4.4.4.4.=.d @ s ;.0.0.! <   y.y.y.y.y.y.y.y.y.y.y.y.y.y.y.",
"y.y.y.y.y.y.y.y.y.y.y.y.y.y.y.o u ;.0.0.! < - C ,.,.,.,.,.,.,.,.-.,.,.,.<.,.,.#.y @ u ;.0.0.! <   y.y.y.y.y.y.y.y.y.y.y.y.y.y.y.",
"y.y.y.y.y.y.y.y.y.y.y.y.y.y.y.o e _ +.+.J : = V $.[ W W W W W W W W W W W / X.[ t @ w _ &.@.J ,   y.y.y.y.y.y.y.y.y.y.y.y.y.y.y.",
"y.y.y.y.y.y.y.y.y.y.y.y.y.y.y.y.< q w w < @ - L &.m 8 6 8 8 6 6 6 6 8 5 6 t Q @.i + * 8 w e 7 *   y.y.y.y.y.y.y.y.y.y.y.y.y.y.y.",
"y.y.y.y.y.y.y.y.y.y.y.y.y.y.y.y.y.    .     : T =.d # O               . + , L ;.g +           y.y.y.y.y.y.y.y.y.y.y.y.y.y.y.y.y.",
"y.y.y.y.y.y.y.y.y.y.y.y.y.y.y.y.y.y.y.y.    : Y 3.~ j 1 .     y.y.    # w Z +.;.g o     y.y.y.y.y.y.y.y.y.y.y.y.y.y.y.y.y.y.y.y.",
"y.y.y.y.y.y.y.y.y.y.y.y.y.y.y.y.y.y.y.y.y.  : T 7.7.=.i O   y.y.y.y.  : L 3.7.;.g +   y.y.y.y.y.y.y.y.y.y.y.y.y.y.y.y.y.y.y.y.y.",
"y.y.y.y.y.y.y.y.y.y.y.y.y.y.y.y.y.y.y.y.y.  : T q.q.2.s O   y.y.y.y.  : P 0.0.2.g O   y.y.y.y.y.y.y.y.y.y.y.y.y.y.y.y.y.y.y.y.y.",
"y.y.y.y.y.y.y.y.y.y.y.y.y.y.y.y.y.y.y.y.y.  : T 9.9.2.d O   y.y.y.y.  : Q 0.0.2.g o   y.y.y.y.y.y.y.y.y.y.y.y.y.y.y.y.y.y.y.y.y.",
"y.y.y.y.y.y.y.y.y.y.y.y.y.y.y.y.y.y.y.y.y.  : Y 0.0.2.g O   y.y.y.y.  : P 0.9.:.g o   y.y.y.y.y.y.y.y.y.y.y.y.y.y.y.y.y.y.y.y.y.",
"y.y.y.y.y.y.y.y.y.y.y.y.y.y.y.y.y.y.y.y.y.  : Y 0.0.:.g O   y.y.y.y.  : Q 0.9.2.g +   y.y.y.y.y.y.y.y.y.y.y.y.y.y.y.y.y.y.y.y.y.",
"y.y.y.y.y.y.y.y.y.y.y.y.y.y.y.y.y.y.y.y.    ; L 4.7.>.g O   y.y.y.y.  : T 9.7.-.i O   y.y.y.y.y.y.y.y.y.y.y.y.y.y.y.y.y.y.y.y.y.",
"y.y.y.y.y.y.y.y.y.y.y.y.y.y.y.y.y.y.y.      = V ,.4.>.d O   y.y.y.y.  : Y 7.<...y o     y.y.y.y.y.y.y.y.y.y.y.y.y.y.y.y.y.y.y.y.",
"y.y.y.y.y.y.y.y.y.y.y.y.y.y.y.y.y.y.= , < < w R ,.4.=.d O   y.y.y.y.  : I 4.<.#.m 4 < < : y.y.y.y.y.y.y.y.y.y.y.y.y.y.y.y.y.y.y.",
"y.y.y.y.y.y.y.y.y.y.y.y.y.y.y.y.y.  7 J ! ! } =.3.<.X.y o   y.y.y.y.  = C ,.1.1.+.~ ! ! h *   y.y.y.y.y.y.y.y.y.y.y.y.y.y.y.y.y.",
"y.y.y.y.y.y.y.y.y.y.y.y.y.y.y.y.y.  w @.0.0.0.0.7.<.| r o y.y.y.y.y.  = M *.1.0.0.0.0.9.K =   y.y.y.y.y.y.y.y.y.y.y.y.y.y.y.y.y.",
"y.y.y.y.y.y.y.y.y.y.y.y.y.y.y.y.y.y.y.y.y.y.y.y.y.y.y.y.y.y.y.y.y.y.y.y.y.y.y.y.y.y.y.y.y.y.y.y.y.y.y.y.y.y.y.y.y.y.y.y.y.y.y.y.",
"y.y.y.y.y.y.y.y.y.y.y.y.y.y.y.y.y.y.y.y.y.y.y.y.y.y.y.y.y.y.y.y.y.y.y.y.y.y.y.y.y.y.y.y.y.y.y.y.y.y.y.y.y.y.y.y.y.y.y.y.y.y.y.y.",
"y.y.y.y.y.y.y.y.y.y.y.y.y.y.y.y.y.y.y.y.y.y.y.y.y.y.y.y.y.y.y.y.y.y.y.y.y.y.y.y.y.y.y.y.y.y.y.y.y.y.y.y.y.y.y.y.y.y.y.y.y.y.y.y."
};
