/* XPM */
static char *result[] = {
/* columns rows colors chars-per-pixel */
"64 64 108 2 ",
"   c #353F06",
".  c #363E06",
"X  c #373E06",
"o  c #3F3B07",
"O  c #3C3C07",
"+  c #592F0B",
"@  c #5B2F0B",
"#  c #5E2D0B",
"$  c #5C2E0B",
"%  c #403A07",
"&  c #4F3309",
"*  c #4A3609",
"=  c #443808",
"-  c #503309",
";  c #55310A",
":  c #56300A",
">  c #58300B",
",  c #602C0B",
"<  c #622C0C",
"1  c #0F4F01",
"2  c #104E01",
"3  c #124E02",
"4  c #154C02",
"5  c #164C02",
"6  c #184B02",
"7  c #1A4A02",
"8  c #1A4A03",
"9  c #1B4A03",
"0  c #1D4903",
"q  c #1F4803",
"w  c #1F4804",
"e  c #0B5101",
"r  c #0B5201",
"t  c #0B5301",
"y  c #0C5001",
"u  c #0B5401",
"i  c #0B5501",
"p  c #0B5601",
"a  c #0B5701",
"s  c #0B5801",
"d  c #0C5801",
"f  c #0C5901",
"g  c #0C5A01",
"h  c #0C5B01",
"j  c #0C5C01",
"k  c #0C5E01",
"l  c #0C5F01",
"z  c #0D5F01",
"x  c #204703",
"c  c #254504",
"v  c #2A4305",
"b  c #2B4305",
"n  c #2D4205",
"m  c #2E4205",
"M  c #0D6001",
"N  c #0D6101",
"B  c #0D6201",
"V  c #0D6301",
"C  c #0E6501",
"Z  c #0D6601",
"A  c #0E6601",
"S  c #0E6801",
"D  c #0E6B01",
"F  c #0E6C01",
"G  c #0F6D01",
"H  c #0E6E01",
"J  c #0F6E01",
"K  c #0E6F01",
"L  c #0F6F01",
"P  c #0F7101",
"I  c #0F7301",
"U  c #0F7401",
"Y  c #0F7701",
"T  c #107701",
"R  c #107801",
"E  c #107901",
"W  c #107A01",
"Q  c #117C01",
"!  c #107D01",
"~  c #117E01",
"^  c #117F01",
"/  c #118002",
"(  c #118102",
")  c #118202",
"_  c #118302",
"`  c #128402",
"'  c #128502",
"]  c #128802",
"[  c #128902",
"{  c #128B02",
"}  c #138D02",
"|  c #138E02",
" . c #138F02",
".. c #139102",
"X. c #139302",
"o. c #149302",
"O. c #139402",
"+. c #139502",
"@. c #149502",
"#. c #149602",
"$. c #149702",
"%. c #149802",
"&. c #149902",
"*. c #149A02",
"=. c #149B02",
"-. c #159C02",
";. c #159D02",
":. c None",
/* pixels */
":.:.:.:.:.:.:.:.:.:.:.:.:.:.:.:.:.:.:.:.:.:.:.:.:.:.:.:.:.:.:.:.:.:.:.:.:.:.:.:.:.:.:.:.:.:.:.:.:.:.:.:.:.:.:.:.:.:.:.:.:.:.:.:.",
":.:.:.:.:.:.:.:.:.:.:.:.:.:.:.:.:.:.:.:.:.:.:.:.:.:.:.:.:.:.:.:.:.:.:.:.:.:.:.:.:.:.:.:.:.:.:.:.:.:.:.:.:.:.:.:.:.:.:.:.:.:.:.:.",
":.:.:.:.:.:.:.:.:.:.:.:.:.:.:.:.:.:.:.:.:.:.:.:.:.:.:.:.:.:.:.:.:.:.:.:.:.:.:.:.:.:.:.:.:.:.:.:.:.:.:.:.:.:.:.:.:.:.:.:.:.:.:.:.",
":.:.:.:.:.:.:.:.:.:.:.:.:.:.:.:.:.:.:.:.:.:.:.:.:.:.:.:.:.:.:.:.:.:.:.:.:.:.:.:.:.:.:.:.:.:.:.:.:.:.:.:.:.:.:.:.:.:.:.:.:.:.:.:.",
":.:.:.:.:.:.:.:.:.:.:.:.:.:.:.:.:.:.:.:.:.:.:.:.:.:.:.:.:.:.:.:.:.:.:.:.:.:.:.:.:.:.:.:.:.:.:.:.:.:.:.:.:.:.:.:.:.:.:.:.:.:.:.:.",
":.:.:.:.:.:.:.:.:.:.:.:.:.:.:.:.:.:.:.:.:.:.:.:.:.:.:.:.:.:.:.:.:.:.:.:.:.:.:.:.:.:.:.:.:.:.:.:.:.:.:.:.:.:.:.:.:.:.:.:.:.:.:.:.",
":.:.:.:.:.:.:.:.:.:.:.:.:.:.:.:.:.:.:.:.:.:.:.:.:.:.:.:.:.:.:.:.:.:.:.:.:.:.:.:.:.:.:.:.:.:.:.:.:.:.:.:.:.:.:.:.:.:.:.:.:.:.:.:.",
":.:.:.:.:.:.:.:.:.:.:.:.:.:.:.:.:.:.:.:.:.:.:.:.:.:.:.:.:.:.:.:.:.:.:.:.:.:.:.:.:.:.:.:.:.:.:.:.:.:.:.:.:.:.:.:.:.:.:.:.:.:.:.:.",
":.:.:.:.:.:.:.:.:.:.:.:.:.:.:.:.:.:.:.:.:.:.:.:.:.:.:.:.:.:.:.:.:.:.:.:.:.:.:.:.:.:.:.:.:.:.:.:.:.:.:.:.:.:.:.:.:.:.:.:.:.:.:.:.",
":.:.:.:.:.:.:.:.:.:.:.:.:.:.:.:.:.:.:.:.:.:.:.:.:.:.:.:.:.:.:.:.:.:.:.:.:.:.:.:.:.:.:.:.:.:.:.:.:.:.:.:.:.:.:.:.:.:.:.:.:.:.:.:.",
":.:.:.:.:.:.:.:.:.:.:.:.:.:.:.:.:.:.:.:.:.:.:.:.:.:.:.:.:.:.:.:.:.:.:.:.:.:.:.:.:.:.:.:.:.:.:.:.:.:.:.:.:.:.:.:.:.:.:.:.:.:.:.:.",
":.:.:.:.:.:.:.:.:.:.:.:.:.:.:.:.:.:.:.:.:.:.:.:.:.:.:.:.:.:.:.:.:.:.:.:.:.:.:.:.:.:.:.:.:.:.:.:.:.:.:.:.:.:.:.:.:.:.:.:.:.:.:.:.",
":.:.:.:.:.:.:.:.:.:.:.:.:.:.:.:.e e e e e e e e e e e e :.:.:.:.:.:.:.:.:.:.:.:.:.:.:.e e e e e e :.:.:.:.:.:.:.:.:.:.:.:.:.:.:.",
":.:.:.:.:.:.:.:.:.:.:.:.:.:.:.e e e e e e e e e e e e e e :.:.:.:.:.:.:.:.:.:.:.:.:.e e e e e e e e :.:.:.:.:.:.:.:.:.:.:.:.:.:.",
":.:.:.:.:.:.:.:.:.:.:.:.:.:.k z M M M M M M M M M M M M l j :.:.:.:.:.:.:.:.:.:.:.k z M M M M M M l j :.:.:.:.:.:.:.:.:.:.:.:.:.",
":.:.:.:.:.:.:.:.:.:.:.:.:.l G Y E E E E E E E E E E E E I S a e e e e e e e e e l G Y E E E E E E I S a :.:.:.:.:.:.:.:.:.:.:.:.",
":.:.:.:.:.:.:.:.:.:.:.:.e B R } o.X.X.o.X.X.o.X.X.X.X.X.` K d e e e e e e e e e B R } X.X.X.X.X.X.` K d e :.:.:.:.:.:.:.:.:.:.:.",
":.:.:.:.:.:.:.:.:.:.:.k z J _ $.;.;.;.;.;.;.;.;.;.;.;.;.| W Z M M M M M M M M M J _ $.;.;.;.;.;.;.| W Z l j :.:.:.:.:.:.:.:.:.:.",
":.:.:.:.:.:.:.:.:.e l G Y ) | &.;.;.;.;.;.;.;.;.;.;.;.;.+.[ ! E E E E E E E E E ) | &.;.;.;.;.;.;.+.[ ! I S a e :.:.:.:.:.:.:.:.",
":.:.:.:.:.:.:.:.e e B R } @.%.-.;.;.;.;.;.;.;.;.;.;.;.;.*.$.o.X.X.X.X.X.X.X.X.X.@.%.-.;.;.;.;.;.;.*.$.o.` K d e :.:.:.:.:.:.:.:.",
":.:.:.:.:.:.:.:.e e V Q @.;.;.;.;.;.;.;.;.;.;.;.;.;.;.;.;.;.;.;.;.;.;.;.;.;.;.;.;.;.;.;.;.;.;.;.;.;.;.;.{ P d e :.:.:.:.:.:.:.:.",
":.:.:.:.:.:.:.:.e e V Q @.;.;.;.;.;.;.;.;.;.;.;.;.;.;.;.;.;.;.;.;.;.;.;.;.;.;.;.;.;.;.;.;.;.;.;.;.;.;.;.{ P d e :.:.:.:.:.:.:.:.",
":.:.:.:.:.:.:.:.e e V Q @.;.;.;.;.;.;.;.;.;.;.;.;.;.;.;.;.;.;.;.;.;.;.;.;.;.;.;.;.;.;.;.;.;.;.;.;.;.;.;.{ P d e :.:.:.:.:.:.:.:.",
":.:.:.:.:.:.:.:.e e l U ] ..#.=.;.;.;.;.;.;.;.;.;.;.;.;.;.;.;.;.;.;.;.;.;.;.;.;.;.;.;.;.;.;.;.;.;.;.;.;.{ P d e :.:.:.:.:.:.:.:.",
":.:.:.:.:.:.:.:.e e f C P ~ { &.;.;.;.;.;.;.;.;.;.;.;.;.;.;.;.;.;.;.;.;.;.;.;.;.;.;.;.;.;.;.;.;.;.;.;.;.{ P d e :.:.:.:.:.:.:.:.",
":.:.:.:.:.:.:.:.e e t p g D / #.;.;.;.;.;.;.;.;.;.;.;.;.;.;.;.;.;.;.;.;.;.;.;.;.;.;.;.;.;.;.;.;.;.;.;.;.{ P d e :.:.:.:.:.:.:.:.",
":.:.:.:.:.:.:.:.e e e e e V Q @.;.;.;.;.;.;.;.;.;.;.;.;.;.;.;.;.;.;.;.;.;.;.;.;.;.;.;.;.;.;.;.;.;.&.O. .( H d e :.:.:.:.:.:.:.:.",
":.:.:.:.:.:.:.:.e e e e e V Q @.;.;.;.;.;.;.;.;.;.;.;.;.;.;.;.;.;.;.;.;.;.;.;.;.;.;.;.;.;.;.;.;.;.X.' R L A a :.:.:.:.:.:.:.:.:.",
":.:.:.:.:.:.:.:.e e e e e V Q @.;.;.;.;.;.;.;.;.;.;.;.;.;.;.;.;.;.;.;.;.;.;.;.;.;.;.;.;.;.;.;.;.;.} T N g f :.:.:.:.:.:.:.:.:.:.",
":.:.:.:.:.:.:.:.e e e e e l U ] ..#.=.;.;.;.;.;.;.;.;.;.;.;.;.;.;.;.;.;.;.;.;.;.;.;.;.;.;.;.;.;.;.{ P d e :.:.:.:.:.:.:.:.:.:.:.",
":.:.:.:.:.:.:.:.e e e e e f C P ~ { &.;.;.;.;.;.;.;.;.;.;.;.;.;.;.;.;.;.;.;.;.;.;.;.;.;.;.;.;.;.;.{ P d e :.:.:.:.:.:.:.:.:.:.:.",
":.:.:.:.:.:.:.:.e e e e e t p g D / #.;.;.;.;.;.;.;.;.;.;.;.;.;.;.;.;.;.;.;.;.;.;.;.;.;.;.;.;.;.;.{ P d e :.:.:.:.:.:.:.:.:.:.:.",
":.:.:.:.:.:.:.:.e e e e e e e e l U ] ..#.=.;.;.;.;.;.;.;.;.;.;.;.;.;.;.;.;.;.;.;.;.;.&.O. .} } } ^ D a e :.:.:.:.:.:.:.:.:.:.:.",
":.:.:.:.:.:.:.:.e e e e e e e e f C P ~ { &.;.;.;.;.;.;.;.;.;.;.;.;.;.;.;.;.;.;.;.;.;.X.' R U U U F M u e :.:.:.:.:.:.:.:.:.:.:.",
":.:.:.:.:.:.:.:.e e e e e e e e t p g D / #.;.;.;.;.;.;.;.;.;.;.;.;.;.;.;.;.;.;.;.;.;.} T N h h h s i r e :.:.:.:.:.:.:.:.:.:.:.",
":.:.:.:.:.:.:.:.e e e e e e e e e e e l U ] } } } } } } } } } ..#.=.&.O. ...#.=.&.O. .^ D a e e e e e e e :.:.:.:.:.:.:.:.:.:.:.",
":.:.:.:.:.:.:.:.e e e e e e e e e e e f C P U U U U U U U U U ~ { &.X.' R ~ { &.X.' R F M u e e e e e e e :.:.:.:.:.:.:.:.:.:.:.",
":.:.:.:.:.:.:.:.e e e e e e e e e e e t p g h h h h h h h h h D / #.} T N D / #.} T N s i r e e e e e e e :.:.:.:.:.:.:.:.:.:.:.",
":.:.:.:.:.:.:.:.:.e e e e e e e e e e e e e e e e e e e e e e l U ] ^ D a l U ] ^ D a e e e e e e e e e e :.:.:.:.:.:.:.:.:.:.:.",
":.:.:.:.:.:.:.:.:.:.e e e e e e e e e e e e e e e e e e e e e f C P F M u f C P F M u e e e e e e e e e e :.:.:.:.:.:.:.:.:.:.:.",
":.:.:.:.:.:.:.:.:.:.:.e e e e e e e e e e e e e e e e e e e e t p g s i r t p g s i r e e e e e e e e e e :.:.:.:.:.:.:.:.:.:.:.",
":.:.:.:.:.:.:.:.:.:.:.e e e e e e e e e e e e e e e e e e e e e e e e e e e e e e e e e e e e e e e e e e :.:.:.:.:.:.:.:.:.:.:.",
":.:.:.:.:.:.:.:.:.:.:.e e e e e e e e e e e e e e e e e e e e e e e e e e e e e e e e e e e e e e e e e :.:.:.:.:.:.:.:.:.:.:.:.",
":.:.:.:.:.:.:.:.:.:.:.e e e e e e e e e e e e e e e e e e e e e e e e e e e e e e e e e e e e e e e e :.:.:.:.:.:.:.:.:.:.:.:.:.",
":.:.:.:.:.:.:.:.:.:.:.:.e e e e e e e e e e e e e e e e e e e 2 5 9 6 3 y e e e e e e e e e e e e e :.:.:.:.:.:.:.:.:.:.:.:.:.:.",
":.:.:.:.:.:.:.:.:.:.:.:.:.e e e e e e e e e e e e e e e :.:.:.0 n X m q 1 e e e e e e e e e e e e e :.:.:.:.:.:.:.:.:.:.:.:.:.:.",
":.:.:.:.:.:.:.:.:.:.:.:.:.:.e e e e e e e e e e e e e :.:.:.:.:.- ; = b 3 e e e e e e e e e e e e e :.:.:.:.:.:.:.:.:.:.:.:.:.:.",
":.:.:.:.:.:.:.:.:.:.:.:.:.:.:.e e e e e e e 1 4 8 x v :.:.:.:.:.< < -   4 e e e e e e e e e e e e e :.:.:.:.:.:.:.:.:.:.:.:.:.:.",
":.:.:.:.:.:.:.:.:.:.:.:.:.:.:.:.e e e e e e 5 c   o * @ < < < < < < : % 7 :.:.:.e e e e e e e e e :.:.:.:.:.:.:.:.:.:.:.:.:.:.:.",
":.:.:.:.:.:.:.:.:.:.:.:.:.:.:.:.:.e e e e e 0 . & > $ , < < < < < < # ; :.:.:.:.:.e e e e e e e :.:.:.:.:.:.:.:.:.:.:.:.:.:.:.:.",
":.:.:.:.:.:.:.:.:.:.:.:.:.:.:.:.:.:.e e e e w O + < < < < < < < < < < :.:.:.:.:.:.:.e e e e e :.:.:.:.:.:.:.:.:.:.:.:.:.:.:.:.:.",
":.:.:.:.:.:.:.:.:.:.:.:.:.:.:.:.:.:.:.:.:.:.:.:.:.< < < < < < < < < :.:.:.:.:.:.:.:.:.:.:.:.:.:.:.:.:.:.:.:.:.:.:.:.:.:.:.:.:.:.",
":.:.:.:.:.:.:.:.:.:.:.:.:.:.:.:.:.:.:.:.:.:.:.:.:.:.< < < < < < < :.:.:.:.:.:.:.:.:.:.:.:.:.:.:.:.:.:.:.:.:.:.:.:.:.:.:.:.:.:.:.",
":.:.:.:.:.:.:.:.:.:.:.:.:.:.:.:.:.:.:.:.:.:.:.:.:.:.< < < < < < :.:.:.:.:.:.:.:.:.:.:.:.:.:.:.:.:.:.:.:.:.:.:.:.:.:.:.:.:.:.:.:.",
":.:.:.:.:.:.:.:.:.:.:.:.:.:.:.:.:.:.:.:.:.:.:.:.:.:.:.:.:.:.:.:.:.:.:.:.:.:.:.:.:.:.:.:.:.:.:.:.:.:.:.:.:.:.:.:.:.:.:.:.:.:.:.:.",
":.:.:.:.:.:.:.:.:.:.:.:.:.:.:.:.:.:.:.:.:.:.:.:.:.:.:.:.:.:.:.:.:.:.:.:.:.:.:.:.:.:.:.:.:.:.:.:.:.:.:.:.:.:.:.:.:.:.:.:.:.:.:.:.",
":.:.:.:.:.:.:.:.:.:.:.:.:.:.:.:.:.:.:.:.:.:.:.:.:.:.:.:.:.:.:.:.:.:.:.:.:.:.:.:.:.:.:.:.:.:.:.:.:.:.:.:.:.:.:.:.:.:.:.:.:.:.:.:.",
":.:.:.:.:.:.:.:.:.:.:.:.:.:.:.:.:.:.:.:.:.:.:.:.:.:.:.:.:.:.:.:.:.:.:.:.:.:.:.:.:.:.:.:.:.:.:.:.:.:.:.:.:.:.:.:.:.:.:.:.:.:.:.:.",
":.:.:.:.:.:.:.:.:.:.:.:.:.:.:.:.:.:.:.:.:.:.:.:.:.:.:.:.:.:.:.:.:.:.:.:.:.:.:.:.:.:.:.:.:.:.:.:.:.:.:.:.:.:.:.:.:.:.:.:.:.:.:.:.",
":.:.:.:.:.:.:.:.:.:.:.:.:.:.:.:.:.:.:.:.:.:.:.:.:.:.:.:.:.:.:.:.:.:.:.:.:.:.:.:.:.:.:.:.:.:.:.:.:.:.:.:.:.:.:.:.:.:.:.:.:.:.:.:.",
":.:.:.:.:.:.:.:.:.:.:.:.:.:.:.:.:.:.:.:.:.:.:.:.:.:.:.:.:.:.:.:.:.:.:.:.:.:.:.:.:.:.:.:.:.:.:.:.:.:.:.:.:.:.:.:.:.:.:.:.:.:.:.:.",
":.:.:.:.:.:.:.:.:.:.:.:.:.:.:.:.:.:.:.:.:.:.:.:.:.:.:.:.:.:.:.:.:.:.:.:.:.:.:.:.:.:.:.:.:.:.:.:.:.:.:.:.:.:.:.:.:.:.:.:.:.:.:.:.",
":.:.:.:.:.:.:.:.:.:.:.:.:.:.:.:.:.:.:.:.:.:.:.:.:.:.:.:.:.:.:.:.:.:.:.:.:.:.:.:.:.:.:.:.:.:.:.:.:.:.:.:.:.:.:.:.:.:.:.:.:.:.:.:.",
":.:.:.:.:.:.:.:.:.:.:.:.:.:.:.:.:.:.:.:.:.:.:.:.:.:.:.:.:.:.:.:.:.:.:.:.:.:.:.:.:.:.:.:.:.:.:.:.:.:.:.:.:.:.:.:.:.:.:.:.:.:.:.:."
};
